%TF.GenerationSoftware,KiCad,Pcbnew,8.0.1*%
%TF.CreationDate,2024-08-06T23:31:19+08:00*%
%TF.ProjectId,ST-Link-V2.1,53542d4c-696e-46b2-9d56-322e312e6b69,rev?*%
%TF.SameCoordinates,Original*%
%TF.FileFunction,Legend,Bot*%
%TF.FilePolarity,Positive*%
%FSLAX46Y46*%
G04 Gerber Fmt 4.6, Leading zero omitted, Abs format (unit mm)*
G04 Created by KiCad (PCBNEW 8.0.1) date 2024-08-06 23:31:19*
%MOMM*%
%LPD*%
G01*
G04 APERTURE LIST*
%ADD10C,0.200000*%
%ADD11C,0.100000*%
%ADD12C,0.000000*%
%ADD13C,0.120000*%
G04 APERTURE END LIST*
D10*
G36*
X64917094Y-61569413D02*
G01*
X64967383Y-61579231D01*
X65014696Y-61600268D01*
X65017997Y-61602477D01*
X65053393Y-61640604D01*
X65068512Y-61687646D01*
X65069776Y-61708722D01*
X65063975Y-61757749D01*
X65039812Y-61803617D01*
X65020683Y-61819609D01*
X64975552Y-61838660D01*
X64925244Y-61847819D01*
X64870096Y-61850841D01*
X64863391Y-61850872D01*
X64812940Y-61848658D01*
X64760136Y-61839666D01*
X64711822Y-61819745D01*
X64705366Y-61815457D01*
X64671305Y-61777596D01*
X64656757Y-61730133D01*
X64655540Y-61708722D01*
X64664529Y-61658633D01*
X64694316Y-61616051D01*
X64710006Y-61603698D01*
X64757107Y-61581075D01*
X64805908Y-61570199D01*
X64857252Y-61566609D01*
X64863391Y-61566573D01*
X64917094Y-61569413D01*
G37*
G36*
X63381960Y-60120900D02*
G01*
X63377221Y-60171916D01*
X63359710Y-60219627D01*
X63348255Y-60236182D01*
X63307833Y-60267140D01*
X63257737Y-60277419D01*
X63253977Y-60277459D01*
X63203606Y-60267960D01*
X63163008Y-60236888D01*
X63160921Y-60234228D01*
X63138381Y-60189436D01*
X63129107Y-60139954D01*
X63127948Y-60111374D01*
X63127948Y-59956769D01*
X63381960Y-59956769D01*
X63381960Y-60120900D01*
G37*
G36*
X62959909Y-60079623D02*
G01*
X62956522Y-60111374D01*
X62954579Y-60129585D01*
X62933778Y-60174038D01*
X62932065Y-60176099D01*
X62889325Y-60203426D01*
X62849267Y-60208827D01*
X62801018Y-60197853D01*
X62774284Y-60174145D01*
X62754464Y-60127506D01*
X62748982Y-60078632D01*
X62748883Y-60070097D01*
X62748883Y-59956769D01*
X62959909Y-59956769D01*
X62959909Y-60079623D01*
G37*
G36*
X64807948Y-60236915D02*
G01*
X64756142Y-60231660D01*
X64708290Y-60212246D01*
X64691933Y-60199546D01*
X64663006Y-60157911D01*
X64651987Y-60107141D01*
X64651632Y-60094766D01*
X64659086Y-60044746D01*
X64683981Y-60000867D01*
X64704633Y-59981681D01*
X64750635Y-59957272D01*
X64798520Y-59945537D01*
X64807948Y-59944814D01*
X64807948Y-60236915D01*
G37*
G36*
X63237094Y-58290697D02*
G01*
X63287383Y-58300515D01*
X63334696Y-58321552D01*
X63337997Y-58323761D01*
X63373393Y-58361888D01*
X63388512Y-58408930D01*
X63389776Y-58430006D01*
X63383975Y-58479033D01*
X63359812Y-58524901D01*
X63340683Y-58540893D01*
X63295552Y-58559944D01*
X63245244Y-58569103D01*
X63190096Y-58572125D01*
X63183391Y-58572156D01*
X63132940Y-58569942D01*
X63080136Y-58560950D01*
X63031822Y-58541029D01*
X63025366Y-58536741D01*
X62991305Y-58498880D01*
X62976757Y-58451417D01*
X62975540Y-58430006D01*
X62984529Y-58379917D01*
X63014316Y-58337335D01*
X63030006Y-58324982D01*
X63077107Y-58302359D01*
X63125908Y-58291483D01*
X63177252Y-58287893D01*
X63183391Y-58287857D01*
X63237094Y-58290697D01*
G37*
G36*
X63127948Y-57777878D02*
G01*
X63076142Y-57772623D01*
X63028290Y-57753209D01*
X63011933Y-57740509D01*
X62983006Y-57698874D01*
X62971987Y-57648104D01*
X62971632Y-57635729D01*
X62979086Y-57585709D01*
X63003981Y-57541830D01*
X63024633Y-57522644D01*
X63070635Y-57498235D01*
X63118520Y-57486500D01*
X63127948Y-57485777D01*
X63127948Y-57777878D01*
G37*
G36*
X65055008Y-56655035D02*
G01*
X65068311Y-56667550D01*
X65087264Y-56714913D01*
X65089316Y-56743998D01*
X65084781Y-56792998D01*
X65068493Y-56839725D01*
X65065624Y-56844870D01*
X65034953Y-56884069D01*
X65005540Y-56905687D01*
X64958982Y-56923108D01*
X64930617Y-56925928D01*
X64923628Y-56889308D01*
X64920788Y-56859281D01*
X64919245Y-56809525D01*
X64919078Y-56785764D01*
X64922187Y-56736791D01*
X64936002Y-56687256D01*
X64968812Y-56650667D01*
X65007494Y-56641660D01*
X65055008Y-56655035D01*
G37*
G36*
X63237094Y-55831660D02*
G01*
X63287383Y-55841478D01*
X63334696Y-55862515D01*
X63337997Y-55864724D01*
X63373393Y-55902851D01*
X63388512Y-55949893D01*
X63389776Y-55970969D01*
X63383975Y-56019996D01*
X63359812Y-56065864D01*
X63340683Y-56081856D01*
X63295552Y-56100907D01*
X63245244Y-56110066D01*
X63190096Y-56113088D01*
X63183391Y-56113119D01*
X63132940Y-56110905D01*
X63080136Y-56101913D01*
X63031822Y-56081992D01*
X63025366Y-56077704D01*
X62991305Y-56039843D01*
X62976757Y-55992380D01*
X62975540Y-55970969D01*
X62984529Y-55920880D01*
X63014316Y-55878298D01*
X63030006Y-55865945D01*
X63077107Y-55843322D01*
X63125908Y-55832446D01*
X63177252Y-55828856D01*
X63183391Y-55828820D01*
X63237094Y-55831660D01*
G37*
G36*
X64914764Y-55040725D02*
G01*
X64964367Y-55050275D01*
X65012366Y-55070740D01*
X65015799Y-55072889D01*
X65052697Y-55109086D01*
X65068933Y-55156130D01*
X65069776Y-55171563D01*
X65059445Y-55221611D01*
X65028450Y-55260627D01*
X65015799Y-55269748D01*
X64968847Y-55290883D01*
X64920117Y-55301044D01*
X64868797Y-55304397D01*
X64862658Y-55304431D01*
X64810237Y-55301687D01*
X64760510Y-55292204D01*
X64712677Y-55271882D01*
X64709274Y-55269748D01*
X64672542Y-55233838D01*
X64656380Y-55186801D01*
X64655540Y-55171318D01*
X64665825Y-55121343D01*
X64696680Y-55082120D01*
X64709274Y-55072889D01*
X64756031Y-55051605D01*
X64804860Y-55041373D01*
X64856475Y-55037996D01*
X64862658Y-55037962D01*
X64914764Y-55040725D01*
G37*
G36*
X63127948Y-53679483D02*
G01*
X63076142Y-53674228D01*
X63028290Y-53654814D01*
X63011933Y-53642114D01*
X62983006Y-53600479D01*
X62971987Y-53549709D01*
X62971632Y-53537334D01*
X62979086Y-53487314D01*
X63003981Y-53443435D01*
X63024633Y-53424249D01*
X63070635Y-53399840D01*
X63118520Y-53388105D01*
X63127948Y-53387382D01*
X63127948Y-53679483D01*
G37*
G36*
X63374145Y-52632414D02*
G01*
X63370522Y-52687864D01*
X63359652Y-52736886D01*
X63338357Y-52785040D01*
X63307598Y-52824798D01*
X63298429Y-52833426D01*
X63256221Y-52862704D01*
X63205312Y-52883618D01*
X63153628Y-52895055D01*
X63104026Y-52899760D01*
X63077390Y-52900348D01*
X63020054Y-52897996D01*
X62968213Y-52890937D01*
X62914678Y-52876756D01*
X62868623Y-52856169D01*
X62835101Y-52833426D01*
X62799090Y-52795767D01*
X62773368Y-52749712D01*
X62759302Y-52702526D01*
X62753112Y-52648913D01*
X62752791Y-52632414D01*
X62752791Y-52565736D01*
X63374145Y-52565736D01*
X63374145Y-52632414D01*
G37*
G36*
X65665465Y-62148096D02*
G01*
X62368128Y-62148096D01*
X62368128Y-61657920D01*
X64479685Y-61657920D01*
X64483886Y-61708722D01*
X64484015Y-61710279D01*
X64500293Y-61759952D01*
X64516322Y-61783949D01*
X64555458Y-61815812D01*
X64604859Y-61835102D01*
X64627208Y-61839881D01*
X64627208Y-61852862D01*
X64495317Y-61864549D01*
X64495317Y-62036985D01*
X65160390Y-62036985D01*
X65218800Y-62034755D01*
X65272212Y-62028064D01*
X65320628Y-62016914D01*
X65372131Y-61997645D01*
X65416438Y-61971954D01*
X65447864Y-61945638D01*
X65479646Y-61907570D01*
X65505383Y-61861878D01*
X65525075Y-61808561D01*
X65536868Y-61758305D01*
X65544462Y-61702754D01*
X65547515Y-61654501D01*
X65554354Y-61441521D01*
X65390223Y-61434682D01*
X65383384Y-61668178D01*
X65378086Y-61718116D01*
X65361326Y-61767764D01*
X65330139Y-61807641D01*
X65285523Y-61833985D01*
X65238110Y-61846650D01*
X65187485Y-61850830D01*
X65181395Y-61850872D01*
X65098108Y-61850872D01*
X65098108Y-61835729D01*
X65148243Y-61822540D01*
X65190850Y-61797089D01*
X65208750Y-61778576D01*
X65233962Y-61732601D01*
X65244334Y-61683966D01*
X65245631Y-61656454D01*
X65240898Y-61600131D01*
X65226697Y-61549558D01*
X65203030Y-61504735D01*
X65169897Y-61465663D01*
X65146713Y-61445917D01*
X65099345Y-61416605D01*
X65052233Y-61397211D01*
X64999110Y-61383106D01*
X64950250Y-61375392D01*
X64897215Y-61371352D01*
X64863391Y-61370690D01*
X64808174Y-61372527D01*
X64757012Y-61378037D01*
X64700969Y-61389497D01*
X64650766Y-61406247D01*
X64606402Y-61428286D01*
X64580069Y-61445917D01*
X64540955Y-61481774D01*
X64511448Y-61523522D01*
X64491547Y-61571159D01*
X64481254Y-61624688D01*
X64479685Y-61657920D01*
X62368128Y-61657920D01*
X62368128Y-60522923D01*
X62815317Y-60522923D01*
X62815317Y-60720027D01*
X63393684Y-60900767D01*
X63393684Y-60916137D01*
X62815317Y-61077355D01*
X62815317Y-61274459D01*
X63479658Y-61069783D01*
X63527130Y-61053866D01*
X63577957Y-61034190D01*
X63623875Y-61013321D01*
X63670343Y-60988011D01*
X63690020Y-60975505D01*
X64479685Y-60975505D01*
X64484112Y-61029987D01*
X64497393Y-61077904D01*
X64522917Y-61123965D01*
X64550516Y-61154047D01*
X64594975Y-61184626D01*
X64642248Y-61203406D01*
X64696817Y-61214279D01*
X64750551Y-61217306D01*
X65230000Y-61217306D01*
X65230000Y-61031193D01*
X64795247Y-61031193D01*
X64745794Y-61026718D01*
X64698983Y-61008927D01*
X64691933Y-61004082D01*
X64661546Y-60963708D01*
X64655540Y-60926657D01*
X64665486Y-60872125D01*
X64695324Y-60830987D01*
X64745054Y-60803243D01*
X64792754Y-60791626D01*
X64850603Y-60786842D01*
X64863391Y-60786706D01*
X65230000Y-60786706D01*
X65230000Y-60600593D01*
X64495317Y-60600593D01*
X64495317Y-60766678D01*
X64628429Y-60783840D01*
X64628429Y-60804535D01*
X64577551Y-60816385D01*
X64531736Y-60840715D01*
X64516566Y-60854605D01*
X64491355Y-60897341D01*
X64480982Y-60946548D01*
X64479685Y-60975505D01*
X63690020Y-60975505D01*
X63691172Y-60974773D01*
X63733008Y-60943101D01*
X63768392Y-60908260D01*
X63800139Y-60865833D01*
X63810607Y-60847766D01*
X63832498Y-60799004D01*
X63847346Y-60750304D01*
X63857597Y-60697046D01*
X63860676Y-60671912D01*
X63874354Y-60536601D01*
X63714131Y-60529762D01*
X63700453Y-60655547D01*
X63691117Y-60704874D01*
X63673940Y-60751143D01*
X63666015Y-60765945D01*
X63634978Y-60806217D01*
X63595454Y-60838380D01*
X63585659Y-60844591D01*
X63550000Y-60863268D01*
X63550000Y-60767411D01*
X62815317Y-60522923D01*
X62368128Y-60522923D01*
X62368128Y-59775296D01*
X62580844Y-59775296D01*
X62580844Y-59933321D01*
X62580844Y-60070097D01*
X62580844Y-60076936D01*
X62583068Y-60132183D01*
X62589740Y-60182518D01*
X62603145Y-60235034D01*
X62622605Y-60280865D01*
X62644103Y-60314829D01*
X62679075Y-60351694D01*
X62720734Y-60378026D01*
X62769079Y-60393826D01*
X62824110Y-60399092D01*
X62876924Y-60393934D01*
X62927042Y-60376102D01*
X62968143Y-60345534D01*
X62978715Y-60333879D01*
X63007309Y-60287907D01*
X63023989Y-60237356D01*
X63031614Y-60185122D01*
X63032132Y-60170969D01*
X63054919Y-60170969D01*
X63054919Y-60202721D01*
X63057829Y-60255505D01*
X63068282Y-60309017D01*
X63086337Y-60355263D01*
X63115736Y-60398604D01*
X63153768Y-60432017D01*
X63199722Y-60454494D01*
X63253597Y-60466037D01*
X63286950Y-60467725D01*
X63339163Y-60463891D01*
X63392194Y-60450122D01*
X63438142Y-60426339D01*
X63477007Y-60392542D01*
X63481367Y-60387613D01*
X63511394Y-60343481D01*
X63530630Y-60297979D01*
X63543297Y-60246048D01*
X63548927Y-60196420D01*
X63550000Y-60160711D01*
X63550000Y-60093300D01*
X64479685Y-60093300D01*
X64479770Y-60094766D01*
X64482940Y-60149328D01*
X64492703Y-60200359D01*
X64512319Y-60253578D01*
X64540795Y-60299996D01*
X64572254Y-60334368D01*
X64616784Y-60367582D01*
X64661372Y-60389558D01*
X64711884Y-60405541D01*
X64768322Y-60415530D01*
X64819879Y-60419276D01*
X64841653Y-60419609D01*
X64890502Y-60418571D01*
X64936908Y-60415457D01*
X64936908Y-59954104D01*
X64952666Y-59958376D01*
X64996734Y-59983878D01*
X65015066Y-60000976D01*
X65043917Y-60043113D01*
X65060747Y-60089397D01*
X65068921Y-60143603D01*
X65069776Y-60170237D01*
X65068494Y-60219452D01*
X65064647Y-60267934D01*
X65058541Y-60316538D01*
X65050481Y-60366120D01*
X65226336Y-60383949D01*
X65234407Y-60333242D01*
X65240283Y-60282108D01*
X65242212Y-60256210D01*
X65244666Y-60204894D01*
X65245631Y-60153872D01*
X65243210Y-60096895D01*
X65235947Y-60044116D01*
X65223842Y-59995534D01*
X65202925Y-59942778D01*
X65175036Y-59896067D01*
X65146468Y-59861758D01*
X65106151Y-59826813D01*
X65059755Y-59799098D01*
X65007279Y-59778613D01*
X64958905Y-59767066D01*
X64906309Y-59760538D01*
X64861193Y-59758932D01*
X64806609Y-59761067D01*
X64755973Y-59767471D01*
X64700420Y-59780792D01*
X64650551Y-59800260D01*
X64606367Y-59825877D01*
X64580069Y-59846371D01*
X64545954Y-59881693D01*
X64515075Y-59929306D01*
X64496253Y-59975606D01*
X64484489Y-60026971D01*
X64479784Y-60083402D01*
X64479685Y-60093300D01*
X63550000Y-60093300D01*
X63550000Y-59946999D01*
X63550000Y-59775296D01*
X62580844Y-59775296D01*
X62368128Y-59775296D01*
X62368128Y-58933635D01*
X64260844Y-58933635D01*
X64260844Y-59102651D01*
X64260844Y-59192777D01*
X64686803Y-59264096D01*
X64686803Y-59266782D01*
X64686803Y-59275087D01*
X64260844Y-59346650D01*
X64260844Y-59436531D01*
X64260844Y-59605547D01*
X65230000Y-59605547D01*
X65230000Y-59436531D01*
X64432791Y-59436531D01*
X64432791Y-59415282D01*
X64886106Y-59332728D01*
X64886106Y-59246266D01*
X64886106Y-59206454D01*
X64432791Y-59123900D01*
X64432791Y-59102651D01*
X65230000Y-59102651D01*
X65230000Y-58933635D01*
X64260844Y-58933635D01*
X62368128Y-58933635D01*
X62368128Y-58758269D01*
X62518318Y-58758269D01*
X63550000Y-58758269D01*
X63556838Y-58599023D01*
X63418108Y-58573201D01*
X63418108Y-58557013D01*
X63468243Y-58543824D01*
X63510850Y-58518373D01*
X63528750Y-58499860D01*
X63553962Y-58453885D01*
X63564334Y-58405250D01*
X63565631Y-58377739D01*
X63560898Y-58321415D01*
X63546697Y-58270842D01*
X63523030Y-58226019D01*
X63489897Y-58186947D01*
X63466713Y-58167201D01*
X63419345Y-58137889D01*
X63372233Y-58118495D01*
X63319110Y-58104390D01*
X63270250Y-58096676D01*
X63243798Y-58094661D01*
X64651632Y-58094661D01*
X64651632Y-58805163D01*
X64819672Y-58805163D01*
X64819672Y-58094661D01*
X64651632Y-58094661D01*
X63243798Y-58094661D01*
X63217215Y-58092636D01*
X63183391Y-58091974D01*
X63128174Y-58093811D01*
X63077012Y-58099321D01*
X63020969Y-58110781D01*
X62970766Y-58127531D01*
X62926402Y-58149570D01*
X62900069Y-58167201D01*
X62860955Y-58203058D01*
X62831448Y-58244806D01*
X62811547Y-58292443D01*
X62801254Y-58345972D01*
X62799685Y-58379204D01*
X62804015Y-58429443D01*
X62804207Y-58430006D01*
X62820293Y-58477206D01*
X62836322Y-58500348D01*
X62875458Y-58531116D01*
X62924859Y-58549724D01*
X62947208Y-58554326D01*
X62947208Y-58572156D01*
X62518318Y-58572156D01*
X62518318Y-58758269D01*
X62368128Y-58758269D01*
X62368128Y-57634263D01*
X62799685Y-57634263D01*
X62799770Y-57635729D01*
X62802940Y-57690291D01*
X62812703Y-57741322D01*
X62832319Y-57794541D01*
X62860795Y-57840959D01*
X62892254Y-57875331D01*
X62936784Y-57908545D01*
X62981372Y-57930521D01*
X63031884Y-57946504D01*
X63088322Y-57956493D01*
X63139879Y-57960239D01*
X63161653Y-57960572D01*
X63210502Y-57959534D01*
X63256908Y-57956420D01*
X63256908Y-57495067D01*
X63272666Y-57499339D01*
X63316734Y-57524841D01*
X63335066Y-57541939D01*
X63363917Y-57584076D01*
X63380747Y-57630360D01*
X63388921Y-57684566D01*
X63389776Y-57711200D01*
X63388494Y-57760415D01*
X63384647Y-57808897D01*
X63378541Y-57857501D01*
X63370481Y-57907083D01*
X63546336Y-57924912D01*
X63554407Y-57874205D01*
X63560283Y-57823071D01*
X63562212Y-57797173D01*
X63564666Y-57745857D01*
X63565086Y-57723656D01*
X64479685Y-57723656D01*
X64480651Y-57774325D01*
X64483105Y-57820865D01*
X64487379Y-57872827D01*
X64492939Y-57924093D01*
X64493363Y-57927599D01*
X64665310Y-57907815D01*
X64661096Y-57856097D01*
X64658137Y-57807325D01*
X64657739Y-57798394D01*
X64655903Y-57748077D01*
X64655540Y-57719504D01*
X64656564Y-57665597D01*
X64660104Y-57616214D01*
X64668485Y-57568562D01*
X64694135Y-57526247D01*
X64710983Y-57521667D01*
X64737606Y-57531681D01*
X64753237Y-57562944D01*
X64810390Y-57760048D01*
X64827340Y-57809175D01*
X64850162Y-57854923D01*
X64880114Y-57894501D01*
X64886106Y-57900488D01*
X64926635Y-57928767D01*
X64975682Y-57943994D01*
X65013112Y-57946894D01*
X65068204Y-57941139D01*
X65115755Y-57923874D01*
X65155765Y-57895099D01*
X65188234Y-57854815D01*
X65210599Y-57809902D01*
X65227470Y-57755732D01*
X65237560Y-57701934D01*
X65242885Y-57651907D01*
X65245407Y-57597157D01*
X65245631Y-57573935D01*
X65245130Y-57523870D01*
X65243422Y-57473041D01*
X65240502Y-57426657D01*
X65235488Y-57377005D01*
X65227599Y-57326025D01*
X65225115Y-57313572D01*
X65047794Y-57335554D01*
X65054139Y-57386922D01*
X65059906Y-57437255D01*
X65064403Y-57481123D01*
X65068260Y-57530954D01*
X65069776Y-57573935D01*
X65068464Y-57625245D01*
X65063427Y-57673972D01*
X65056343Y-57703872D01*
X65024835Y-57742244D01*
X65012379Y-57744173D01*
X64986001Y-57733914D01*
X64969148Y-57700942D01*
X64899539Y-57470865D01*
X64881719Y-57425068D01*
X64854110Y-57381884D01*
X64833593Y-57361200D01*
X64789281Y-57336155D01*
X64737670Y-57325458D01*
X64715136Y-57324563D01*
X64665912Y-57329297D01*
X64616811Y-57346298D01*
X64575343Y-57375665D01*
X64541508Y-57417396D01*
X64537815Y-57423482D01*
X64515165Y-57471656D01*
X64500178Y-57520743D01*
X64489279Y-57577025D01*
X64483319Y-57629424D01*
X64480196Y-57686820D01*
X64479685Y-57723656D01*
X63565086Y-57723656D01*
X63565631Y-57694836D01*
X63563210Y-57637858D01*
X63555947Y-57585079D01*
X63543842Y-57536497D01*
X63522925Y-57483741D01*
X63495036Y-57437030D01*
X63466468Y-57402721D01*
X63426151Y-57367776D01*
X63379755Y-57340061D01*
X63327279Y-57319576D01*
X63278905Y-57308029D01*
X63226309Y-57301501D01*
X63181193Y-57299895D01*
X63126609Y-57302030D01*
X63075973Y-57308434D01*
X63020420Y-57321755D01*
X62970551Y-57341223D01*
X62926367Y-57366840D01*
X62900069Y-57387334D01*
X62865954Y-57422656D01*
X62835075Y-57470269D01*
X62816253Y-57516569D01*
X62804489Y-57567934D01*
X62799784Y-57624365D01*
X62799685Y-57634263D01*
X62368128Y-57634263D01*
X62368128Y-56877110D01*
X62799685Y-56877110D01*
X62804112Y-56931592D01*
X62817393Y-56979509D01*
X62842917Y-57025570D01*
X62870516Y-57055652D01*
X62914975Y-57086231D01*
X62962248Y-57105011D01*
X63016817Y-57115884D01*
X63070551Y-57118911D01*
X63550000Y-57118911D01*
X63550000Y-56932798D01*
X63115247Y-56932798D01*
X63065794Y-56928323D01*
X63018983Y-56910532D01*
X63011933Y-56905687D01*
X62981546Y-56865313D01*
X62975540Y-56828262D01*
X62985486Y-56773730D01*
X63015324Y-56732592D01*
X63065054Y-56704848D01*
X63112754Y-56693231D01*
X63170603Y-56688447D01*
X63183391Y-56688311D01*
X63550000Y-56688311D01*
X63550000Y-56555687D01*
X64479685Y-56555687D01*
X64481884Y-56714445D01*
X64484542Y-56773782D01*
X64490838Y-56828146D01*
X64500771Y-56877538D01*
X64517492Y-56930243D01*
X64539451Y-56975786D01*
X64561751Y-57008269D01*
X64598788Y-57045765D01*
X64642581Y-57074052D01*
X64693129Y-57093129D01*
X64741833Y-57102151D01*
X64786210Y-57104501D01*
X65061960Y-57104501D01*
X65077348Y-57205617D01*
X65230000Y-57205617D01*
X65236838Y-56944521D01*
X65074173Y-56932721D01*
X65074173Y-56915043D01*
X65100744Y-56911956D01*
X65148514Y-56895162D01*
X65159658Y-56888834D01*
X65197454Y-56856594D01*
X65224382Y-56813607D01*
X65239634Y-56764084D01*
X65245299Y-56714391D01*
X65245631Y-56697836D01*
X65241983Y-56643034D01*
X65231038Y-56594644D01*
X65210002Y-56547868D01*
X65187257Y-56517096D01*
X65145979Y-56483093D01*
X65100631Y-56463258D01*
X65047516Y-56453624D01*
X65021416Y-56452616D01*
X64969499Y-56456660D01*
X64917006Y-56471185D01*
X64871809Y-56496273D01*
X64833910Y-56531925D01*
X64829685Y-56537124D01*
X64800407Y-56583805D01*
X64781650Y-56631914D01*
X64769298Y-56686801D01*
X64763809Y-56739243D01*
X64762763Y-56776971D01*
X64762981Y-56785764D01*
X64763978Y-56826078D01*
X64768344Y-56874759D01*
X64769113Y-56880286D01*
X64777462Y-56925959D01*
X64772288Y-56925959D01*
X64722640Y-56915011D01*
X64685415Y-56879199D01*
X64683628Y-56876133D01*
X64664959Y-56827669D01*
X64656248Y-56779526D01*
X64652609Y-56728122D01*
X64647725Y-56542009D01*
X64479685Y-56555687D01*
X63550000Y-56555687D01*
X63550000Y-56502198D01*
X62815317Y-56502198D01*
X62815317Y-56668283D01*
X62948429Y-56685445D01*
X62948429Y-56706140D01*
X62897551Y-56717990D01*
X62851736Y-56742320D01*
X62836566Y-56756210D01*
X62811355Y-56798946D01*
X62800982Y-56848153D01*
X62799685Y-56877110D01*
X62368128Y-56877110D01*
X62368128Y-55920167D01*
X62799685Y-55920167D01*
X62803886Y-55970969D01*
X62804015Y-55972526D01*
X62820293Y-56022199D01*
X62836322Y-56046196D01*
X62875458Y-56078059D01*
X62924859Y-56097349D01*
X62947208Y-56102128D01*
X62947208Y-56115109D01*
X62815317Y-56126796D01*
X62815317Y-56299232D01*
X63480390Y-56299232D01*
X63538800Y-56297002D01*
X63592212Y-56290311D01*
X63640628Y-56279161D01*
X63692131Y-56259892D01*
X63736438Y-56234201D01*
X63767864Y-56207885D01*
X63799646Y-56169818D01*
X63825383Y-56124125D01*
X63845075Y-56070808D01*
X63856868Y-56020552D01*
X63864462Y-55965001D01*
X63867515Y-55916748D01*
X63874354Y-55703768D01*
X63710223Y-55696929D01*
X63703384Y-55930425D01*
X63698086Y-55980363D01*
X63681326Y-56030011D01*
X63650139Y-56069888D01*
X63605523Y-56096232D01*
X63558110Y-56108897D01*
X63507485Y-56113077D01*
X63501395Y-56113119D01*
X63418108Y-56113119D01*
X63418108Y-56097976D01*
X63468243Y-56084787D01*
X63510850Y-56059336D01*
X63528750Y-56040823D01*
X63553962Y-55994848D01*
X63564334Y-55946213D01*
X63565631Y-55918702D01*
X63560898Y-55862378D01*
X63546697Y-55811805D01*
X63523030Y-55766982D01*
X63489897Y-55727910D01*
X63466713Y-55708164D01*
X63419345Y-55678852D01*
X63372233Y-55659458D01*
X63319110Y-55645353D01*
X63270250Y-55637639D01*
X63227769Y-55634403D01*
X64198318Y-55634403D01*
X64198318Y-55852756D01*
X64198318Y-56025924D01*
X64919567Y-56025924D01*
X64969866Y-56029645D01*
X64993817Y-56035450D01*
X65032846Y-56066010D01*
X65036559Y-56072575D01*
X65048621Y-56120264D01*
X65050237Y-56154396D01*
X65046562Y-56204107D01*
X65037884Y-56252354D01*
X65025711Y-56301079D01*
X65024103Y-56306803D01*
X65216566Y-56328053D01*
X65228227Y-56277770D01*
X65236709Y-56229077D01*
X65238548Y-56215457D01*
X65243390Y-56166563D01*
X65245520Y-56114771D01*
X65245631Y-56099441D01*
X65242969Y-56050572D01*
X65233135Y-56000373D01*
X65213023Y-55951990D01*
X65179084Y-55909018D01*
X65169916Y-55901116D01*
X65126273Y-55874616D01*
X65078793Y-55857639D01*
X65022642Y-55846459D01*
X64967610Y-55841490D01*
X64927383Y-55840544D01*
X64370265Y-55840544D01*
X64370265Y-55634403D01*
X64198318Y-55634403D01*
X63227769Y-55634403D01*
X63217215Y-55633599D01*
X63183391Y-55632937D01*
X63128174Y-55634774D01*
X63077012Y-55640284D01*
X63020969Y-55651744D01*
X62970766Y-55668494D01*
X62926402Y-55690533D01*
X62900069Y-55708164D01*
X62860955Y-55744021D01*
X62831448Y-55785769D01*
X62811547Y-55833406D01*
X62801254Y-55886935D01*
X62799685Y-55920167D01*
X62368128Y-55920167D01*
X62368128Y-55211130D01*
X62479239Y-55211130D01*
X62488614Y-55261600D01*
X62512456Y-55296859D01*
X62555887Y-55323521D01*
X62598429Y-55329832D01*
X62649159Y-55320526D01*
X62661940Y-55312002D01*
X62815317Y-55312002D01*
X62856594Y-55312002D01*
X63378053Y-55312002D01*
X63378053Y-55527669D01*
X63550000Y-55527669D01*
X63550000Y-55298325D01*
X63550000Y-55171318D01*
X64479685Y-55171318D01*
X64483197Y-55227813D01*
X64493733Y-55279327D01*
X64511293Y-55325861D01*
X64540657Y-55373856D01*
X64579581Y-55415073D01*
X64619970Y-55444456D01*
X64666214Y-55467761D01*
X64718316Y-55484985D01*
X64766206Y-55494695D01*
X64818164Y-55500184D01*
X64862658Y-55501535D01*
X64917670Y-55499424D01*
X64968675Y-55493091D01*
X65024591Y-55479919D01*
X65074737Y-55460668D01*
X65119113Y-55435337D01*
X65145491Y-55415073D01*
X65184511Y-55373856D01*
X65213946Y-55325861D01*
X65231549Y-55279327D01*
X65242111Y-55227813D01*
X65245631Y-55171318D01*
X65242111Y-55114741D01*
X65231549Y-55063161D01*
X65213946Y-55016578D01*
X65184511Y-54968548D01*
X65145491Y-54927320D01*
X65104962Y-54897936D01*
X65058663Y-54874632D01*
X65006594Y-54857407D01*
X64948754Y-54846262D01*
X64896146Y-54841618D01*
X64862658Y-54840858D01*
X64807447Y-54842969D01*
X64756303Y-54849301D01*
X64700298Y-54862473D01*
X64650149Y-54881725D01*
X64605856Y-54907055D01*
X64579581Y-54927320D01*
X64540657Y-54968548D01*
X64511293Y-55016578D01*
X64493733Y-55063161D01*
X64483197Y-55114741D01*
X64479685Y-55171318D01*
X63550000Y-55171318D01*
X63550000Y-55126622D01*
X63550000Y-54857222D01*
X63378053Y-54857222D01*
X63378053Y-55126622D01*
X62987264Y-55126622D01*
X62987264Y-54898499D01*
X62815317Y-54898499D01*
X62815317Y-55312002D01*
X62661940Y-55312002D01*
X62684647Y-55296859D01*
X62711309Y-55253505D01*
X62717620Y-55211130D01*
X62708314Y-55160469D01*
X62684647Y-55125157D01*
X62641018Y-55098495D01*
X62598429Y-55092184D01*
X62547769Y-55101490D01*
X62512456Y-55125157D01*
X62485597Y-55168588D01*
X62479239Y-55211130D01*
X62368128Y-55211130D01*
X62368128Y-54444940D01*
X62799685Y-54444940D01*
X62800651Y-54495609D01*
X62803105Y-54542149D01*
X62807379Y-54594112D01*
X62812939Y-54645377D01*
X62813363Y-54648883D01*
X62985310Y-54629099D01*
X62981096Y-54577381D01*
X62978137Y-54528609D01*
X62977739Y-54519678D01*
X62975903Y-54469361D01*
X62975540Y-54440788D01*
X62976564Y-54386881D01*
X62980104Y-54337498D01*
X62988485Y-54289846D01*
X63014135Y-54247531D01*
X63030983Y-54242951D01*
X63057606Y-54252965D01*
X63073237Y-54284228D01*
X63130390Y-54481332D01*
X63147340Y-54530459D01*
X63170162Y-54576207D01*
X63200114Y-54615785D01*
X63206106Y-54621772D01*
X63246635Y-54650051D01*
X63295682Y-54665278D01*
X63333112Y-54668178D01*
X63388204Y-54662423D01*
X63435755Y-54645158D01*
X63475765Y-54616383D01*
X63508234Y-54576099D01*
X63530599Y-54531186D01*
X63547470Y-54477016D01*
X63557560Y-54423218D01*
X63559771Y-54402442D01*
X64479685Y-54402442D01*
X64482479Y-54456847D01*
X64490860Y-54507222D01*
X64506966Y-54559077D01*
X64524382Y-54595882D01*
X64552304Y-54637510D01*
X64590171Y-54675063D01*
X64635241Y-54703456D01*
X64650167Y-54710188D01*
X64758855Y-54575366D01*
X64717364Y-54543728D01*
X64685854Y-54504683D01*
X64682407Y-54498918D01*
X64663123Y-54453251D01*
X64655645Y-54403720D01*
X64655540Y-54396824D01*
X64660597Y-54347551D01*
X64680014Y-54298184D01*
X64707320Y-54265177D01*
X64752119Y-54236601D01*
X64803987Y-54221992D01*
X64854110Y-54218283D01*
X64903722Y-54222099D01*
X64952017Y-54235516D01*
X64996344Y-54261753D01*
X65014822Y-54279344D01*
X65043802Y-54322668D01*
X65060707Y-54370225D01*
X65068435Y-54419310D01*
X65069776Y-54453244D01*
X65068616Y-54502398D01*
X65065136Y-54551674D01*
X65059396Y-54600340D01*
X65051946Y-54647662D01*
X65225115Y-54666713D01*
X65234258Y-54617452D01*
X65240315Y-54566695D01*
X65241479Y-54551919D01*
X65244317Y-54500761D01*
X65245566Y-54450726D01*
X65245631Y-54436636D01*
X65243210Y-54376783D01*
X65235947Y-54321331D01*
X65223842Y-54270280D01*
X65206896Y-54223629D01*
X65180168Y-54173458D01*
X65146468Y-54129623D01*
X65106151Y-54092769D01*
X65059755Y-54063540D01*
X65007279Y-54041936D01*
X64958905Y-54029757D01*
X64906309Y-54022873D01*
X64861193Y-54021179D01*
X64806609Y-54023588D01*
X64755973Y-54030815D01*
X64700420Y-54045847D01*
X64650551Y-54067818D01*
X64606367Y-54096726D01*
X64580069Y-54119853D01*
X64545954Y-54159927D01*
X64518898Y-54205960D01*
X64498900Y-54257952D01*
X64487626Y-54305831D01*
X64481254Y-54357849D01*
X64479685Y-54402442D01*
X63559771Y-54402442D01*
X63562885Y-54373191D01*
X63565407Y-54318441D01*
X63565631Y-54295219D01*
X63565130Y-54245154D01*
X63563422Y-54194325D01*
X63560502Y-54147941D01*
X63555488Y-54098289D01*
X63547599Y-54047309D01*
X63545115Y-54034856D01*
X63367794Y-54056838D01*
X63374139Y-54108206D01*
X63379906Y-54158539D01*
X63384403Y-54202407D01*
X63388260Y-54252238D01*
X63389776Y-54295219D01*
X63388464Y-54346529D01*
X63383427Y-54395256D01*
X63376343Y-54425157D01*
X63344835Y-54463528D01*
X63332379Y-54465457D01*
X63306001Y-54455198D01*
X63289148Y-54422226D01*
X63219539Y-54192149D01*
X63201719Y-54146352D01*
X63174110Y-54103168D01*
X63153593Y-54082484D01*
X63109281Y-54057439D01*
X63057670Y-54046742D01*
X63035136Y-54045847D01*
X62985912Y-54050581D01*
X62936811Y-54067582D01*
X62895343Y-54096949D01*
X62861508Y-54138680D01*
X62857815Y-54144766D01*
X62835165Y-54192940D01*
X62820178Y-54242027D01*
X62809279Y-54298309D01*
X62803319Y-54350708D01*
X62800196Y-54408104D01*
X62799685Y-54444940D01*
X62368128Y-54444940D01*
X62368128Y-53535868D01*
X62799685Y-53535868D01*
X62799770Y-53537334D01*
X62802940Y-53591896D01*
X62812703Y-53642927D01*
X62832319Y-53696146D01*
X62860795Y-53742564D01*
X62892254Y-53776936D01*
X62936784Y-53810150D01*
X62981372Y-53832126D01*
X63031884Y-53848109D01*
X63088322Y-53858098D01*
X63139879Y-53861844D01*
X63161653Y-53862177D01*
X63210502Y-53861139D01*
X63256908Y-53858025D01*
X63256908Y-53396672D01*
X63272666Y-53400944D01*
X63316734Y-53426446D01*
X63335066Y-53443545D01*
X63363917Y-53485681D01*
X63380747Y-53531965D01*
X63388921Y-53586171D01*
X63389776Y-53612805D01*
X63388494Y-53662020D01*
X63384647Y-53710502D01*
X63378541Y-53759106D01*
X63370481Y-53808688D01*
X63546336Y-53826517D01*
X63554407Y-53775810D01*
X63560283Y-53724676D01*
X63562212Y-53698778D01*
X63564666Y-53647462D01*
X63565631Y-53596441D01*
X63564583Y-53571772D01*
X64159239Y-53571772D01*
X64168614Y-53622242D01*
X64192456Y-53657501D01*
X64235887Y-53684163D01*
X64278429Y-53690474D01*
X64329159Y-53681168D01*
X64341940Y-53672644D01*
X64495317Y-53672644D01*
X64536594Y-53672644D01*
X65058053Y-53672644D01*
X65058053Y-53888311D01*
X65230000Y-53888311D01*
X65230000Y-53658967D01*
X65230000Y-53487264D01*
X65230000Y-53217864D01*
X65058053Y-53217864D01*
X65058053Y-53487264D01*
X64667264Y-53487264D01*
X64667264Y-53259141D01*
X64495317Y-53259141D01*
X64495317Y-53672644D01*
X64341940Y-53672644D01*
X64364647Y-53657501D01*
X64391309Y-53614147D01*
X64397620Y-53571772D01*
X64388314Y-53521111D01*
X64364647Y-53485799D01*
X64321018Y-53459137D01*
X64278429Y-53452826D01*
X64227769Y-53462132D01*
X64192456Y-53485799D01*
X64165597Y-53529230D01*
X64159239Y-53571772D01*
X63564583Y-53571772D01*
X63563210Y-53539463D01*
X63555947Y-53486684D01*
X63543842Y-53438102D01*
X63522925Y-53385346D01*
X63495036Y-53338635D01*
X63466468Y-53304326D01*
X63426151Y-53269381D01*
X63379755Y-53241666D01*
X63327279Y-53221181D01*
X63278905Y-53209634D01*
X63226309Y-53203107D01*
X63181193Y-53201500D01*
X63126609Y-53203635D01*
X63075973Y-53210039D01*
X63020420Y-53223360D01*
X62970551Y-53242828D01*
X62926367Y-53268445D01*
X62900069Y-53288939D01*
X62865954Y-53324261D01*
X62835075Y-53371874D01*
X62816253Y-53418174D01*
X62804489Y-53469539D01*
X62799784Y-53525971D01*
X62799685Y-53535868D01*
X62368128Y-53535868D01*
X62368128Y-52384508D01*
X62580844Y-52384508D01*
X62580844Y-52542533D01*
X62580844Y-52632414D01*
X62582790Y-52687899D01*
X62588629Y-52739805D01*
X62598361Y-52788130D01*
X62620257Y-52853907D01*
X62650911Y-52911629D01*
X62690324Y-52961298D01*
X62738495Y-53002911D01*
X62795425Y-53036471D01*
X62861113Y-53061976D01*
X62909770Y-53074505D01*
X62962321Y-53083454D01*
X63018764Y-53088824D01*
X63079099Y-53090614D01*
X63136122Y-53088824D01*
X63189467Y-53083454D01*
X63239132Y-53074505D01*
X63306732Y-53054369D01*
X63366054Y-53026179D01*
X63417099Y-52989935D01*
X63459866Y-52945636D01*
X63494356Y-52893284D01*
X63520568Y-52832876D01*
X63538503Y-52764415D01*
X63545861Y-52714299D01*
X63549540Y-52660604D01*
X63550000Y-52632414D01*
X63550000Y-52556210D01*
X63550000Y-52389881D01*
X64260844Y-52389881D01*
X64260844Y-52564515D01*
X64260844Y-52662700D01*
X65018485Y-52834403D01*
X65018485Y-52859804D01*
X64260844Y-52859804D01*
X64260844Y-53034438D01*
X65230000Y-53034438D01*
X65230000Y-52859804D01*
X65230000Y-52761618D01*
X64472358Y-52589916D01*
X64472358Y-52564515D01*
X65230000Y-52564515D01*
X65230000Y-52389881D01*
X64260844Y-52389881D01*
X63550000Y-52389881D01*
X63550000Y-52384508D01*
X62580844Y-52384508D01*
X62368128Y-52384508D01*
X62368128Y-52273397D01*
X65665465Y-52273397D01*
X65665465Y-62148096D01*
G37*
G36*
X56256742Y-62139094D02*
G01*
X53354101Y-62139094D01*
X53354101Y-61309420D01*
X53480844Y-61309420D01*
X53480844Y-61490893D01*
X53947068Y-61490893D01*
X53941179Y-61521351D01*
X53923404Y-61570409D01*
X53914131Y-61588590D01*
X53886577Y-61630603D01*
X53853681Y-61667797D01*
X53815441Y-61700174D01*
X53807152Y-61706071D01*
X53763375Y-61732713D01*
X53716305Y-61754633D01*
X53665945Y-61771830D01*
X53655478Y-61774703D01*
X53607497Y-61785565D01*
X53558629Y-61792872D01*
X53508871Y-61796625D01*
X53480844Y-61797173D01*
X53480844Y-61981332D01*
X53536453Y-61979486D01*
X53591079Y-61973946D01*
X53644725Y-61964713D01*
X53697388Y-61951787D01*
X53727041Y-61942742D01*
X53777437Y-61924259D01*
X53825402Y-61902364D01*
X53870936Y-61877055D01*
X53914039Y-61848335D01*
X53937578Y-61830390D01*
X53976218Y-61796554D01*
X53979649Y-61792921D01*
X54450000Y-62027983D01*
X54450000Y-61804012D01*
X54088098Y-61640421D01*
X54104721Y-61602136D01*
X54120444Y-61551304D01*
X54131048Y-61497644D01*
X54131704Y-61490893D01*
X54450000Y-61490893D01*
X54450000Y-61309420D01*
X53480844Y-61309420D01*
X53354101Y-61309420D01*
X53354101Y-60488276D01*
X53480844Y-60488276D01*
X53480844Y-60662909D01*
X53480844Y-60761095D01*
X54238485Y-60932798D01*
X54238485Y-60958199D01*
X53480844Y-60958199D01*
X53480844Y-61132833D01*
X54450000Y-61132833D01*
X54450000Y-60958199D01*
X54450000Y-60860013D01*
X53692358Y-60688311D01*
X53692358Y-60662909D01*
X54450000Y-60662909D01*
X54450000Y-60488276D01*
X53480844Y-60488276D01*
X53354101Y-60488276D01*
X53354101Y-59682519D01*
X53480844Y-59682519D01*
X53480844Y-60299232D01*
X53644975Y-60299232D01*
X53644975Y-60080879D01*
X54285868Y-60080879D01*
X54285868Y-60299232D01*
X54450000Y-60299232D01*
X54450000Y-59682519D01*
X54285868Y-59682519D01*
X54285868Y-59899406D01*
X53644975Y-59899406D01*
X53644975Y-59682519D01*
X53480844Y-59682519D01*
X53354101Y-59682519D01*
X53354101Y-58857222D01*
X53480844Y-58857222D01*
X53480844Y-59038695D01*
X54281960Y-59038695D01*
X54281960Y-59526448D01*
X54450000Y-59526448D01*
X54450000Y-59284647D01*
X55160844Y-59284647D01*
X55969776Y-59284647D01*
X55969776Y-59493475D01*
X56130000Y-59493475D01*
X56130000Y-59270725D01*
X56130000Y-59099023D01*
X56130000Y-58864061D01*
X55969776Y-58864061D01*
X55969776Y-59099023D01*
X55336699Y-59099023D01*
X55414612Y-58877983D01*
X55242665Y-58877983D01*
X55160844Y-59099023D01*
X55160844Y-59284647D01*
X54450000Y-59284647D01*
X54450000Y-58857222D01*
X53480844Y-58857222D01*
X53354101Y-58857222D01*
X53354101Y-57996266D01*
X53871632Y-57996266D01*
X53871632Y-58706769D01*
X54039672Y-58706769D01*
X54039672Y-58351639D01*
X55895526Y-58351639D01*
X55904624Y-58399877D01*
X55931919Y-58440055D01*
X55975066Y-58468451D01*
X56020579Y-58476448D01*
X56071199Y-58466177D01*
X56108995Y-58440055D01*
X56137581Y-58397099D01*
X56145631Y-58351639D01*
X56136472Y-58303340D01*
X56108995Y-58262979D01*
X56068450Y-58235685D01*
X56020579Y-58226587D01*
X55972280Y-58235685D01*
X55931919Y-58262979D01*
X55903523Y-58306127D01*
X55895526Y-58351639D01*
X54039672Y-58351639D01*
X54039672Y-57996266D01*
X53871632Y-57996266D01*
X53354101Y-57996266D01*
X53354101Y-57162909D01*
X53480844Y-57162909D01*
X53480844Y-57900767D01*
X53648883Y-57900767D01*
X53648883Y-57622575D01*
X54450000Y-57622575D01*
X54450000Y-57509979D01*
X55145212Y-57509979D01*
X55147780Y-57567146D01*
X55155482Y-57618663D01*
X55170958Y-57671625D01*
X55193423Y-57716897D01*
X55218241Y-57749581D01*
X55259274Y-57784416D01*
X55302791Y-57806732D01*
X55353414Y-57821428D01*
X55402461Y-57827960D01*
X55438060Y-57829204D01*
X55488755Y-57826353D01*
X55538627Y-57817801D01*
X55587674Y-57803547D01*
X55635896Y-57783592D01*
X55683295Y-57757935D01*
X55698911Y-57748115D01*
X55745287Y-57714819D01*
X55783423Y-57682520D01*
X55821093Y-57646083D01*
X55858299Y-57605507D01*
X55895039Y-57560793D01*
X55931314Y-57511941D01*
X55938513Y-57501674D01*
X55961960Y-57501674D01*
X55961960Y-57870481D01*
X56130000Y-57870481D01*
X56130000Y-57253524D01*
X56130000Y-57212491D01*
X55938513Y-57212491D01*
X55910147Y-57264518D01*
X55881467Y-57313134D01*
X55852475Y-57358338D01*
X55823169Y-57400130D01*
X55786098Y-57447573D01*
X55748537Y-57489684D01*
X55710487Y-57526465D01*
X55702819Y-57533182D01*
X55664254Y-57563649D01*
X55617520Y-57593393D01*
X55570287Y-57615701D01*
X55522557Y-57630573D01*
X55466242Y-57638526D01*
X55450027Y-57638939D01*
X55398256Y-57632674D01*
X55354658Y-57610173D01*
X55350376Y-57606210D01*
X55324458Y-57561924D01*
X55317192Y-57511167D01*
X55317159Y-57507048D01*
X55323284Y-57454989D01*
X55339938Y-57404890D01*
X55349155Y-57385170D01*
X55376140Y-57339982D01*
X55409101Y-57299670D01*
X55434396Y-57275505D01*
X55312030Y-57169748D01*
X55272053Y-57201706D01*
X55236751Y-57240425D01*
X55206124Y-57285907D01*
X55191130Y-57314096D01*
X55171041Y-57361418D01*
X55156692Y-57409839D01*
X55148082Y-57459359D01*
X55145212Y-57509979D01*
X54450000Y-57509979D01*
X54450000Y-57441102D01*
X53648883Y-57441102D01*
X53648883Y-57162909D01*
X53480844Y-57162909D01*
X53354101Y-57162909D01*
X53354101Y-56726692D01*
X53465212Y-56726692D01*
X53467705Y-56776516D01*
X53475181Y-56824872D01*
X53489335Y-56876878D01*
X53496720Y-56897173D01*
X53519155Y-56945912D01*
X53547076Y-56991073D01*
X53580483Y-57032656D01*
X53587822Y-57040544D01*
X53731193Y-56915491D01*
X53697906Y-56876872D01*
X53669723Y-56835011D01*
X53661584Y-56819993D01*
X53643265Y-56772732D01*
X53637159Y-56727180D01*
X53642848Y-56676472D01*
X53663049Y-56633147D01*
X53704074Y-56604181D01*
X53737299Y-56599441D01*
X53785587Y-56613901D01*
X53798360Y-56623133D01*
X53832191Y-56660666D01*
X53850383Y-56690788D01*
X53918039Y-56822679D01*
X53942293Y-56865517D01*
X53972102Y-56908950D01*
X54004140Y-56946491D01*
X54042847Y-56981681D01*
X54083775Y-57008837D01*
X54131154Y-57028586D01*
X54180537Y-57037363D01*
X54195743Y-57037857D01*
X54249548Y-57033381D01*
X54297697Y-57019952D01*
X54345797Y-56993643D01*
X54386510Y-56955640D01*
X54395533Y-56944312D01*
X54422847Y-56899706D01*
X54443452Y-56847527D01*
X54455774Y-56796774D01*
X54463167Y-56740457D01*
X54465563Y-56689276D01*
X54465631Y-56678576D01*
X54464248Y-56626999D01*
X54460097Y-56576376D01*
X54453180Y-56526706D01*
X54451465Y-56516887D01*
X54440566Y-56465087D01*
X54427012Y-56417155D01*
X54412386Y-56376936D01*
X54227739Y-56401605D01*
X54246152Y-56448807D01*
X54261704Y-56495772D01*
X54275504Y-56547157D01*
X54276587Y-56551814D01*
X54286321Y-56601701D01*
X54292332Y-56653095D01*
X54293684Y-56689567D01*
X54290009Y-56739862D01*
X54275079Y-56789110D01*
X54267550Y-56802163D01*
X54228304Y-56834792D01*
X54192323Y-56841242D01*
X54144801Y-56827980D01*
X54108520Y-56792196D01*
X54090718Y-56760886D01*
X54023063Y-56620690D01*
X53999692Y-56577604D01*
X53970176Y-56533800D01*
X53937669Y-56495798D01*
X53897522Y-56459979D01*
X53854245Y-56432469D01*
X53808496Y-56413963D01*
X53760273Y-56404459D01*
X53732414Y-56403070D01*
X53679393Y-56407114D01*
X53631889Y-56419245D01*
X53584353Y-56443013D01*
X53544023Y-56477345D01*
X53535066Y-56487578D01*
X53504505Y-56534213D01*
X53484927Y-56582207D01*
X53472034Y-56636909D01*
X53466304Y-56689136D01*
X53465212Y-56726692D01*
X53354101Y-56726692D01*
X53354101Y-56319295D01*
X55160844Y-56319295D01*
X55160844Y-56506873D01*
X55968311Y-56705931D01*
X55968311Y-56718387D01*
X55160844Y-56917445D01*
X55160844Y-57105024D01*
X56130000Y-56852965D01*
X56130000Y-56571353D01*
X55160844Y-56319295D01*
X53354101Y-56319295D01*
X53354101Y-56208184D01*
X56256742Y-56208184D01*
X56256742Y-62139094D01*
G37*
G36*
X54911099Y-51832909D02*
G01*
X54964150Y-51837114D01*
X55025883Y-51847082D01*
X55077326Y-51862034D01*
X55127162Y-51887733D01*
X55165745Y-51928852D01*
X55181178Y-51981185D01*
X55181500Y-51990997D01*
X55169925Y-52044203D01*
X55135201Y-52086401D01*
X55088580Y-52113157D01*
X55039708Y-52129057D01*
X54980548Y-52140065D01*
X54929426Y-52145111D01*
X54872516Y-52147404D01*
X54852260Y-52147557D01*
X54790977Y-52146181D01*
X54735722Y-52142053D01*
X54686495Y-52135173D01*
X54630235Y-52121719D01*
X54584691Y-52103372D01*
X54542832Y-52073558D01*
X54514702Y-52027691D01*
X54509344Y-51990997D01*
X54509724Y-51989288D01*
X54727452Y-51989288D01*
X54742179Y-52036842D01*
X54761646Y-52056210D01*
X54807224Y-52076750D01*
X54852505Y-52081612D01*
X54903551Y-52075261D01*
X54943363Y-52056210D01*
X54973517Y-52015929D01*
X54977557Y-51989288D01*
X54962831Y-51942485D01*
X54943363Y-51923342D01*
X54897785Y-51903000D01*
X54852505Y-51898185D01*
X54801458Y-51904474D01*
X54761646Y-51923342D01*
X54731493Y-51963093D01*
X54727452Y-51989288D01*
X54509724Y-51989288D01*
X54521399Y-51936796D01*
X54557566Y-51893808D01*
X54606124Y-51866551D01*
X54657026Y-51850353D01*
X54718643Y-51839139D01*
X54771889Y-51833999D01*
X54831163Y-51831663D01*
X54852260Y-51831507D01*
X54911099Y-51832909D01*
G37*
G36*
X54909903Y-50171762D02*
G01*
X54961656Y-50176547D01*
X55021877Y-50187889D01*
X55072061Y-50204902D01*
X55120677Y-50234143D01*
X55153610Y-50272245D01*
X55170861Y-50319208D01*
X55173684Y-50351639D01*
X55165843Y-50403849D01*
X55142319Y-50447209D01*
X55103112Y-50481720D01*
X55048223Y-50507382D01*
X54993021Y-50521541D01*
X54927781Y-50530036D01*
X54872265Y-50532691D01*
X54852505Y-50532868D01*
X54792575Y-50531275D01*
X54738540Y-50526496D01*
X54675662Y-50515170D01*
X54623265Y-50498179D01*
X54572504Y-50468978D01*
X54538118Y-50430927D01*
X54520107Y-50384027D01*
X54517159Y-50351639D01*
X54525346Y-50299360D01*
X54549908Y-50255941D01*
X54590844Y-50221383D01*
X54635382Y-50200117D01*
X54690399Y-50184522D01*
X54755896Y-50174597D01*
X54811896Y-50170876D01*
X54852505Y-50170167D01*
X54909903Y-50171762D01*
G37*
G36*
X54909903Y-49352083D02*
G01*
X54961656Y-49356868D01*
X55021877Y-49368210D01*
X55072061Y-49385223D01*
X55120677Y-49414464D01*
X55153610Y-49452566D01*
X55170861Y-49499529D01*
X55173684Y-49531960D01*
X55165843Y-49584170D01*
X55142319Y-49627530D01*
X55103112Y-49662041D01*
X55048223Y-49687703D01*
X54993021Y-49701862D01*
X54927781Y-49710357D01*
X54872265Y-49713012D01*
X54852505Y-49713189D01*
X54792575Y-49711596D01*
X54738540Y-49706817D01*
X54675662Y-49695491D01*
X54623265Y-49678500D01*
X54572504Y-49649299D01*
X54538118Y-49611248D01*
X54520107Y-49564348D01*
X54517159Y-49531960D01*
X54525346Y-49479681D01*
X54549908Y-49436262D01*
X54590844Y-49401704D01*
X54635382Y-49380438D01*
X54690399Y-49364843D01*
X54755896Y-49354918D01*
X54811896Y-49351197D01*
X54852505Y-49350488D01*
X54909903Y-49352083D01*
G37*
G36*
X55161960Y-48743789D02*
G01*
X55157221Y-48794805D01*
X55139710Y-48842516D01*
X55128255Y-48859071D01*
X55087833Y-48890029D01*
X55037737Y-48900308D01*
X55033977Y-48900348D01*
X54983606Y-48890849D01*
X54943008Y-48859777D01*
X54940921Y-48857117D01*
X54918381Y-48812325D01*
X54909107Y-48762843D01*
X54907948Y-48734263D01*
X54907948Y-48579658D01*
X55161960Y-48579658D01*
X55161960Y-48743789D01*
G37*
G36*
X54739909Y-48702512D02*
G01*
X54736522Y-48734263D01*
X54734579Y-48752474D01*
X54713778Y-48796927D01*
X54712065Y-48798988D01*
X54669325Y-48826315D01*
X54629267Y-48831716D01*
X54581018Y-48820742D01*
X54554284Y-48797034D01*
X54534464Y-48750395D01*
X54528982Y-48701521D01*
X54528883Y-48692986D01*
X54528883Y-48579658D01*
X54739909Y-48579658D01*
X54739909Y-48702512D01*
G37*
G36*
X55456742Y-52446247D02*
G01*
X54234101Y-52446247D01*
X54234101Y-51990997D01*
X54345212Y-51990997D01*
X54349669Y-52052499D01*
X54363038Y-52107951D01*
X54385321Y-52157353D01*
X54416516Y-52200707D01*
X54456624Y-52238011D01*
X54505646Y-52269265D01*
X54563580Y-52294471D01*
X54630427Y-52313627D01*
X54679943Y-52323037D01*
X54733421Y-52329758D01*
X54790860Y-52333791D01*
X54852260Y-52335136D01*
X54912005Y-52333791D01*
X54967894Y-52329758D01*
X55019929Y-52323037D01*
X55068110Y-52313627D01*
X55133154Y-52294471D01*
X55189526Y-52269265D01*
X55237224Y-52238011D01*
X55276251Y-52200707D01*
X55306605Y-52157353D01*
X55328286Y-52107951D01*
X55341295Y-52052499D01*
X55345631Y-51990997D01*
X55341295Y-51929453D01*
X55328286Y-51873961D01*
X55306605Y-51824523D01*
X55276251Y-51781139D01*
X55237224Y-51743809D01*
X55189526Y-51712532D01*
X55133154Y-51687309D01*
X55068110Y-51668139D01*
X55019929Y-51658722D01*
X54967894Y-51651996D01*
X54912005Y-51647960D01*
X54852260Y-51646615D01*
X54790860Y-51647960D01*
X54733421Y-51651996D01*
X54679943Y-51658722D01*
X54630427Y-51668139D01*
X54563580Y-51687309D01*
X54505646Y-51712532D01*
X54456624Y-51743809D01*
X54416516Y-51781139D01*
X54385321Y-51824523D01*
X54363038Y-51873961D01*
X54349669Y-51929453D01*
X54345212Y-51990997D01*
X54234101Y-51990997D01*
X54234101Y-50802267D01*
X54360844Y-50802267D01*
X54360844Y-51540125D01*
X54528883Y-51540125D01*
X54528883Y-51261933D01*
X55330000Y-51261933D01*
X55330000Y-51080460D01*
X54528883Y-51080460D01*
X54528883Y-50802267D01*
X54360844Y-50802267D01*
X54234101Y-50802267D01*
X54234101Y-50351639D01*
X54345212Y-50351639D01*
X54349669Y-50418029D01*
X54363038Y-50477889D01*
X54385321Y-50531219D01*
X54416516Y-50578018D01*
X54456624Y-50618287D01*
X54505646Y-50652027D01*
X54563580Y-50679236D01*
X54630427Y-50699914D01*
X54679943Y-50710072D01*
X54733421Y-50717328D01*
X54790860Y-50721682D01*
X54852260Y-50723133D01*
X54912005Y-50721682D01*
X54967894Y-50717328D01*
X55019929Y-50710072D01*
X55068110Y-50699914D01*
X55133154Y-50679236D01*
X55189526Y-50652027D01*
X55237224Y-50618287D01*
X55276251Y-50578018D01*
X55306605Y-50531219D01*
X55328286Y-50477889D01*
X55341295Y-50418029D01*
X55345631Y-50351639D01*
X55341295Y-50285206D01*
X55328286Y-50225307D01*
X55306605Y-50171942D01*
X55276251Y-50125112D01*
X55237224Y-50084816D01*
X55189526Y-50051055D01*
X55133154Y-50023828D01*
X55068110Y-50003135D01*
X55019929Y-49992971D01*
X54967894Y-49985710D01*
X54912005Y-49981354D01*
X54852260Y-49979902D01*
X54790860Y-49981354D01*
X54733421Y-49985710D01*
X54679943Y-49992971D01*
X54630427Y-50003135D01*
X54563580Y-50023828D01*
X54505646Y-50051055D01*
X54456624Y-50084816D01*
X54416516Y-50125112D01*
X54385321Y-50171942D01*
X54363038Y-50225307D01*
X54349669Y-50285206D01*
X54345212Y-50351639D01*
X54234101Y-50351639D01*
X54234101Y-49531960D01*
X54345212Y-49531960D01*
X54349669Y-49598350D01*
X54363038Y-49658210D01*
X54385321Y-49711540D01*
X54416516Y-49758339D01*
X54456624Y-49798608D01*
X54505646Y-49832348D01*
X54563580Y-49859557D01*
X54630427Y-49880235D01*
X54679943Y-49890393D01*
X54733421Y-49897649D01*
X54790860Y-49902003D01*
X54852260Y-49903454D01*
X54912005Y-49902003D01*
X54967894Y-49897649D01*
X55019929Y-49890393D01*
X55068110Y-49880235D01*
X55133154Y-49859557D01*
X55189526Y-49832348D01*
X55237224Y-49798608D01*
X55276251Y-49758339D01*
X55306605Y-49711540D01*
X55328286Y-49658210D01*
X55341295Y-49598350D01*
X55345631Y-49531960D01*
X55341295Y-49465527D01*
X55328286Y-49405628D01*
X55306605Y-49352263D01*
X55276251Y-49305433D01*
X55237224Y-49265137D01*
X55189526Y-49231376D01*
X55133154Y-49204149D01*
X55068110Y-49183456D01*
X55019929Y-49173292D01*
X54967894Y-49166031D01*
X54912005Y-49161675D01*
X54852260Y-49160223D01*
X54790860Y-49161675D01*
X54733421Y-49166031D01*
X54679943Y-49173292D01*
X54630427Y-49183456D01*
X54563580Y-49204149D01*
X54505646Y-49231376D01*
X54456624Y-49265137D01*
X54416516Y-49305433D01*
X54385321Y-49352263D01*
X54363038Y-49405628D01*
X54349669Y-49465527D01*
X54345212Y-49531960D01*
X54234101Y-49531960D01*
X54234101Y-48398185D01*
X54360844Y-48398185D01*
X54360844Y-48556210D01*
X54360844Y-48692986D01*
X54360844Y-48699825D01*
X54363068Y-48755072D01*
X54369740Y-48805407D01*
X54383145Y-48857923D01*
X54402605Y-48903754D01*
X54424103Y-48937718D01*
X54459075Y-48974583D01*
X54500734Y-49000915D01*
X54549079Y-49016715D01*
X54604110Y-49021981D01*
X54656924Y-49016823D01*
X54707042Y-48998991D01*
X54748143Y-48968423D01*
X54758715Y-48956769D01*
X54787309Y-48910796D01*
X54803989Y-48860245D01*
X54811614Y-48808011D01*
X54812132Y-48793859D01*
X54834919Y-48793859D01*
X54834919Y-48825610D01*
X54837829Y-48878394D01*
X54848282Y-48931906D01*
X54866337Y-48978152D01*
X54895736Y-49021493D01*
X54933768Y-49054906D01*
X54979722Y-49077383D01*
X55033597Y-49088926D01*
X55066950Y-49090614D01*
X55119163Y-49086780D01*
X55172194Y-49073011D01*
X55218142Y-49049228D01*
X55257007Y-49015431D01*
X55261367Y-49010502D01*
X55291394Y-48966370D01*
X55310630Y-48920868D01*
X55323297Y-48868937D01*
X55328927Y-48819309D01*
X55330000Y-48783600D01*
X55330000Y-48569888D01*
X55330000Y-48398185D01*
X54360844Y-48398185D01*
X54234101Y-48398185D01*
X54234101Y-48287074D01*
X55456742Y-48287074D01*
X55456742Y-52446247D01*
G37*
G36*
X54269145Y-64471772D02*
G01*
X54265522Y-64527222D01*
X54254652Y-64576244D01*
X54233357Y-64624398D01*
X54202598Y-64664156D01*
X54193429Y-64672784D01*
X54151221Y-64702062D01*
X54100312Y-64722976D01*
X54048628Y-64734413D01*
X53999026Y-64739118D01*
X53972390Y-64739706D01*
X53915054Y-64737354D01*
X53863213Y-64730295D01*
X53809678Y-64716114D01*
X53763623Y-64695527D01*
X53730101Y-64672784D01*
X53694090Y-64635125D01*
X53668368Y-64589070D01*
X53654302Y-64541884D01*
X53648112Y-64488271D01*
X53647791Y-64471772D01*
X53647791Y-64405094D01*
X54269145Y-64405094D01*
X54269145Y-64471772D01*
G37*
G36*
X54571742Y-65041083D02*
G01*
X53349101Y-65041083D01*
X53349101Y-64223866D01*
X53475844Y-64223866D01*
X53475844Y-64381891D01*
X53475844Y-64471772D01*
X53477790Y-64527257D01*
X53483629Y-64579163D01*
X53493361Y-64627488D01*
X53515257Y-64693265D01*
X53545911Y-64750987D01*
X53585324Y-64800655D01*
X53633495Y-64842269D01*
X53690425Y-64875829D01*
X53756113Y-64901334D01*
X53804770Y-64913863D01*
X53857321Y-64922812D01*
X53913764Y-64928182D01*
X53974099Y-64929972D01*
X54031122Y-64928182D01*
X54084467Y-64922812D01*
X54134132Y-64913863D01*
X54201732Y-64893727D01*
X54261054Y-64865537D01*
X54312099Y-64829293D01*
X54354866Y-64784994D01*
X54389356Y-64732641D01*
X54415568Y-64672234D01*
X54433503Y-64603773D01*
X54440861Y-64553657D01*
X54444540Y-64499962D01*
X54445000Y-64471772D01*
X54445000Y-64395568D01*
X54445000Y-64223866D01*
X53475844Y-64223866D01*
X53349101Y-64223866D01*
X53349101Y-63409560D01*
X53475844Y-63409560D01*
X53475844Y-63584193D01*
X53475844Y-63682379D01*
X54233485Y-63854082D01*
X54233485Y-63879483D01*
X53475844Y-63879483D01*
X53475844Y-64054117D01*
X54445000Y-64054117D01*
X54445000Y-63879483D01*
X54445000Y-63781297D01*
X53687358Y-63609595D01*
X53687358Y-63584193D01*
X54445000Y-63584193D01*
X54445000Y-63409560D01*
X53475844Y-63409560D01*
X53349101Y-63409560D01*
X53349101Y-62976762D01*
X53460212Y-62976762D01*
X53462319Y-63028175D01*
X53469725Y-63081635D01*
X53482463Y-63130459D01*
X53493918Y-63160432D01*
X53517574Y-63205484D01*
X53549932Y-63247326D01*
X53588928Y-63281088D01*
X53721308Y-63167027D01*
X53684061Y-63131428D01*
X53655851Y-63087648D01*
X53638846Y-63041387D01*
X53632252Y-62991907D01*
X53632159Y-62985066D01*
X53636168Y-62933638D01*
X53650567Y-62881332D01*
X53675438Y-62835925D01*
X53710780Y-62797419D01*
X53715935Y-62793091D01*
X53762051Y-62763171D01*
X53809540Y-62744004D01*
X53863691Y-62731381D01*
X53915408Y-62725771D01*
X53952606Y-62724703D01*
X54003067Y-62726379D01*
X54058205Y-62732813D01*
X54107435Y-62744073D01*
X54157404Y-62763309D01*
X54199331Y-62789113D01*
X54204665Y-62793335D01*
X54241423Y-62832002D01*
X54267679Y-62879125D01*
X54282038Y-62927296D01*
X54288356Y-62981941D01*
X54288684Y-62998743D01*
X54286588Y-63049189D01*
X54282108Y-63080565D01*
X54116737Y-63080565D01*
X54116737Y-62919120D01*
X53948698Y-62919120D01*
X53948698Y-63256420D01*
X53948698Y-63260327D01*
X54419598Y-63260327D01*
X54432006Y-63212079D01*
X54442768Y-63163856D01*
X54444755Y-63154570D01*
X54453127Y-63105302D01*
X54458399Y-63051836D01*
X54460492Y-63000127D01*
X54460631Y-62982135D01*
X54458673Y-62927833D01*
X54452800Y-62877034D01*
X54439952Y-62818462D01*
X54420986Y-62765365D01*
X54395903Y-62717741D01*
X54364701Y-62675591D01*
X54335334Y-62645812D01*
X54293044Y-62613516D01*
X54244635Y-62586693D01*
X54190109Y-62565345D01*
X54142083Y-62552207D01*
X54090141Y-62542573D01*
X54034284Y-62536442D01*
X53974511Y-62533814D01*
X53958956Y-62533705D01*
X53901220Y-62535518D01*
X53846834Y-62540956D01*
X53795798Y-62550020D01*
X53748114Y-62562709D01*
X53693220Y-62583669D01*
X53643561Y-62610293D01*
X53599139Y-62642583D01*
X53590882Y-62649720D01*
X53553238Y-62688295D01*
X53521974Y-62731508D01*
X53497091Y-62779361D01*
X53478588Y-62831853D01*
X53466465Y-62888984D01*
X53461361Y-62938029D01*
X53460212Y-62976762D01*
X53349101Y-62976762D01*
X53349101Y-62422594D01*
X54571742Y-62422594D01*
X54571742Y-65041083D01*
G37*
G36*
X62271742Y-65055493D02*
G01*
X61064733Y-65055493D01*
X61064733Y-64158653D01*
X61175844Y-64158653D01*
X61175844Y-64346231D01*
X61983311Y-64545289D01*
X61983311Y-64557745D01*
X61175844Y-64756803D01*
X61175844Y-64944382D01*
X62145000Y-64692323D01*
X62145000Y-64410711D01*
X61175844Y-64158653D01*
X61064733Y-64158653D01*
X61064733Y-64021144D01*
X61175844Y-64021144D01*
X61343883Y-64021144D01*
X61343883Y-63644211D01*
X61546825Y-63632924D01*
X61534736Y-63661253D01*
X61523890Y-63701919D01*
X61516196Y-63750279D01*
X61513632Y-63797173D01*
X61517722Y-63851710D01*
X61529994Y-63901198D01*
X61550447Y-63945637D01*
X61583840Y-63990242D01*
X61599117Y-64005268D01*
X61639298Y-64035532D01*
X61685043Y-64058362D01*
X61736350Y-64073760D01*
X61784756Y-64081041D01*
X61828217Y-64082937D01*
X61882791Y-64079479D01*
X61933309Y-64069104D01*
X61979769Y-64051813D01*
X62003827Y-64039218D01*
X62047247Y-64008540D01*
X62084084Y-63970849D01*
X62114337Y-63926146D01*
X62119598Y-63916364D01*
X62139433Y-63869511D01*
X62152777Y-63818253D01*
X62159188Y-63768992D01*
X62160631Y-63729762D01*
X62157780Y-63673010D01*
X62149228Y-63621273D01*
X62134974Y-63574550D01*
X62111138Y-63526378D01*
X62079542Y-63485031D01*
X62040946Y-63451341D01*
X61996108Y-63425926D01*
X61945029Y-63408786D01*
X61896279Y-63400680D01*
X61852152Y-63398569D01*
X61852152Y-63589567D01*
X61903149Y-63596907D01*
X61945754Y-63621060D01*
X61952780Y-63627913D01*
X61978551Y-63671175D01*
X61988123Y-63720130D01*
X61988684Y-63737334D01*
X61982536Y-63786369D01*
X61959822Y-63833246D01*
X61944965Y-63849930D01*
X61901027Y-63878647D01*
X61850432Y-63890914D01*
X61828461Y-63891939D01*
X61779711Y-63885087D01*
X61734481Y-63860150D01*
X61724413Y-63850418D01*
X61697866Y-63808477D01*
X61686527Y-63759485D01*
X61685579Y-63738066D01*
X61689395Y-63686709D01*
X61700844Y-63637354D01*
X61719925Y-63590004D01*
X61724658Y-63580774D01*
X61724658Y-63457676D01*
X61175844Y-63471598D01*
X61175844Y-63536810D01*
X61175844Y-64021144D01*
X61064733Y-64021144D01*
X61064733Y-63004117D01*
X61293080Y-63004117D01*
X61566632Y-63004117D01*
X61566632Y-63255687D01*
X61734672Y-63255687D01*
X61734672Y-63004117D01*
X62008224Y-63004117D01*
X62008224Y-62820202D01*
X61734672Y-62820202D01*
X61734672Y-62568632D01*
X61566632Y-62568632D01*
X61566632Y-62820202D01*
X61293080Y-62820202D01*
X61293080Y-63004117D01*
X61064733Y-63004117D01*
X61064733Y-62457521D01*
X62271742Y-62457521D01*
X62271742Y-65055493D01*
G37*
G36*
X56869145Y-64471772D02*
G01*
X56865522Y-64527222D01*
X56854652Y-64576244D01*
X56833357Y-64624398D01*
X56802598Y-64664156D01*
X56793429Y-64672784D01*
X56751221Y-64702062D01*
X56700312Y-64722976D01*
X56648628Y-64734413D01*
X56599026Y-64739118D01*
X56572390Y-64739706D01*
X56515054Y-64737354D01*
X56463213Y-64730295D01*
X56409678Y-64716114D01*
X56363623Y-64695527D01*
X56330101Y-64672784D01*
X56294090Y-64635125D01*
X56268368Y-64589070D01*
X56254302Y-64541884D01*
X56248112Y-64488271D01*
X56247791Y-64471772D01*
X56247791Y-64405094D01*
X56869145Y-64405094D01*
X56869145Y-64471772D01*
G37*
G36*
X57156111Y-65041083D02*
G01*
X55964733Y-65041083D01*
X55964733Y-64223866D01*
X56075844Y-64223866D01*
X56075844Y-64381891D01*
X56075844Y-64471772D01*
X56077790Y-64527257D01*
X56083629Y-64579163D01*
X56093361Y-64627488D01*
X56115257Y-64693265D01*
X56145911Y-64750987D01*
X56185324Y-64800655D01*
X56233495Y-64842269D01*
X56290425Y-64875829D01*
X56356113Y-64901334D01*
X56404770Y-64913863D01*
X56457321Y-64922812D01*
X56513764Y-64928182D01*
X56574099Y-64929972D01*
X56631122Y-64928182D01*
X56684467Y-64922812D01*
X56734132Y-64913863D01*
X56801732Y-64893727D01*
X56861054Y-64865537D01*
X56912099Y-64829293D01*
X56954866Y-64784994D01*
X56989356Y-64732641D01*
X57015568Y-64672234D01*
X57033503Y-64603773D01*
X57040861Y-64553657D01*
X57044540Y-64499962D01*
X57045000Y-64471772D01*
X57045000Y-64395568D01*
X57045000Y-64223866D01*
X56075844Y-64223866D01*
X55964733Y-64223866D01*
X55964733Y-64122749D01*
X56075844Y-64122749D01*
X56565087Y-63819540D01*
X57045000Y-64122749D01*
X57045000Y-63896092D01*
X56724451Y-63731926D01*
X57045000Y-63568318D01*
X57045000Y-63341660D01*
X56565072Y-63644203D01*
X56075844Y-63341660D01*
X56075844Y-63568318D01*
X56401313Y-63731938D01*
X56075844Y-63896092D01*
X56075844Y-64122749D01*
X55964733Y-64122749D01*
X55964733Y-62543230D01*
X56075844Y-62543230D01*
X56075844Y-63281088D01*
X56243883Y-63281088D01*
X56243883Y-63002896D01*
X57045000Y-63002896D01*
X57045000Y-62821423D01*
X56243883Y-62821423D01*
X56243883Y-62543230D01*
X56075844Y-62543230D01*
X55964733Y-62543230D01*
X55964733Y-62432119D01*
X57156111Y-62432119D01*
X57156111Y-65041083D01*
G37*
G36*
X59369145Y-64471772D02*
G01*
X59365522Y-64527222D01*
X59354652Y-64576244D01*
X59333357Y-64624398D01*
X59302598Y-64664156D01*
X59293429Y-64672784D01*
X59251221Y-64702062D01*
X59200312Y-64722976D01*
X59148628Y-64734413D01*
X59099026Y-64739118D01*
X59072390Y-64739706D01*
X59015054Y-64737354D01*
X58963213Y-64730295D01*
X58909678Y-64716114D01*
X58863623Y-64695527D01*
X58830101Y-64672784D01*
X58794090Y-64635125D01*
X58768368Y-64589070D01*
X58754302Y-64541884D01*
X58748112Y-64488271D01*
X58747791Y-64471772D01*
X58747791Y-64405094D01*
X59369145Y-64405094D01*
X59369145Y-64471772D01*
G37*
G36*
X59017435Y-62931332D02*
G01*
X59010563Y-62981261D01*
X58985879Y-63025041D01*
X58981531Y-63029518D01*
X58938239Y-63055896D01*
X58888638Y-63064552D01*
X58880659Y-63064689D01*
X58829087Y-63057957D01*
X58784116Y-63033777D01*
X58779542Y-63029518D01*
X58752798Y-62987508D01*
X58744022Y-62939129D01*
X58743883Y-62931332D01*
X58743883Y-62765736D01*
X59017435Y-62765736D01*
X59017435Y-62931332D01*
G37*
G36*
X59656111Y-65041083D02*
G01*
X58464733Y-65041083D01*
X58464733Y-64223866D01*
X58575844Y-64223866D01*
X58575844Y-64381891D01*
X58575844Y-64471772D01*
X58577790Y-64527257D01*
X58583629Y-64579163D01*
X58593361Y-64627488D01*
X58615257Y-64693265D01*
X58645911Y-64750987D01*
X58685324Y-64800655D01*
X58733495Y-64842269D01*
X58790425Y-64875829D01*
X58856113Y-64901334D01*
X58904770Y-64913863D01*
X58957321Y-64922812D01*
X59013764Y-64928182D01*
X59074099Y-64929972D01*
X59131122Y-64928182D01*
X59184467Y-64922812D01*
X59234132Y-64913863D01*
X59301732Y-64893727D01*
X59361054Y-64865537D01*
X59412099Y-64829293D01*
X59454866Y-64784994D01*
X59489356Y-64732641D01*
X59515568Y-64672234D01*
X59533503Y-64603773D01*
X59540861Y-64553657D01*
X59544540Y-64499962D01*
X59545000Y-64471772D01*
X59545000Y-64395568D01*
X59545000Y-64223866D01*
X58575844Y-64223866D01*
X58464733Y-64223866D01*
X58464733Y-64122749D01*
X58575844Y-64122749D01*
X59065087Y-63819540D01*
X59545000Y-64122749D01*
X59545000Y-63896092D01*
X59224451Y-63731926D01*
X59545000Y-63568318D01*
X59545000Y-63341660D01*
X59065072Y-63644203D01*
X58575844Y-63341660D01*
X58575844Y-63568318D01*
X58901313Y-63731938D01*
X58575844Y-63896092D01*
X58575844Y-64122749D01*
X58464733Y-64122749D01*
X58464733Y-62584508D01*
X58575844Y-62584508D01*
X58575844Y-62742533D01*
X58575844Y-62931332D01*
X58578514Y-62987801D01*
X58586526Y-63039238D01*
X58602623Y-63092888D01*
X58625989Y-63139690D01*
X58651803Y-63174354D01*
X58687991Y-63207853D01*
X58730303Y-63233125D01*
X58778739Y-63250169D01*
X58833299Y-63258984D01*
X58867226Y-63260327D01*
X58921468Y-63257305D01*
X58970987Y-63248237D01*
X59022790Y-63230018D01*
X59068166Y-63203572D01*
X59101943Y-63174354D01*
X59134491Y-63133423D01*
X59144263Y-63114406D01*
X59545000Y-63296231D01*
X59545000Y-63079832D01*
X59185256Y-62936391D01*
X59185474Y-62931332D01*
X59185474Y-62765736D01*
X59545000Y-62765736D01*
X59545000Y-62584508D01*
X58575844Y-62584508D01*
X58464733Y-62584508D01*
X58464733Y-62473397D01*
X59656111Y-62473397D01*
X59656111Y-65041083D01*
G37*
G36*
X64771742Y-64979289D02*
G01*
X63549101Y-64979289D01*
X63549101Y-64557013D01*
X63660212Y-64557013D01*
X63662222Y-64607062D01*
X63669645Y-64659765D01*
X63684826Y-64712499D01*
X63707151Y-64757233D01*
X63717365Y-64771946D01*
X63753358Y-64808547D01*
X63797041Y-64833169D01*
X63848413Y-64845813D01*
X63880275Y-64847662D01*
X63930531Y-64842677D01*
X63981793Y-64825447D01*
X64023810Y-64799416D01*
X64041231Y-64784647D01*
X64076258Y-64746325D01*
X64104678Y-64701975D01*
X64126490Y-64651597D01*
X64135753Y-64621004D01*
X64159044Y-64621004D01*
X64160007Y-64635700D01*
X64169203Y-64684428D01*
X64186697Y-64734536D01*
X64211640Y-64778691D01*
X64219040Y-64788799D01*
X64257193Y-64827171D01*
X64302957Y-64852985D01*
X64356334Y-64866240D01*
X64389277Y-64868178D01*
X64442939Y-64863480D01*
X64491085Y-64849385D01*
X64539353Y-64821770D01*
X64575677Y-64787539D01*
X64589556Y-64769993D01*
X64617251Y-64723156D01*
X64635574Y-64676834D01*
X64648901Y-64624810D01*
X64657230Y-64567085D01*
X64660353Y-64514625D01*
X64660631Y-64492533D01*
X64659563Y-64439686D01*
X64656360Y-64389956D01*
X64651594Y-64347452D01*
X64643442Y-64296371D01*
X64632409Y-64246950D01*
X64627903Y-64230704D01*
X64451071Y-64247801D01*
X64463872Y-64298255D01*
X64475739Y-64347697D01*
X64484121Y-64397420D01*
X64487875Y-64446798D01*
X64488684Y-64486915D01*
X64485679Y-64539566D01*
X64475431Y-64588280D01*
X64457909Y-64627355D01*
X64423248Y-64663118D01*
X64373972Y-64677132D01*
X64370471Y-64677180D01*
X64321439Y-64664347D01*
X64300373Y-64647383D01*
X64272475Y-64605205D01*
X64256653Y-64560432D01*
X64246849Y-64510203D01*
X64242457Y-64461468D01*
X64241510Y-64422435D01*
X64241510Y-64400453D01*
X64082264Y-64383845D01*
X64074369Y-64435116D01*
X64063511Y-64485376D01*
X64049034Y-64532508D01*
X64046116Y-64540160D01*
X64023516Y-64586609D01*
X63991045Y-64626545D01*
X63988963Y-64628332D01*
X63943893Y-64652680D01*
X63913736Y-64656664D01*
X63865147Y-64642101D01*
X63853408Y-64630774D01*
X63834234Y-64583621D01*
X63832159Y-64554326D01*
X63836507Y-64504137D01*
X63848330Y-64453766D01*
X63854874Y-64433426D01*
X63874852Y-64384928D01*
X63898657Y-64342162D01*
X63922041Y-64308374D01*
X63780624Y-64213607D01*
X63747568Y-64252267D01*
X63720114Y-64294056D01*
X63698263Y-64338975D01*
X63688545Y-64365282D01*
X63674849Y-64415207D01*
X63665635Y-64468262D01*
X63661208Y-64518049D01*
X63660212Y-64557013D01*
X63549101Y-64557013D01*
X63549101Y-63338974D01*
X63675844Y-63338974D01*
X63675844Y-63526552D01*
X64483311Y-63725610D01*
X64483311Y-63738066D01*
X63675844Y-63937124D01*
X63675844Y-64124703D01*
X64645000Y-63872644D01*
X64645000Y-63591032D01*
X63675844Y-63338974D01*
X63549101Y-63338974D01*
X63549101Y-62917655D01*
X63660212Y-62917655D01*
X63662222Y-62967704D01*
X63669645Y-63020407D01*
X63684826Y-63073141D01*
X63707151Y-63117875D01*
X63717365Y-63132588D01*
X63753358Y-63169189D01*
X63797041Y-63193811D01*
X63848413Y-63206455D01*
X63880275Y-63208304D01*
X63930531Y-63203319D01*
X63981793Y-63186089D01*
X64023810Y-63160058D01*
X64041231Y-63145289D01*
X64076258Y-63106967D01*
X64104678Y-63062617D01*
X64126490Y-63012239D01*
X64135753Y-62981646D01*
X64159044Y-62981646D01*
X64160007Y-62996342D01*
X64169203Y-63045070D01*
X64186697Y-63095178D01*
X64211640Y-63139333D01*
X64219040Y-63149441D01*
X64257193Y-63187813D01*
X64302957Y-63213627D01*
X64356334Y-63226882D01*
X64389277Y-63228820D01*
X64442939Y-63224122D01*
X64491085Y-63210027D01*
X64539353Y-63182412D01*
X64575677Y-63148181D01*
X64589556Y-63130635D01*
X64617251Y-63083798D01*
X64635574Y-63037476D01*
X64648901Y-62985452D01*
X64657230Y-62927727D01*
X64660353Y-62875267D01*
X64660631Y-62853175D01*
X64659563Y-62800328D01*
X64656360Y-62750598D01*
X64651594Y-62708094D01*
X64643442Y-62657013D01*
X64632409Y-62607592D01*
X64627903Y-62591346D01*
X64451071Y-62608443D01*
X64463872Y-62658897D01*
X64475739Y-62708339D01*
X64484121Y-62758062D01*
X64487875Y-62807440D01*
X64488684Y-62847557D01*
X64485679Y-62900208D01*
X64475431Y-62948922D01*
X64457909Y-62987997D01*
X64423248Y-63023760D01*
X64373972Y-63037774D01*
X64370471Y-63037822D01*
X64321439Y-63024989D01*
X64300373Y-63008025D01*
X64272475Y-62965847D01*
X64256653Y-62921074D01*
X64246849Y-62870845D01*
X64242457Y-62822110D01*
X64241510Y-62783077D01*
X64241510Y-62761095D01*
X64082264Y-62744487D01*
X64074369Y-62795758D01*
X64063511Y-62846018D01*
X64049034Y-62893150D01*
X64046116Y-62900802D01*
X64023516Y-62947251D01*
X63991045Y-62987187D01*
X63988963Y-62988974D01*
X63943893Y-63013322D01*
X63913736Y-63017306D01*
X63865147Y-63002743D01*
X63853408Y-62991416D01*
X63834234Y-62944263D01*
X63832159Y-62914968D01*
X63836507Y-62864779D01*
X63848330Y-62814408D01*
X63854874Y-62794068D01*
X63874852Y-62745570D01*
X63898657Y-62702804D01*
X63922041Y-62669016D01*
X63780624Y-62574249D01*
X63747568Y-62612909D01*
X63720114Y-62654698D01*
X63698263Y-62699617D01*
X63688545Y-62725924D01*
X63674849Y-62775849D01*
X63665635Y-62828904D01*
X63661208Y-62878691D01*
X63660212Y-62917655D01*
X63549101Y-62917655D01*
X63549101Y-62463138D01*
X64771742Y-62463138D01*
X64771742Y-64979289D01*
G37*
D11*
%TO.C,J4*%
X62400000Y-37400000D02*
X62400000Y-39000000D01*
X62400000Y-39000000D02*
X55800000Y-39000000D01*
X55800000Y-37400000D02*
X55800000Y-39000000D01*
D10*
%TO.C,IC1*%
X57715000Y-46650000D02*
X57715000Y-46050000D01*
X60615000Y-46650000D02*
X57715000Y-46650000D01*
X60615000Y-46050000D02*
X60615000Y-46650000D01*
X57715000Y-46050000D02*
X60615000Y-46050000D01*
X57665000Y-45700000D02*
X57665000Y-44500000D01*
D12*
%TO.C,G\u002A\u002A\u002A*%
G36*
X61112513Y-34556689D02*
G01*
X61111764Y-34567436D01*
X61106947Y-34570597D01*
X61104848Y-34566848D01*
X61106111Y-34550287D01*
X61109925Y-34545382D01*
X61112513Y-34556689D01*
G37*
G36*
X60299400Y-36505402D02*
G01*
X60304305Y-36509216D01*
X60292998Y-36511804D01*
X60282250Y-36511055D01*
X60279090Y-36506238D01*
X60282839Y-36504139D01*
X60299400Y-36505402D01*
G37*
G36*
X60158821Y-36665408D02*
G01*
X60158072Y-36676156D01*
X60153255Y-36679316D01*
X60151155Y-36675567D01*
X60152419Y-36659006D01*
X60156233Y-36654101D01*
X60158821Y-36665408D01*
G37*
G36*
X59610622Y-35742448D02*
G01*
X59615527Y-35746262D01*
X59604220Y-35748850D01*
X59593472Y-35748101D01*
X59590312Y-35743285D01*
X59594061Y-35741185D01*
X59610622Y-35742448D01*
G37*
G36*
X59576009Y-37311799D02*
G01*
X59575260Y-37322547D01*
X59570443Y-37325707D01*
X59568344Y-37321958D01*
X59569607Y-37305397D01*
X59573421Y-37300492D01*
X59576009Y-37311799D01*
G37*
G36*
X59003794Y-36909129D02*
G01*
X59003044Y-36919877D01*
X58998228Y-36923037D01*
X58996128Y-36919288D01*
X58997392Y-36902727D01*
X59001206Y-36897822D01*
X59003794Y-36909129D01*
G37*
G36*
X58763558Y-37310963D02*
G01*
X58765356Y-37314642D01*
X58750312Y-37316307D01*
X58735736Y-37314830D01*
X58737067Y-37310963D01*
X58741863Y-37309563D01*
X58763558Y-37310963D01*
G37*
G36*
X57862187Y-35360971D02*
G01*
X57867091Y-35364785D01*
X57855785Y-35367373D01*
X57845037Y-35366624D01*
X57841877Y-35361808D01*
X57845625Y-35359708D01*
X57862187Y-35360971D01*
G37*
G36*
X59583205Y-35688935D02*
G01*
X59585153Y-35693123D01*
X59581265Y-35708723D01*
X59574340Y-35716742D01*
X59568503Y-35708765D01*
X59567205Y-35698911D01*
X59572729Y-35687194D01*
X59583205Y-35688935D01*
G37*
G36*
X59297097Y-35731321D02*
G01*
X59299046Y-35735509D01*
X59295157Y-35751109D01*
X59288232Y-35759128D01*
X59282396Y-35751152D01*
X59281097Y-35741297D01*
X59286622Y-35729581D01*
X59297097Y-35731321D01*
G37*
G36*
X61176929Y-34511300D02*
G01*
X61176234Y-34518711D01*
X61169202Y-34535275D01*
X61165829Y-34537327D01*
X61157414Y-34530815D01*
X61156847Y-34524138D01*
X61165140Y-34506841D01*
X61173567Y-34501209D01*
X61176929Y-34511300D01*
G37*
G36*
X60484524Y-34972117D02*
G01*
X60488151Y-34992031D01*
X60485520Y-35009454D01*
X60477555Y-35018523D01*
X60470586Y-35011946D01*
X60466958Y-34992031D01*
X60469589Y-34974608D01*
X60477555Y-34965540D01*
X60484524Y-34972117D01*
G37*
G36*
X60282851Y-36600513D02*
G01*
X60284151Y-36608181D01*
X60275468Y-36624810D01*
X60264639Y-36634530D01*
X60256871Y-36629438D01*
X60256292Y-36627036D01*
X60260038Y-36611328D01*
X60271266Y-36599843D01*
X60282851Y-36600513D01*
G37*
G36*
X59462816Y-33874400D02*
G01*
X59470880Y-33884689D01*
X59470572Y-33887222D01*
X59460283Y-33895285D01*
X59457750Y-33894978D01*
X59449687Y-33884689D01*
X59449995Y-33882156D01*
X59460283Y-33874092D01*
X59462816Y-33874400D01*
G37*
G36*
X59454145Y-33832538D02*
G01*
X59454985Y-33842303D01*
X59452810Y-33845474D01*
X59443763Y-33852899D01*
X59442705Y-33852624D01*
X59439090Y-33842303D01*
X59439521Y-33839398D01*
X59450312Y-33831706D01*
X59454145Y-33832538D01*
G37*
G36*
X58975373Y-35855961D02*
G01*
X58983437Y-35866249D01*
X58983129Y-35868782D01*
X58972841Y-35876846D01*
X58970308Y-35876538D01*
X58962244Y-35866249D01*
X58962552Y-35863716D01*
X58972841Y-35855653D01*
X58975373Y-35855961D01*
G37*
G36*
X58894585Y-37567618D02*
G01*
X58898665Y-37582270D01*
X58896594Y-37595186D01*
X58888068Y-37604088D01*
X58883396Y-37602514D01*
X58877471Y-37588819D01*
X58878318Y-37582332D01*
X58888068Y-37567000D01*
X58894585Y-37567618D01*
G37*
G36*
X58883844Y-37657559D02*
G01*
X58893366Y-37667668D01*
X58895022Y-37671772D01*
X58888693Y-37678264D01*
X58885617Y-37677857D01*
X58877471Y-37667668D01*
X58877593Y-37665270D01*
X58882144Y-37657071D01*
X58883844Y-37657559D01*
G37*
G36*
X58783960Y-35866645D02*
G01*
X58797997Y-35876846D01*
X58799695Y-35880913D01*
X58793949Y-35887442D01*
X58790841Y-35887047D01*
X58776804Y-35876846D01*
X58775106Y-35872778D01*
X58780851Y-35866249D01*
X58783960Y-35866645D01*
G37*
G36*
X58782102Y-35844431D02*
G01*
X58781695Y-35847506D01*
X58771506Y-35855653D01*
X58769107Y-35855531D01*
X58760909Y-35850980D01*
X58761397Y-35849280D01*
X58771506Y-35839758D01*
X58775610Y-35838102D01*
X58782102Y-35844431D01*
G37*
G36*
X58701981Y-35760706D02*
G01*
X58707926Y-35779074D01*
X58707631Y-35786988D01*
X58703401Y-35790600D01*
X58690013Y-35778701D01*
X58680050Y-35765621D01*
X58678711Y-35754176D01*
X58689082Y-35751176D01*
X58701981Y-35760706D01*
G37*
G36*
X58539909Y-37002714D02*
G01*
X58548977Y-37010680D01*
X58542400Y-37017649D01*
X58522486Y-37021276D01*
X58505063Y-37018645D01*
X58495995Y-37010680D01*
X58502572Y-37003710D01*
X58522486Y-37000083D01*
X58539909Y-37002714D01*
G37*
G36*
X58498008Y-37372159D02*
G01*
X58506591Y-37381560D01*
X58504798Y-37386435D01*
X58490696Y-37392157D01*
X58483384Y-37390961D01*
X58474801Y-37381560D01*
X58476595Y-37376685D01*
X58490696Y-37370963D01*
X58498008Y-37372159D01*
G37*
G36*
X58462400Y-37399968D02*
G01*
X58460548Y-37418191D01*
X58456174Y-37426056D01*
X58443344Y-37434543D01*
X58439942Y-37434261D01*
X58433109Y-37424952D01*
X58442598Y-37403060D01*
X58454467Y-37393442D01*
X58462400Y-37399968D01*
G37*
G36*
X58131284Y-36235921D02*
G01*
X58159762Y-36258323D01*
X58132975Y-36258323D01*
X58114385Y-36254435D01*
X58099507Y-36240911D01*
X58098608Y-36238482D01*
X58096457Y-36221415D01*
X58107521Y-36220534D01*
X58131284Y-36235921D01*
G37*
G36*
X58016298Y-36335752D02*
G01*
X58018120Y-36336276D01*
X58019688Y-36339501D01*
X58003254Y-36341029D01*
X58000744Y-36341044D01*
X57984156Y-36339623D01*
X57984508Y-36336145D01*
X57993215Y-36334201D01*
X58016298Y-36335752D01*
G37*
G36*
X57968616Y-36544837D02*
G01*
X57976762Y-36555027D01*
X57976641Y-36557425D01*
X57972089Y-36565623D01*
X57970389Y-36565136D01*
X57960867Y-36555027D01*
X57959212Y-36550922D01*
X57965540Y-36544430D01*
X57968616Y-36544837D01*
G37*
G36*
X57958102Y-36512948D02*
G01*
X57966166Y-36523237D01*
X57965858Y-36525770D01*
X57955569Y-36533834D01*
X57953036Y-36533526D01*
X57944972Y-36523237D01*
X57945280Y-36520704D01*
X57955569Y-36512640D01*
X57958102Y-36512948D01*
G37*
G36*
X57886268Y-35221651D02*
G01*
X57891990Y-35235753D01*
X57890794Y-35243065D01*
X57881393Y-35251648D01*
X57876518Y-35249854D01*
X57870796Y-35235753D01*
X57871992Y-35228441D01*
X57881393Y-35219858D01*
X57886268Y-35221651D01*
G37*
G36*
X57873690Y-35312098D02*
G01*
X57881393Y-35326449D01*
X57881090Y-35328815D01*
X57870796Y-35336420D01*
X57865732Y-35334398D01*
X57860200Y-35319900D01*
X57861725Y-35312331D01*
X57870796Y-35309929D01*
X57873690Y-35312098D01*
G37*
G36*
X57849603Y-35480887D02*
G01*
X57848268Y-35494150D01*
X57841656Y-35510448D01*
X57836649Y-35511862D01*
X57830065Y-35500492D01*
X57829737Y-35490542D01*
X57838013Y-35470931D01*
X57846767Y-35466767D01*
X57849603Y-35480887D01*
G37*
G36*
X57144091Y-34966372D02*
G01*
X57144931Y-34976137D01*
X57142756Y-34979308D01*
X57133709Y-34986733D01*
X57132651Y-34986458D01*
X57129036Y-34976137D01*
X57129467Y-34973232D01*
X57140258Y-34965540D01*
X57144091Y-34966372D01*
G37*
G36*
X56753832Y-33963128D02*
G01*
X56758156Y-33980683D01*
X56755899Y-33992708D01*
X56747559Y-33995953D01*
X56743420Y-33992176D01*
X56736962Y-33974134D01*
X56738055Y-33967402D01*
X56747559Y-33958865D01*
X56753832Y-33963128D01*
G37*
G36*
X56715769Y-33979433D02*
G01*
X56715362Y-33982509D01*
X56705173Y-33990655D01*
X56702775Y-33990533D01*
X56694576Y-33985982D01*
X56695064Y-33984282D01*
X56705173Y-33974760D01*
X56709277Y-33973104D01*
X56715769Y-33979433D01*
G37*
G36*
X56707623Y-37276001D02*
G01*
X56715769Y-37286191D01*
X56715648Y-37288589D01*
X56711096Y-37296787D01*
X56709397Y-37296300D01*
X56699874Y-37286191D01*
X56698219Y-37282086D01*
X56704547Y-37275594D01*
X56707623Y-37276001D01*
G37*
G36*
X56701545Y-37186802D02*
G01*
X56705173Y-37206716D01*
X56702542Y-37224140D01*
X56694576Y-37233208D01*
X56687607Y-37226631D01*
X56683979Y-37206716D01*
X56686610Y-37189293D01*
X56694576Y-37180225D01*
X56701545Y-37186802D01*
G37*
G36*
X56667661Y-37203211D02*
G01*
X56673383Y-37217313D01*
X56672187Y-37224625D01*
X56662786Y-37233208D01*
X56657912Y-37231415D01*
X56652190Y-37217313D01*
X56653385Y-37210001D01*
X56662786Y-37201418D01*
X56667661Y-37203211D01*
G37*
G36*
X59500628Y-35774287D02*
G01*
X59500967Y-35788532D01*
X59489424Y-35807346D01*
X59481810Y-35814880D01*
X59473949Y-35819682D01*
X59472718Y-35814775D01*
X59476665Y-35797681D01*
X59484975Y-35779403D01*
X59493309Y-35770880D01*
X59500628Y-35774287D01*
G37*
G36*
X58630025Y-37308551D02*
G01*
X58631818Y-37319374D01*
X58616154Y-37341053D01*
X58603543Y-37352686D01*
X58594102Y-37356041D01*
X58593150Y-37349337D01*
X58600064Y-37332258D01*
X58612073Y-37315160D01*
X58623526Y-37307384D01*
X58630025Y-37308551D01*
G37*
G36*
X59694811Y-37289290D02*
G01*
X59704005Y-37296787D01*
X59703615Y-37298307D01*
X59691052Y-37304763D01*
X59666291Y-37307384D01*
X59661191Y-37307306D01*
X59639604Y-37303998D01*
X59635127Y-37296787D01*
X59648368Y-37289457D01*
X59672840Y-37286191D01*
X59694811Y-37289290D01*
G37*
G36*
X60385723Y-34487342D02*
G01*
X60398123Y-34507333D01*
X60403379Y-34539795D01*
X60402862Y-34552220D01*
X60398319Y-34567533D01*
X60390757Y-34565099D01*
X60382217Y-34546738D01*
X60374742Y-34514271D01*
X60373694Y-34507648D01*
X60371297Y-34485655D01*
X60374814Y-34480096D01*
X60385723Y-34487342D01*
G37*
G36*
X60455974Y-34780772D02*
G01*
X60460860Y-34790525D01*
X60467759Y-34816909D01*
X60473328Y-34851769D01*
X60475493Y-34885681D01*
X60472939Y-34907925D01*
X60466968Y-34912344D01*
X60459513Y-34897860D01*
X60452504Y-34863393D01*
X60448284Y-34829373D01*
X60445982Y-34794955D01*
X60448529Y-34779159D01*
X60455974Y-34780772D01*
G37*
G36*
X59065747Y-35830201D02*
G01*
X59085362Y-35841814D01*
X59102962Y-35856016D01*
X59110596Y-35867468D01*
X59110495Y-35868900D01*
X59101998Y-35876846D01*
X59099653Y-35876457D01*
X59084938Y-35867746D01*
X59067461Y-35852376D01*
X59053841Y-35836745D01*
X59050695Y-35827249D01*
X59052069Y-35826515D01*
X59065747Y-35830201D01*
G37*
G36*
X58586194Y-37017018D02*
G01*
X58614357Y-37025066D01*
X58644347Y-37038213D01*
X58659181Y-37046462D01*
X58662568Y-37051415D01*
X58648577Y-37052642D01*
X58646579Y-37052650D01*
X58619812Y-37049050D01*
X58591368Y-37040575D01*
X58568778Y-37029985D01*
X58559574Y-37020038D01*
X58565966Y-37015378D01*
X58586194Y-37017018D01*
G37*
G36*
X57980553Y-36581118D02*
G01*
X57999464Y-36596820D01*
X58023888Y-36621548D01*
X58045218Y-36646448D01*
X58057792Y-36664642D01*
X58058353Y-36671589D01*
X58049349Y-36667544D01*
X58030735Y-36652320D01*
X58008891Y-36630585D01*
X57988584Y-36607488D01*
X57974575Y-36588183D01*
X57971631Y-36577819D01*
X57980553Y-36581118D01*
G37*
G36*
X62279603Y-34853914D02*
G01*
X62294122Y-34873324D01*
X62307929Y-34901484D01*
X62317232Y-34931655D01*
X62319264Y-34950225D01*
X62313394Y-34964562D01*
X62297593Y-34961020D01*
X62273063Y-34939390D01*
X62269249Y-34935152D01*
X62247732Y-34903304D01*
X62240755Y-34875992D01*
X62248409Y-34856757D01*
X62270782Y-34849140D01*
X62279603Y-34853914D01*
G37*
G36*
X60406514Y-34585279D02*
G01*
X60415044Y-34600219D01*
X60425334Y-34627019D01*
X60435285Y-34659135D01*
X60442795Y-34690025D01*
X60445765Y-34713145D01*
X60445124Y-34723981D01*
X60440526Y-34731721D01*
X60432690Y-34723245D01*
X60423037Y-34701411D01*
X60412988Y-34669076D01*
X60403965Y-34629099D01*
X60401960Y-34616537D01*
X60400735Y-34593285D01*
X60404336Y-34584063D01*
X60406514Y-34585279D01*
G37*
G36*
X60225896Y-36348053D02*
G01*
X60205916Y-36369370D01*
X60175552Y-36396731D01*
X60199395Y-36413592D01*
X60215467Y-36427405D01*
X60223237Y-36439757D01*
X60217223Y-36447806D01*
X60199718Y-36445965D01*
X60176917Y-36433371D01*
X60168742Y-36424973D01*
X60162388Y-36400431D01*
X60172439Y-36373208D01*
X60197540Y-36348847D01*
X60217910Y-36337606D01*
X60229600Y-36336745D01*
X60225896Y-36348053D01*
G37*
G36*
X58947263Y-35755927D02*
G01*
X58976300Y-35772481D01*
X59010821Y-35798747D01*
X59019211Y-35805877D01*
X59033006Y-35818598D01*
X59031455Y-35821561D01*
X59015227Y-35817636D01*
X58995442Y-35811866D01*
X58973786Y-35804727D01*
X58963571Y-35805491D01*
X58964847Y-35822076D01*
X58966836Y-35836500D01*
X58962861Y-35845056D01*
X58953701Y-35836592D01*
X58941765Y-35815409D01*
X58930542Y-35789259D01*
X58923352Y-35765902D01*
X58923514Y-35753095D01*
X58927752Y-35751197D01*
X58947263Y-35755927D01*
G37*
G36*
X62067903Y-34863455D02*
G01*
X62102405Y-34876811D01*
X62144807Y-34908893D01*
X62184361Y-34954243D01*
X62218025Y-35008584D01*
X62242755Y-35067641D01*
X62255509Y-35127138D01*
X62257319Y-35147648D01*
X62256779Y-35167900D01*
X62249790Y-35176000D01*
X62233991Y-35177472D01*
X62218792Y-35175526D01*
X62207564Y-35164279D01*
X62200910Y-35137734D01*
X62199723Y-35131180D01*
X62178115Y-35065206D01*
X62140340Y-34998100D01*
X62089655Y-34935776D01*
X62066681Y-34911329D01*
X62044142Y-34883779D01*
X62037115Y-34867558D01*
X62045177Y-34861254D01*
X62067903Y-34863455D01*
G37*
G36*
X58008552Y-35319409D02*
G01*
X58005390Y-35344944D01*
X57993281Y-35389837D01*
X57974004Y-35443833D01*
X57949590Y-35501814D01*
X57922072Y-35558664D01*
X57893481Y-35609263D01*
X57885717Y-35621261D01*
X57867369Y-35645205D01*
X57854474Y-35655570D01*
X57849603Y-35649969D01*
X57853636Y-35639332D01*
X57864737Y-35613287D01*
X57881199Y-35575784D01*
X57901315Y-35530758D01*
X57919401Y-35489917D01*
X57941469Y-35438397D01*
X57960145Y-35392991D01*
X57972680Y-35360263D01*
X57985309Y-35328895D01*
X57997183Y-35308593D01*
X58005450Y-35304839D01*
X58008552Y-35319409D01*
G37*
G36*
X59938256Y-33634189D02*
G01*
X59956662Y-33653063D01*
X59984768Y-33687659D01*
X60023523Y-33738986D01*
X60048648Y-33773203D01*
X60084920Y-33824049D01*
X60109497Y-33861006D01*
X60123454Y-33885733D01*
X60127868Y-33899887D01*
X60124739Y-33907347D01*
X60113054Y-33900594D01*
X60093992Y-33877569D01*
X60068905Y-33839653D01*
X60067008Y-33836576D01*
X60046084Y-33803037D01*
X60029180Y-33776626D01*
X60019801Y-33762828D01*
X60008924Y-33748925D01*
X59976193Y-33706395D01*
X59950078Y-33671391D01*
X59932787Y-33646917D01*
X59926533Y-33635981D01*
X59928601Y-33630031D01*
X59938256Y-33634189D01*
G37*
G36*
X59564280Y-35549825D02*
G01*
X59574294Y-35570406D01*
X59583111Y-35610293D01*
X59584155Y-35617314D01*
X59585239Y-35645189D01*
X59578200Y-35654318D01*
X59571830Y-35651501D01*
X59565867Y-35635774D01*
X59563403Y-35633626D01*
X59555866Y-35646913D01*
X59545089Y-35673924D01*
X59536094Y-35697345D01*
X59522615Y-35727652D01*
X59512171Y-35745707D01*
X59500672Y-35756652D01*
X59495216Y-35752427D01*
X59498737Y-35729870D01*
X59511244Y-35689456D01*
X59520225Y-35661999D01*
X59532231Y-35620648D01*
X59539982Y-35588089D01*
X59544532Y-35568575D01*
X59554037Y-35549049D01*
X59564280Y-35549825D01*
G37*
G36*
X59214182Y-36694163D02*
G01*
X59257080Y-36730512D01*
X59259364Y-36732799D01*
X59284993Y-36760067D01*
X59299154Y-36782076D01*
X59305689Y-36807348D01*
X59308443Y-36844407D01*
X59311516Y-36910012D01*
X59292110Y-36850742D01*
X59278581Y-36812718D01*
X59254095Y-36761382D01*
X59226794Y-36727596D01*
X59194524Y-36709047D01*
X59155133Y-36703419D01*
X59144304Y-36703993D01*
X59100853Y-36719104D01*
X59061974Y-36754786D01*
X59027571Y-36811122D01*
X59020392Y-36825925D01*
X59006469Y-36853277D01*
X58998826Y-36864018D01*
X58995519Y-36860047D01*
X58994604Y-36843257D01*
X58996678Y-36817675D01*
X59015873Y-36768265D01*
X59053939Y-36724277D01*
X59109415Y-36687693D01*
X59137614Y-36677068D01*
X59175468Y-36676670D01*
X59214182Y-36694163D01*
G37*
G36*
X60139249Y-33917137D02*
G01*
X60149351Y-33930745D01*
X60165803Y-33959282D01*
X60186837Y-33999224D01*
X60210686Y-34047049D01*
X60235580Y-34099233D01*
X60259753Y-34152253D01*
X60281436Y-34202586D01*
X60296905Y-34239429D01*
X60312969Y-34276889D01*
X60324648Y-34303254D01*
X60326941Y-34308310D01*
X60343072Y-34347521D01*
X60357403Y-34387832D01*
X60367665Y-34422419D01*
X60371589Y-34444461D01*
X60370520Y-34452399D01*
X60364072Y-34452054D01*
X60353276Y-34435161D01*
X60339854Y-34403921D01*
X60336089Y-34394021D01*
X60314024Y-34338682D01*
X60286169Y-34271922D01*
X60255245Y-34200080D01*
X60223972Y-34129496D01*
X60195070Y-34066509D01*
X60169286Y-34011270D01*
X60150573Y-33970011D01*
X60139094Y-33942578D01*
X60133831Y-33926295D01*
X60133763Y-33918487D01*
X60137869Y-33916479D01*
X60139249Y-33917137D01*
G37*
G36*
X60445647Y-36084613D02*
G01*
X60443519Y-36110204D01*
X60435416Y-36153519D01*
X60420901Y-36213954D01*
X60396036Y-36309685D01*
X60418252Y-36315649D01*
X60434433Y-36319543D01*
X60456740Y-36320649D01*
X60473047Y-36311217D01*
X60487444Y-36288011D01*
X60504020Y-36247795D01*
X60517410Y-36214522D01*
X60534211Y-36179261D01*
X60545578Y-36163354D01*
X60550916Y-36165970D01*
X60549624Y-36186278D01*
X60541106Y-36223445D01*
X60524763Y-36276641D01*
X60510754Y-36322835D01*
X60505406Y-36353164D01*
X60508868Y-36368050D01*
X60515443Y-36379418D01*
X60519941Y-36403496D01*
X60519340Y-36413601D01*
X60513012Y-36426580D01*
X60501871Y-36420862D01*
X60488528Y-36396987D01*
X60473877Y-36373772D01*
X60449305Y-36356544D01*
X60411180Y-36343925D01*
X60355694Y-36334115D01*
X60346144Y-36332796D01*
X60316007Y-36328194D01*
X60303858Y-36324370D01*
X60307239Y-36319653D01*
X60323689Y-36312373D01*
X60334321Y-36307837D01*
X60349921Y-36299019D01*
X60361788Y-36286364D01*
X60372352Y-36265749D01*
X60384044Y-36233051D01*
X60399295Y-36184147D01*
X60403181Y-36171600D01*
X60420567Y-36120242D01*
X60433732Y-36089028D01*
X60442238Y-36077353D01*
X60445647Y-36084613D01*
G37*
G36*
X58733395Y-35587944D02*
G01*
X58757781Y-35627838D01*
X58778289Y-35658653D01*
X58792001Y-35675511D01*
X58798167Y-35682241D01*
X58814671Y-35701764D01*
X58836568Y-35728494D01*
X58851767Y-35747134D01*
X58879806Y-35780935D01*
X58902783Y-35807968D01*
X58908245Y-35814406D01*
X58924071Y-35835332D01*
X58930441Y-35847705D01*
X58930440Y-35847864D01*
X58924920Y-35855653D01*
X58917392Y-35851198D01*
X58898064Y-35833610D01*
X58871075Y-35806017D01*
X58839732Y-35772024D01*
X58807341Y-35735239D01*
X58777209Y-35699270D01*
X58752642Y-35667723D01*
X58746862Y-35659922D01*
X58724459Y-35630920D01*
X58707896Y-35611430D01*
X58700409Y-35605320D01*
X58700263Y-35605746D01*
X58702662Y-35618984D01*
X58709935Y-35646658D01*
X58720612Y-35683777D01*
X58733222Y-35725352D01*
X58746294Y-35766394D01*
X58758358Y-35801914D01*
X58760194Y-35809847D01*
X58755698Y-35810782D01*
X58747430Y-35809913D01*
X58733153Y-35821378D01*
X58727708Y-35828359D01*
X58720496Y-35833794D01*
X58718860Y-35822097D01*
X58720228Y-35812976D01*
X58730520Y-35800437D01*
X58731380Y-35800108D01*
X58735783Y-35789338D01*
X58726452Y-35765115D01*
X58710536Y-35728562D01*
X58691908Y-35676062D01*
X58673468Y-35616204D01*
X58665170Y-35585440D01*
X58686733Y-35585440D01*
X58692031Y-35590738D01*
X58697330Y-35585440D01*
X58692031Y-35580142D01*
X58686733Y-35585440D01*
X58665170Y-35585440D01*
X58657158Y-35555739D01*
X58644919Y-35501417D01*
X58638692Y-35459989D01*
X58633559Y-35394701D01*
X58671553Y-35474176D01*
X58684662Y-35500433D01*
X58708049Y-35543850D01*
X58731956Y-35585440D01*
X58733395Y-35587944D01*
G37*
G36*
X58560699Y-35899038D02*
G01*
X58561567Y-35924530D01*
X58561882Y-35933781D01*
X58564958Y-35985884D01*
X58567870Y-36045276D01*
X58567921Y-36101192D01*
X58563790Y-36141883D01*
X58555119Y-36170466D01*
X58541552Y-36190058D01*
X58541223Y-36190385D01*
X58525024Y-36201676D01*
X58519509Y-36195835D01*
X58526926Y-36175154D01*
X58529352Y-36170267D01*
X58537709Y-36137903D01*
X58534325Y-36108738D01*
X58519837Y-36090387D01*
X58514370Y-36088675D01*
X58489149Y-36084956D01*
X58448939Y-36081421D01*
X58397959Y-36078403D01*
X58340432Y-36076235D01*
X58295793Y-36075041D01*
X58247012Y-36074096D01*
X58213731Y-36074419D01*
X58192594Y-36076400D01*
X58180242Y-36080430D01*
X58173319Y-36086897D01*
X58168465Y-36096191D01*
X58157607Y-36111909D01*
X58141776Y-36120567D01*
X58136816Y-36119649D01*
X58117488Y-36105793D01*
X58096514Y-36079955D01*
X58078233Y-36048175D01*
X58066985Y-36016493D01*
X58066033Y-36012197D01*
X58059940Y-35991703D01*
X58055133Y-35985681D01*
X58054629Y-35987701D01*
X58055795Y-36005505D01*
X58060259Y-36037155D01*
X58067341Y-36077534D01*
X58069570Y-36089697D01*
X58076167Y-36132156D01*
X58079869Y-36167060D01*
X58079924Y-36187821D01*
X58076729Y-36200638D01*
X58071790Y-36198876D01*
X58062422Y-36178848D01*
X58054408Y-36155707D01*
X58042932Y-36101599D01*
X58035531Y-36037038D01*
X58032397Y-35968231D01*
X58033265Y-35924530D01*
X58199290Y-35924530D01*
X58204589Y-35929829D01*
X58209887Y-35924530D01*
X58204589Y-35919232D01*
X58199290Y-35924530D01*
X58033265Y-35924530D01*
X58033725Y-35901387D01*
X58034607Y-35892741D01*
X58085316Y-35892741D01*
X58088988Y-35901528D01*
X58106841Y-35914553D01*
X58130334Y-35919310D01*
X58149353Y-35912654D01*
X58157288Y-35893528D01*
X58150189Y-35870759D01*
X58129654Y-35853379D01*
X58128059Y-35852674D01*
X58102520Y-35849105D01*
X58087595Y-35863063D01*
X58085316Y-35892741D01*
X58034607Y-35892741D01*
X58039709Y-35842713D01*
X58050541Y-35798415D01*
X58050689Y-35798026D01*
X58057018Y-35775010D01*
X58056240Y-35762053D01*
X58054277Y-35760922D01*
X58035417Y-35760446D01*
X58002467Y-35765566D01*
X57960145Y-35775127D01*
X57913169Y-35787972D01*
X57866258Y-35802948D01*
X57824130Y-35818897D01*
X57822835Y-35819434D01*
X57812593Y-35821903D01*
X57807710Y-35815713D01*
X57807178Y-35796730D01*
X57809990Y-35760817D01*
X57811943Y-35743604D01*
X57817839Y-35711632D01*
X57824936Y-35688267D01*
X57831791Y-35676531D01*
X57836962Y-35679446D01*
X57839007Y-35700033D01*
X57839007Y-35728794D01*
X57878744Y-35702563D01*
X57912444Y-35683747D01*
X57983756Y-35659156D01*
X58071994Y-35644731D01*
X58178097Y-35640277D01*
X58201610Y-35640509D01*
X58265673Y-35643222D01*
X58314615Y-35649309D01*
X58352941Y-35659261D01*
X58360254Y-35661852D01*
X58413005Y-35682449D01*
X58466299Y-35706073D01*
X58515003Y-35730203D01*
X58553986Y-35752317D01*
X58578118Y-35769894D01*
X58594750Y-35792930D01*
X58602122Y-35821166D01*
X58597136Y-35845360D01*
X58579678Y-35859008D01*
X58572902Y-35861124D01*
X58565771Y-35866494D01*
X58561849Y-35877870D01*
X58560998Y-35893528D01*
X58560699Y-35899038D01*
G37*
G36*
X58482646Y-33757530D02*
G01*
X58482518Y-33758167D01*
X58478220Y-33779513D01*
X58470785Y-33816349D01*
X58461223Y-33863671D01*
X58450543Y-33916479D01*
X58437381Y-33983134D01*
X58418751Y-34086827D01*
X58404886Y-34180910D01*
X58395183Y-34271529D01*
X58389037Y-34364830D01*
X58385846Y-34466959D01*
X58385006Y-34584063D01*
X58385017Y-34591218D01*
X58386390Y-34719477D01*
X58390108Y-34827795D01*
X58396346Y-34917255D01*
X58405277Y-34988945D01*
X58417079Y-35043949D01*
X58431926Y-35083352D01*
X58449992Y-35108240D01*
X58471454Y-35119698D01*
X58492702Y-35124567D01*
X58515565Y-35131506D01*
X58525573Y-35138967D01*
X58527784Y-35149639D01*
X58526161Y-35156051D01*
X58513751Y-35161091D01*
X58485398Y-35159173D01*
X58481143Y-35158634D01*
X58452485Y-35158147D01*
X58443012Y-35165830D01*
X58443032Y-35166222D01*
X58447132Y-35181281D01*
X58457263Y-35211525D01*
X58471856Y-35252708D01*
X58489345Y-35300587D01*
X58508162Y-35350917D01*
X58526738Y-35399455D01*
X58543508Y-35441956D01*
X58556902Y-35474176D01*
X58562598Y-35487011D01*
X58577966Y-35520884D01*
X58597822Y-35564084D01*
X58619302Y-35610358D01*
X58632978Y-35640250D01*
X58649700Y-35678733D01*
X58661075Y-35707406D01*
X58665187Y-35721622D01*
X58663453Y-35728194D01*
X58654822Y-35724749D01*
X58640064Y-35705657D01*
X58620400Y-35673375D01*
X58597050Y-35630356D01*
X58571233Y-35579055D01*
X58544170Y-35521928D01*
X58517079Y-35461430D01*
X58491182Y-35400014D01*
X58467698Y-35340137D01*
X58447847Y-35284254D01*
X58432305Y-35238007D01*
X58417917Y-35197930D01*
X58406653Y-35171985D01*
X58396736Y-35156847D01*
X58386389Y-35149188D01*
X58373835Y-35145682D01*
X58358968Y-35141816D01*
X58342160Y-35130520D01*
X58343414Y-35117782D01*
X58363781Y-35107586D01*
X58381833Y-35100865D01*
X58388516Y-35088119D01*
X58386629Y-35062160D01*
X58385665Y-35054966D01*
X58381825Y-35023938D01*
X58376465Y-34978650D01*
X58370160Y-34923997D01*
X58363482Y-34864872D01*
X58360633Y-34839658D01*
X58354068Y-34783687D01*
X58348077Y-34735337D01*
X58343226Y-34699091D01*
X58340080Y-34679432D01*
X58334433Y-34652941D01*
X58323856Y-34684731D01*
X58318374Y-34701058D01*
X58296075Y-34765473D01*
X58269492Y-34839924D01*
X58240229Y-34920118D01*
X58209892Y-35001761D01*
X58180086Y-35080559D01*
X58152418Y-35152218D01*
X58128492Y-35212445D01*
X58109913Y-35256946D01*
X58105868Y-35266278D01*
X58091408Y-35300161D01*
X58076161Y-35336420D01*
X58075340Y-35338383D01*
X58057440Y-35379265D01*
X58035744Y-35426059D01*
X58012070Y-35475175D01*
X57988236Y-35523023D01*
X57966057Y-35566011D01*
X57947352Y-35600548D01*
X57933937Y-35623045D01*
X57927630Y-35629911D01*
X57925743Y-35624005D01*
X57930097Y-35600270D01*
X57944618Y-35559412D01*
X57969458Y-35501027D01*
X58004770Y-35424710D01*
X58006682Y-35420684D01*
X58028054Y-35375130D01*
X58045488Y-35337007D01*
X58057231Y-35310204D01*
X58061535Y-35298609D01*
X58061605Y-35297817D01*
X58066562Y-35282793D01*
X58076940Y-35258547D01*
X58088797Y-35231562D01*
X58110555Y-35178344D01*
X58136109Y-35112706D01*
X58163751Y-35039210D01*
X58191775Y-34962417D01*
X58218472Y-34886889D01*
X58242136Y-34817188D01*
X58251998Y-34787148D01*
X58282564Y-34690223D01*
X58306328Y-34607266D01*
X58324390Y-34533919D01*
X58337851Y-34465824D01*
X58347811Y-34398623D01*
X58358577Y-34314934D01*
X58377405Y-34178218D01*
X58395540Y-34059018D01*
X58412867Y-33957938D01*
X58429271Y-33875584D01*
X58444637Y-33812562D01*
X58458849Y-33769476D01*
X58471792Y-33746933D01*
X58479483Y-33739857D01*
X58485057Y-33739717D01*
X58482646Y-33757530D01*
G37*
G36*
X59803927Y-35118049D02*
G01*
X59820368Y-35131673D01*
X59831897Y-35137819D01*
X59838585Y-35145302D01*
X59828137Y-35151575D01*
X59819724Y-35155981D01*
X59813247Y-35165103D01*
X59811441Y-35181354D01*
X59814469Y-35208080D01*
X59822494Y-35248626D01*
X59835680Y-35306340D01*
X59841241Y-35330703D01*
X59854223Y-35391948D01*
X59866035Y-35453016D01*
X59874664Y-35503723D01*
X59878695Y-35528777D01*
X59886245Y-35564570D01*
X59893721Y-35582885D01*
X59901937Y-35586179D01*
X59910383Y-35586284D01*
X59915936Y-35600784D01*
X59914191Y-35612199D01*
X59905091Y-35624377D01*
X59904893Y-35624448D01*
X59899183Y-35636911D01*
X59901234Y-35662929D01*
X59901434Y-35663913D01*
X59910024Y-35687360D01*
X59921320Y-35692839D01*
X59927048Y-35691112D01*
X59951237Y-35685913D01*
X59983459Y-35680458D01*
X59999100Y-35677721D01*
X60023061Y-35671446D01*
X60032498Y-35665643D01*
X60031146Y-35658546D01*
X60023738Y-35634276D01*
X60011569Y-35598931D01*
X59996578Y-35557699D01*
X59980707Y-35515767D01*
X59965894Y-35478319D01*
X59954081Y-35450545D01*
X59947207Y-35437629D01*
X59945931Y-35436544D01*
X59939213Y-35440793D01*
X59936384Y-35464109D01*
X59936373Y-35464650D01*
X59933432Y-35496299D01*
X59927528Y-35521408D01*
X59925918Y-35524268D01*
X59921506Y-35519750D01*
X59917564Y-35499859D01*
X59914371Y-35468899D01*
X59912202Y-35431179D01*
X59911336Y-35391006D01*
X59912047Y-35352686D01*
X59914614Y-35320525D01*
X59917093Y-35301111D01*
X59919582Y-35287159D01*
X59922944Y-35281993D01*
X59928231Y-35287470D01*
X59936499Y-35305450D01*
X59948799Y-35337790D01*
X59966186Y-35386348D01*
X59989713Y-35452983D01*
X59994890Y-35467579D01*
X60014510Y-35521918D01*
X60032696Y-35570876D01*
X60047614Y-35609572D01*
X60057428Y-35633124D01*
X60074612Y-35670212D01*
X60068126Y-35633124D01*
X60061640Y-35596036D01*
X60086374Y-35617230D01*
X60107619Y-35635555D01*
X60130972Y-35655932D01*
X60151867Y-35668654D01*
X60189745Y-35682640D01*
X60233427Y-35692789D01*
X60274480Y-35696704D01*
X60276871Y-35696693D01*
X60292721Y-35695151D01*
X60304155Y-35688725D01*
X60310425Y-35677658D01*
X60352575Y-35677658D01*
X60353975Y-35699353D01*
X60357654Y-35701151D01*
X60359319Y-35686107D01*
X60357842Y-35671530D01*
X60353975Y-35672862D01*
X60352575Y-35677658D01*
X60310425Y-35677658D01*
X60312404Y-35674166D01*
X60318697Y-35648227D01*
X60324266Y-35607662D01*
X60330339Y-35549221D01*
X60334021Y-35513923D01*
X60339174Y-35470560D01*
X60343806Y-35437918D01*
X60347233Y-35421193D01*
X60350664Y-35421293D01*
X60356181Y-35438254D01*
X60362885Y-35470188D01*
X60370298Y-35513806D01*
X60377939Y-35565821D01*
X60385332Y-35622944D01*
X60391996Y-35681886D01*
X60392397Y-35686107D01*
X60397454Y-35739358D01*
X60397912Y-35745760D01*
X60400847Y-35786775D01*
X60401226Y-35792073D01*
X60408677Y-35924530D01*
X60417366Y-35903337D01*
X60445765Y-35903337D01*
X60451063Y-35908635D01*
X60456362Y-35903337D01*
X60451063Y-35898039D01*
X60445765Y-35903337D01*
X60417366Y-35903337D01*
X60426892Y-35880104D01*
X60440254Y-35839516D01*
X60453845Y-35778661D01*
X60463469Y-35712321D01*
X60467623Y-35649019D01*
X60468547Y-35627208D01*
X60471901Y-35597321D01*
X60476576Y-35576218D01*
X60481445Y-35566942D01*
X60485381Y-35572534D01*
X60487257Y-35596036D01*
X60487267Y-35596810D01*
X60486860Y-35636141D01*
X60485018Y-35686618D01*
X60482037Y-35744203D01*
X60478213Y-35804854D01*
X60473840Y-35864533D01*
X60470557Y-35903337D01*
X60469215Y-35919200D01*
X60464633Y-35964813D01*
X60460390Y-35997333D01*
X60456780Y-36012721D01*
X60456410Y-36013344D01*
X60450473Y-36017557D01*
X60447141Y-36004490D01*
X60445895Y-35972215D01*
X60445381Y-35913934D01*
X60433701Y-35935127D01*
X60413269Y-35972200D01*
X60393121Y-36007906D01*
X60377418Y-36031764D01*
X60368034Y-36037612D01*
X60363875Y-36024677D01*
X60363850Y-35992185D01*
X60366864Y-35939362D01*
X60367140Y-35935127D01*
X60392782Y-35935127D01*
X60398080Y-35940425D01*
X60403379Y-35935127D01*
X60398080Y-35929829D01*
X60392782Y-35935127D01*
X60367140Y-35935127D01*
X60367678Y-35926876D01*
X60370281Y-35880876D01*
X60370666Y-35851238D01*
X60368422Y-35834048D01*
X60363132Y-35825391D01*
X60354385Y-35821353D01*
X60342978Y-35817823D01*
X60315957Y-35808036D01*
X60302995Y-35805702D01*
X60297413Y-35817259D01*
X60297401Y-35818677D01*
X60294915Y-35827689D01*
X60284380Y-35826998D01*
X60260458Y-35816494D01*
X60253372Y-35813297D01*
X60229632Y-35805460D01*
X60216609Y-35805765D01*
X60215116Y-35811261D01*
X60217047Y-35832800D01*
X60224044Y-35863296D01*
X60231471Y-35895958D01*
X60237891Y-35960871D01*
X60238755Y-35969605D01*
X60237819Y-36003379D01*
X60236556Y-36048988D01*
X60225591Y-36127638D01*
X60206582Y-36199088D01*
X60180248Y-36256869D01*
X60176932Y-36262175D01*
X60160964Y-36282725D01*
X60152693Y-36284579D01*
X60153216Y-36269026D01*
X60163629Y-36237355D01*
X60167084Y-36228184D01*
X60176904Y-36194593D01*
X60180851Y-36168037D01*
X60177587Y-36149645D01*
X60167311Y-36141780D01*
X60154359Y-36152357D01*
X60143550Y-36161243D01*
X60121503Y-36159509D01*
X60096078Y-36141760D01*
X60095962Y-36141645D01*
X60084280Y-36132318D01*
X60068718Y-36126199D01*
X60044948Y-36122635D01*
X60008645Y-36120975D01*
X59955484Y-36120567D01*
X59937257Y-36120543D01*
X59889821Y-36119892D01*
X59857000Y-36117698D01*
X59833760Y-36113102D01*
X59815068Y-36105242D01*
X59795890Y-36093255D01*
X59785572Y-36085714D01*
X59760735Y-36062953D01*
X59746418Y-36042922D01*
X59743820Y-36038964D01*
X59740009Y-36045485D01*
X59737523Y-36066190D01*
X59736383Y-36096550D01*
X59736606Y-36132034D01*
X59738212Y-36168116D01*
X59741221Y-36200265D01*
X59745651Y-36223954D01*
X59747078Y-36229197D01*
X59750127Y-36252006D01*
X59744727Y-36257506D01*
X59733398Y-36246199D01*
X59718657Y-36218585D01*
X59708876Y-36183560D01*
X59702378Y-36133111D01*
X59699692Y-36074020D01*
X59701098Y-36012505D01*
X59701356Y-36009928D01*
X59852357Y-36009928D01*
X59852632Y-36010986D01*
X59862953Y-36014601D01*
X59865858Y-36014170D01*
X59873550Y-36003379D01*
X59872718Y-35999547D01*
X59862953Y-35998706D01*
X59859782Y-36000881D01*
X59852357Y-36009928D01*
X59701356Y-36009928D01*
X59706871Y-35954783D01*
X59707812Y-35947766D01*
X59748626Y-35947766D01*
X59763043Y-35966160D01*
X59770657Y-35972680D01*
X59795299Y-35982208D01*
X59816779Y-35977366D01*
X59829396Y-35960871D01*
X59827453Y-35935443D01*
X59818105Y-35923703D01*
X59796155Y-35913423D01*
X59772288Y-35911672D01*
X59756012Y-35920447D01*
X59749914Y-35931291D01*
X59748626Y-35947766D01*
X59707812Y-35947766D01*
X59710853Y-35925096D01*
X59710061Y-35906486D01*
X59701561Y-35896623D01*
X59683029Y-35889106D01*
X59681682Y-35888625D01*
X59659982Y-35877135D01*
X59651022Y-35865160D01*
X59651540Y-35861760D01*
X59663791Y-35842126D01*
X59689149Y-35816354D01*
X59723375Y-35788025D01*
X59725154Y-35786775D01*
X60276220Y-35786775D01*
X60281518Y-35792073D01*
X60286816Y-35786775D01*
X60281518Y-35781477D01*
X60276220Y-35786775D01*
X59725154Y-35786775D01*
X59762231Y-35760723D01*
X59801476Y-35738029D01*
X59835002Y-35721105D01*
X60217465Y-35721105D01*
X60223237Y-35733792D01*
X60233911Y-35742408D01*
X60258349Y-35749687D01*
X60270542Y-35749402D01*
X60273831Y-35745760D01*
X60259701Y-35734129D01*
X60243759Y-35723992D01*
X60225891Y-35717853D01*
X60217465Y-35721105D01*
X59835002Y-35721105D01*
X59865940Y-35705487D01*
X59859181Y-35618972D01*
X59857267Y-35600277D01*
X59850574Y-35554342D01*
X59840678Y-35498366D01*
X59828538Y-35436770D01*
X59815118Y-35373972D01*
X59801377Y-35314393D01*
X59788279Y-35262453D01*
X59776784Y-35222571D01*
X59767853Y-35199168D01*
X59756571Y-35186377D01*
X59730603Y-35177472D01*
X59726550Y-35177567D01*
X59715366Y-35180140D01*
X59707185Y-35188532D01*
X59701228Y-35205815D01*
X59696714Y-35235060D01*
X59692864Y-35279338D01*
X59688899Y-35341718D01*
X59685792Y-35382113D01*
X59679307Y-35440950D01*
X59670775Y-35501858D01*
X59660848Y-35561536D01*
X59650178Y-35616681D01*
X59639417Y-35663992D01*
X59629215Y-35700165D01*
X59620225Y-35721899D01*
X59613098Y-35725892D01*
X59612470Y-35722487D01*
X59613320Y-35701766D01*
X59616730Y-35665721D01*
X59622314Y-35618144D01*
X59629687Y-35562824D01*
X59638033Y-35498074D01*
X59656685Y-35264048D01*
X59658652Y-35064504D01*
X59705573Y-35064504D01*
X59706291Y-35107027D01*
X59711028Y-35131558D01*
X59720479Y-35140277D01*
X59735341Y-35135365D01*
X59736718Y-35134459D01*
X59742998Y-35126373D01*
X59744140Y-35111452D01*
X59739879Y-35085191D01*
X59729954Y-35043086D01*
X59709303Y-34960242D01*
X59706178Y-35044009D01*
X59705573Y-35064504D01*
X59658652Y-35064504D01*
X59659066Y-35022465D01*
X59645511Y-34777597D01*
X59616353Y-34533715D01*
X59571926Y-34295092D01*
X59512566Y-34066000D01*
X59505048Y-34040536D01*
X59489161Y-33983396D01*
X59479216Y-33942004D01*
X59475306Y-33917249D01*
X59477524Y-33910023D01*
X59485961Y-33921218D01*
X59500711Y-33951723D01*
X59531884Y-34030410D01*
X59568027Y-34144463D01*
X59601840Y-34277239D01*
X59632990Y-34427418D01*
X59661151Y-34593682D01*
X59683889Y-34723175D01*
X59721190Y-34885581D01*
X59765642Y-35034194D01*
X59771270Y-35050312D01*
X59788257Y-35092169D01*
X59799933Y-35111452D01*
X59803927Y-35118049D01*
G37*
G36*
X57642041Y-33913673D02*
G01*
X57615275Y-33953567D01*
X57596801Y-33981103D01*
X57553869Y-34049602D01*
X57516992Y-34113383D01*
X57489920Y-34166659D01*
X57481137Y-34185858D01*
X57462214Y-34226711D01*
X57443176Y-34267326D01*
X57442484Y-34268794D01*
X57405345Y-34356818D01*
X57367923Y-34462363D01*
X57331085Y-34581855D01*
X57295695Y-34711724D01*
X57262620Y-34848394D01*
X57241899Y-34945363D01*
X57232725Y-34988295D01*
X57209201Y-35115298D01*
X57206876Y-35127852D01*
X57185938Y-35263494D01*
X57170778Y-35391647D01*
X57168022Y-35428345D01*
X57165123Y-35496217D01*
X57163225Y-35583936D01*
X57162340Y-35690743D01*
X57162475Y-35815873D01*
X57163642Y-35958564D01*
X57164660Y-36043354D01*
X57166356Y-36152960D01*
X57168486Y-36245910D01*
X57171286Y-36324913D01*
X57174991Y-36392675D01*
X57179837Y-36451907D01*
X57186059Y-36505315D01*
X57193893Y-36555609D01*
X57203575Y-36605496D01*
X57215339Y-36657685D01*
X57229422Y-36714884D01*
X57237650Y-36747180D01*
X57252973Y-36804722D01*
X57264350Y-36841626D01*
X57272270Y-36857915D01*
X57277224Y-36853616D01*
X57279702Y-36828752D01*
X57280195Y-36783350D01*
X57279193Y-36717434D01*
X57278613Y-36684972D01*
X57278344Y-36625239D01*
X57279589Y-36585241D01*
X57282397Y-36563999D01*
X57286816Y-36560530D01*
X57291859Y-36571476D01*
X57301083Y-36600250D01*
X57313106Y-36643041D01*
X57326942Y-36696323D01*
X57341604Y-36756567D01*
X57351206Y-36796343D01*
X57369647Y-36868825D01*
X57388825Y-36940104D01*
X57406971Y-37003684D01*
X57422315Y-37053066D01*
X57428955Y-37072547D01*
X57448211Y-37125282D01*
X57469280Y-37178734D01*
X57490636Y-37229471D01*
X57510752Y-37274060D01*
X57528102Y-37309068D01*
X57539500Y-37328268D01*
X57541159Y-37331063D01*
X57548397Y-37336611D01*
X57548700Y-37335733D01*
X57547640Y-37319973D01*
X57542917Y-37287354D01*
X57535068Y-37241079D01*
X57524630Y-37184347D01*
X57512139Y-37120360D01*
X57499445Y-37056649D01*
X57483283Y-36973314D01*
X57471669Y-36909033D01*
X57464650Y-36862790D01*
X57462269Y-36833572D01*
X57464571Y-36820365D01*
X57471602Y-36822155D01*
X57483404Y-36837927D01*
X57500024Y-36866668D01*
X57521506Y-36907363D01*
X57562610Y-36983024D01*
X57635520Y-37098504D01*
X57711108Y-37194909D01*
X57715002Y-37199291D01*
X57755302Y-37242256D01*
X57792762Y-37278212D01*
X57824666Y-37304870D01*
X57848297Y-37319942D01*
X57860938Y-37321138D01*
X57869537Y-37308445D01*
X57884785Y-37282496D01*
X57903234Y-37249103D01*
X57921116Y-37217949D01*
X57948402Y-37175284D01*
X57973419Y-37140822D01*
X58009423Y-37096121D01*
X57962814Y-37008365D01*
X57911646Y-36895986D01*
X57870399Y-36767999D01*
X57839426Y-36623905D01*
X57836990Y-36609669D01*
X57827417Y-36555612D01*
X57819610Y-36518016D01*
X57812234Y-36493214D01*
X57803954Y-36477541D01*
X57793435Y-36467331D01*
X57779343Y-36458918D01*
X57748958Y-36435741D01*
X57738569Y-36408775D01*
X57749087Y-36378466D01*
X57750335Y-36376547D01*
X57758731Y-36360834D01*
X57761219Y-36344483D01*
X57757737Y-36320942D01*
X57748226Y-36283655D01*
X57747160Y-36279652D01*
X57739493Y-36244955D01*
X57736442Y-36219508D01*
X57737777Y-36206215D01*
X57743266Y-36207982D01*
X57752678Y-36227712D01*
X57753485Y-36229832D01*
X57771822Y-36276569D01*
X57785493Y-36306706D01*
X57796672Y-36323554D01*
X57807531Y-36330421D01*
X57820242Y-36330615D01*
X57827622Y-36329106D01*
X57836474Y-36323843D01*
X57841529Y-36312509D01*
X57842872Y-36292134D01*
X57840587Y-36259748D01*
X57834758Y-36212379D01*
X57825471Y-36147059D01*
X57821045Y-36116368D01*
X57811339Y-36044847D01*
X57805342Y-35992367D01*
X57802948Y-35957605D01*
X57804049Y-35939239D01*
X57808540Y-35935945D01*
X57814324Y-35945049D01*
X57817813Y-35966841D01*
X57817825Y-35967755D01*
X57820290Y-35990958D01*
X57826365Y-36029224D01*
X57835029Y-36077416D01*
X57845262Y-36130396D01*
X57856044Y-36183028D01*
X57866354Y-36230175D01*
X57875173Y-36266699D01*
X57881480Y-36287463D01*
X57882356Y-36289447D01*
X57897675Y-36306446D01*
X57925671Y-36311305D01*
X57938833Y-36311777D01*
X57950437Y-36315641D01*
X57941964Y-36323518D01*
X57913200Y-36335548D01*
X57863928Y-36351873D01*
X57820767Y-36366963D01*
X57783970Y-36385308D01*
X57767696Y-36402505D01*
X57772250Y-36418333D01*
X57783359Y-36424703D01*
X57810370Y-36434896D01*
X57845447Y-36445181D01*
X57873467Y-36453202D01*
X57908076Y-36465316D01*
X57930746Y-36475960D01*
X57934016Y-36478016D01*
X57950704Y-36484875D01*
X57958663Y-36477475D01*
X57966902Y-36469834D01*
X57990782Y-36457589D01*
X58023838Y-36445348D01*
X58064282Y-36429588D01*
X58087112Y-36412250D01*
X58089661Y-36393610D01*
X58072397Y-36372969D01*
X58069452Y-36370540D01*
X58054103Y-36354079D01*
X58057443Y-36346882D01*
X58079250Y-36349712D01*
X58096876Y-36360250D01*
X58113625Y-36382455D01*
X58118466Y-36397248D01*
X58115764Y-36417725D01*
X58098578Y-36436451D01*
X58064803Y-36455375D01*
X58012338Y-36476448D01*
X57992248Y-36483587D01*
X57955727Y-36494679D01*
X57933234Y-36497615D01*
X57921147Y-36493054D01*
X57906632Y-36481139D01*
X57899430Y-36481730D01*
X57903205Y-36495233D01*
X57918293Y-36518635D01*
X57924415Y-36526896D01*
X57939252Y-36551535D01*
X57939017Y-36561658D01*
X57924696Y-36556487D01*
X57897275Y-36535244D01*
X57884877Y-36524559D01*
X57864944Y-36508404D01*
X57855199Y-36502044D01*
X57853342Y-36504830D01*
X57853681Y-36523617D01*
X57858270Y-36556729D01*
X57866215Y-36600174D01*
X57876621Y-36649963D01*
X57888592Y-36702105D01*
X57901234Y-36752611D01*
X57913651Y-36797490D01*
X57924950Y-36832753D01*
X57934234Y-36854409D01*
X57952395Y-36880403D01*
X57992726Y-36917597D01*
X58046424Y-36946437D01*
X58115242Y-36967562D01*
X58200935Y-36981607D01*
X58305256Y-36989211D01*
X58308078Y-36989325D01*
X58365466Y-36991773D01*
X58403445Y-36993844D01*
X58423718Y-36995815D01*
X58427987Y-36997964D01*
X58417956Y-37000568D01*
X58395327Y-37003907D01*
X58360441Y-37009456D01*
X58301602Y-37021472D01*
X58239511Y-37036594D01*
X58180212Y-37053204D01*
X58129749Y-37069686D01*
X58094168Y-37084425D01*
X58072348Y-37098671D01*
X58035481Y-37131705D01*
X57996586Y-37174683D01*
X57960272Y-37222372D01*
X57931149Y-37269538D01*
X57927711Y-37276229D01*
X57917853Y-37300605D01*
X57911961Y-37328562D01*
X57909146Y-37365957D01*
X57908520Y-37418648D01*
X57910335Y-37477545D01*
X57917580Y-37530717D01*
X57932051Y-37572052D01*
X57955535Y-37606382D01*
X57989819Y-37638544D01*
X58004759Y-37650770D01*
X58029634Y-37671594D01*
X58045032Y-37685116D01*
X58058472Y-37694806D01*
X58085621Y-37711320D01*
X58119456Y-37730152D01*
X58142689Y-37741376D01*
X58200605Y-37759564D01*
X58253942Y-37762905D01*
X58298005Y-37750854D01*
X58309495Y-37744343D01*
X58323184Y-37732571D01*
X58331853Y-37715189D01*
X58337646Y-37687018D01*
X58342705Y-37642880D01*
X58348195Y-37599037D01*
X58358673Y-37552844D01*
X58374983Y-37515009D01*
X58399669Y-37478178D01*
X58409992Y-37465289D01*
X58427281Y-37448116D01*
X58434257Y-37448677D01*
X58430300Y-37466098D01*
X58414790Y-37499503D01*
X58398774Y-37535521D01*
X58387409Y-37579860D01*
X58381619Y-37635842D01*
X58380547Y-37658168D01*
X58380980Y-37697679D01*
X58386477Y-37720093D01*
X58398105Y-37728083D01*
X58416931Y-37724325D01*
X58425008Y-37719478D01*
X58430463Y-37707706D01*
X58431393Y-37684949D01*
X58428540Y-37646212D01*
X58425738Y-37606940D01*
X58427302Y-37580000D01*
X58434815Y-37558316D01*
X58449777Y-37533958D01*
X58457694Y-37522597D01*
X58506387Y-37466734D01*
X58559619Y-37429221D01*
X58560031Y-37429008D01*
X58586233Y-37416573D01*
X58598756Y-37414383D01*
X58601960Y-37421662D01*
X58601493Y-37423296D01*
X58589870Y-37434969D01*
X58567521Y-37449903D01*
X58527596Y-37478932D01*
X58488017Y-37522730D01*
X58463305Y-37569726D01*
X58459608Y-37584099D01*
X58461002Y-37614270D01*
X58477783Y-37641855D01*
X58511744Y-37669131D01*
X58564676Y-37698372D01*
X58583541Y-37707267D01*
X58658831Y-37733677D01*
X58728920Y-37741536D01*
X58797816Y-37730890D01*
X58869524Y-37701782D01*
X58871979Y-37701064D01*
X58877471Y-37708789D01*
X58875857Y-37713019D01*
X58861777Y-37728291D01*
X58837923Y-37746760D01*
X58794427Y-37766967D01*
X58732306Y-37774961D01*
X58658620Y-37766208D01*
X58574114Y-37740724D01*
X58486920Y-37707815D01*
X58451720Y-37734301D01*
X58433914Y-37745701D01*
X58396043Y-37764443D01*
X58355590Y-37779742D01*
X58328358Y-37789673D01*
X58304005Y-37802298D01*
X58294660Y-37812657D01*
X58292455Y-37820254D01*
X58275570Y-37826334D01*
X58243032Y-37820770D01*
X58196019Y-37803835D01*
X58135711Y-37775801D01*
X58105589Y-37760299D01*
X58063523Y-37737481D01*
X58029821Y-37717820D01*
X58009840Y-37704356D01*
X58000771Y-37696771D01*
X57937463Y-37635626D01*
X57893736Y-37575507D01*
X57868383Y-37514366D01*
X57860200Y-37450154D01*
X57860200Y-37392157D01*
X56768420Y-37392157D01*
X56665180Y-37392149D01*
X56499345Y-37392092D01*
X56352850Y-37391963D01*
X56224512Y-37391746D01*
X56113149Y-37391422D01*
X56017579Y-37390975D01*
X55936618Y-37390385D01*
X55869086Y-37389637D01*
X55813800Y-37388712D01*
X55769577Y-37387592D01*
X55735235Y-37386260D01*
X55709592Y-37384699D01*
X55691466Y-37382890D01*
X55679674Y-37380817D01*
X55673034Y-37378461D01*
X55670365Y-37375805D01*
X55668232Y-37367096D01*
X55671193Y-37352349D01*
X55676714Y-37350957D01*
X55700838Y-37348585D01*
X55741195Y-37346109D01*
X55794762Y-37343680D01*
X55847778Y-37341823D01*
X56218051Y-37341823D01*
X56221573Y-37346357D01*
X56238322Y-37349770D01*
X56244221Y-37348928D01*
X56265803Y-37335815D01*
X56274928Y-37324573D01*
X56323696Y-37324573D01*
X56329578Y-37334109D01*
X56350187Y-37339174D01*
X56360819Y-37338672D01*
X56371436Y-37333323D01*
X56375820Y-37317636D01*
X56376679Y-37286191D01*
X56375973Y-37267106D01*
X56372188Y-37242738D01*
X56366224Y-37233208D01*
X56362190Y-37235212D01*
X56350570Y-37250914D01*
X56337960Y-37276027D01*
X56327842Y-37303073D01*
X56323696Y-37324573D01*
X56274928Y-37324573D01*
X56284153Y-37313209D01*
X56291906Y-37289407D01*
X56292162Y-37286575D01*
X56298404Y-37263946D01*
X56311910Y-37226593D01*
X56331219Y-37178092D01*
X56354874Y-37122017D01*
X56381415Y-37061945D01*
X56409384Y-37001452D01*
X56428319Y-36960959D01*
X56445507Y-36923049D01*
X56457161Y-36895981D01*
X56461451Y-36883883D01*
X56466901Y-36873827D01*
X56482644Y-36857029D01*
X56487499Y-36852672D01*
X56498861Y-36844845D01*
X56503164Y-36851819D01*
X56503838Y-36876791D01*
X56503528Y-36883842D01*
X56500017Y-36914688D01*
X56493212Y-36959546D01*
X56483889Y-37013548D01*
X56472822Y-37071820D01*
X56469000Y-37091231D01*
X56457588Y-37151193D01*
X56447531Y-37206900D01*
X56439800Y-37252849D01*
X56435369Y-37283542D01*
X56435062Y-37286191D01*
X56428932Y-37339174D01*
X56529964Y-37339174D01*
X56556316Y-37338849D01*
X56594743Y-37336982D01*
X56621168Y-37333828D01*
X56630997Y-37329813D01*
X56634598Y-37323564D01*
X56651292Y-37315145D01*
X56664963Y-37306359D01*
X56676340Y-37284768D01*
X56678107Y-37277699D01*
X56680906Y-37279678D01*
X56682699Y-37302086D01*
X56684218Y-37323648D01*
X56688184Y-37334456D01*
X56695545Y-37328577D01*
X56704876Y-37319181D01*
X56712161Y-37325928D01*
X56712534Y-37326638D01*
X56721842Y-37331534D01*
X56743866Y-37335091D01*
X56780721Y-37337455D01*
X56834524Y-37338768D01*
X56907391Y-37339174D01*
X57097246Y-37339174D01*
X57224405Y-37339174D01*
X57296815Y-37339174D01*
X57297158Y-37339174D01*
X57334328Y-37338318D01*
X57362429Y-37336101D01*
X57375401Y-37332998D01*
X57375536Y-37328268D01*
X57369366Y-37307634D01*
X57356540Y-37275045D01*
X57338736Y-37234980D01*
X57334687Y-37226219D01*
X57309170Y-37168268D01*
X57282797Y-37104698D01*
X57260679Y-37047768D01*
X57225463Y-36952399D01*
X57224934Y-37145786D01*
X57224405Y-37339174D01*
X57097246Y-37339174D01*
X57096993Y-36955048D01*
X57096960Y-36926867D01*
X57096116Y-36769793D01*
X57094034Y-36626975D01*
X57090529Y-36492494D01*
X57085414Y-36360431D01*
X57078505Y-36224867D01*
X57069617Y-36079883D01*
X57062437Y-35970321D01*
X57034806Y-35977269D01*
X56973294Y-35988258D01*
X56879161Y-35989071D01*
X56776856Y-35971866D01*
X56727694Y-35958735D01*
X56630696Y-35924186D01*
X56552456Y-35882490D01*
X56491982Y-35833164D01*
X56443039Y-35782919D01*
X56436443Y-35837830D01*
X56434195Y-35864014D01*
X56431898Y-35909521D01*
X56430301Y-35963756D01*
X56429658Y-36019900D01*
X56429300Y-36064135D01*
X56427282Y-36151919D01*
X56423727Y-36246263D01*
X56418907Y-36342542D01*
X56413092Y-36436131D01*
X56406556Y-36522403D01*
X56399568Y-36596733D01*
X56392402Y-36654495D01*
X56374754Y-36754323D01*
X56341652Y-36897897D01*
X56296817Y-37058364D01*
X56287784Y-37088709D01*
X56271227Y-37145417D01*
X56255177Y-37201595D01*
X56240734Y-37253283D01*
X56228999Y-37296522D01*
X56221071Y-37327355D01*
X56218051Y-37341823D01*
X55847778Y-37341823D01*
X55858513Y-37341447D01*
X55929424Y-37339561D01*
X56180552Y-37333875D01*
X56216123Y-37217313D01*
X56226188Y-37184336D01*
X56255520Y-37087892D01*
X56280903Y-37002795D01*
X56302624Y-36926721D01*
X56320969Y-36857344D01*
X56336223Y-36792342D01*
X56348673Y-36729390D01*
X56358605Y-36666162D01*
X56366305Y-36600336D01*
X56372058Y-36529587D01*
X56376151Y-36451591D01*
X56378870Y-36364023D01*
X56380501Y-36264559D01*
X56381329Y-36150874D01*
X56381642Y-36020645D01*
X56381724Y-35871547D01*
X56381727Y-35863596D01*
X56381803Y-35731443D01*
X56381950Y-35618718D01*
X56382220Y-35523749D01*
X56382666Y-35444864D01*
X56382994Y-35413510D01*
X56408727Y-35413510D01*
X56408759Y-35454170D01*
X56409740Y-35496379D01*
X56412763Y-35527279D01*
X56418879Y-35552611D01*
X56429139Y-35578120D01*
X56444593Y-35609547D01*
X56456616Y-35632339D01*
X56505820Y-35707693D01*
X56562081Y-35765544D01*
X56628551Y-35808639D01*
X56708377Y-35839727D01*
X56745935Y-35848719D01*
X56834584Y-35854347D01*
X56927941Y-35839694D01*
X57025281Y-35804840D01*
X57042571Y-35796833D01*
X57068272Y-35782955D01*
X57087327Y-35767368D01*
X57101059Y-35746832D01*
X57110791Y-35718105D01*
X57117848Y-35677947D01*
X57123554Y-35623117D01*
X57129231Y-35550374D01*
X57135001Y-35480223D01*
X57142686Y-35398933D01*
X57151133Y-35318579D01*
X57159331Y-35249273D01*
X57162690Y-35222978D01*
X57168854Y-35172727D01*
X57172212Y-35138104D01*
X57172691Y-35115298D01*
X57170220Y-35100497D01*
X57164726Y-35089888D01*
X57156138Y-35079660D01*
X57142933Y-35065896D01*
X57079623Y-35017053D01*
X57003903Y-34979920D01*
X56920920Y-34956095D01*
X56835820Y-34947175D01*
X56753751Y-34954758D01*
X56663605Y-34981637D01*
X56583441Y-35022089D01*
X56516874Y-35074056D01*
X56466994Y-35135591D01*
X56458195Y-35150299D01*
X56437740Y-35190685D01*
X56423611Y-35232214D01*
X56414763Y-35279871D01*
X56410150Y-35338641D01*
X56408727Y-35413510D01*
X56382994Y-35413510D01*
X56383340Y-35380391D01*
X56384293Y-35328657D01*
X56385578Y-35287991D01*
X56387247Y-35256720D01*
X56389351Y-35233172D01*
X56391944Y-35215675D01*
X56395077Y-35202557D01*
X56398801Y-35192146D01*
X56403170Y-35182770D01*
X56408609Y-35172244D01*
X56424648Y-35144414D01*
X56437238Y-35126752D01*
X56451002Y-35109106D01*
X56467384Y-35083881D01*
X56470911Y-35078478D01*
X56493974Y-35052409D01*
X56522623Y-35028635D01*
X56531496Y-35022475D01*
X56556445Y-35004281D01*
X56571951Y-34991677D01*
X56576288Y-34988050D01*
X56603416Y-34972452D01*
X56643814Y-34954856D01*
X56691679Y-34937424D01*
X56741211Y-34922317D01*
X56786609Y-34911697D01*
X56861625Y-34897823D01*
X56842205Y-34828365D01*
X56840338Y-34821842D01*
X56829468Y-34786093D01*
X56813480Y-34735582D01*
X56793722Y-34674492D01*
X56771545Y-34607003D01*
X56748298Y-34537300D01*
X56748265Y-34537203D01*
X56722842Y-34458905D01*
X56696985Y-34374596D01*
X56672586Y-34290768D01*
X56651534Y-34213913D01*
X56635718Y-34150524D01*
X56632192Y-34135272D01*
X56614299Y-34058719D01*
X56598122Y-33990352D01*
X56675004Y-33990352D01*
X56676975Y-33999339D01*
X56689944Y-34001251D01*
X56698678Y-34004075D01*
X56704618Y-34019795D01*
X56703913Y-34027300D01*
X56703466Y-34067208D01*
X56711004Y-34089616D01*
X56727143Y-34096620D01*
X56741905Y-34100086D01*
X56745057Y-34115164D01*
X56741068Y-34124776D01*
X56729538Y-34131444D01*
X56728830Y-34131407D01*
X56726399Y-34140855D01*
X56730422Y-34164701D01*
X56739405Y-34198268D01*
X56751851Y-34236876D01*
X56766264Y-34275848D01*
X56781148Y-34310506D01*
X56795007Y-34336170D01*
X56803780Y-34354155D01*
X56815903Y-34387490D01*
X56827302Y-34426414D01*
X56827731Y-34428062D01*
X56836959Y-34460648D01*
X56851414Y-34508610D01*
X56869729Y-34567535D01*
X56890531Y-34633011D01*
X56912453Y-34700625D01*
X56980160Y-34907259D01*
X57030756Y-34933636D01*
X57045920Y-34941775D01*
X57087994Y-34965963D01*
X57125274Y-34989269D01*
X57140658Y-34999106D01*
X57165368Y-35013048D01*
X57179670Y-35018523D01*
X57179999Y-35018518D01*
X57192458Y-35008564D01*
X57200024Y-34982655D01*
X57202671Y-34945363D01*
X57200373Y-34901259D01*
X57193105Y-34854914D01*
X57180841Y-34810899D01*
X57180415Y-34809696D01*
X57168256Y-34766403D01*
X57157659Y-34713495D01*
X57150872Y-34662148D01*
X57149076Y-34643304D01*
X57145513Y-34616567D01*
X57139985Y-34591123D01*
X57131214Y-34563611D01*
X57117922Y-34530668D01*
X57098830Y-34488934D01*
X57072662Y-34435046D01*
X57038137Y-34365642D01*
X56998973Y-34288597D01*
X56966182Y-34227205D01*
X56940538Y-34183192D01*
X56921420Y-34155496D01*
X56908208Y-34143054D01*
X56894096Y-34133268D01*
X56896671Y-34126391D01*
X56896932Y-34126295D01*
X56899062Y-34115225D01*
X56888354Y-34088522D01*
X56864622Y-34045717D01*
X56856883Y-34032804D01*
X56836802Y-34000450D01*
X56821779Y-33977918D01*
X56814604Y-33969462D01*
X56813324Y-33970680D01*
X56817550Y-33981859D01*
X56819369Y-33989104D01*
X56806712Y-33987157D01*
X56796181Y-33983365D01*
X56784052Y-33980058D01*
X56782619Y-33979219D01*
X56773811Y-33966691D01*
X56766560Y-33953567D01*
X56800542Y-33953567D01*
X56805840Y-33958865D01*
X56811138Y-33953567D01*
X56805840Y-33948268D01*
X56800542Y-33953567D01*
X56766560Y-33953567D01*
X56762129Y-33945547D01*
X56751927Y-33924078D01*
X56747559Y-33910573D01*
X56750824Y-33907885D01*
X56766103Y-33910674D01*
X56777960Y-33913548D01*
X56772534Y-33905523D01*
X56755970Y-33901392D01*
X56732724Y-33911246D01*
X56708514Y-33931920D01*
X56688736Y-33959912D01*
X56683890Y-33969416D01*
X56675004Y-33990352D01*
X56598122Y-33990352D01*
X56594048Y-33973133D01*
X56573671Y-33887903D01*
X56571610Y-33879391D01*
X56747559Y-33879391D01*
X56752857Y-33884689D01*
X56758156Y-33879391D01*
X56752857Y-33874092D01*
X56747559Y-33879391D01*
X56571610Y-33879391D01*
X56555398Y-33812419D01*
X56545652Y-33771354D01*
X56533205Y-33714920D01*
X56523658Y-33666651D01*
X56517807Y-33630666D01*
X56516451Y-33611084D01*
X56517028Y-33606664D01*
X56521347Y-33593082D01*
X56532441Y-33584115D01*
X56555049Y-33577248D01*
X56593909Y-33569966D01*
X56618679Y-33566410D01*
X56666550Y-33561080D01*
X56726421Y-33555541D01*
X56793044Y-33550267D01*
X56861169Y-33545736D01*
X56903811Y-33542883D01*
X56980251Y-33536515D01*
X57056205Y-33528831D01*
X57124775Y-33520555D01*
X57179066Y-33512408D01*
X57214704Y-33506639D01*
X57259673Y-33500805D01*
X57309175Y-33496143D01*
X57366543Y-33492445D01*
X57435108Y-33489504D01*
X57518202Y-33487114D01*
X57619156Y-33485067D01*
X57934433Y-33479544D01*
X57992713Y-33444450D01*
X58065368Y-33404108D01*
X58151671Y-33361933D01*
X58240482Y-33323334D01*
X58322594Y-33292549D01*
X58427963Y-33261777D01*
X58577818Y-33230551D01*
X58739156Y-33209010D01*
X58907810Y-33197178D01*
X59079612Y-33195078D01*
X59250396Y-33202736D01*
X59415994Y-33220175D01*
X59572238Y-33247419D01*
X59714962Y-33284493D01*
X59780166Y-33307226D01*
X59858848Y-33338736D01*
X59942418Y-33375433D01*
X60024597Y-33414443D01*
X60099104Y-33452895D01*
X60159657Y-33487914D01*
X60175675Y-33497810D01*
X60202968Y-33512426D01*
X60228042Y-33520238D01*
X60258691Y-33523163D01*
X60302711Y-33523122D01*
X60354063Y-33524652D01*
X60409677Y-33530158D01*
X60456362Y-33538439D01*
X60471808Y-33541599D01*
X60512619Y-33547981D01*
X60568284Y-33555220D01*
X60634850Y-33562845D01*
X60708358Y-33570389D01*
X60784856Y-33577382D01*
X60837789Y-33581979D01*
X60906013Y-33588114D01*
X60965471Y-33593704D01*
X61013076Y-33598448D01*
X61045737Y-33602044D01*
X61060367Y-33604194D01*
X61061134Y-33604405D01*
X61083487Y-33608297D01*
X61122460Y-33613059D01*
X61173789Y-33618336D01*
X61233212Y-33623774D01*
X61296466Y-33629018D01*
X61359287Y-33633714D01*
X61417412Y-33637507D01*
X61466579Y-33640043D01*
X61502523Y-33640968D01*
X61533163Y-33641198D01*
X61578092Y-33643752D01*
X61607071Y-33650835D01*
X61623528Y-33664530D01*
X61630890Y-33686923D01*
X61632582Y-33720099D01*
X61632581Y-33720648D01*
X61628683Y-33762452D01*
X61617925Y-33820547D01*
X61601312Y-33891609D01*
X61579847Y-33972313D01*
X61554533Y-34059333D01*
X61526375Y-34149344D01*
X61496375Y-34239022D01*
X61473349Y-34303254D01*
X61465539Y-34325040D01*
X61434870Y-34404074D01*
X61410183Y-34461586D01*
X61405370Y-34472799D01*
X61403187Y-34477628D01*
X61387200Y-34515123D01*
X61367590Y-34563697D01*
X61346302Y-34618237D01*
X61325282Y-34673627D01*
X61306475Y-34724755D01*
X61291827Y-34766506D01*
X61283282Y-34793766D01*
X61280526Y-34803332D01*
X61265423Y-34844814D01*
X61247411Y-34883837D01*
X61246420Y-34885690D01*
X61224469Y-34925793D01*
X61201734Y-34965904D01*
X61180943Y-35001365D01*
X61164823Y-35027521D01*
X61156102Y-35039716D01*
X61147669Y-35050408D01*
X61131012Y-35073703D01*
X61109804Y-35104480D01*
X61069457Y-35163947D01*
X61097176Y-35358798D01*
X61115898Y-35487061D01*
X61147036Y-35684596D01*
X61179336Y-35868212D01*
X61213829Y-36042439D01*
X61251547Y-36211803D01*
X61293520Y-36380834D01*
X61340780Y-36554060D01*
X61394358Y-36736007D01*
X61455286Y-36931205D01*
X61467176Y-36968775D01*
X61489306Y-37040247D01*
X61510720Y-37111164D01*
X61529459Y-37175000D01*
X61543562Y-37225223D01*
X61570928Y-37326604D01*
X61574301Y-37339099D01*
X61681468Y-37339137D01*
X61788635Y-37339174D01*
X61802168Y-37275400D01*
X61810004Y-37221741D01*
X61809720Y-37159752D01*
X61798983Y-37093595D01*
X61777052Y-37020211D01*
X61743187Y-36936540D01*
X61696646Y-36839523D01*
X61681296Y-36809675D01*
X61656443Y-36762813D01*
X61634041Y-36722183D01*
X61617562Y-36694168D01*
X61584059Y-36636913D01*
X61532766Y-36531861D01*
X61487309Y-36417317D01*
X61449258Y-36298415D01*
X61420184Y-36180292D01*
X61401656Y-36068081D01*
X61395244Y-35966917D01*
X61395374Y-35953625D01*
X61401775Y-35857007D01*
X61416966Y-35753880D01*
X61439785Y-35647703D01*
X61469074Y-35541940D01*
X61503674Y-35440053D01*
X61542424Y-35345505D01*
X61584166Y-35261757D01*
X61627740Y-35192272D01*
X61671987Y-35140512D01*
X61706873Y-35112375D01*
X61762747Y-35081876D01*
X61822026Y-35063229D01*
X61881179Y-35056383D01*
X61936678Y-35061286D01*
X61984991Y-35077888D01*
X62022591Y-35106135D01*
X62045946Y-35145977D01*
X62048380Y-35153659D01*
X62056052Y-35187316D01*
X62057675Y-35221442D01*
X62052425Y-35258980D01*
X62039479Y-35302870D01*
X62018012Y-35356056D01*
X61987202Y-35421477D01*
X61946223Y-35502077D01*
X61944035Y-35507053D01*
X61935675Y-35535040D01*
X61926028Y-35577683D01*
X61916122Y-35630127D01*
X61906984Y-35687517D01*
X61891767Y-35841668D01*
X61892774Y-35999715D01*
X61912210Y-36148992D01*
X61950231Y-36290646D01*
X62006991Y-36425827D01*
X62028174Y-36467454D01*
X62052761Y-36514138D01*
X62074109Y-36553006D01*
X62089193Y-36578441D01*
X62103521Y-36600614D01*
X62138885Y-36656979D01*
X62168836Y-36708167D01*
X62198037Y-36762365D01*
X62231147Y-36827759D01*
X62245219Y-36856528D01*
X62277040Y-36927475D01*
X62299467Y-36990488D01*
X62314343Y-37052634D01*
X62323507Y-37120983D01*
X62328802Y-37202601D01*
X62334663Y-37336241D01*
X62440086Y-37342050D01*
X62487503Y-37345067D01*
X62525711Y-37348940D01*
X62547247Y-37353717D01*
X62554553Y-37359980D01*
X62550072Y-37368314D01*
X62548341Y-37368730D01*
X62529672Y-37369966D01*
X62491794Y-37371279D01*
X62436175Y-37372647D01*
X62364280Y-37374049D01*
X62277573Y-37375465D01*
X62177522Y-37376872D01*
X62065591Y-37378250D01*
X61943247Y-37379578D01*
X61811954Y-37380834D01*
X61673178Y-37381998D01*
X61528386Y-37383048D01*
X61503685Y-37383216D01*
X61354485Y-37384345D01*
X61212316Y-37385615D01*
X61078594Y-37387002D01*
X61068405Y-37387124D01*
X60954735Y-37388485D01*
X60842155Y-37390040D01*
X60742271Y-37391646D01*
X60656499Y-37393279D01*
X60586255Y-37394918D01*
X60532955Y-37396540D01*
X60498016Y-37398122D01*
X60482853Y-37399643D01*
X60476916Y-37401628D01*
X60455777Y-37415552D01*
X60448016Y-37440541D01*
X60442935Y-37470277D01*
X60429167Y-37517774D01*
X60410249Y-37565936D01*
X60389103Y-37607580D01*
X60368653Y-37635524D01*
X60366668Y-37637380D01*
X60336010Y-37657345D01*
X60291866Y-37676936D01*
X60241164Y-37693816D01*
X60190830Y-37705646D01*
X60147792Y-37710087D01*
X60123239Y-37712421D01*
X60083502Y-37720311D01*
X60041826Y-37731853D01*
X60007796Y-37741630D01*
X59963155Y-37747808D01*
X59922436Y-37742181D01*
X59876991Y-37724357D01*
X59859817Y-37716813D01*
X59843113Y-37712948D01*
X59823622Y-37714480D01*
X59795607Y-37721943D01*
X59753327Y-37735871D01*
X59749898Y-37737015D01*
X59694063Y-37752947D01*
X59631029Y-37767210D01*
X59573793Y-37776839D01*
X59546993Y-37780103D01*
X59509475Y-37783504D01*
X59483791Y-37783022D01*
X59464005Y-37778295D01*
X59444178Y-37768963D01*
X59440526Y-37766959D01*
X59410425Y-37745643D01*
X59389519Y-37718210D01*
X59375020Y-37679640D01*
X59364137Y-37624913D01*
X59356434Y-37583137D01*
X59346640Y-37542063D01*
X59337262Y-37512874D01*
X59329361Y-37490941D01*
X59359452Y-37490941D01*
X59368806Y-37517338D01*
X59375574Y-37535907D01*
X59383904Y-37571768D01*
X59389778Y-37612184D01*
X59390097Y-37615244D01*
X59401101Y-37671004D01*
X59419786Y-37715661D01*
X59444144Y-37744331D01*
X59459689Y-37749242D01*
X59492593Y-37751712D01*
X59535722Y-37750839D01*
X59583321Y-37746952D01*
X59629635Y-37740381D01*
X59668911Y-37731455D01*
X59737287Y-37707622D01*
X59799710Y-37676096D01*
X59843291Y-37641073D01*
X59867448Y-37603210D01*
X59871596Y-37563163D01*
X59855151Y-37521592D01*
X59844450Y-37505916D01*
X59824509Y-37483872D01*
X59797828Y-37464826D01*
X59757865Y-37443530D01*
X59701106Y-37420824D01*
X59622985Y-37403797D01*
X59544416Y-37400734D01*
X59470771Y-37411738D01*
X59407425Y-37436909D01*
X59384989Y-37450805D01*
X59364074Y-37470372D01*
X59359452Y-37490941D01*
X59329361Y-37490941D01*
X59329013Y-37489975D01*
X59328803Y-37470818D01*
X59339459Y-37450343D01*
X59353914Y-37431889D01*
X59364999Y-37423946D01*
X59370211Y-37421433D01*
X59379945Y-37406481D01*
X59380911Y-37401236D01*
X59377172Y-37396665D01*
X59365607Y-37393715D01*
X59343548Y-37392225D01*
X59308322Y-37392034D01*
X59257260Y-37392981D01*
X59187691Y-37394906D01*
X59124830Y-37397100D01*
X59067397Y-37399748D01*
X59020112Y-37402597D01*
X58986654Y-37405425D01*
X58970704Y-37408009D01*
X58969267Y-37408677D01*
X58953777Y-37424604D01*
X58941004Y-37450579D01*
X58938261Y-37457805D01*
X58920556Y-37490347D01*
X58897337Y-37521169D01*
X58865338Y-37556404D01*
X58892496Y-37503697D01*
X58899971Y-37488699D01*
X58910196Y-37462317D01*
X58910177Y-37443600D01*
X58897726Y-37431041D01*
X58870651Y-37423135D01*
X58826764Y-37418376D01*
X58763874Y-37415258D01*
X58739102Y-37414233D01*
X58694250Y-37411654D01*
X58668175Y-37408680D01*
X58659173Y-37405057D01*
X58665540Y-37400530D01*
X58678679Y-37397701D01*
X58711489Y-37394764D01*
X58755618Y-37393372D01*
X58805276Y-37393804D01*
X58842246Y-37394502D01*
X58883192Y-37394305D01*
X58912293Y-37392984D01*
X58924884Y-37390663D01*
X58926718Y-37377376D01*
X58920646Y-37362546D01*
X59438301Y-37362546D01*
X59439104Y-37368754D01*
X59448448Y-37372753D01*
X59469496Y-37375020D01*
X59505410Y-37376031D01*
X59559352Y-37376262D01*
X59584944Y-37376312D01*
X59633630Y-37377120D01*
X59668743Y-37379562D01*
X59695658Y-37384461D01*
X59719750Y-37392639D01*
X59746391Y-37404922D01*
X59771376Y-37418216D01*
X59809429Y-37441669D01*
X59838348Y-37463203D01*
X59838576Y-37463404D01*
X59858344Y-37485819D01*
X59881829Y-37519413D01*
X59905769Y-37558540D01*
X59908274Y-37563163D01*
X59926905Y-37597553D01*
X59941977Y-37630806D01*
X59947726Y-37652653D01*
X59944383Y-37664391D01*
X59933615Y-37665939D01*
X59922701Y-37651773D01*
X59920835Y-37647766D01*
X59906557Y-37636510D01*
X59891275Y-37640254D01*
X59884146Y-37657612D01*
X59892612Y-37677234D01*
X59920894Y-37694700D01*
X59949954Y-37705333D01*
X59978412Y-37708826D01*
X59994507Y-37697508D01*
X60000128Y-37669615D01*
X59997161Y-37623380D01*
X59994318Y-37604846D01*
X59973162Y-37535707D01*
X59938027Y-37470416D01*
X59892503Y-37414672D01*
X59840180Y-37374177D01*
X59827200Y-37367088D01*
X59800999Y-37354551D01*
X59785046Y-37349433D01*
X59772857Y-37345979D01*
X59754541Y-37334985D01*
X59740305Y-37321958D01*
X59737585Y-37312658D01*
X59744586Y-37311955D01*
X59767110Y-37316083D01*
X59798593Y-37325029D01*
X59817908Y-37332548D01*
X59870364Y-37363903D01*
X59921670Y-37408073D01*
X59967150Y-37459997D01*
X60002132Y-37514614D01*
X60021940Y-37566862D01*
X60026137Y-37583923D01*
X60037751Y-37619405D01*
X60049819Y-37644839D01*
X60055265Y-37652672D01*
X60065368Y-37661954D01*
X60080534Y-37666078D01*
X60106102Y-37666026D01*
X60147410Y-37662779D01*
X60209644Y-37655659D01*
X60269304Y-37643079D01*
X60313755Y-37624344D01*
X60346215Y-37597424D01*
X60369897Y-37560289D01*
X60388019Y-37510910D01*
X60398507Y-37465726D01*
X60402430Y-37387124D01*
X60386834Y-37309059D01*
X60351301Y-37228313D01*
X60350212Y-37226330D01*
X60323263Y-37178319D01*
X60301287Y-37142867D01*
X60279771Y-37113877D01*
X60254207Y-37085247D01*
X60220081Y-37050880D01*
X60206199Y-37037868D01*
X60166950Y-37008292D01*
X60133765Y-36994198D01*
X60125930Y-36993177D01*
X60095097Y-36991424D01*
X60049931Y-36990497D01*
X59995178Y-36990463D01*
X59935585Y-36991388D01*
X59930323Y-36991513D01*
X59865358Y-36993371D01*
X59816380Y-36996366D01*
X59778528Y-37001945D01*
X59746937Y-37011555D01*
X59716747Y-37026644D01*
X59683095Y-37048659D01*
X59641119Y-37079048D01*
X59614038Y-37101171D01*
X59570254Y-37145421D01*
X59559719Y-37158572D01*
X59530582Y-37194942D01*
X59499463Y-37243961D01*
X59481337Y-37286707D01*
X59479018Y-37294724D01*
X59469151Y-37320482D01*
X59460052Y-37334018D01*
X59453402Y-37339852D01*
X59440198Y-37358308D01*
X59438301Y-37362546D01*
X58920646Y-37362546D01*
X58918151Y-37356454D01*
X58903286Y-37336386D01*
X58886776Y-37325169D01*
X58875728Y-37319330D01*
X58866875Y-37302551D01*
X58866485Y-37295491D01*
X58856590Y-37262921D01*
X58832550Y-37222946D01*
X58814385Y-37200299D01*
X58857824Y-37200299D01*
X58868657Y-37218352D01*
X58886914Y-37229836D01*
X58903313Y-37243437D01*
X58913424Y-37276180D01*
X58923703Y-37308935D01*
X58940426Y-37328243D01*
X58954749Y-37334165D01*
X58980091Y-37338837D01*
X58986044Y-37338645D01*
X58993393Y-37335672D01*
X58982337Y-37325555D01*
X58977665Y-37321253D01*
X58960804Y-37299365D01*
X58943631Y-37270260D01*
X58934228Y-37253692D01*
X58913253Y-37224058D01*
X58891214Y-37199593D01*
X58886819Y-37196120D01*
X58938972Y-37196120D01*
X58979612Y-37250952D01*
X59000353Y-37276743D01*
X59027054Y-37304989D01*
X59048515Y-37322478D01*
X59064898Y-37330997D01*
X59084985Y-37335672D01*
X59103659Y-37340018D01*
X59132429Y-37332516D01*
X59216562Y-37332516D01*
X59225998Y-37335859D01*
X59250842Y-37337971D01*
X59285296Y-37338858D01*
X59323562Y-37338566D01*
X59359841Y-37337139D01*
X59388334Y-37334624D01*
X59403243Y-37331064D01*
X59411372Y-37322863D01*
X59428920Y-37299519D01*
X59450430Y-37267461D01*
X59472247Y-37232409D01*
X59490716Y-37200084D01*
X59502183Y-37176206D01*
X59502674Y-37174911D01*
X59507376Y-37158572D01*
X59500710Y-37154414D01*
X59478171Y-37159256D01*
X59463285Y-37162638D01*
X59426201Y-37169364D01*
X59386107Y-37175124D01*
X59363349Y-37178706D01*
X59328414Y-37187202D01*
X59305004Y-37196704D01*
X59297610Y-37203250D01*
X59297043Y-37203752D01*
X59278720Y-37226034D01*
X59257517Y-37256184D01*
X59237427Y-37288070D01*
X59222444Y-37315558D01*
X59216562Y-37332516D01*
X59132429Y-37332516D01*
X59140160Y-37330500D01*
X59176281Y-37301648D01*
X59213903Y-37252668D01*
X59246399Y-37203250D01*
X59149357Y-37196182D01*
X59135046Y-37195217D01*
X59082624Y-37192741D01*
X59033127Y-37191805D01*
X58995644Y-37192618D01*
X58938972Y-37196120D01*
X58886819Y-37196120D01*
X58872202Y-37184569D01*
X58860309Y-37183258D01*
X58859361Y-37184332D01*
X58857824Y-37200299D01*
X58814385Y-37200299D01*
X58793287Y-37173994D01*
X58737719Y-37114492D01*
X58705714Y-37080915D01*
X58689310Y-37061213D01*
X58688637Y-37055390D01*
X58703678Y-37063302D01*
X58734418Y-37084803D01*
X58745975Y-37093295D01*
X58770440Y-37110970D01*
X58791788Y-37124531D01*
X58813056Y-37134473D01*
X58837284Y-37141289D01*
X58867510Y-37145476D01*
X58906774Y-37147528D01*
X58958115Y-37147939D01*
X59024570Y-37147204D01*
X59109179Y-37145819D01*
X59166007Y-37144752D01*
X59257166Y-37142024D01*
X59332474Y-37137763D01*
X59395400Y-37131303D01*
X59449413Y-37121977D01*
X59497983Y-37109116D01*
X59544578Y-37092055D01*
X59592669Y-37070126D01*
X59645723Y-37042663D01*
X59654125Y-37038177D01*
X59726397Y-37002643D01*
X59790394Y-36978106D01*
X59853338Y-36962215D01*
X59922450Y-36952621D01*
X59958772Y-36948679D01*
X60012459Y-36941805D01*
X60058913Y-36934797D01*
X60085302Y-36929277D01*
X60147131Y-36909542D01*
X60208654Y-36881906D01*
X60264720Y-36849208D01*
X60310177Y-36814286D01*
X60339875Y-36779978D01*
X60348915Y-36763156D01*
X60368109Y-36716929D01*
X60386555Y-36660578D01*
X60401990Y-36601410D01*
X60412149Y-36546728D01*
X60421160Y-36480149D01*
X60381308Y-36522886D01*
X60376085Y-36528449D01*
X60349314Y-36554944D01*
X60334049Y-36565429D01*
X60329203Y-36560694D01*
X60330622Y-36557625D01*
X60341994Y-36542181D01*
X60361029Y-36519516D01*
X60392855Y-36483268D01*
X60345134Y-36476112D01*
X60338689Y-36475096D01*
X60308705Y-36468113D01*
X60298655Y-36461122D01*
X60307469Y-36455019D01*
X60334078Y-36450700D01*
X60377413Y-36449061D01*
X60457414Y-36449061D01*
X60450541Y-36515290D01*
X60442729Y-36575442D01*
X60421976Y-36668541D01*
X60391009Y-36746416D01*
X60348158Y-36811984D01*
X60291754Y-36868160D01*
X60220127Y-36917863D01*
X60148140Y-36960659D01*
X60201208Y-36990968D01*
X60224378Y-37003804D01*
X60249105Y-37016402D01*
X60261620Y-37021276D01*
X60273049Y-37015306D01*
X60296102Y-36999561D01*
X60325752Y-36977465D01*
X60363931Y-36943866D01*
X60405356Y-36897085D01*
X60447889Y-36837599D01*
X60493302Y-36762911D01*
X60543364Y-36670524D01*
X60551781Y-36654487D01*
X60575054Y-36612137D01*
X60594265Y-36580084D01*
X60607613Y-36561218D01*
X60613295Y-36558425D01*
X60611917Y-36576043D01*
X60601099Y-36611749D01*
X60580251Y-36664309D01*
X60549216Y-36734090D01*
X60507837Y-36821457D01*
X60455958Y-36926777D01*
X60352258Y-37134280D01*
X60382863Y-37186393D01*
X60393321Y-37205167D01*
X60414972Y-37248951D01*
X60431710Y-37288840D01*
X60449952Y-37339174D01*
X60556473Y-37338837D01*
X60595739Y-37338513D01*
X60636369Y-37336305D01*
X60665119Y-37329948D01*
X60687421Y-37317118D01*
X60708711Y-37295493D01*
X60734421Y-37262747D01*
X60758442Y-37226014D01*
X60786774Y-37168999D01*
X60815350Y-37096261D01*
X60844514Y-37006722D01*
X60862012Y-36944274D01*
X61076241Y-36944274D01*
X61076731Y-37037576D01*
X61080742Y-37125436D01*
X61082696Y-37153625D01*
X61086434Y-37209874D01*
X61089435Y-37258214D01*
X61091431Y-37294233D01*
X61092156Y-37313525D01*
X61092330Y-37321152D01*
X61094981Y-37329910D01*
X61103833Y-37335240D01*
X61122632Y-37337993D01*
X61155128Y-37339020D01*
X61205069Y-37339174D01*
X61317981Y-37339174D01*
X61357071Y-37339174D01*
X61400591Y-37339174D01*
X61412487Y-37338926D01*
X61434996Y-37335027D01*
X61439117Y-37325928D01*
X61435471Y-37314995D01*
X61427115Y-37287801D01*
X61416905Y-37253166D01*
X61409906Y-37230509D01*
X61394087Y-37185351D01*
X61378612Y-37147201D01*
X61357536Y-37100751D01*
X61357304Y-37219962D01*
X61357071Y-37339174D01*
X61317981Y-37339174D01*
X61311252Y-37193471D01*
X61311029Y-37188691D01*
X61307861Y-37127822D01*
X61304234Y-37068330D01*
X61300578Y-37016813D01*
X61297323Y-36979873D01*
X61296009Y-36966320D01*
X61294853Y-36933579D01*
X61298999Y-36920216D01*
X61308876Y-36926384D01*
X61324914Y-36952239D01*
X61347546Y-36997935D01*
X61359877Y-37024333D01*
X61382919Y-37074461D01*
X61400477Y-37114597D01*
X61415158Y-37151086D01*
X61429565Y-37190274D01*
X61446303Y-37238506D01*
X61453566Y-37259429D01*
X61468092Y-37297693D01*
X61479885Y-37320925D01*
X61484590Y-37325928D01*
X61491159Y-37332912D01*
X61504125Y-37337439D01*
X61508909Y-37338069D01*
X61522207Y-37337237D01*
X61525621Y-37326604D01*
X61521763Y-37300734D01*
X61520007Y-37292453D01*
X61511875Y-37259926D01*
X61499209Y-37213056D01*
X61483206Y-37156029D01*
X61465067Y-37093027D01*
X61445990Y-37028234D01*
X61427172Y-36965835D01*
X61409814Y-36910012D01*
X61390899Y-36849157D01*
X61366773Y-36769016D01*
X61340723Y-36680371D01*
X61313909Y-36587330D01*
X61287495Y-36494004D01*
X61262643Y-36404503D01*
X61240513Y-36322935D01*
X61222269Y-36253412D01*
X61209072Y-36200041D01*
X61204202Y-36179494D01*
X61191487Y-36128127D01*
X61180186Y-36085575D01*
X61171378Y-36055791D01*
X61166142Y-36042731D01*
X61166034Y-36042624D01*
X61162315Y-36049543D01*
X61158238Y-36073783D01*
X61154291Y-36111611D01*
X61150960Y-36159293D01*
X61148434Y-36200154D01*
X61143233Y-36270361D01*
X61136863Y-36344960D01*
X61129755Y-36419695D01*
X61122343Y-36490310D01*
X61115059Y-36552549D01*
X61108336Y-36602154D01*
X61102607Y-36634871D01*
X61093460Y-36686538D01*
X61084850Y-36763273D01*
X61079029Y-36851012D01*
X61076241Y-36944274D01*
X60862012Y-36944274D01*
X60874612Y-36899308D01*
X60905991Y-36772944D01*
X60938996Y-36626554D01*
X60949802Y-36578996D01*
X60962882Y-36529969D01*
X60973723Y-36500981D01*
X60982514Y-36491447D01*
X60983759Y-36491751D01*
X60989990Y-36504556D01*
X60994349Y-36532520D01*
X60996767Y-36570553D01*
X60997176Y-36613565D01*
X60995505Y-36656465D01*
X60991685Y-36694165D01*
X60985648Y-36721573D01*
X60981143Y-36742109D01*
X60977744Y-36779740D01*
X60977701Y-36821173D01*
X60980892Y-36888819D01*
X61004411Y-36788152D01*
X61020673Y-36712317D01*
X61048943Y-36537102D01*
X61068017Y-36348614D01*
X61077842Y-36150851D01*
X61078365Y-35947811D01*
X61069532Y-35743493D01*
X61051291Y-35541895D01*
X61023589Y-35347017D01*
X61008880Y-35268122D01*
X60978690Y-35131045D01*
X60940967Y-34981982D01*
X60904043Y-34850525D01*
X60956063Y-34850525D01*
X60964342Y-34910049D01*
X60982062Y-34985302D01*
X60990052Y-35014546D01*
X61000717Y-35052695D01*
X61008479Y-35079348D01*
X61012052Y-35090017D01*
X61013543Y-35089059D01*
X61021983Y-35075635D01*
X61034725Y-35051157D01*
X61040996Y-35038759D01*
X61059259Y-35004214D01*
X61082679Y-34961151D01*
X61107736Y-34916084D01*
X61122614Y-34888937D01*
X61149007Y-34838069D01*
X61176145Y-34783024D01*
X61202276Y-34727634D01*
X61225648Y-34675729D01*
X61244510Y-34631140D01*
X61257112Y-34597700D01*
X61261702Y-34579238D01*
X61262974Y-34571485D01*
X61272298Y-34562870D01*
X61279705Y-34554131D01*
X61282895Y-34532378D01*
X61287033Y-34508478D01*
X61298790Y-34488694D01*
X61307855Y-34479439D01*
X61312242Y-34461586D01*
X61297885Y-34443808D01*
X61264003Y-34425375D01*
X61209815Y-34405556D01*
X61187484Y-34399235D01*
X61168861Y-34399572D01*
X61153177Y-34411695D01*
X61133321Y-34438681D01*
X61127525Y-34447423D01*
X61120430Y-34460532D01*
X61124350Y-34459553D01*
X61131671Y-34453733D01*
X61146149Y-34446944D01*
X61153346Y-34448661D01*
X61147259Y-34459023D01*
X61146193Y-34460220D01*
X61137822Y-34480470D01*
X61134206Y-34509357D01*
X61134160Y-34513816D01*
X61133003Y-34535073D01*
X61128522Y-34538251D01*
X61118077Y-34526086D01*
X61109265Y-34509790D01*
X61107485Y-34491647D01*
X61108285Y-34489519D01*
X61111126Y-34477325D01*
X61105879Y-34480612D01*
X61094814Y-34496755D01*
X61080206Y-34523133D01*
X61078302Y-34526945D01*
X61057718Y-34577622D01*
X61038062Y-34641909D01*
X61021469Y-34712913D01*
X61013633Y-34731771D01*
X60993076Y-34747352D01*
X60987017Y-34749129D01*
X60977275Y-34755265D01*
X60986191Y-34764042D01*
X60988531Y-34765597D01*
X60996243Y-34772951D01*
X60984777Y-34774639D01*
X60967777Y-34782037D01*
X60957211Y-34807574D01*
X60956063Y-34850525D01*
X60904043Y-34850525D01*
X60896925Y-34825183D01*
X60847778Y-34664899D01*
X60794741Y-34505380D01*
X60739028Y-34350876D01*
X60735937Y-34342712D01*
X60718708Y-34303041D01*
X61221579Y-34303041D01*
X61222848Y-34315616D01*
X61226035Y-34317274D01*
X61228958Y-34310699D01*
X61285074Y-34310699D01*
X61286473Y-34332394D01*
X61290153Y-34334192D01*
X61291818Y-34319149D01*
X61290341Y-34304572D01*
X61286473Y-34305903D01*
X61285700Y-34308552D01*
X61285074Y-34310699D01*
X61228958Y-34310699D01*
X61229912Y-34308552D01*
X61229219Y-34303469D01*
X61337107Y-34303469D01*
X61338136Y-34319149D01*
X61339015Y-34332540D01*
X61340881Y-34337570D01*
X61342770Y-34328384D01*
X61343444Y-34303254D01*
X61342967Y-34283657D01*
X61341298Y-34272204D01*
X61338870Y-34279557D01*
X61337107Y-34303469D01*
X61229219Y-34303469D01*
X61229147Y-34302942D01*
X61222848Y-34301488D01*
X61221579Y-34303041D01*
X60718708Y-34303041D01*
X60661390Y-34171064D01*
X60573430Y-34011103D01*
X60473250Y-33864257D01*
X60362045Y-33731954D01*
X60241009Y-33615620D01*
X60111335Y-33516682D01*
X59974217Y-33436567D01*
X59933066Y-33416354D01*
X59841223Y-33374455D01*
X59753226Y-33339705D01*
X59665963Y-33311507D01*
X59576320Y-33289263D01*
X59481184Y-33272376D01*
X59377441Y-33260248D01*
X59261977Y-33252282D01*
X59131681Y-33247881D01*
X58983437Y-33246446D01*
X58933823Y-33246424D01*
X58852167Y-33246600D01*
X58787106Y-33247213D01*
X58735610Y-33248434D01*
X58694646Y-33250438D01*
X58661181Y-33253396D01*
X58632185Y-33257483D01*
X58604625Y-33262871D01*
X58575469Y-33269734D01*
X58568458Y-33271476D01*
X58433176Y-33308649D01*
X58304097Y-33350670D01*
X58186215Y-33395785D01*
X58084527Y-33442239D01*
X58074185Y-33447526D01*
X58037562Y-33467453D01*
X58017647Y-33480481D01*
X58014964Y-33485895D01*
X58030041Y-33482978D01*
X58063401Y-33471014D01*
X58092240Y-33460051D01*
X58135159Y-33444727D01*
X58174994Y-33431483D01*
X58206176Y-33422149D01*
X58223133Y-33418554D01*
X58224540Y-33418687D01*
X58231080Y-33428160D01*
X58228148Y-33432597D01*
X58210599Y-33443897D01*
X58182478Y-33456441D01*
X58159588Y-33466125D01*
X58112091Y-33489490D01*
X58058405Y-33518724D01*
X58004902Y-33550166D01*
X57957950Y-33580156D01*
X57923920Y-33605032D01*
X57905305Y-33621454D01*
X57871379Y-33653554D01*
X57831432Y-33692915D01*
X57790218Y-33734765D01*
X57752488Y-33774329D01*
X57722995Y-33806833D01*
X57685839Y-33853099D01*
X57666829Y-33879391D01*
X57642041Y-33913673D01*
G37*
D13*
%TO.C,Q1*%
X57455000Y-57237500D02*
X57455000Y-58037500D01*
X57455000Y-58837500D02*
X57455000Y-58037500D01*
X60575000Y-57237500D02*
X60575000Y-58037500D01*
X60575000Y-58837500D02*
X60575000Y-58037500D01*
X57505000Y-56737500D02*
X57175000Y-56977500D01*
X57175000Y-56497500D01*
X57505000Y-56737500D01*
G36*
X57505000Y-56737500D02*
G01*
X57175000Y-56977500D01*
X57175000Y-56497500D01*
X57505000Y-56737500D01*
G37*
%TO.C,R16*%
X57340242Y-51222500D02*
X57814758Y-51222500D01*
X57340242Y-50177500D02*
X57814758Y-50177500D01*
%TO.C,R15*%
X60315242Y-51222500D02*
X60789758Y-51222500D01*
X60315242Y-50177500D02*
X60789758Y-50177500D01*
%TO.C,R14*%
X60789758Y-49722500D02*
X60315242Y-49722500D01*
X60789758Y-48677500D02*
X60315242Y-48677500D01*
%TO.C,R13*%
X57792500Y-54662258D02*
X57792500Y-54187742D01*
X58837500Y-54662258D02*
X58837500Y-54187742D01*
%TO.C,R12*%
X60337500Y-54187742D02*
X60337500Y-54662258D01*
X59292500Y-54187742D02*
X59292500Y-54662258D01*
%TO.C,R11*%
X61847500Y-54187742D02*
X61847500Y-54662258D01*
X60802500Y-54187742D02*
X60802500Y-54662258D01*
%TO.C,R10*%
X56292500Y-54662258D02*
X56292500Y-54187742D01*
X57337500Y-54662258D02*
X57337500Y-54187742D01*
%TO.C,R9*%
X57340242Y-52722500D02*
X57814758Y-52722500D01*
X57340242Y-51677500D02*
X57814758Y-51677500D01*
%TO.C,R8*%
X60315242Y-52722500D02*
X60789758Y-52722500D01*
X60315242Y-51677500D02*
X60789758Y-51677500D01*
%TO.C,JP1*%
X55115000Y-55650000D02*
X54515000Y-55650000D01*
X55815000Y-53550000D02*
X55815000Y-54950000D01*
X53815000Y-54950000D02*
X53815000Y-53550000D01*
X54515000Y-52850000D02*
X55115000Y-52850000D01*
X55815000Y-54950000D02*
G75*
G02*
X55115000Y-55650000I-699999J-1D01*
G01*
X54515000Y-55650000D02*
G75*
G02*
X53815000Y-54950000I-1J699999D01*
G01*
X55115000Y-52850000D02*
G75*
G02*
X55815000Y-53550000I0J-700000D01*
G01*
X53815000Y-53550000D02*
G75*
G02*
X54515000Y-52850000I700000J0D01*
G01*
%TO.C,D1*%
X60775000Y-44150000D02*
X60775000Y-42450000D01*
X58115000Y-42450000D02*
X60775000Y-42450000D01*
X58115000Y-44150000D02*
X60775000Y-44150000D01*
%TO.C,C9*%
X57718080Y-48690000D02*
X57436920Y-48690000D01*
X57718080Y-49710000D02*
X57436920Y-49710000D01*
%TO.C,C8*%
X56105000Y-46809420D02*
X56105000Y-47090580D01*
X57125000Y-46809420D02*
X57125000Y-47090580D01*
%TO.C,C7*%
X61180000Y-46809420D02*
X61180000Y-47090580D01*
X62200000Y-46809420D02*
X62200000Y-47090580D01*
%TD*%
M02*
