%TF.GenerationSoftware,KiCad,Pcbnew,8.0.1*%
%TF.CreationDate,2024-08-06T23:31:19+08:00*%
%TF.ProjectId,ST-Link-V2.1,53542d4c-696e-46b2-9d56-322e312e6b69,rev?*%
%TF.SameCoordinates,Original*%
%TF.FileFunction,Paste,Top*%
%TF.FilePolarity,Positive*%
%FSLAX46Y46*%
G04 Gerber Fmt 4.6, Leading zero omitted, Abs format (unit mm)*
G04 Created by KiCad (PCBNEW 8.0.1) date 2024-08-06 23:31:19*
%MOMM*%
%LPD*%
G01*
G04 APERTURE LIST*
G04 Aperture macros list*
%AMRoundRect*
0 Rectangle with rounded corners*
0 $1 Rounding radius*
0 $2 $3 $4 $5 $6 $7 $8 $9 X,Y pos of 4 corners*
0 Add a 4 corners polygon primitive as box body*
4,1,4,$2,$3,$4,$5,$6,$7,$8,$9,$2,$3,0*
0 Add four circle primitives for the rounded corners*
1,1,$1+$1,$2,$3*
1,1,$1+$1,$4,$5*
1,1,$1+$1,$6,$7*
1,1,$1+$1,$8,$9*
0 Add four rect primitives between the rounded corners*
20,1,$1+$1,$2,$3,$4,$5,0*
20,1,$1+$1,$4,$5,$6,$7,0*
20,1,$1+$1,$6,$7,$8,$9,0*
20,1,$1+$1,$8,$9,$2,$3,0*%
G04 Aperture macros list end*
%ADD10R,0.400000X2.000000*%
%ADD11RoundRect,0.375000X-0.375000X-1.375000X0.375000X-1.375000X0.375000X1.375000X-0.375000X1.375000X0*%
%ADD12RoundRect,0.218750X0.256250X-0.218750X0.256250X0.218750X-0.256250X0.218750X-0.256250X-0.218750X0*%
%ADD13RoundRect,0.075000X0.075000X-0.662500X0.075000X0.662500X-0.075000X0.662500X-0.075000X-0.662500X0*%
%ADD14RoundRect,0.075000X0.662500X-0.075000X0.662500X0.075000X-0.662500X0.075000X-0.662500X-0.075000X0*%
%ADD15RoundRect,0.200000X-0.275000X0.200000X-0.275000X-0.200000X0.275000X-0.200000X0.275000X0.200000X0*%
%ADD16RoundRect,0.200000X0.275000X-0.200000X0.275000X0.200000X-0.275000X0.200000X-0.275000X-0.200000X0*%
%ADD17RoundRect,0.200000X-0.200000X-0.275000X0.200000X-0.275000X0.200000X0.275000X-0.200000X0.275000X0*%
%ADD18R,0.300000X1.150000*%
%ADD19RoundRect,0.225000X-0.225000X-0.250000X0.225000X-0.250000X0.225000X0.250000X-0.225000X0.250000X0*%
%ADD20RoundRect,0.225000X-0.250000X0.225000X-0.250000X-0.225000X0.250000X-0.225000X0.250000X0.225000X0*%
G04 APERTURE END LIST*
D10*
%TO.C,Y1*%
X57865000Y-58600000D03*
X59065000Y-58600000D03*
X60265000Y-58600000D03*
%TD*%
D11*
%TO.C,J2*%
X64145000Y-67000000D03*
X61605000Y-67000000D03*
X59065000Y-67000000D03*
X56525000Y-67000000D03*
X53985000Y-67000000D03*
%TD*%
D12*
%TO.C,D3*%
X64315000Y-45600000D03*
X64315000Y-47175000D03*
%TD*%
%TO.C,D2*%
X53815000Y-47175000D03*
X53815000Y-45600000D03*
%TD*%
D13*
%TO.C,U1*%
X56315000Y-55662500D03*
X56815000Y-55662500D03*
X57315000Y-55662500D03*
X57815000Y-55662500D03*
X58315000Y-55662500D03*
X58815000Y-55662500D03*
X59315000Y-55662500D03*
X59815000Y-55662500D03*
X60315000Y-55662500D03*
X60815000Y-55662500D03*
X61315000Y-55662500D03*
X61815000Y-55662500D03*
D14*
X63227500Y-54250000D03*
X63227500Y-53750000D03*
X63227500Y-53250000D03*
X63227500Y-52750000D03*
X63227500Y-52250000D03*
X63227500Y-51750000D03*
X63227500Y-51250000D03*
X63227500Y-50750000D03*
X63227500Y-50250000D03*
X63227500Y-49750000D03*
X63227500Y-49250000D03*
X63227500Y-48750000D03*
D13*
X61815000Y-47337500D03*
X61315000Y-47337500D03*
X60815000Y-47337500D03*
X60315000Y-47337500D03*
X59815000Y-47337500D03*
X59315000Y-47337500D03*
X58815000Y-47337500D03*
X58315000Y-47337500D03*
X57815000Y-47337500D03*
X57315000Y-47337500D03*
X56815000Y-47337500D03*
X56315000Y-47337500D03*
D14*
X54902500Y-48750000D03*
X54902500Y-49250000D03*
X54902500Y-49750000D03*
X54902500Y-50250000D03*
X54902500Y-50750000D03*
X54902500Y-51250000D03*
X54902500Y-51750000D03*
X54902500Y-52250000D03*
X54902500Y-52750000D03*
X54902500Y-53250000D03*
X54902500Y-53750000D03*
X54902500Y-54250000D03*
%TD*%
D15*
%TO.C,R19*%
X64315000Y-42575000D03*
X64315000Y-44225000D03*
%TD*%
%TO.C,R18*%
X53815000Y-42575000D03*
X53815000Y-44225000D03*
%TD*%
D16*
%TO.C,R17*%
X64915000Y-59425000D03*
X64915000Y-57775000D03*
%TD*%
%TO.C,R7*%
X56315000Y-59425000D03*
X56315000Y-57775000D03*
%TD*%
D15*
%TO.C,R6*%
X58315000Y-42575000D03*
X58315000Y-44225000D03*
%TD*%
%TO.C,R5*%
X59815000Y-42575000D03*
X59815000Y-44225000D03*
%TD*%
%TO.C,R4*%
X56815000Y-42575000D03*
X56815000Y-44225000D03*
%TD*%
%TO.C,R3*%
X61315000Y-42575000D03*
X61315000Y-44225000D03*
%TD*%
%TO.C,R2*%
X53315000Y-57775000D03*
X53315000Y-59425000D03*
%TD*%
D17*
%TO.C,R1*%
X56790000Y-61400000D03*
X58440000Y-61400000D03*
%TD*%
D18*
%TO.C,J1*%
X62415000Y-40585000D03*
X61615000Y-40585000D03*
X60315000Y-40585000D03*
X59315000Y-40585000D03*
X58815000Y-40585000D03*
X57815000Y-40585000D03*
X56515000Y-40585000D03*
X55715000Y-40585000D03*
X56015000Y-40585000D03*
X56815000Y-40585000D03*
X57315000Y-40585000D03*
X58315000Y-40585000D03*
X59815000Y-40585000D03*
X60815000Y-40585000D03*
X61315000Y-40585000D03*
X62115000Y-40585000D03*
%TD*%
D19*
%TO.C,C6*%
X59815000Y-61400000D03*
X61365000Y-61400000D03*
%TD*%
D20*
%TO.C,C5*%
X63415000Y-57825000D03*
X63415000Y-59375000D03*
%TD*%
%TO.C,C4*%
X61915000Y-57825000D03*
X61915000Y-59375000D03*
%TD*%
%TO.C,C3*%
X54815000Y-57825000D03*
X54815000Y-59375000D03*
%TD*%
%TO.C,C2*%
X62815000Y-42625000D03*
X62815000Y-44175000D03*
%TD*%
%TO.C,C1*%
X55315000Y-42625000D03*
X55315000Y-44175000D03*
%TD*%
M02*
