%TF.GenerationSoftware,KiCad,Pcbnew,8.0.1*%
%TF.CreationDate,2024-08-06T23:31:19+08:00*%
%TF.ProjectId,ST-Link-V2.1,53542d4c-696e-46b2-9d56-322e312e6b69,rev?*%
%TF.SameCoordinates,Original*%
%TF.FileFunction,Copper,L2,Bot*%
%TF.FilePolarity,Positive*%
%FSLAX46Y46*%
G04 Gerber Fmt 4.6, Leading zero omitted, Abs format (unit mm)*
G04 Created by KiCad (PCBNEW 8.0.1) date 2024-08-06 23:31:19*
%MOMM*%
%LPD*%
G01*
G04 APERTURE LIST*
G04 Aperture macros list*
%AMRoundRect*
0 Rectangle with rounded corners*
0 $1 Rounding radius*
0 $2 $3 $4 $5 $6 $7 $8 $9 X,Y pos of 4 corners*
0 Add a 4 corners polygon primitive as box body*
4,1,4,$2,$3,$4,$5,$6,$7,$8,$9,$2,$3,0*
0 Add four circle primitives for the rounded corners*
1,1,$1+$1,$2,$3*
1,1,$1+$1,$4,$5*
1,1,$1+$1,$6,$7*
1,1,$1+$1,$8,$9*
0 Add four rect primitives between the rounded corners*
20,1,$1+$1,$2,$3,$4,$5,0*
20,1,$1+$1,$4,$5,$6,$7,0*
20,1,$1+$1,$6,$7,$8,$9,0*
20,1,$1+$1,$8,$9,$2,$3,0*%
%AMFreePoly0*
4,1,19,0.500000,-0.750000,0.000000,-0.750000,0.000000,-0.744911,-0.071157,-0.744911,-0.207708,-0.704816,-0.327430,-0.627875,-0.420627,-0.520320,-0.479746,-0.390866,-0.500000,-0.250000,-0.500000,0.250000,-0.479746,0.390866,-0.420627,0.520320,-0.327430,0.627875,-0.207708,0.704816,-0.071157,0.744911,0.000000,0.744911,0.000000,0.750000,0.500000,0.750000,0.500000,-0.750000,0.500000,-0.750000,
$1*%
%AMFreePoly1*
4,1,19,0.000000,0.744911,0.071157,0.744911,0.207708,0.704816,0.327430,0.627875,0.420627,0.520320,0.479746,0.390866,0.500000,0.250000,0.500000,-0.250000,0.479746,-0.390866,0.420627,-0.520320,0.327430,-0.627875,0.207708,-0.704816,0.071157,-0.744911,0.000000,-0.744911,0.000000,-0.750000,-0.500000,-0.750000,-0.500000,0.750000,0.000000,0.750000,0.000000,0.744911,0.000000,0.744911,
$1*%
G04 Aperture macros list end*
%TA.AperFunction,SMDPad,CuDef*%
%ADD10RoundRect,0.250000X0.250000X0.250000X-0.250000X0.250000X-0.250000X-0.250000X0.250000X-0.250000X0*%
%TD*%
%TA.AperFunction,SMDPad,CuDef*%
%ADD11R,0.600000X1.200000*%
%TD*%
%TA.AperFunction,SMDPad,CuDef*%
%ADD12RoundRect,0.375000X0.375000X1.375000X-0.375000X1.375000X-0.375000X-1.375000X0.375000X-1.375000X0*%
%TD*%
%TA.AperFunction,SMDPad,CuDef*%
%ADD13RoundRect,0.150000X-0.150000X0.512500X-0.150000X-0.512500X0.150000X-0.512500X0.150000X0.512500X0*%
%TD*%
%TA.AperFunction,SMDPad,CuDef*%
%ADD14RoundRect,0.200000X0.200000X0.275000X-0.200000X0.275000X-0.200000X-0.275000X0.200000X-0.275000X0*%
%TD*%
%TA.AperFunction,SMDPad,CuDef*%
%ADD15RoundRect,0.200000X-0.200000X-0.275000X0.200000X-0.275000X0.200000X0.275000X-0.200000X0.275000X0*%
%TD*%
%TA.AperFunction,SMDPad,CuDef*%
%ADD16RoundRect,0.200000X-0.275000X0.200000X-0.275000X-0.200000X0.275000X-0.200000X0.275000X0.200000X0*%
%TD*%
%TA.AperFunction,SMDPad,CuDef*%
%ADD17RoundRect,0.200000X0.275000X-0.200000X0.275000X0.200000X-0.275000X0.200000X-0.275000X-0.200000X0*%
%TD*%
%TA.AperFunction,SMDPad,CuDef*%
%ADD18FreePoly0,90.000000*%
%TD*%
%TA.AperFunction,SMDPad,CuDef*%
%ADD19FreePoly1,90.000000*%
%TD*%
%TA.AperFunction,ComponentPad*%
%ADD20O,1.000000X2.100000*%
%TD*%
%TA.AperFunction,ComponentPad*%
%ADD21O,1.000000X1.600000*%
%TD*%
%TA.AperFunction,SMDPad,CuDef*%
%ADD22RoundRect,0.112500X0.187500X0.112500X-0.187500X0.112500X-0.187500X-0.112500X0.187500X-0.112500X0*%
%TD*%
%TA.AperFunction,SMDPad,CuDef*%
%ADD23RoundRect,0.225000X-0.225000X-0.250000X0.225000X-0.250000X0.225000X0.250000X-0.225000X0.250000X0*%
%TD*%
%TA.AperFunction,SMDPad,CuDef*%
%ADD24RoundRect,0.225000X0.250000X-0.225000X0.250000X0.225000X-0.250000X0.225000X-0.250000X-0.225000X0*%
%TD*%
%TA.AperFunction,ViaPad*%
%ADD25C,0.450000*%
%TD*%
%TA.AperFunction,Conductor*%
%ADD26C,0.150000*%
%TD*%
%TA.AperFunction,Conductor*%
%ADD27C,0.250000*%
%TD*%
G04 APERTURE END LIST*
D10*
%TO.P,J4,1,Pin_1*%
%TO.N,+3.3V*%
X61800000Y-38400000D03*
%TO.P,J4,2,Pin_2*%
%TO.N,/SWDIO*%
X60000000Y-38400000D03*
%TO.P,J4,3,Pin_3*%
%TO.N,/SWCLK*%
X58200000Y-38400000D03*
%TO.P,J4,4,Pin_4*%
%TO.N,GND*%
X56400000Y-38400000D03*
%TD*%
D11*
%TO.P,IC1,1,IN*%
%TO.N,+5V*%
X58215000Y-45100000D03*
%TO.P,IC1,2,GND*%
%TO.N,GND*%
X59165000Y-45100000D03*
%TO.P,IC1,3,ON/~{OFF}*%
%TO.N,+5V*%
X60115000Y-45100000D03*
%TO.P,IC1,4,BYPASS*%
%TO.N,Net-(IC1-BYPASS)*%
X60115000Y-47600000D03*
%TO.P,IC1,5,OUT*%
%TO.N,+3.3V*%
X58215000Y-47600000D03*
%TD*%
D12*
%TO.P,J3,1,Pin_1*%
%TO.N,+3.3V*%
X64145000Y-67000000D03*
%TO.P,J3,2,Pin_2*%
%TO.N,+5V*%
X61605000Y-67000000D03*
%TO.P,J3,3,Pin_3*%
%TO.N,/STLK_RX*%
X59065000Y-67000000D03*
%TO.P,J3,4,Pin_4*%
%TO.N,/STLK_TX*%
X56525000Y-67000000D03*
%TO.P,J3,5,Pin_5*%
%TO.N,GND*%
X53985000Y-67000000D03*
%TD*%
D13*
%TO.P,Q1,1,E*%
%TO.N,Net-(Q1-E)*%
X58065000Y-56900000D03*
%TO.P,Q1,2,B*%
%TO.N,Net-(Q1-B)*%
X59965000Y-56900000D03*
%TO.P,Q1,3,C*%
%TO.N,+3.3V*%
X59015000Y-59175000D03*
%TD*%
D14*
%TO.P,R16,2*%
%TO.N,GND*%
X56752500Y-50700000D03*
%TO.P,R16,1*%
%TO.N,/PWR_EXT*%
X58402500Y-50700000D03*
%TD*%
%TO.P,R15,2*%
%TO.N,/PWR_EXT*%
X59727500Y-50700000D03*
%TO.P,R15,1*%
%TO.N,+5V*%
X61377500Y-50700000D03*
%TD*%
D15*
%TO.P,R14,1*%
%TO.N,/T_JTMS*%
X59727500Y-49200000D03*
%TO.P,R14,2*%
%TO.N,/T_SWDIO_IN*%
X61377500Y-49200000D03*
%TD*%
D16*
%TO.P,R13,1*%
%TO.N,GND*%
X58315000Y-53600000D03*
%TO.P,R13,2*%
%TO.N,Net-(Q1-B)*%
X58315000Y-55250000D03*
%TD*%
D17*
%TO.P,R12,1*%
%TO.N,Net-(Q1-B)*%
X59815000Y-55250000D03*
%TO.P,R12,2*%
%TO.N,/USB_RENUMn*%
X59815000Y-53600000D03*
%TD*%
%TO.P,R11,1*%
%TO.N,Net-(Q1-B)*%
X61325000Y-55250000D03*
%TO.P,R11,2*%
%TO.N,+5V*%
X61325000Y-53600000D03*
%TD*%
D16*
%TO.P,R10,1*%
%TO.N,/USB_DP*%
X56815000Y-53600000D03*
%TO.P,R10,2*%
%TO.N,Net-(Q1-E)*%
X56815000Y-55250000D03*
%TD*%
D14*
%TO.P,R9,2*%
%TO.N,GND*%
X56752500Y-52200000D03*
%TO.P,R9,1*%
%TO.N,/AIN*%
X58402500Y-52200000D03*
%TD*%
%TO.P,R8,2*%
%TO.N,/AIN*%
X59727500Y-52200000D03*
%TO.P,R8,1*%
%TO.N,+3.3V*%
X61377500Y-52200000D03*
%TD*%
D18*
%TO.P,JP1,1,A*%
%TO.N,/BOOT0*%
X54815000Y-54900000D03*
D19*
%TO.P,JP1,2,B*%
%TO.N,+3.3V*%
X54815000Y-53600000D03*
%TD*%
D20*
%TO.P,J1,S1,SHIELD*%
%TO.N,GND*%
X63385000Y-40020000D03*
D21*
X63385000Y-35840000D03*
D20*
X54745000Y-40020000D03*
D21*
X54745000Y-35840000D03*
%TD*%
D22*
%TO.P,D1,1,K*%
%TO.N,+5V*%
X60215000Y-43300000D03*
%TO.P,D1,2,A*%
%TO.N,Net-(D1-A)*%
X58115000Y-43300000D03*
%TD*%
D23*
%TO.P,C9,2*%
%TO.N,Net-(IC1-BYPASS)*%
X58352500Y-49200000D03*
%TO.P,C9,1*%
%TO.N,GND*%
X56802500Y-49200000D03*
%TD*%
D24*
%TO.P,C8,2*%
%TO.N,GND*%
X56615000Y-46175000D03*
%TO.P,C8,1*%
%TO.N,+3.3V*%
X56615000Y-47725000D03*
%TD*%
%TO.P,C7,2*%
%TO.N,+5V*%
X61690000Y-46175000D03*
%TO.P,C7,1*%
%TO.N,GND*%
X61690000Y-47725000D03*
%TD*%
D25*
%TO.N,GND*%
X60200000Y-60100000D03*
X59600000Y-60100000D03*
X58400000Y-60100000D03*
X57800000Y-60100000D03*
%TO.N,+3.3V*%
X62000000Y-41800000D03*
%TO.N,GND*%
X55800000Y-46200000D03*
X55800000Y-45700000D03*
X55800000Y-45200000D03*
%TO.N,/SWDIO*%
X57400000Y-45700000D03*
%TO.N,/SWCLK*%
X53900000Y-48700000D03*
%TO.N,GND*%
X63300000Y-61500000D03*
X63900000Y-60900000D03*
X63300000Y-60900000D03*
X65100000Y-58600000D03*
X63400000Y-58700000D03*
X60615000Y-61700000D03*
X60615000Y-61200000D03*
X64415000Y-50200000D03*
X64415000Y-49700000D03*
X57715000Y-66300000D03*
X57715000Y-66966668D03*
X57715000Y-67633334D03*
X57715000Y-68300000D03*
X55315000Y-66300000D03*
X55315000Y-66966668D03*
X55315000Y-67633334D03*
X55315000Y-68300000D03*
%TO.N,/T_JTMS*%
X64615000Y-60500000D03*
X65115000Y-56600000D03*
X64915000Y-49150000D03*
X64915000Y-48300000D03*
%TO.N,/T_NRST*%
X65415000Y-51200000D03*
X64290000Y-51270498D03*
%TO.N,/STLK_TX*%
X62415000Y-55500000D03*
%TO.N,/STLK_RX*%
X61677012Y-56604836D03*
%TO.N,+3.3V*%
X62700000Y-58700000D03*
%TO.N,GND*%
X63415000Y-45000000D03*
X62748334Y-45000000D03*
X62081668Y-45000000D03*
X59115000Y-54500000D03*
%TO.N,+3.3V*%
X59015000Y-60600000D03*
%TO.N,/USB_DP*%
X55815000Y-48300000D03*
%TO.N,+5V*%
X62115000Y-52800000D03*
X61515000Y-51400000D03*
%TO.N,/BOOT0*%
X53715000Y-55000000D03*
%TO.N,+3.3V*%
X55955920Y-53910046D03*
X60536881Y-51867179D03*
X62215000Y-48800000D03*
X55915000Y-47400000D03*
%TO.N,/T_SWDIO_IN*%
X61515000Y-48600000D03*
%TO.N,Net-(D1-A)*%
X56715000Y-41700000D03*
%TO.N,+3.3V*%
X54615000Y-43375000D03*
%TO.N,/AIN*%
X60615000Y-53000000D03*
%TO.N,/USB_RENUMn*%
X56027500Y-49221716D03*
%TO.N,/PWR_EXT*%
X58415000Y-50000000D03*
%TO.N,/T_JTMS*%
X60105534Y-48575152D03*
%TD*%
D26*
%TO.N,+3.3V*%
X59015000Y-59175000D02*
X59015000Y-60600000D01*
X61100000Y-39100000D02*
X61800000Y-38400000D01*
X61700000Y-41800000D02*
X61100000Y-41200000D01*
X61100000Y-41200000D02*
X61100000Y-39100000D01*
X62000000Y-41800000D02*
X61700000Y-41800000D01*
%TO.N,/SWDIO*%
X57300000Y-45700000D02*
X57400000Y-45700000D01*
X56800000Y-45200000D02*
X57300000Y-45700000D01*
X55800000Y-44200000D02*
X56800000Y-45200000D01*
X55800000Y-41900000D02*
X55800000Y-43200000D01*
X55800000Y-43200000D02*
X55800000Y-44200000D01*
X58700000Y-41200000D02*
X56500000Y-41200000D01*
X59300000Y-40600000D02*
X58700000Y-41200000D01*
X56500000Y-41200000D02*
X55800000Y-41900000D01*
X60000000Y-39900000D02*
X59300000Y-40600000D01*
X60000000Y-38400000D02*
X60000000Y-39900000D01*
%TO.N,/SWCLK*%
X53900000Y-42700000D02*
X53900000Y-48700000D01*
X55900000Y-40700000D02*
X53900000Y-42700000D01*
X57500000Y-40700000D02*
X55900000Y-40700000D01*
X58200000Y-40000000D02*
X57500000Y-40700000D01*
X58200000Y-38400000D02*
X58200000Y-40000000D01*
%TO.N,/STLK_RX*%
X61115000Y-61985000D02*
X59065000Y-64035000D01*
X61115000Y-57166848D02*
X61115000Y-61985000D01*
X59065000Y-64035000D02*
X59065000Y-67000000D01*
X61677012Y-56604836D02*
X61115000Y-57166848D01*
%TO.N,+5V*%
X61600000Y-62500000D02*
X61600000Y-66995000D01*
X62077012Y-62022988D02*
X61600000Y-62500000D01*
X61600000Y-66995000D02*
X61605000Y-67000000D01*
X62815000Y-55000000D02*
X62815000Y-55685000D01*
X61615000Y-54500000D02*
X62315000Y-54500000D01*
X61315000Y-54200000D02*
X61615000Y-54500000D01*
X62315000Y-54500000D02*
X62815000Y-55000000D01*
X62077012Y-56422988D02*
X62077012Y-62022988D01*
X61325000Y-54190000D02*
X61315000Y-54200000D01*
X61325000Y-53600000D02*
X61325000Y-54190000D01*
X62815000Y-55685000D02*
X62077012Y-56422988D01*
%TO.N,+3.3V*%
X64145000Y-63445000D02*
X64145000Y-67000000D01*
X62700000Y-62000000D02*
X64145000Y-63445000D01*
X62700000Y-58700000D02*
X62700000Y-62000000D01*
%TO.N,/T_JTMS*%
X65115000Y-56600000D02*
X64615000Y-57100000D01*
X64615000Y-57100000D02*
X64615000Y-60500000D01*
%TO.N,/T_NRST*%
X64360498Y-51200000D02*
X65415000Y-51200000D01*
X64290000Y-51270498D02*
X64360498Y-51200000D01*
%TO.N,/T_JTMS*%
X64915000Y-48300000D02*
X64915000Y-49150000D01*
%TO.N,/STLK_TX*%
X56525000Y-64490000D02*
X56525000Y-67000000D01*
X60715000Y-60300000D02*
X56525000Y-64490000D01*
X62215000Y-55500000D02*
X60715000Y-57000000D01*
X60715000Y-57000000D02*
X60715000Y-60300000D01*
X62415000Y-55500000D02*
X62215000Y-55500000D01*
%TO.N,/USB_DP*%
X55515000Y-48600000D02*
X55815000Y-48300000D01*
X55515000Y-49700000D02*
X55515000Y-48600000D01*
X55515000Y-52300000D02*
X55515000Y-49700000D01*
X56815000Y-53600000D02*
X55515000Y-52300000D01*
%TO.N,+5V*%
X61915000Y-53600000D02*
X61325000Y-53600000D01*
X62115000Y-53400000D02*
X61915000Y-53600000D01*
X62115000Y-52800000D02*
X62115000Y-53400000D01*
X61377500Y-51262500D02*
X61515000Y-51400000D01*
X61377500Y-50700000D02*
X61377500Y-51262500D01*
X60815000Y-47050000D02*
X61690000Y-46175000D01*
X60815000Y-48300000D02*
X60815000Y-47050000D01*
X60615000Y-48500000D02*
X60815000Y-48300000D01*
X61377500Y-50700000D02*
X60615000Y-49937500D01*
X60615000Y-49937500D02*
X60615000Y-48500000D01*
%TO.N,/T_JTMS*%
X60105534Y-48575152D02*
X59727500Y-48953186D01*
X59727500Y-48953186D02*
X59727500Y-49200000D01*
%TO.N,/AIN*%
X60615000Y-53000000D02*
X60615000Y-52500000D01*
X60615000Y-52500000D02*
X60315000Y-52200000D01*
X60315000Y-52200000D02*
X59727500Y-52200000D01*
%TO.N,+3.3V*%
X62215000Y-48800000D02*
X62115000Y-48900000D01*
X62015000Y-52200000D02*
X61377500Y-52200000D01*
X62115000Y-48900000D02*
X62115000Y-52100000D01*
X62115000Y-52100000D02*
X62015000Y-52200000D01*
%TO.N,/BOOT0*%
X54715000Y-55000000D02*
X54815000Y-54900000D01*
X53715000Y-55000000D02*
X54715000Y-55000000D01*
%TO.N,+3.3V*%
X55645874Y-53600000D02*
X55955920Y-53910046D01*
X54815000Y-53600000D02*
X55645874Y-53600000D01*
X54815000Y-48900000D02*
X55140000Y-48575000D01*
X54815000Y-53600000D02*
X54815000Y-48900000D01*
X55140000Y-48575000D02*
X55140000Y-47725000D01*
X61044679Y-51867179D02*
X61377500Y-52200000D01*
X60536881Y-51867179D02*
X61044679Y-51867179D01*
%TO.N,/T_SWDIO_IN*%
X61515000Y-48600000D02*
X61515000Y-49062500D01*
X61515000Y-49062500D02*
X61377500Y-49200000D01*
D27*
%TO.N,+3.3V*%
X55140000Y-47725000D02*
X55915000Y-47725000D01*
X55915000Y-47725000D02*
X56615000Y-47725000D01*
D26*
X55915000Y-47400000D02*
X55915000Y-47725000D01*
D27*
%TO.N,+5V*%
X61690000Y-45375000D02*
X61690000Y-46175000D01*
X61415000Y-45100000D02*
X61690000Y-45375000D01*
X60115000Y-45100000D02*
X61415000Y-45100000D01*
X60115000Y-45400000D02*
X60115000Y-45100000D01*
X58215000Y-45500000D02*
X58640000Y-45925000D01*
X58640000Y-45925000D02*
X59590000Y-45925000D01*
X58215000Y-45100000D02*
X58215000Y-45500000D01*
X59590000Y-45925000D02*
X60115000Y-45400000D01*
X60215000Y-45000000D02*
X60115000Y-45100000D01*
X60215000Y-43300000D02*
X60215000Y-45000000D01*
%TO.N,Net-(D1-A)*%
X57915000Y-41700000D02*
X58115000Y-41900000D01*
X56715000Y-41700000D02*
X57915000Y-41700000D01*
X58115000Y-41900000D02*
X58115000Y-43300000D01*
%TO.N,+3.3V*%
X54615000Y-47200000D02*
X55140000Y-47725000D01*
X54615000Y-43375000D02*
X54615000Y-47200000D01*
X56740000Y-47600000D02*
X56615000Y-47725000D01*
X58215000Y-47600000D02*
X56740000Y-47600000D01*
D26*
%TO.N,/USB_RENUMn*%
X59115000Y-52900000D02*
X59815000Y-53600000D01*
X57515000Y-52600000D02*
X57815000Y-52900000D01*
X57515000Y-48700000D02*
X57515000Y-52600000D01*
X57215000Y-48400000D02*
X57515000Y-48700000D01*
X56115000Y-48700000D02*
X56415000Y-48400000D01*
X56115000Y-49134216D02*
X56115000Y-48700000D01*
X57815000Y-52900000D02*
X59115000Y-52900000D01*
X56415000Y-48400000D02*
X57215000Y-48400000D01*
X56027500Y-49221716D02*
X56115000Y-49134216D01*
%TO.N,Net-(Q1-E)*%
X57915000Y-55900000D02*
X58065000Y-56050000D01*
X57465000Y-55900000D02*
X57915000Y-55900000D01*
X56815000Y-55250000D02*
X57465000Y-55900000D01*
X58065000Y-56050000D02*
X58065000Y-56900000D01*
%TO.N,Net-(Q1-B)*%
X59965000Y-56150000D02*
X59815000Y-56000000D01*
X59815000Y-56000000D02*
X59815000Y-55250000D01*
X59965000Y-56900000D02*
X59965000Y-56150000D01*
X61325000Y-55250000D02*
X58315000Y-55250000D01*
%TO.N,/AIN*%
X58402500Y-52200000D02*
X59727500Y-52200000D01*
%TO.N,/PWR_EXT*%
X59727500Y-50700000D02*
X58402500Y-50700000D01*
X58415000Y-50000000D02*
X58415000Y-50687500D01*
X58415000Y-50687500D02*
X58402500Y-50700000D01*
%TO.N,Net-(IC1-BYPASS)*%
X60115000Y-48000000D02*
X60115000Y-47600000D01*
X59152500Y-48400000D02*
X59715000Y-48400000D01*
X59715000Y-48400000D02*
X60115000Y-48000000D01*
X58352500Y-49200000D02*
X59152500Y-48400000D01*
%TD*%
%TA.AperFunction,Conductor*%
%TO.N,GND*%
G36*
X64963422Y-33252545D02*
G01*
X65005944Y-33262755D01*
X65016988Y-33266344D01*
X65194613Y-33339924D01*
X65204943Y-33345187D01*
X65368894Y-33445662D01*
X65378276Y-33452479D01*
X65524472Y-33577347D01*
X65532683Y-33585558D01*
X65657546Y-33731759D01*
X65664371Y-33741153D01*
X65764827Y-33905088D01*
X65770098Y-33915434D01*
X65843672Y-34093060D01*
X65847260Y-34104103D01*
X65862455Y-34167394D01*
X65864500Y-34184669D01*
X65864500Y-50946851D01*
X65842826Y-50999177D01*
X65790500Y-51020851D01*
X65738174Y-50999177D01*
X65724568Y-50980451D01*
X65722573Y-50976535D01*
X65638465Y-50892427D01*
X65586484Y-50865941D01*
X65532483Y-50838426D01*
X65415000Y-50819819D01*
X65297517Y-50838426D01*
X65297516Y-50838426D01*
X65191533Y-50892428D01*
X65131136Y-50952826D01*
X65078810Y-50974500D01*
X64553440Y-50974500D01*
X64519688Y-50963536D01*
X64518653Y-50965569D01*
X64513466Y-50962926D01*
X64513465Y-50962925D01*
X64459295Y-50935324D01*
X64407483Y-50908924D01*
X64290000Y-50890317D01*
X64172517Y-50908924D01*
X64172516Y-50908924D01*
X64066533Y-50962926D01*
X63982428Y-51047031D01*
X63928426Y-51153014D01*
X63928426Y-51153015D01*
X63909819Y-51270498D01*
X63928426Y-51387980D01*
X63928426Y-51387981D01*
X63934465Y-51399833D01*
X63982427Y-51493963D01*
X64066535Y-51578071D01*
X64172518Y-51632072D01*
X64290000Y-51650679D01*
X64407482Y-51632072D01*
X64513465Y-51578071D01*
X64597573Y-51493963D01*
X64611870Y-51465904D01*
X64654937Y-51429122D01*
X64677804Y-51425500D01*
X65078810Y-51425500D01*
X65131136Y-51447174D01*
X65191535Y-51507573D01*
X65297518Y-51561574D01*
X65415000Y-51580181D01*
X65532482Y-51561574D01*
X65638465Y-51507573D01*
X65722573Y-51423465D01*
X65724566Y-51419552D01*
X65767632Y-51382770D01*
X65824094Y-51387213D01*
X65860878Y-51430280D01*
X65864500Y-51453148D01*
X65864500Y-67815545D01*
X65862455Y-67832820D01*
X65847308Y-67895911D01*
X65843720Y-67906954D01*
X65770144Y-68084588D01*
X65764873Y-68094934D01*
X65664412Y-68258876D01*
X65657587Y-68268270D01*
X65532719Y-68414477D01*
X65524508Y-68422688D01*
X65378310Y-68547557D01*
X65368916Y-68554382D01*
X65204976Y-68654850D01*
X65194630Y-68660122D01*
X65090216Y-68703375D01*
X65033579Y-68703377D01*
X64993530Y-68663329D01*
X64993056Y-68607861D01*
X65016846Y-68547536D01*
X65035359Y-68500590D01*
X65044717Y-68422667D01*
X65045500Y-68416145D01*
X65045500Y-65583854D01*
X65043325Y-65565746D01*
X65035359Y-65499410D01*
X64982364Y-65365025D01*
X64895078Y-65249922D01*
X64779975Y-65162636D01*
X64779974Y-65162635D01*
X64779972Y-65162634D01*
X64645590Y-65109641D01*
X64561145Y-65099500D01*
X64561144Y-65099500D01*
X64444500Y-65099500D01*
X64392174Y-65077826D01*
X64370500Y-65025500D01*
X64370500Y-63498475D01*
X64370501Y-63498466D01*
X64370501Y-63400146D01*
X64336170Y-63317265D01*
X64336169Y-63317263D01*
X64268521Y-63249615D01*
X64268514Y-63249609D01*
X62947174Y-61928269D01*
X62925500Y-61875943D01*
X62925500Y-60500000D01*
X64234819Y-60500000D01*
X64253426Y-60617482D01*
X64253426Y-60617483D01*
X64256266Y-60623056D01*
X64307427Y-60723465D01*
X64391535Y-60807573D01*
X64497518Y-60861574D01*
X64615000Y-60880181D01*
X64732482Y-60861574D01*
X64838465Y-60807573D01*
X64922573Y-60723465D01*
X64976574Y-60617482D01*
X64995181Y-60500000D01*
X64976574Y-60382518D01*
X64922573Y-60276535D01*
X64862174Y-60216136D01*
X64840500Y-60163810D01*
X64840500Y-57224056D01*
X64862173Y-57171731D01*
X65035441Y-56998462D01*
X65087766Y-56976789D01*
X65099340Y-56977700D01*
X65110706Y-56979500D01*
X65114999Y-56980181D01*
X65115000Y-56980181D01*
X65232482Y-56961574D01*
X65338465Y-56907573D01*
X65422573Y-56823465D01*
X65476574Y-56717482D01*
X65495181Y-56600000D01*
X65476574Y-56482518D01*
X65422573Y-56376535D01*
X65338465Y-56292427D01*
X65286484Y-56265941D01*
X65232483Y-56238426D01*
X65115000Y-56219819D01*
X64997517Y-56238426D01*
X64997516Y-56238426D01*
X64891533Y-56292428D01*
X64807428Y-56376533D01*
X64753426Y-56482516D01*
X64753426Y-56482517D01*
X64734819Y-56600000D01*
X64734819Y-56600003D01*
X64737298Y-56615658D01*
X64724075Y-56670730D01*
X64716535Y-56679558D01*
X64487265Y-56908829D01*
X64423831Y-56972263D01*
X64423830Y-56972265D01*
X64389499Y-57055144D01*
X64389499Y-57153466D01*
X64389500Y-57153475D01*
X64389500Y-60163810D01*
X64367826Y-60216136D01*
X64307428Y-60276533D01*
X64253426Y-60382516D01*
X64253426Y-60382517D01*
X64234819Y-60500000D01*
X62925500Y-60500000D01*
X62925500Y-59036190D01*
X62947174Y-58983864D01*
X62971162Y-58959876D01*
X63007573Y-58923465D01*
X63061574Y-58817482D01*
X63080181Y-58700000D01*
X63061574Y-58582518D01*
X63007573Y-58476535D01*
X62923465Y-58392427D01*
X62863749Y-58362000D01*
X62817483Y-58338426D01*
X62700000Y-58319819D01*
X62582517Y-58338426D01*
X62582516Y-58338426D01*
X62476533Y-58392428D01*
X62428838Y-58440124D01*
X62376512Y-58461798D01*
X62324186Y-58440124D01*
X62302512Y-58387798D01*
X62302512Y-56547044D01*
X62324185Y-56494719D01*
X62932327Y-55886576D01*
X62932330Y-55886575D01*
X62942735Y-55876170D01*
X62942736Y-55876170D01*
X63006170Y-55812736D01*
X63028215Y-55759515D01*
X63040501Y-55729854D01*
X63040501Y-55640145D01*
X63040501Y-55634187D01*
X63040500Y-55634173D01*
X63040500Y-55053475D01*
X63040501Y-55053466D01*
X63040501Y-54955146D01*
X63006170Y-54872265D01*
X63006169Y-54872263D01*
X62938521Y-54804615D01*
X62938514Y-54804609D01*
X62516578Y-54382673D01*
X62516578Y-54382672D01*
X62442738Y-54308832D01*
X62442736Y-54308830D01*
X62418460Y-54298774D01*
X62418458Y-54298773D01*
X62418458Y-54298772D01*
X62359855Y-54274499D01*
X62270145Y-54274499D01*
X62261533Y-54274499D01*
X62261525Y-54274500D01*
X61747300Y-54274500D01*
X61694974Y-54252826D01*
X61673300Y-54200500D01*
X61694974Y-54148174D01*
X61714800Y-54134019D01*
X61744620Y-54119440D01*
X61806483Y-54089198D01*
X61889198Y-54006483D01*
X61940573Y-53901393D01*
X61945040Y-53870731D01*
X61974030Y-53822079D01*
X61989941Y-53813038D01*
X62018460Y-53801225D01*
X62042736Y-53791170D01*
X62106170Y-53727736D01*
X62106170Y-53727735D01*
X62116575Y-53717330D01*
X62116577Y-53717327D01*
X62232327Y-53601577D01*
X62232330Y-53601575D01*
X62242735Y-53591170D01*
X62242736Y-53591170D01*
X62306170Y-53527736D01*
X62314658Y-53507243D01*
X62329147Y-53472265D01*
X62329147Y-53472264D01*
X62340501Y-53444854D01*
X62340501Y-53349187D01*
X62340500Y-53349173D01*
X62340500Y-53136190D01*
X62362174Y-53083864D01*
X62392305Y-53053733D01*
X62422573Y-53023465D01*
X62476574Y-52917482D01*
X62495181Y-52800000D01*
X62476574Y-52682518D01*
X62422573Y-52576535D01*
X62338465Y-52492427D01*
X62301707Y-52473698D01*
X62232474Y-52438421D01*
X62195692Y-52395354D01*
X62198818Y-52355636D01*
X62196341Y-52355141D01*
X62196342Y-52355136D01*
X62199291Y-52349625D01*
X62200136Y-52338891D01*
X62213753Y-52320152D01*
X62216575Y-52317330D01*
X62216576Y-52317327D01*
X62306170Y-52227736D01*
X62340500Y-52144855D01*
X62340500Y-52055146D01*
X62340500Y-49202835D01*
X62362174Y-49150509D01*
X62362875Y-49150000D01*
X64534819Y-49150000D01*
X64553426Y-49267482D01*
X64553426Y-49267483D01*
X64580941Y-49321484D01*
X64607427Y-49373465D01*
X64691535Y-49457573D01*
X64797518Y-49511574D01*
X64915000Y-49530181D01*
X65032482Y-49511574D01*
X65138465Y-49457573D01*
X65222573Y-49373465D01*
X65276574Y-49267482D01*
X65295181Y-49150000D01*
X65276574Y-49032518D01*
X65222573Y-48926535D01*
X65162174Y-48866136D01*
X65140500Y-48813810D01*
X65140500Y-48636190D01*
X65162174Y-48583864D01*
X65191948Y-48554090D01*
X65222573Y-48523465D01*
X65276574Y-48417482D01*
X65295181Y-48300000D01*
X65276574Y-48182518D01*
X65222573Y-48076535D01*
X65138465Y-47992427D01*
X65086484Y-47965941D01*
X65032483Y-47938426D01*
X64915000Y-47919819D01*
X64797517Y-47938426D01*
X64797516Y-47938426D01*
X64691533Y-47992428D01*
X64607428Y-48076533D01*
X64553426Y-48182516D01*
X64553426Y-48182517D01*
X64534819Y-48300000D01*
X64553426Y-48417482D01*
X64553426Y-48417483D01*
X64558652Y-48427739D01*
X64597822Y-48504615D01*
X64607428Y-48523466D01*
X64667826Y-48583864D01*
X64689500Y-48636190D01*
X64689500Y-48813810D01*
X64667826Y-48866136D01*
X64607428Y-48926533D01*
X64553426Y-49032516D01*
X64553426Y-49032517D01*
X64534819Y-49150000D01*
X62362875Y-49150000D01*
X62380904Y-49136901D01*
X62438465Y-49107573D01*
X62522573Y-49023465D01*
X62576574Y-48917482D01*
X62595181Y-48800000D01*
X62576574Y-48682518D01*
X62522573Y-48576535D01*
X62438465Y-48492427D01*
X62386484Y-48465941D01*
X62332483Y-48438426D01*
X62215000Y-48419819D01*
X62097517Y-48438426D01*
X62097516Y-48438426D01*
X61991532Y-48492428D01*
X61991531Y-48492429D01*
X61990738Y-48493223D01*
X61990043Y-48493510D01*
X61986819Y-48495853D01*
X61986256Y-48495078D01*
X61938409Y-48514892D01*
X61886086Y-48493213D01*
X61872483Y-48474488D01*
X61848661Y-48427736D01*
X61822573Y-48376535D01*
X61738465Y-48292427D01*
X61653602Y-48249187D01*
X61632483Y-48238426D01*
X61515000Y-48219819D01*
X61397517Y-48238426D01*
X61397516Y-48238426D01*
X61291533Y-48292428D01*
X61207427Y-48376534D01*
X61207427Y-48376535D01*
X61153427Y-48482515D01*
X61153425Y-48482520D01*
X61147250Y-48521506D01*
X61117656Y-48569796D01*
X61084837Y-48583154D01*
X61076108Y-48584426D01*
X61076103Y-48584428D01*
X61031119Y-48606419D01*
X60974590Y-48609928D01*
X60932138Y-48572438D01*
X60928629Y-48515909D01*
X60946294Y-48487612D01*
X61006167Y-48427739D01*
X61006170Y-48427736D01*
X61036238Y-48355145D01*
X61040501Y-48344854D01*
X61040501Y-48255145D01*
X61040501Y-48249187D01*
X61040500Y-48249173D01*
X61040500Y-47174057D01*
X61062174Y-47121731D01*
X61386731Y-46797174D01*
X61439057Y-46775500D01*
X61975630Y-46775500D01*
X61975636Y-46775500D01*
X62048625Y-46764866D01*
X62161211Y-46709826D01*
X62249826Y-46621211D01*
X62304866Y-46508625D01*
X62315500Y-46435636D01*
X62315500Y-45914364D01*
X62304866Y-45841375D01*
X62249826Y-45728789D01*
X62161211Y-45640174D01*
X62161210Y-45640173D01*
X62048626Y-45585134D01*
X62028830Y-45582250D01*
X61980176Y-45553257D01*
X61965500Y-45509023D01*
X61965500Y-45320201D01*
X61965500Y-45320200D01*
X61965342Y-45319819D01*
X61923558Y-45218942D01*
X61571058Y-44866443D01*
X61571057Y-44866442D01*
X61511742Y-44841873D01*
X61469800Y-44824500D01*
X61469799Y-44824500D01*
X60639500Y-44824500D01*
X60587174Y-44802826D01*
X60565500Y-44750500D01*
X60565500Y-44485180D01*
X60556767Y-44441278D01*
X60523504Y-44391496D01*
X60523383Y-44391415D01*
X60523302Y-44391294D01*
X60518351Y-44386343D01*
X60519336Y-44385357D01*
X60491921Y-44344320D01*
X60490500Y-44329889D01*
X60490500Y-43709560D01*
X60512174Y-43657234D01*
X60523383Y-43648035D01*
X60592112Y-43602112D01*
X60650240Y-43515117D01*
X60665500Y-43438401D01*
X60665499Y-43161600D01*
X60650240Y-43084883D01*
X60592112Y-42997888D01*
X60592109Y-42997886D01*
X60505117Y-42939760D01*
X60428401Y-42924500D01*
X60428399Y-42924500D01*
X60001600Y-42924500D01*
X59924882Y-42939760D01*
X59837888Y-42997887D01*
X59837887Y-42997888D01*
X59779760Y-43084882D01*
X59764500Y-43161600D01*
X59764500Y-43438399D01*
X59771909Y-43475645D01*
X59779760Y-43515117D01*
X59837888Y-43602112D01*
X59906612Y-43648032D01*
X59938078Y-43695123D01*
X59939500Y-43709560D01*
X59939500Y-44275500D01*
X59917826Y-44327826D01*
X59865500Y-44349500D01*
X59800180Y-44349500D01*
X59778229Y-44353866D01*
X59756277Y-44358233D01*
X59706496Y-44391495D01*
X59706495Y-44391496D01*
X59673233Y-44441277D01*
X59664500Y-44485180D01*
X59664500Y-45430232D01*
X59642826Y-45482558D01*
X59497559Y-45627826D01*
X59445233Y-45649500D01*
X58784768Y-45649500D01*
X58732442Y-45627826D01*
X58687174Y-45582558D01*
X58665500Y-45530232D01*
X58665500Y-44485180D01*
X58656767Y-44441278D01*
X58623504Y-44391496D01*
X58623016Y-44391170D01*
X58573722Y-44358233D01*
X58529820Y-44349500D01*
X57900180Y-44349500D01*
X57878229Y-44353866D01*
X57856277Y-44358233D01*
X57806496Y-44391495D01*
X57806495Y-44391496D01*
X57773233Y-44441277D01*
X57764500Y-44485180D01*
X57764500Y-45354810D01*
X57742826Y-45407136D01*
X57690500Y-45428810D01*
X57638174Y-45407136D01*
X57623466Y-45392428D01*
X57623465Y-45392427D01*
X57571484Y-45365941D01*
X57517483Y-45338426D01*
X57400000Y-45319819D01*
X57298015Y-45335971D01*
X57242942Y-45322749D01*
X57234113Y-45315208D01*
X56047174Y-44128269D01*
X56025500Y-44075943D01*
X56025500Y-42024056D01*
X56047173Y-41971731D01*
X56230762Y-41788142D01*
X56283086Y-41766469D01*
X56335412Y-41788143D01*
X56350346Y-41812513D01*
X56350781Y-41812292D01*
X56367548Y-41845198D01*
X56407427Y-41923465D01*
X56491535Y-42007573D01*
X56597518Y-42061574D01*
X56715000Y-42080181D01*
X56832482Y-42061574D01*
X56938465Y-42007573D01*
X56948864Y-41997174D01*
X57001190Y-41975500D01*
X57765500Y-41975500D01*
X57817826Y-41997174D01*
X57839500Y-42049500D01*
X57839500Y-42890438D01*
X57817826Y-42942764D01*
X57806613Y-42951966D01*
X57737889Y-42997886D01*
X57737887Y-42997888D01*
X57679760Y-43084882D01*
X57664500Y-43161600D01*
X57664500Y-43438399D01*
X57671909Y-43475645D01*
X57679760Y-43515117D01*
X57737888Y-43602112D01*
X57824883Y-43660240D01*
X57901599Y-43675500D01*
X58328400Y-43675499D01*
X58405117Y-43660240D01*
X58492112Y-43602112D01*
X58550240Y-43515117D01*
X58565500Y-43438401D01*
X58565499Y-43161600D01*
X58550240Y-43084883D01*
X58492112Y-42997888D01*
X58492111Y-42997887D01*
X58492110Y-42997886D01*
X58423387Y-42951966D01*
X58391922Y-42904874D01*
X58390500Y-42890438D01*
X58390500Y-41845200D01*
X58390499Y-41845198D01*
X58374882Y-41807494D01*
X58348559Y-41743944D01*
X58348557Y-41743941D01*
X58156441Y-41551826D01*
X58134767Y-41499500D01*
X58156441Y-41447174D01*
X58208767Y-41425500D01*
X58646525Y-41425500D01*
X58646533Y-41425501D01*
X58655145Y-41425501D01*
X58744854Y-41425501D01*
X58744855Y-41425501D01*
X58803460Y-41401225D01*
X58827736Y-41391170D01*
X58891170Y-41327736D01*
X58891170Y-41327735D01*
X58901575Y-41317330D01*
X58901576Y-41317327D01*
X58974047Y-41244856D01*
X60874499Y-41244856D01*
X60898773Y-41303458D01*
X60908829Y-41327734D01*
X60908832Y-41327738D01*
X60982671Y-41401577D01*
X60982673Y-41401578D01*
X61504609Y-41923514D01*
X61504612Y-41923518D01*
X61572263Y-41991169D01*
X61572266Y-41991171D01*
X61586759Y-41997174D01*
X61655145Y-42025500D01*
X61663810Y-42025500D01*
X61716136Y-42047174D01*
X61776535Y-42107573D01*
X61882518Y-42161574D01*
X62000000Y-42180181D01*
X62117482Y-42161574D01*
X62223465Y-42107573D01*
X62307573Y-42023465D01*
X62361574Y-41917482D01*
X62380181Y-41800000D01*
X62361574Y-41682518D01*
X62307573Y-41576535D01*
X62223465Y-41492427D01*
X62171484Y-41465941D01*
X62117483Y-41438426D01*
X62000000Y-41419819D01*
X61882517Y-41438426D01*
X61781244Y-41490027D01*
X61724781Y-41494470D01*
X61695323Y-41476418D01*
X61347174Y-41128269D01*
X61325500Y-41075943D01*
X61325500Y-39224057D01*
X61347174Y-39171731D01*
X61396332Y-39122573D01*
X61448591Y-39070313D01*
X61500916Y-39048640D01*
X61512493Y-39049551D01*
X61518481Y-39050500D01*
X61644100Y-39050499D01*
X61696425Y-39072173D01*
X61718100Y-39124498D01*
X61696426Y-39176824D01*
X61696426Y-39176825D01*
X61614515Y-39258736D01*
X61558499Y-39355758D01*
X61558495Y-39355767D01*
X61529500Y-39463979D01*
X61529500Y-39576020D01*
X61558495Y-39684232D01*
X61558496Y-39684235D01*
X61558497Y-39684237D01*
X61614515Y-39781263D01*
X61693737Y-39860485D01*
X61790763Y-39916503D01*
X61898979Y-39945499D01*
X61898980Y-39945500D01*
X61898982Y-39945500D01*
X62011020Y-39945500D01*
X62011020Y-39945499D01*
X62119237Y-39916503D01*
X62216263Y-39860485D01*
X62295485Y-39781263D01*
X62351503Y-39684237D01*
X62380499Y-39576020D01*
X62380500Y-39576020D01*
X62380500Y-39463980D01*
X62380499Y-39463979D01*
X62351504Y-39355767D01*
X62351503Y-39355763D01*
X62295485Y-39258737D01*
X62216263Y-39179515D01*
X62182724Y-39160151D01*
X62148245Y-39115217D01*
X62155638Y-39059065D01*
X62186128Y-39030131D01*
X62197773Y-39024197D01*
X62288342Y-38978050D01*
X62378050Y-38888342D01*
X62435646Y-38775304D01*
X62450500Y-38681519D01*
X62450499Y-38118482D01*
X62435646Y-38024696D01*
X62435646Y-38024695D01*
X62435645Y-38024693D01*
X62378049Y-37911657D01*
X62288343Y-37821951D01*
X62288342Y-37821950D01*
X62175304Y-37764354D01*
X62175302Y-37764353D01*
X62175301Y-37764353D01*
X62081519Y-37749500D01*
X61518480Y-37749500D01*
X61424695Y-37764353D01*
X61424693Y-37764354D01*
X61311657Y-37821950D01*
X61221951Y-37911656D01*
X61164353Y-38024698D01*
X61149500Y-38118480D01*
X61149500Y-38681519D01*
X61150449Y-38687506D01*
X61137227Y-38742578D01*
X61129686Y-38751407D01*
X60972265Y-38908829D01*
X60908830Y-38972263D01*
X60898774Y-38996536D01*
X60898774Y-38996539D01*
X60876424Y-39050499D01*
X60874499Y-39055146D01*
X60874499Y-39153466D01*
X60874500Y-39153475D01*
X60874500Y-41149173D01*
X60874499Y-41149187D01*
X60874499Y-41244856D01*
X58974047Y-41244856D01*
X59491170Y-40727735D01*
X59491169Y-40727735D01*
X60191170Y-40027736D01*
X60225500Y-39944855D01*
X60225500Y-39855146D01*
X60225500Y-39122573D01*
X60247174Y-39070247D01*
X60287924Y-39049484D01*
X60375304Y-39035646D01*
X60488342Y-38978050D01*
X60578050Y-38888342D01*
X60635646Y-38775304D01*
X60650500Y-38681519D01*
X60650499Y-38118482D01*
X60635646Y-38024696D01*
X60635646Y-38024695D01*
X60635645Y-38024693D01*
X60578049Y-37911657D01*
X60488343Y-37821951D01*
X60488342Y-37821950D01*
X60375304Y-37764354D01*
X60375302Y-37764353D01*
X60375301Y-37764353D01*
X60281519Y-37749500D01*
X59718480Y-37749500D01*
X59624695Y-37764353D01*
X59624693Y-37764354D01*
X59511657Y-37821950D01*
X59421951Y-37911656D01*
X59364353Y-38024698D01*
X59349500Y-38118480D01*
X59349500Y-38681519D01*
X59364353Y-38775304D01*
X59364354Y-38775306D01*
X59421950Y-38888342D01*
X59511658Y-38978050D01*
X59624696Y-39035646D01*
X59712077Y-39049485D01*
X59760367Y-39079077D01*
X59774500Y-39122574D01*
X59774500Y-39775942D01*
X59752826Y-39828268D01*
X59172265Y-40408830D01*
X58628269Y-40952826D01*
X58575943Y-40974500D01*
X57723058Y-40974500D01*
X57670732Y-40952826D01*
X57649058Y-40900500D01*
X57670732Y-40848174D01*
X57691170Y-40827736D01*
X57691170Y-40827735D01*
X57701575Y-40817330D01*
X57701576Y-40817327D01*
X58391170Y-40127736D01*
X58425500Y-40044855D01*
X58425500Y-39955146D01*
X58425500Y-39122573D01*
X58447174Y-39070247D01*
X58487924Y-39049484D01*
X58575304Y-39035646D01*
X58688342Y-38978050D01*
X58778050Y-38888342D01*
X58835646Y-38775304D01*
X58850500Y-38681519D01*
X58850499Y-38118482D01*
X58835646Y-38024696D01*
X58835646Y-38024695D01*
X58835645Y-38024693D01*
X58778049Y-37911657D01*
X58688343Y-37821951D01*
X58688342Y-37821950D01*
X58575304Y-37764354D01*
X58575302Y-37764353D01*
X58575301Y-37764353D01*
X58481519Y-37749500D01*
X57918480Y-37749500D01*
X57824695Y-37764353D01*
X57824693Y-37764354D01*
X57711657Y-37821950D01*
X57621951Y-37911656D01*
X57564353Y-38024698D01*
X57549500Y-38118480D01*
X57549500Y-38681519D01*
X57564353Y-38775304D01*
X57564354Y-38775306D01*
X57621950Y-38888342D01*
X57711658Y-38978050D01*
X57824696Y-39035646D01*
X57912077Y-39049485D01*
X57960367Y-39079077D01*
X57974500Y-39122574D01*
X57974500Y-39875942D01*
X57952826Y-39928268D01*
X57428269Y-40452826D01*
X57375943Y-40474500D01*
X55953475Y-40474500D01*
X55953467Y-40474499D01*
X55944855Y-40474499D01*
X55855145Y-40474499D01*
X55796539Y-40498774D01*
X55796537Y-40498775D01*
X55796536Y-40498774D01*
X55772263Y-40508830D01*
X53708831Y-42572263D01*
X53708830Y-42572265D01*
X53674499Y-42655144D01*
X53674499Y-42753466D01*
X53674500Y-42753475D01*
X53674500Y-48363810D01*
X53652826Y-48416136D01*
X53592428Y-48476533D01*
X53538426Y-48582516D01*
X53538426Y-48582517D01*
X53519819Y-48700000D01*
X53538426Y-48817482D01*
X53538426Y-48817483D01*
X53541776Y-48824057D01*
X53592427Y-48923465D01*
X53676535Y-49007573D01*
X53782518Y-49061574D01*
X53900000Y-49080181D01*
X54017482Y-49061574D01*
X54123465Y-49007573D01*
X54207573Y-48923465D01*
X54261574Y-48817482D01*
X54280181Y-48700000D01*
X54261574Y-48582518D01*
X54207573Y-48476535D01*
X54147174Y-48416136D01*
X54125500Y-48363810D01*
X54125500Y-43549645D01*
X54147174Y-43497319D01*
X54199500Y-43475645D01*
X54251826Y-43497319D01*
X54265434Y-43516049D01*
X54307428Y-43598466D01*
X54317826Y-43608864D01*
X54339500Y-43661190D01*
X54339500Y-47254799D01*
X54339499Y-47254799D01*
X54359393Y-47302826D01*
X54368371Y-47324500D01*
X54381443Y-47356058D01*
X54892826Y-47867441D01*
X54914500Y-47919766D01*
X54914500Y-48450942D01*
X54892826Y-48503268D01*
X54623829Y-48772264D01*
X54619590Y-48782500D01*
X54589499Y-48855144D01*
X54589499Y-48953466D01*
X54589500Y-48953475D01*
X54589500Y-52870115D01*
X54567826Y-52922441D01*
X54526031Y-52943362D01*
X54400559Y-52961402D01*
X54400556Y-52961402D01*
X54358086Y-52973872D01*
X54227304Y-53033599D01*
X54227296Y-53033603D01*
X54190072Y-53057525D01*
X54081412Y-53151678D01*
X54052422Y-53185135D01*
X53974695Y-53306080D01*
X53974688Y-53306093D01*
X53956307Y-53346343D01*
X53915797Y-53484307D01*
X53909500Y-53528106D01*
X53909500Y-54100002D01*
X53930332Y-54177749D01*
X53950257Y-54197674D01*
X53971931Y-54250000D01*
X53950257Y-54302326D01*
X53930332Y-54322250D01*
X53909500Y-54399997D01*
X53909500Y-54563981D01*
X53887826Y-54616307D01*
X53835500Y-54637981D01*
X53823924Y-54637070D01*
X53715000Y-54619819D01*
X53597517Y-54638426D01*
X53597516Y-54638426D01*
X53491533Y-54692428D01*
X53407428Y-54776533D01*
X53353426Y-54882516D01*
X53353426Y-54882517D01*
X53334819Y-55000000D01*
X53353426Y-55117482D01*
X53353426Y-55117483D01*
X53378900Y-55167478D01*
X53407427Y-55223465D01*
X53491535Y-55307573D01*
X53597518Y-55361574D01*
X53715000Y-55380181D01*
X53832482Y-55361574D01*
X53938465Y-55307573D01*
X53940123Y-55305915D01*
X53941575Y-55305313D01*
X53943178Y-55304149D01*
X53943457Y-55304533D01*
X53992447Y-55284236D01*
X54044774Y-55305906D01*
X54051706Y-55313907D01*
X54052423Y-55314866D01*
X54081412Y-55348321D01*
X54190072Y-55442474D01*
X54227296Y-55466396D01*
X54227299Y-55466397D01*
X54227303Y-55466400D01*
X54358088Y-55526128D01*
X54400555Y-55538597D01*
X54542870Y-55559059D01*
X54542876Y-55559059D01*
X54587124Y-55559059D01*
X54587130Y-55559059D01*
X54606647Y-55556252D01*
X54617177Y-55555500D01*
X55012823Y-55555500D01*
X55023352Y-55556252D01*
X55042870Y-55559059D01*
X55042876Y-55559059D01*
X55087124Y-55559059D01*
X55087130Y-55559059D01*
X55229445Y-55538597D01*
X55271912Y-55526128D01*
X55402697Y-55466400D01*
X55439930Y-55442472D01*
X55548591Y-55348318D01*
X55577576Y-55314867D01*
X55655308Y-55193913D01*
X55673694Y-55153653D01*
X55714201Y-55015698D01*
X55720500Y-54971889D01*
X55720500Y-54400000D01*
X55720500Y-54399998D01*
X55720499Y-54399997D01*
X55705032Y-54342271D01*
X55712424Y-54286118D01*
X55757357Y-54251640D01*
X55810105Y-54257183D01*
X55838438Y-54271620D01*
X55955920Y-54290227D01*
X56073402Y-54271620D01*
X56179385Y-54217619D01*
X56263493Y-54133511D01*
X56263494Y-54133508D01*
X56266917Y-54128799D01*
X56268754Y-54130133D01*
X56305544Y-54098703D01*
X56360923Y-54102596D01*
X56438607Y-54140573D01*
X56506740Y-54150500D01*
X56506746Y-54150500D01*
X57123254Y-54150500D01*
X57123260Y-54150500D01*
X57191393Y-54140573D01*
X57296483Y-54089198D01*
X57379198Y-54006483D01*
X57430573Y-53901393D01*
X57440500Y-53833260D01*
X57440500Y-53366740D01*
X57430573Y-53298607D01*
X57379198Y-53193517D01*
X57296483Y-53110802D01*
X57296482Y-53110801D01*
X57191394Y-53059427D01*
X57123264Y-53049500D01*
X57123260Y-53049500D01*
X56614057Y-53049500D01*
X56561731Y-53027826D01*
X55762174Y-52228269D01*
X55740500Y-52175943D01*
X55740500Y-49617673D01*
X55762174Y-49565347D01*
X55814500Y-49543673D01*
X55848095Y-49551738D01*
X55910018Y-49583290D01*
X56027500Y-49601897D01*
X56144982Y-49583290D01*
X56250965Y-49529289D01*
X56335073Y-49445181D01*
X56389074Y-49339198D01*
X56407681Y-49221716D01*
X56389074Y-49104234D01*
X56352533Y-49032518D01*
X56348565Y-49024730D01*
X56340500Y-48991135D01*
X56340500Y-48824057D01*
X56362174Y-48771731D01*
X56486731Y-48647174D01*
X56539057Y-48625500D01*
X57090943Y-48625500D01*
X57143269Y-48647174D01*
X57267826Y-48771731D01*
X57289500Y-48824057D01*
X57289500Y-52549173D01*
X57289499Y-52549187D01*
X57289499Y-52644855D01*
X57305100Y-52682518D01*
X57323829Y-52727734D01*
X57323831Y-52727737D01*
X57397671Y-52801577D01*
X57397673Y-52801578D01*
X57619609Y-53023514D01*
X57619612Y-53023518D01*
X57623830Y-53027736D01*
X57687264Y-53091170D01*
X57711539Y-53101225D01*
X57770145Y-53125501D01*
X57770146Y-53125501D01*
X57868467Y-53125501D01*
X57868475Y-53125500D01*
X58990943Y-53125500D01*
X59043269Y-53147174D01*
X59172571Y-53276476D01*
X59194245Y-53328802D01*
X59193472Y-53339468D01*
X59189501Y-53366727D01*
X59189500Y-53366746D01*
X59189500Y-53833264D01*
X59199427Y-53901393D01*
X59199427Y-53901394D01*
X59250801Y-54006482D01*
X59250802Y-54006483D01*
X59333517Y-54089198D01*
X59438607Y-54140573D01*
X59506740Y-54150500D01*
X59506746Y-54150500D01*
X60123254Y-54150500D01*
X60123260Y-54150500D01*
X60191393Y-54140573D01*
X60296483Y-54089198D01*
X60379198Y-54006483D01*
X60430573Y-53901393D01*
X60440500Y-53833260D01*
X60440500Y-53439186D01*
X60462174Y-53386860D01*
X60514500Y-53365186D01*
X60526075Y-53366096D01*
X60615000Y-53380181D01*
X60620824Y-53380181D01*
X60620824Y-53382009D01*
X60668991Y-53393569D01*
X60698588Y-53441858D01*
X60699500Y-53453440D01*
X60699500Y-53833264D01*
X60709427Y-53901393D01*
X60709427Y-53901394D01*
X60760801Y-54006482D01*
X60760802Y-54006483D01*
X60843517Y-54089198D01*
X60948607Y-54140573D01*
X61016740Y-54150500D01*
X61016749Y-54150500D01*
X61019410Y-54150693D01*
X61019309Y-54152078D01*
X61067825Y-54172174D01*
X61089499Y-54224500D01*
X61089499Y-54244855D01*
X61115998Y-54308829D01*
X61123830Y-54327735D01*
X61360076Y-54563981D01*
X61369269Y-54573174D01*
X61390943Y-54625500D01*
X61369269Y-54677826D01*
X61316943Y-54699500D01*
X61016735Y-54699500D01*
X60948606Y-54709427D01*
X60948605Y-54709427D01*
X60843517Y-54760801D01*
X60760801Y-54843517D01*
X60709427Y-54948605D01*
X60707597Y-54961170D01*
X60678605Y-55009824D01*
X60634370Y-55024500D01*
X60505630Y-55024500D01*
X60453304Y-55002826D01*
X60432403Y-54961170D01*
X60430573Y-54948607D01*
X60379198Y-54843517D01*
X60296483Y-54760802D01*
X60296482Y-54760801D01*
X60191394Y-54709427D01*
X60123264Y-54699500D01*
X60123260Y-54699500D01*
X59506740Y-54699500D01*
X59506735Y-54699500D01*
X59438606Y-54709427D01*
X59438605Y-54709427D01*
X59333517Y-54760801D01*
X59250801Y-54843517D01*
X59199427Y-54948605D01*
X59197597Y-54961170D01*
X59168605Y-55009824D01*
X59124370Y-55024500D01*
X59005630Y-55024500D01*
X58953304Y-55002826D01*
X58932403Y-54961170D01*
X58930573Y-54948607D01*
X58879198Y-54843517D01*
X58796483Y-54760802D01*
X58796482Y-54760801D01*
X58691394Y-54709427D01*
X58623264Y-54699500D01*
X58623260Y-54699500D01*
X58006740Y-54699500D01*
X58006735Y-54699500D01*
X57938606Y-54709427D01*
X57938605Y-54709427D01*
X57833517Y-54760801D01*
X57750801Y-54843517D01*
X57699427Y-54948605D01*
X57699427Y-54948606D01*
X57689500Y-55016735D01*
X57689500Y-55483264D01*
X57691527Y-55497174D01*
X57699427Y-55551393D01*
X57707546Y-55568001D01*
X57711056Y-55624527D01*
X57673566Y-55666981D01*
X57641065Y-55674500D01*
X57589057Y-55674500D01*
X57536731Y-55652826D01*
X57457427Y-55573522D01*
X57435753Y-55521196D01*
X57436527Y-55510524D01*
X57440500Y-55483260D01*
X57440500Y-55016740D01*
X57430573Y-54948607D01*
X57379198Y-54843517D01*
X57296483Y-54760802D01*
X57296482Y-54760801D01*
X57191394Y-54709427D01*
X57123264Y-54699500D01*
X57123260Y-54699500D01*
X56506740Y-54699500D01*
X56506735Y-54699500D01*
X56438606Y-54709427D01*
X56438605Y-54709427D01*
X56333517Y-54760801D01*
X56250801Y-54843517D01*
X56199427Y-54948605D01*
X56199427Y-54948606D01*
X56189500Y-55016735D01*
X56189500Y-55483264D01*
X56199427Y-55551393D01*
X56199427Y-55551394D01*
X56250801Y-55656482D01*
X56250802Y-55656483D01*
X56333517Y-55739198D01*
X56438607Y-55790573D01*
X56506740Y-55800500D01*
X57015943Y-55800500D01*
X57068269Y-55822174D01*
X57269609Y-56023514D01*
X57269612Y-56023518D01*
X57273830Y-56027736D01*
X57337264Y-56091170D01*
X57371003Y-56105145D01*
X57420146Y-56125501D01*
X57518467Y-56125501D01*
X57518475Y-56125500D01*
X57588628Y-56125500D01*
X57640954Y-56147174D01*
X57662628Y-56199500D01*
X57656323Y-56229390D01*
X57617414Y-56317511D01*
X57614500Y-56342635D01*
X57614500Y-57457363D01*
X57617414Y-57482486D01*
X57617415Y-57482491D01*
X57662794Y-57585265D01*
X57742235Y-57664706D01*
X57845009Y-57710085D01*
X57870135Y-57713000D01*
X58259864Y-57712999D01*
X58284991Y-57710085D01*
X58387765Y-57664706D01*
X58467206Y-57585265D01*
X58512585Y-57482491D01*
X58515500Y-57457365D01*
X58515499Y-56342636D01*
X58512585Y-56317509D01*
X58467206Y-56214735D01*
X58387765Y-56135294D01*
X58387764Y-56135293D01*
X58334609Y-56111822D01*
X58295498Y-56070859D01*
X58290501Y-56044128D01*
X58290501Y-56005144D01*
X58261410Y-55934914D01*
X58250537Y-55908665D01*
X58252818Y-55907720D01*
X58239058Y-55874500D01*
X58260732Y-55822174D01*
X58313058Y-55800500D01*
X58623254Y-55800500D01*
X58623260Y-55800500D01*
X58691393Y-55790573D01*
X58796483Y-55739198D01*
X58879198Y-55656483D01*
X58930573Y-55551393D01*
X58932403Y-55538829D01*
X58961395Y-55490176D01*
X59005630Y-55475500D01*
X59124370Y-55475500D01*
X59176696Y-55497174D01*
X59197597Y-55538830D01*
X59199427Y-55551394D01*
X59250801Y-55656482D01*
X59250802Y-55656483D01*
X59333517Y-55739198D01*
X59438607Y-55790573D01*
X59506740Y-55800500D01*
X59515500Y-55800500D01*
X59567826Y-55822174D01*
X59589500Y-55874500D01*
X59589500Y-55949173D01*
X59589499Y-55949187D01*
X59589499Y-56044855D01*
X59606957Y-56087001D01*
X59612512Y-56100412D01*
X59612512Y-56157049D01*
X59596472Y-56181055D01*
X59562794Y-56214734D01*
X59517414Y-56317511D01*
X59514500Y-56342635D01*
X59514500Y-57457363D01*
X59517414Y-57482486D01*
X59517415Y-57482491D01*
X59562794Y-57585265D01*
X59642235Y-57664706D01*
X59745009Y-57710085D01*
X59770135Y-57713000D01*
X60159864Y-57712999D01*
X60184991Y-57710085D01*
X60287765Y-57664706D01*
X60363174Y-57589297D01*
X60415500Y-57567623D01*
X60467826Y-57589297D01*
X60489500Y-57641623D01*
X60489500Y-60175942D01*
X60467826Y-60228268D01*
X56333831Y-64362263D01*
X56333830Y-64362265D01*
X56299499Y-64445144D01*
X56299499Y-64543466D01*
X56299500Y-64543475D01*
X56299500Y-65025500D01*
X56277826Y-65077826D01*
X56225500Y-65099500D01*
X56108855Y-65099500D01*
X56024409Y-65109641D01*
X55890027Y-65162634D01*
X55774922Y-65249922D01*
X55687634Y-65365027D01*
X55634641Y-65499409D01*
X55624500Y-65583854D01*
X55624500Y-68416145D01*
X55634641Y-68500590D01*
X55687637Y-68634978D01*
X55690030Y-68639234D01*
X55696781Y-68695467D01*
X55661792Y-68740004D01*
X55625526Y-68749500D01*
X53163845Y-68749500D01*
X53146570Y-68747455D01*
X53104097Y-68737258D01*
X53093053Y-68733670D01*
X52915417Y-68660090D01*
X52905071Y-68654818D01*
X52741139Y-68554361D01*
X52731745Y-68547536D01*
X52585543Y-68422667D01*
X52577332Y-68414456D01*
X52452463Y-68268254D01*
X52445638Y-68258860D01*
X52345181Y-68094928D01*
X52339909Y-68084582D01*
X52271133Y-67918542D01*
X52265500Y-67890223D01*
X52265500Y-59732363D01*
X58564500Y-59732363D01*
X58567414Y-59757486D01*
X58567415Y-59757491D01*
X58612794Y-59860265D01*
X58692235Y-59939706D01*
X58745389Y-59963175D01*
X58784503Y-60004137D01*
X58789500Y-60030870D01*
X58789500Y-60263810D01*
X58767826Y-60316136D01*
X58707428Y-60376533D01*
X58653426Y-60482516D01*
X58653426Y-60482517D01*
X58634819Y-60600000D01*
X58653426Y-60717482D01*
X58653426Y-60717483D01*
X58656474Y-60723465D01*
X58707427Y-60823465D01*
X58791535Y-60907573D01*
X58897518Y-60961574D01*
X59015000Y-60980181D01*
X59132482Y-60961574D01*
X59238465Y-60907573D01*
X59322573Y-60823465D01*
X59376574Y-60717482D01*
X59395181Y-60600000D01*
X59376574Y-60482518D01*
X59322573Y-60376535D01*
X59262174Y-60316136D01*
X59240500Y-60263810D01*
X59240500Y-60030870D01*
X59262174Y-59978544D01*
X59284609Y-59963176D01*
X59337765Y-59939706D01*
X59417206Y-59860265D01*
X59462585Y-59757491D01*
X59465500Y-59732365D01*
X59465499Y-58617636D01*
X59462585Y-58592509D01*
X59417206Y-58489735D01*
X59337765Y-58410294D01*
X59234991Y-58364915D01*
X59234990Y-58364914D01*
X59234988Y-58364914D01*
X59213659Y-58362440D01*
X59209865Y-58362000D01*
X59209864Y-58362000D01*
X58820136Y-58362000D01*
X58795013Y-58364914D01*
X58795007Y-58364915D01*
X58692234Y-58410294D01*
X58612794Y-58489734D01*
X58567414Y-58592511D01*
X58564500Y-58617635D01*
X58564500Y-59732363D01*
X52265500Y-59732363D01*
X52265500Y-39576020D01*
X55749500Y-39576020D01*
X55778495Y-39684232D01*
X55778496Y-39684235D01*
X55778497Y-39684237D01*
X55834515Y-39781263D01*
X55913737Y-39860485D01*
X56010763Y-39916503D01*
X56118979Y-39945499D01*
X56118980Y-39945500D01*
X56118982Y-39945500D01*
X56231020Y-39945500D01*
X56231020Y-39945499D01*
X56339237Y-39916503D01*
X56436263Y-39860485D01*
X56515485Y-39781263D01*
X56571503Y-39684237D01*
X56600499Y-39576020D01*
X56600500Y-39576020D01*
X56600500Y-39463980D01*
X56600499Y-39463979D01*
X56571504Y-39355767D01*
X56571503Y-39355763D01*
X56515485Y-39258737D01*
X56436263Y-39179515D01*
X56402724Y-39160151D01*
X56339241Y-39123499D01*
X56339232Y-39123495D01*
X56231020Y-39094500D01*
X56231018Y-39094500D01*
X56118982Y-39094500D01*
X56118980Y-39094500D01*
X56010767Y-39123495D01*
X56010758Y-39123499D01*
X55913736Y-39179515D01*
X55834515Y-39258736D01*
X55778499Y-39355758D01*
X55778495Y-39355767D01*
X55749500Y-39463979D01*
X55749500Y-39576020D01*
X52265500Y-39576020D01*
X52265500Y-34109775D01*
X52271133Y-34081456D01*
X52339909Y-33915417D01*
X52345181Y-33905071D01*
X52445643Y-33741131D01*
X52452457Y-33731752D01*
X52577339Y-33585535D01*
X52585535Y-33577339D01*
X52731752Y-33452457D01*
X52741131Y-33445643D01*
X52905074Y-33345179D01*
X52915413Y-33339910D01*
X53093064Y-33266325D01*
X53104077Y-33262746D01*
X53146577Y-33252543D01*
X53163845Y-33250500D01*
X64946145Y-33250500D01*
X64963422Y-33252545D01*
G37*
%TD.AperFunction*%
%TA.AperFunction,Conductor*%
G36*
X60867826Y-60570730D02*
G01*
X60889500Y-60623056D01*
X60889500Y-61860942D01*
X60867826Y-61913268D01*
X58873831Y-63907263D01*
X58873830Y-63907265D01*
X58839499Y-63990144D01*
X58839499Y-64088466D01*
X58839500Y-64088475D01*
X58839500Y-65025500D01*
X58817826Y-65077826D01*
X58765500Y-65099500D01*
X58648855Y-65099500D01*
X58564409Y-65109641D01*
X58430027Y-65162634D01*
X58314922Y-65249922D01*
X58227634Y-65365027D01*
X58174641Y-65499409D01*
X58164500Y-65583854D01*
X58164500Y-68416145D01*
X58174641Y-68500590D01*
X58227637Y-68634978D01*
X58230030Y-68639234D01*
X58236781Y-68695467D01*
X58201792Y-68740004D01*
X58165526Y-68749500D01*
X57424474Y-68749500D01*
X57372148Y-68727826D01*
X57350474Y-68675500D01*
X57359970Y-68639234D01*
X57362362Y-68634978D01*
X57362362Y-68634977D01*
X57362364Y-68634975D01*
X57415359Y-68500590D01*
X57424717Y-68422667D01*
X57425500Y-68416145D01*
X57425500Y-65583854D01*
X57423325Y-65565746D01*
X57415359Y-65499410D01*
X57362364Y-65365025D01*
X57275078Y-65249922D01*
X57159975Y-65162636D01*
X57159974Y-65162635D01*
X57159972Y-65162634D01*
X57025590Y-65109641D01*
X56941145Y-65099500D01*
X56941144Y-65099500D01*
X56824500Y-65099500D01*
X56772174Y-65077826D01*
X56750500Y-65025500D01*
X56750500Y-64614056D01*
X56772173Y-64561731D01*
X60763174Y-60570729D01*
X60815500Y-60549056D01*
X60867826Y-60570730D01*
G37*
%TD.AperFunction*%
%TA.AperFunction,Conductor*%
G36*
X56329268Y-40947174D02*
G01*
X56350942Y-40999500D01*
X56329268Y-41051826D01*
X55608831Y-41772263D01*
X55608830Y-41772265D01*
X55574499Y-41855144D01*
X55574499Y-41953466D01*
X55574500Y-41953475D01*
X55574500Y-44149173D01*
X55574499Y-44149187D01*
X55574499Y-44244856D01*
X55598773Y-44303458D01*
X55608829Y-44327734D01*
X55608832Y-44327738D01*
X55682671Y-44401577D01*
X55682673Y-44401578D01*
X57010104Y-45729009D01*
X57030867Y-45769758D01*
X57038426Y-45817482D01*
X57092427Y-45923465D01*
X57176535Y-46007573D01*
X57282518Y-46061574D01*
X57400000Y-46080181D01*
X57517482Y-46061574D01*
X57623465Y-46007573D01*
X57707573Y-45923465D01*
X57738591Y-45862587D01*
X57781656Y-45825807D01*
X57838119Y-45830250D01*
X57845632Y-45834653D01*
X57856278Y-45841767D01*
X57900180Y-45850500D01*
X58145233Y-45850500D01*
X58197558Y-45872173D01*
X58483942Y-46158558D01*
X58585200Y-46200500D01*
X58585201Y-46200500D01*
X59644798Y-46200500D01*
X59644800Y-46200500D01*
X59746058Y-46158557D01*
X59823557Y-46081058D01*
X59823556Y-46081058D01*
X59858520Y-46046094D01*
X60032443Y-45872174D01*
X60084768Y-45850500D01*
X60429819Y-45850500D01*
X60429820Y-45850500D01*
X60473722Y-45841767D01*
X60523504Y-45808504D01*
X60556767Y-45758722D01*
X60565500Y-45714820D01*
X60565500Y-45449500D01*
X60587174Y-45397174D01*
X60639500Y-45375500D01*
X61270233Y-45375500D01*
X61322559Y-45397174D01*
X61383448Y-45458063D01*
X61405122Y-45510389D01*
X61383448Y-45562715D01*
X61341795Y-45583615D01*
X61331378Y-45585133D01*
X61331373Y-45585134D01*
X61218789Y-45640173D01*
X61130173Y-45728789D01*
X61075134Y-45841373D01*
X61075134Y-45841374D01*
X61064500Y-45914359D01*
X61064500Y-46435639D01*
X61064992Y-46439013D01*
X61051085Y-46493916D01*
X61044090Y-46502003D01*
X60687265Y-46858829D01*
X60639772Y-46906322D01*
X60587446Y-46927996D01*
X60535120Y-46906322D01*
X60525915Y-46895105D01*
X60523503Y-46891495D01*
X60473722Y-46858233D01*
X60429820Y-46849500D01*
X59800180Y-46849500D01*
X59778229Y-46853866D01*
X59756277Y-46858233D01*
X59706496Y-46891495D01*
X59706495Y-46891496D01*
X59673233Y-46941277D01*
X59664500Y-46985180D01*
X59664500Y-48100500D01*
X59642826Y-48152826D01*
X59590500Y-48174500D01*
X59205975Y-48174500D01*
X59205967Y-48174499D01*
X59197355Y-48174499D01*
X59107645Y-48174499D01*
X59058223Y-48194971D01*
X59058222Y-48194971D01*
X59024766Y-48208828D01*
X58961329Y-48272265D01*
X58679503Y-48554090D01*
X58627177Y-48575764D01*
X58616513Y-48574992D01*
X58613139Y-48574500D01*
X58613136Y-48574500D01*
X58091864Y-48574500D01*
X58091859Y-48574500D01*
X58018874Y-48585134D01*
X58018873Y-48585134D01*
X57906289Y-48640173D01*
X57906285Y-48640176D01*
X57862984Y-48683477D01*
X57810658Y-48705151D01*
X57758333Y-48683476D01*
X57742292Y-48659470D01*
X57734299Y-48640174D01*
X57706170Y-48572265D01*
X57706170Y-48572264D01*
X57642736Y-48508830D01*
X57638521Y-48504615D01*
X57638514Y-48504609D01*
X57416578Y-48282673D01*
X57416578Y-48282672D01*
X57342737Y-48208831D01*
X57342733Y-48208828D01*
X57309277Y-48194971D01*
X57260550Y-48174787D01*
X57220502Y-48134738D01*
X57220502Y-48078101D01*
X57222380Y-48073936D01*
X57229866Y-48058625D01*
X57240500Y-47985636D01*
X57240500Y-47949500D01*
X57262174Y-47897174D01*
X57314500Y-47875500D01*
X57690500Y-47875500D01*
X57742826Y-47897174D01*
X57764500Y-47949500D01*
X57764500Y-48214820D01*
X57773233Y-48258722D01*
X57806496Y-48308504D01*
X57856278Y-48341767D01*
X57900180Y-48350500D01*
X57900181Y-48350500D01*
X58529819Y-48350500D01*
X58529820Y-48350500D01*
X58573722Y-48341767D01*
X58623504Y-48308504D01*
X58656767Y-48258722D01*
X58665500Y-48214820D01*
X58665500Y-46985180D01*
X58656767Y-46941278D01*
X58623504Y-46891496D01*
X58573722Y-46858233D01*
X58529820Y-46849500D01*
X57900180Y-46849500D01*
X57878229Y-46853866D01*
X57856277Y-46858233D01*
X57806496Y-46891495D01*
X57806495Y-46891496D01*
X57773233Y-46941277D01*
X57764500Y-46985180D01*
X57764500Y-47250500D01*
X57742826Y-47302826D01*
X57690500Y-47324500D01*
X57243366Y-47324500D01*
X57191040Y-47302826D01*
X57176884Y-47282999D01*
X57176649Y-47282518D01*
X57174826Y-47278789D01*
X57086211Y-47190174D01*
X57086210Y-47190173D01*
X56973626Y-47135134D01*
X56900640Y-47124500D01*
X56900636Y-47124500D01*
X56329364Y-47124500D01*
X56329359Y-47124500D01*
X56256375Y-47135134D01*
X56256372Y-47135135D01*
X56253327Y-47136624D01*
X56251109Y-47136761D01*
X56250885Y-47136831D01*
X56250868Y-47136776D01*
X56196799Y-47140130D01*
X56168505Y-47122467D01*
X56138466Y-47092428D01*
X56138465Y-47092427D01*
X56065466Y-47055232D01*
X56032483Y-47038426D01*
X55915000Y-47019819D01*
X55797517Y-47038426D01*
X55797516Y-47038426D01*
X55691533Y-47092428D01*
X55607428Y-47176533D01*
X55553426Y-47282516D01*
X55553426Y-47282517D01*
X55536866Y-47387076D01*
X55507273Y-47435367D01*
X55463777Y-47449500D01*
X55284768Y-47449500D01*
X55232442Y-47427826D01*
X54912174Y-47107558D01*
X54890500Y-47055232D01*
X54890500Y-43661190D01*
X54912174Y-43608864D01*
X54922573Y-43598465D01*
X54976574Y-43492482D01*
X54995181Y-43375000D01*
X54976574Y-43257518D01*
X54922573Y-43151535D01*
X54838465Y-43067427D01*
X54786484Y-43040941D01*
X54732483Y-43013426D01*
X54615000Y-42994819D01*
X54497517Y-43013426D01*
X54497516Y-43013426D01*
X54391533Y-43067428D01*
X54307428Y-43151533D01*
X54265434Y-43233950D01*
X54222367Y-43270732D01*
X54165904Y-43266288D01*
X54129122Y-43223221D01*
X54125500Y-43200354D01*
X54125500Y-42824057D01*
X54147174Y-42771731D01*
X55971731Y-40947174D01*
X56024057Y-40925500D01*
X56276942Y-40925500D01*
X56329268Y-40947174D01*
G37*
%TD.AperFunction*%
%TD*%
M02*
