%TF.GenerationSoftware,KiCad,Pcbnew,8.0.1*%
%TF.CreationDate,2024-08-06T23:31:19+08:00*%
%TF.ProjectId,ST-Link-V2.1,53542d4c-696e-46b2-9d56-322e312e6b69,rev?*%
%TF.SameCoordinates,Original*%
%TF.FileFunction,Paste,Bot*%
%TF.FilePolarity,Positive*%
%FSLAX46Y46*%
G04 Gerber Fmt 4.6, Leading zero omitted, Abs format (unit mm)*
G04 Created by KiCad (PCBNEW 8.0.1) date 2024-08-06 23:31:19*
%MOMM*%
%LPD*%
G01*
G04 APERTURE LIST*
G04 Aperture macros list*
%AMRoundRect*
0 Rectangle with rounded corners*
0 $1 Rounding radius*
0 $2 $3 $4 $5 $6 $7 $8 $9 X,Y pos of 4 corners*
0 Add a 4 corners polygon primitive as box body*
4,1,4,$2,$3,$4,$5,$6,$7,$8,$9,$2,$3,0*
0 Add four circle primitives for the rounded corners*
1,1,$1+$1,$2,$3*
1,1,$1+$1,$4,$5*
1,1,$1+$1,$6,$7*
1,1,$1+$1,$8,$9*
0 Add four rect primitives between the rounded corners*
20,1,$1+$1,$2,$3,$4,$5,0*
20,1,$1+$1,$4,$5,$6,$7,0*
20,1,$1+$1,$6,$7,$8,$9,0*
20,1,$1+$1,$8,$9,$2,$3,0*%
G04 Aperture macros list end*
%ADD10RoundRect,0.250000X0.250000X0.250000X-0.250000X0.250000X-0.250000X-0.250000X0.250000X-0.250000X0*%
%ADD11R,0.600000X1.200000*%
%ADD12RoundRect,0.375000X0.375000X1.375000X-0.375000X1.375000X-0.375000X-1.375000X0.375000X-1.375000X0*%
%ADD13RoundRect,0.150000X-0.150000X0.512500X-0.150000X-0.512500X0.150000X-0.512500X0.150000X0.512500X0*%
%ADD14RoundRect,0.200000X0.200000X0.275000X-0.200000X0.275000X-0.200000X-0.275000X0.200000X-0.275000X0*%
%ADD15RoundRect,0.200000X-0.200000X-0.275000X0.200000X-0.275000X0.200000X0.275000X-0.200000X0.275000X0*%
%ADD16RoundRect,0.200000X-0.275000X0.200000X-0.275000X-0.200000X0.275000X-0.200000X0.275000X0.200000X0*%
%ADD17RoundRect,0.200000X0.275000X-0.200000X0.275000X0.200000X-0.275000X0.200000X-0.275000X-0.200000X0*%
%ADD18RoundRect,0.112500X0.187500X0.112500X-0.187500X0.112500X-0.187500X-0.112500X0.187500X-0.112500X0*%
%ADD19RoundRect,0.225000X-0.225000X-0.250000X0.225000X-0.250000X0.225000X0.250000X-0.225000X0.250000X0*%
%ADD20RoundRect,0.225000X0.250000X-0.225000X0.250000X0.225000X-0.250000X0.225000X-0.250000X-0.225000X0*%
G04 APERTURE END LIST*
D10*
%TO.C,J4*%
X61800000Y-38400000D03*
X60000000Y-38400000D03*
X58200000Y-38400000D03*
X56400000Y-38400000D03*
%TD*%
D11*
%TO.C,IC1*%
X58215000Y-45100000D03*
X59165000Y-45100000D03*
X60115000Y-45100000D03*
X60115000Y-47600000D03*
X58215000Y-47600000D03*
%TD*%
D12*
%TO.C,J3*%
X64145000Y-67000000D03*
X61605000Y-67000000D03*
X59065000Y-67000000D03*
X56525000Y-67000000D03*
X53985000Y-67000000D03*
%TD*%
D13*
%TO.C,Q1*%
X58065000Y-56900000D03*
X59965000Y-56900000D03*
X59015000Y-59175000D03*
%TD*%
D14*
%TO.C,R16*%
X56752500Y-50700000D03*
X58402500Y-50700000D03*
%TD*%
%TO.C,R15*%
X59727500Y-50700000D03*
X61377500Y-50700000D03*
%TD*%
D15*
%TO.C,R14*%
X59727500Y-49200000D03*
X61377500Y-49200000D03*
%TD*%
D16*
%TO.C,R13*%
X58315000Y-53600000D03*
X58315000Y-55250000D03*
%TD*%
D17*
%TO.C,R12*%
X59815000Y-55250000D03*
X59815000Y-53600000D03*
%TD*%
%TO.C,R11*%
X61325000Y-55250000D03*
X61325000Y-53600000D03*
%TD*%
D16*
%TO.C,R10*%
X56815000Y-53600000D03*
X56815000Y-55250000D03*
%TD*%
D14*
%TO.C,R9*%
X56752500Y-52200000D03*
X58402500Y-52200000D03*
%TD*%
%TO.C,R8*%
X59727500Y-52200000D03*
X61377500Y-52200000D03*
%TD*%
D18*
%TO.C,D1*%
X60215000Y-43300000D03*
X58115000Y-43300000D03*
%TD*%
D19*
%TO.C,C9*%
X58352500Y-49200000D03*
X56802500Y-49200000D03*
%TD*%
D20*
%TO.C,C8*%
X56615000Y-46175000D03*
X56615000Y-47725000D03*
%TD*%
%TO.C,C7*%
X61690000Y-46175000D03*
X61690000Y-47725000D03*
%TD*%
M02*
