G04 EasyEDA Pro v1.9.28, 2023-01-14 19:19:00*
G04 Gerber Generator version 0.3*%TF.GenerationSoftware,KiCad,Pcbnew,8.0.1*%
%TF.CreationDate,2024-08-06T23:31:19+08:00*%
%TF.ProjectId,ST-Link-V2.1,53542d4c-696e-46b2-9d56-322e312e6b69,rev?*%
%TF.SameCoordinates,Original*%
%TF.FileFunction,Copper,L1,Top*%
%TF.FilePolarity,Positive*%
%FSLAX46Y46*%
G04 Gerber Fmt 4.6, Leading zero omitted, Abs format (unit mm)*
G04 Created by KiCad (PCBNEW 8.0.1) date 2024-08-06 23:31:19*
%MOMM*%
%LPD*%
G01*
G04 APERTURE LIST*
G04 Aperture macros list*
%AMRoundRect*
0 Rectangle with rounded corners*
0 $1 Rounding radius*
0 $2 $3 $4 $5 $6 $7 $8 $9 X,Y pos of 4 corners*
0 Add a 4 corners polygon primitive as box body*
4,1,4,$2,$3,$4,$5,$6,$7,$8,$9,$2,$3,0*
0 Add four circle primitives for the rounded corners*
1,1,$1+$1,$2,$3*
1,1,$1+$1,$4,$5*
1,1,$1+$1,$6,$7*
1,1,$1+$1,$8,$9*
0 Add four rect primitives between the rounded corners*
20,1,$1+$1,$2,$3,$4,$5,0*
20,1,$1+$1,$4,$5,$6,$7,0*
20,1,$1+$1,$6,$7,$8,$9,0*
20,1,$1+$1,$8,$9,$2,$3,0*%
G04 Aperture macros list end*
%TA.AperFunction,SMDPad,CuDef*%
%ADD10R,0.400000X2.000000*%
%TD*%
%TA.AperFunction,SMDPad,CuDef*%
%ADD11RoundRect,0.375000X-0.375000X-1.375000X0.375000X-1.375000X0.375000X1.375000X-0.375000X1.375000X0*%
%TD*%
%TA.AperFunction,SMDPad,CuDef*%
%ADD12RoundRect,0.218750X0.256250X-0.218750X0.256250X0.218750X-0.256250X0.218750X-0.256250X-0.218750X0*%
%TD*%
%TA.AperFunction,SMDPad,CuDef*%
%ADD13RoundRect,0.075000X0.075000X-0.662500X0.075000X0.662500X-0.075000X0.662500X-0.075000X-0.662500X0*%
%TD*%
%TA.AperFunction,SMDPad,CuDef*%
%ADD14RoundRect,0.075000X0.662500X-0.075000X0.662500X0.075000X-0.662500X0.075000X-0.662500X-0.075000X0*%
%TD*%
%TA.AperFunction,SMDPad,CuDef*%
%ADD15RoundRect,0.200000X-0.275000X0.200000X-0.275000X-0.200000X0.275000X-0.200000X0.275000X0.200000X0*%
%TD*%
%TA.AperFunction,SMDPad,CuDef*%
%ADD16RoundRect,0.200000X0.275000X-0.200000X0.275000X0.200000X-0.275000X0.200000X-0.275000X-0.200000X0*%
%TD*%
%TA.AperFunction,SMDPad,CuDef*%
%ADD17RoundRect,0.200000X-0.200000X-0.275000X0.200000X-0.275000X0.200000X0.275000X-0.200000X0.275000X0*%
%TD*%
%TA.AperFunction,SMDPad,CuDef*%
%ADD18R,0.300000X1.150000*%
%TD*%
%TA.AperFunction,ComponentPad*%
%ADD19O,1.000000X2.100000*%
%TD*%
%TA.AperFunction,ComponentPad*%
%ADD20O,1.000000X1.600000*%
%TD*%
%TA.AperFunction,SMDPad,CuDef*%
%ADD21RoundRect,0.225000X-0.225000X-0.250000X0.225000X-0.250000X0.225000X0.250000X-0.225000X0.250000X0*%
%TD*%
%TA.AperFunction,SMDPad,CuDef*%
%ADD22RoundRect,0.225000X-0.250000X0.225000X-0.250000X-0.225000X0.250000X-0.225000X0.250000X0.225000X0*%
%TD*%
%TA.AperFunction,ViaPad*%
%ADD23C,0.450000*%
%TD*%
%TA.AperFunction,Conductor*%
%ADD24C,0.150000*%
%TD*%
%TA.AperFunction,Conductor*%
%ADD25C,0.250000*%
%TD*%
%TA.AperFunction,Conductor*%
%ADD26C,0.200000*%
%TD*%
G04 APERTURE END LIST*
D10*
%TO.P,Y1,1,INPUT*%
%TO.N,/OSCH_IN*%
X57865000Y-58600000D03*
%TO.P,Y1,2,GND*%
%TO.N,GND*%
X59065000Y-58600000D03*
%TO.P,Y1,3,OUTPUT*%
%TO.N,/OSCH_OUT*%
X60265000Y-58600000D03*
%TD*%
D11*
%TO.P,J2,5,Pin_5*%
%TO.N,/T_NRST*%
X64145000Y-67000000D03*
%TO.P,J2,4,Pin_4*%
%TO.N,/T_JTMS*%
X61605000Y-67000000D03*
%TO.P,J2,3,Pin_3*%
%TO.N,/T_JTCK*%
X59065000Y-67000000D03*
%TO.P,J2,2,Pin_2*%
%TO.N,GND*%
X56525000Y-67000000D03*
%TO.P,J2,1,Pin_1*%
%TO.N,+3.3V*%
X53985000Y-67000000D03*
%TD*%
D12*
%TO.P,D3,2,A*%
%TO.N,Net-(D3-A)*%
X64315000Y-45600000D03*
%TO.P,D3,1,K*%
%TO.N,/STLK_LED*%
X64315000Y-47175000D03*
%TD*%
%TO.P,D2,1,K*%
%TO.N,GND*%
X53815000Y-47175000D03*
%TO.P,D2,2,A*%
%TO.N,Net-(D2-A)*%
X53815000Y-45600000D03*
%TD*%
D13*
%TO.P,U1,1,VBAT*%
%TO.N,+3.3V*%
X56315000Y-55662500D03*
%TO.P,U1,2,PC13*%
%TO.N,Net-(U1-PC13)*%
X56815000Y-55662500D03*
%TO.P,U1,3,PC14*%
%TO.N,unconnected-(U1-PC14-Pad3)*%
X57315000Y-55662500D03*
%TO.P,U1,4,PC15*%
%TO.N,unconnected-(U1-PC15-Pad4)*%
X57815000Y-55662500D03*
%TO.P,U1,5,PD0*%
%TO.N,/OSCH_IN*%
X58315000Y-55662500D03*
%TO.P,U1,6,PD1*%
%TO.N,/OSCH_OUT*%
X58815000Y-55662500D03*
%TO.P,U1,7,NRST*%
%TO.N,/NRST*%
X59315000Y-55662500D03*
%TO.P,U1,8,VSSA*%
%TO.N,GND*%
X59815000Y-55662500D03*
%TO.P,U1,9,VDDA*%
%TO.N,+3.3V*%
X60315000Y-55662500D03*
%TO.P,U1,10,PA0*%
%TO.N,/AIN*%
X60815000Y-55662500D03*
%TO.P,U1,11,PA1*%
%TO.N,unconnected-(U1-PA1-Pad11)*%
X61315000Y-55662500D03*
%TO.P,U1,12,PA2*%
%TO.N,/STLK_RX*%
X61815000Y-55662500D03*
D14*
%TO.P,U1,13,PA3*%
%TO.N,/STLK_TX*%
X63227500Y-54250000D03*
%TO.P,U1,14,PA4*%
%TO.N,unconnected-(U1-PA4-Pad14)*%
X63227500Y-53750000D03*
%TO.P,U1,15,PA5*%
%TO.N,/T_JTCK*%
X63227500Y-53250000D03*
%TO.P,U1,16,PA6*%
%TO.N,/T_JTDO*%
X63227500Y-52750000D03*
%TO.P,U1,17,PA7*%
%TO.N,/T_JTDI*%
X63227500Y-52250000D03*
%TO.P,U1,18,PB0*%
%TO.N,/T_NRST*%
X63227500Y-51750000D03*
%TO.P,U1,19,PB1*%
%TO.N,unconnected-(U1-PB1-Pad19)*%
X63227500Y-51250000D03*
%TO.P,U1,20,PB2*%
%TO.N,Net-(U1-PB2)*%
X63227500Y-50750000D03*
%TO.P,U1,21,PB10*%
%TO.N,unconnected-(U1-PB10-Pad21)*%
X63227500Y-50250000D03*
%TO.P,U1,22,PB11*%
%TO.N,unconnected-(U1-PB11-Pad22)*%
X63227500Y-49750000D03*
%TO.P,U1,23,VSS*%
%TO.N,GND*%
X63227500Y-49250000D03*
%TO.P,U1,24,VDD*%
%TO.N,+3.3V*%
X63227500Y-48750000D03*
D13*
%TO.P,U1,25,PB12*%
%TO.N,/T_SWDIO_IN*%
X61815000Y-47337500D03*
%TO.P,U1,26,PB13*%
%TO.N,/T_JTCK*%
X61315000Y-47337500D03*
%TO.P,U1,27,PB14*%
%TO.N,/T_JTMS*%
X60815000Y-47337500D03*
%TO.P,U1,28,PB15*%
%TO.N,unconnected-(U1-PB15-Pad28)*%
X60315000Y-47337500D03*
%TO.P,U1,29,PA8*%
%TO.N,unconnected-(U1-PA8-Pad29)*%
X59815000Y-47337500D03*
%TO.P,U1,30,PA9*%
%TO.N,/STLK_LED*%
X59315000Y-47337500D03*
%TO.P,U1,31,PA10*%
%TO.N,unconnected-(U1-PA10-Pad31)*%
X58815000Y-47337500D03*
%TO.P,U1,32,PA11*%
%TO.N,/USB_DN*%
X58315000Y-47337500D03*
%TO.P,U1,33,PA12*%
%TO.N,/USB_DP*%
X57815000Y-47337500D03*
%TO.P,U1,34,PA13*%
%TO.N,/SWDIO*%
X57315000Y-47337500D03*
%TO.P,U1,35,VSS*%
%TO.N,GND*%
X56815000Y-47337500D03*
%TO.P,U1,36,VDD*%
%TO.N,+3.3V*%
X56315000Y-47337500D03*
D14*
%TO.P,U1,37,PA14*%
%TO.N,/SWCLK*%
X54902500Y-48750000D03*
%TO.P,U1,38,PA15*%
%TO.N,/USB_RENUMn*%
X54902500Y-49250000D03*
%TO.P,U1,39,PB3*%
%TO.N,/PWR_EXT*%
X54902500Y-49750000D03*
%TO.P,U1,40,PB4*%
%TO.N,unconnected-(U1-PB4-Pad40)*%
X54902500Y-50250000D03*
%TO.P,U1,41,PB5*%
%TO.N,unconnected-(U1-PB5-Pad41)*%
X54902500Y-50750000D03*
%TO.P,U1,42,PB6*%
%TO.N,unconnected-(U1-PB6-Pad42)*%
X54902500Y-51250000D03*
%TO.P,U1,43,PB7*%
%TO.N,unconnected-(U1-PB7-Pad43)*%
X54902500Y-51750000D03*
%TO.P,U1,44,BOOT0*%
%TO.N,/BOOT0*%
X54902500Y-52250000D03*
%TO.P,U1,45,PB8*%
%TO.N,unconnected-(U1-PB8-Pad45)*%
X54902500Y-52750000D03*
%TO.P,U1,46,PB9*%
%TO.N,unconnected-(U1-PB9-Pad46)*%
X54902500Y-53250000D03*
%TO.P,U1,47,VSS*%
%TO.N,GND*%
X54902500Y-53750000D03*
%TO.P,U1,48,VDD*%
%TO.N,+3.3V*%
X54902500Y-54250000D03*
%TD*%
D15*
%TO.P,R19,1*%
%TO.N,+3.3V*%
X64315000Y-42575000D03*
%TO.P,R19,2*%
%TO.N,Net-(D3-A)*%
X64315000Y-44225000D03*
%TD*%
%TO.P,R18,1*%
%TO.N,+3.3V*%
X53815000Y-42575000D03*
%TO.P,R18,2*%
%TO.N,Net-(D2-A)*%
X53815000Y-44225000D03*
%TD*%
D16*
%TO.P,R17,1*%
%TO.N,GND*%
X64915000Y-59425000D03*
%TO.P,R17,2*%
%TO.N,Net-(U1-PB2)*%
X64915000Y-57775000D03*
%TD*%
%TO.P,R7,1*%
%TO.N,GND*%
X56315000Y-59425000D03*
%TO.P,R7,2*%
%TO.N,Net-(U1-PC13)*%
X56315000Y-57775000D03*
%TD*%
D15*
%TO.P,R6,1*%
%TO.N,Net-(J1-D+-PadA6)*%
X58315000Y-42575000D03*
%TO.P,R6,2*%
%TO.N,/USB_DP*%
X58315000Y-44225000D03*
%TD*%
%TO.P,R5,1*%
%TO.N,Net-(J1-D--PadA7)*%
X59815000Y-42575000D03*
%TO.P,R5,2*%
%TO.N,/USB_DN*%
X59815000Y-44225000D03*
%TD*%
%TO.P,R4,1*%
%TO.N,Net-(J1-CC2)*%
X56815000Y-42575000D03*
%TO.P,R4,2*%
%TO.N,GND*%
X56815000Y-44225000D03*
%TD*%
%TO.P,R3,1*%
%TO.N,Net-(J1-CC1)*%
X61315000Y-42575000D03*
%TO.P,R3,2*%
%TO.N,GND*%
X61315000Y-44225000D03*
%TD*%
%TO.P,R2,1*%
%TO.N,/BOOT0*%
X53315000Y-57775000D03*
%TO.P,R2,2*%
%TO.N,GND*%
X53315000Y-59425000D03*
%TD*%
D17*
%TO.P,R1,1*%
%TO.N,+3.3V*%
X56790000Y-61400000D03*
%TO.P,R1,2*%
%TO.N,/NRST*%
X58440000Y-61400000D03*
%TD*%
D18*
%TO.P,J1,A1,GND*%
%TO.N,GND*%
X62415000Y-40585000D03*
%TO.P,J1,A4,VBUS*%
%TO.N,Net-(D1-A)*%
X61615000Y-40585000D03*
%TO.P,J1,A5,CC1*%
%TO.N,Net-(J1-CC1)*%
X60315000Y-40585000D03*
%TO.P,J1,A6,D+*%
%TO.N,Net-(J1-D+-PadA6)*%
X59315000Y-40585000D03*
%TO.P,J1,A7,D-*%
%TO.N,Net-(J1-D--PadA7)*%
X58815000Y-40585000D03*
%TO.P,J1,A8,SBU1*%
%TO.N,unconnected-(J1-SBU1-PadA8)*%
X57815000Y-40585000D03*
%TO.P,J1,A9,VBUS*%
%TO.N,Net-(D1-A)*%
X56515000Y-40585000D03*
%TO.P,J1,A12,GND*%
%TO.N,GND*%
X55715000Y-40585000D03*
%TO.P,J1,B1,GND*%
X56015000Y-40585000D03*
%TO.P,J1,B4,VBUS*%
%TO.N,Net-(D1-A)*%
X56815000Y-40585000D03*
%TO.P,J1,B5,CC2*%
%TO.N,Net-(J1-CC2)*%
X57315000Y-40585000D03*
%TO.P,J1,B6,D+*%
%TO.N,Net-(J1-D+-PadA6)*%
X58315000Y-40585000D03*
%TO.P,J1,B7,D-*%
%TO.N,Net-(J1-D--PadA7)*%
X59815000Y-40585000D03*
%TO.P,J1,B8,SBU2*%
%TO.N,unconnected-(J1-SBU2-PadB8)*%
X60815000Y-40585000D03*
%TO.P,J1,B9,VBUS*%
%TO.N,Net-(D1-A)*%
X61315000Y-40585000D03*
%TO.P,J1,B12,GND*%
%TO.N,GND*%
X62115000Y-40585000D03*
D19*
%TO.P,J1,S1,SHIELD*%
X63385000Y-40020000D03*
D20*
X63385000Y-35840000D03*
D19*
X54745000Y-40020000D03*
D20*
X54745000Y-35840000D03*
%TD*%
D21*
%TO.P,C6,1*%
%TO.N,/NRST*%
X59815000Y-61400000D03*
%TO.P,C6,2*%
%TO.N,GND*%
X61365000Y-61400000D03*
%TD*%
D22*
%TO.P,C5,1*%
%TO.N,+3.3V*%
X63415000Y-57825000D03*
%TO.P,C5,2*%
%TO.N,GND*%
X63415000Y-59375000D03*
%TD*%
%TO.P,C4,1*%
%TO.N,+3.3V*%
X61915000Y-57825000D03*
%TO.P,C4,2*%
%TO.N,GND*%
X61915000Y-59375000D03*
%TD*%
%TO.P,C3,1*%
%TO.N,+3.3V*%
X54815000Y-57825000D03*
%TO.P,C3,2*%
%TO.N,GND*%
X54815000Y-59375000D03*
%TD*%
%TO.P,C2,1*%
%TO.N,+3.3V*%
X62815000Y-42625000D03*
%TO.P,C2,2*%
%TO.N,GND*%
X62815000Y-44175000D03*
%TD*%
%TO.P,C1,1*%
%TO.N,+3.3V*%
X55315000Y-42625000D03*
%TO.P,C1,2*%
%TO.N,GND*%
X55315000Y-44175000D03*
%TD*%
D23*
%TO.N,GND*%
X60200000Y-60100000D03*
X59600000Y-60100000D03*
X58400000Y-60100000D03*
X57800000Y-60100000D03*
%TO.N,+3.3V*%
X62000000Y-41800000D03*
%TO.N,GND*%
X55800000Y-46200000D03*
X55800000Y-45700000D03*
X55800000Y-45200000D03*
%TO.N,/SWDIO*%
X57400000Y-45700000D03*
%TO.N,/SWCLK*%
X53900000Y-48700000D03*
%TO.N,GND*%
X63300000Y-61500000D03*
X63900000Y-60900000D03*
X63300000Y-60900000D03*
X65100000Y-58600000D03*
X63400000Y-58700000D03*
X60615000Y-61700000D03*
X60615000Y-61200000D03*
X64415000Y-50200000D03*
X64415000Y-49700000D03*
X57715000Y-66300000D03*
X57715000Y-66966668D03*
X57715000Y-67633334D03*
X57715000Y-68300000D03*
X55315000Y-66300000D03*
X55315000Y-66966668D03*
X55315000Y-67633334D03*
X55315000Y-68300000D03*
%TO.N,/T_JTMS*%
X64615000Y-60500000D03*
X65115000Y-56600000D03*
X64915000Y-49150000D03*
X64915000Y-48300000D03*
%TO.N,/T_NRST*%
X65415000Y-51200000D03*
X64290000Y-51270498D03*
%TO.N,/STLK_TX*%
X62415000Y-55500000D03*
%TO.N,/STLK_RX*%
X61677012Y-56604836D03*
%TO.N,+3.3V*%
X62700000Y-58700000D03*
%TO.N,GND*%
X63415000Y-45000000D03*
X62748334Y-45000000D03*
X62081668Y-45000000D03*
X59115000Y-54500000D03*
%TO.N,+3.3V*%
X59015000Y-60600000D03*
%TO.N,/USB_DP*%
X55815000Y-48300000D03*
%TO.N,+5V*%
X62115000Y-52800000D03*
X61515000Y-51400000D03*
%TO.N,/BOOT0*%
X53715000Y-55000000D03*
%TO.N,+3.3V*%
X55955920Y-53910046D03*
X60536881Y-51867179D03*
X62215000Y-48800000D03*
X55915000Y-47400000D03*
%TO.N,/T_SWDIO_IN*%
X61515000Y-48600000D03*
%TO.N,Net-(D1-A)*%
X56715000Y-41700000D03*
%TO.N,+3.3V*%
X54615000Y-43375000D03*
%TO.N,/AIN*%
X60615000Y-53000000D03*
%TO.N,/USB_RENUMn*%
X56027500Y-49221716D03*
%TO.N,/PWR_EXT*%
X58415000Y-50000000D03*
%TO.N,/T_JTMS*%
X60105534Y-48575152D03*
%TD*%
D24*
%TO.N,/OSCH_OUT*%
X58815000Y-56850000D02*
X58815000Y-55662500D01*
X60100000Y-57300000D02*
X59265000Y-57300000D01*
X60265000Y-57465000D02*
X60100000Y-57300000D01*
X60265000Y-58500000D02*
X60265000Y-57465000D01*
X59265000Y-57300000D02*
X58815000Y-56850000D01*
%TO.N,/T_JTCK*%
X59615000Y-62300000D02*
X59065000Y-62850000D01*
X59065000Y-62850000D02*
X59065000Y-67000000D01*
X62015000Y-62300000D02*
X59615000Y-62300000D01*
X62315000Y-60600000D02*
X62315000Y-62000000D01*
X62315000Y-62000000D02*
X62015000Y-62300000D01*
X62715000Y-60200000D02*
X62315000Y-60600000D01*
X64215000Y-59800000D02*
X63815000Y-60200000D01*
X64440000Y-56875000D02*
X64215000Y-57100000D01*
X63815000Y-60200000D02*
X62715000Y-60200000D01*
X64440000Y-53425000D02*
X64440000Y-56875000D01*
X64215000Y-57100000D02*
X64215000Y-59800000D01*
X64265000Y-53250000D02*
X64440000Y-53425000D01*
X63227500Y-53250000D02*
X64265000Y-53250000D01*
%TO.N,Net-(U1-PB2)*%
X64690000Y-56882500D02*
X64915000Y-57107500D01*
X64690000Y-51104812D02*
X64690000Y-56882500D01*
X64915000Y-57107500D02*
X64915000Y-57775000D01*
X63227500Y-50750000D02*
X64335188Y-50750000D01*
X64335188Y-50750000D02*
X64690000Y-51104812D01*
%TO.N,+3.3V*%
X57565000Y-60600000D02*
X57215000Y-60250000D01*
X59015000Y-60600000D02*
X57565000Y-60600000D01*
X62000000Y-41810000D02*
X62815000Y-42625000D01*
X62000000Y-41800000D02*
X62000000Y-41810000D01*
%TO.N,/SWDIO*%
X57315000Y-45785000D02*
X57315000Y-47337500D01*
X57400000Y-45700000D02*
X57315000Y-45785000D01*
%TO.N,/SWCLK*%
X53900000Y-48700000D02*
X53950000Y-48750000D01*
X53950000Y-48750000D02*
X54902500Y-48750000D01*
%TO.N,+3.3V*%
X63415000Y-57985000D02*
X63415000Y-57825000D01*
X62700000Y-58700000D02*
X63415000Y-57985000D01*
%TO.N,/T_JTMS*%
X61605000Y-64110000D02*
X61605000Y-67000000D01*
X62615000Y-63100000D02*
X61605000Y-64110000D01*
X62615000Y-60800000D02*
X62615000Y-63100000D01*
X64615000Y-60500000D02*
X62915000Y-60500000D01*
X62915000Y-60500000D02*
X62615000Y-60800000D01*
%TO.N,+3.3V*%
X53985000Y-64730000D02*
X53985000Y-67000000D01*
X55015000Y-63700000D02*
X53985000Y-64730000D01*
X56315000Y-63700000D02*
X55015000Y-63700000D01*
X56790000Y-63225000D02*
X56315000Y-63700000D01*
X56790000Y-61400000D02*
X56790000Y-63225000D01*
%TO.N,/T_JTMS*%
X64940000Y-49175000D02*
X64940000Y-56425000D01*
X64940000Y-56425000D02*
X65115000Y-56600000D01*
X64915000Y-49150000D02*
X64940000Y-49175000D01*
%TO.N,/T_NRST*%
X64165000Y-51750000D02*
X63227500Y-51750000D01*
X64290000Y-51270498D02*
X64290000Y-51625000D01*
X64290000Y-51625000D02*
X64165000Y-51750000D01*
%TO.N,/T_JTMS*%
X64415000Y-48100000D02*
X64715000Y-48100000D01*
X63315000Y-48100000D02*
X64415000Y-48100000D01*
X64715000Y-48100000D02*
X64915000Y-48300000D01*
X63215000Y-48000000D02*
X63315000Y-48100000D01*
X63065000Y-47850000D02*
X63215000Y-48000000D01*
X63065000Y-47000000D02*
X63065000Y-47850000D01*
%TO.N,/T_NRST*%
X65565000Y-51350000D02*
X65415000Y-51200000D01*
X64145000Y-61570000D02*
X65565000Y-60150000D01*
X65565000Y-60150000D02*
X65565000Y-51350000D01*
X64145000Y-67000000D02*
X64145000Y-61570000D01*
%TO.N,/T_JTMS*%
X61115000Y-46200000D02*
X62815000Y-46200000D01*
X62815000Y-46200000D02*
X63065000Y-46450000D01*
X60815000Y-47337500D02*
X60815000Y-46500000D01*
X60815000Y-46500000D02*
X61115000Y-46200000D01*
X63065000Y-46450000D02*
X63065000Y-47000000D01*
%TO.N,/STLK_TX*%
X62415000Y-55062500D02*
X63227500Y-54250000D01*
X62415000Y-55500000D02*
X62415000Y-55062500D01*
%TO.N,/STLK_RX*%
X61815000Y-56466848D02*
X61677012Y-56604836D01*
X61815000Y-55662500D02*
X61815000Y-56466848D01*
%TO.N,/NRST*%
X60765000Y-60450000D02*
X59815000Y-61400000D01*
X60265000Y-56950000D02*
X60765000Y-57450000D01*
X59665000Y-56950000D02*
X60265000Y-56950000D01*
X59315000Y-56600000D02*
X59665000Y-56950000D01*
X60765000Y-57450000D02*
X60765000Y-60450000D01*
X59315000Y-55662500D02*
X59315000Y-56600000D01*
%TO.N,GND*%
X59245632Y-54500000D02*
X59815000Y-55069368D01*
X59115000Y-54500000D02*
X59245632Y-54500000D01*
X59815000Y-55069368D02*
X59815000Y-55662500D01*
%TO.N,/NRST*%
X58440000Y-61400000D02*
X59815000Y-61400000D01*
%TO.N,+3.3V*%
X57215000Y-58800000D02*
X57215000Y-60250000D01*
X56790000Y-60675000D02*
X56790000Y-61400000D01*
X57015000Y-58600000D02*
X57215000Y-58800000D01*
X57215000Y-60250000D02*
X56790000Y-60675000D01*
X54815000Y-58400000D02*
X55015000Y-58600000D01*
X54815000Y-57825000D02*
X54815000Y-58400000D01*
X55015000Y-58600000D02*
X57015000Y-58600000D01*
X61915000Y-57825000D02*
X63415000Y-57825000D01*
X61915000Y-57300000D02*
X61915000Y-57825000D01*
X61615000Y-57000000D02*
X61915000Y-57300000D01*
X60315000Y-56546446D02*
X60768553Y-57000000D01*
X60315000Y-55662500D02*
X60315000Y-56546446D01*
X60768553Y-57000000D02*
X61615000Y-57000000D01*
X54815000Y-57100000D02*
X54815000Y-57825000D01*
X56115000Y-56900000D02*
X55015000Y-56900000D01*
X55015000Y-56900000D02*
X54815000Y-57100000D01*
X56315000Y-56700000D02*
X56115000Y-56900000D01*
X56315000Y-55662500D02*
X56315000Y-56700000D01*
%TO.N,/USB_DP*%
X57589999Y-48300000D02*
X57815000Y-48074999D01*
X57815000Y-48074999D02*
X57815000Y-47337500D01*
X55815000Y-48300000D02*
X57589999Y-48300000D01*
%TO.N,/BOOT0*%
X53315000Y-56500000D02*
X53715000Y-56100000D01*
X53315000Y-57775000D02*
X53315000Y-56500000D01*
X53715000Y-56100000D02*
X53715000Y-55000000D01*
%TO.N,+5V*%
X61915000Y-51400000D02*
X62115000Y-51600000D01*
X62115000Y-51600000D02*
X62115000Y-52800000D01*
X61515000Y-51400000D02*
X61915000Y-51400000D01*
%TO.N,/T_JTMS*%
X60515000Y-48600000D02*
X60815000Y-48300000D01*
X60130382Y-48600000D02*
X60515000Y-48600000D01*
X60105534Y-48575152D02*
X60130382Y-48600000D01*
X60815000Y-48300000D02*
X60815000Y-47337500D01*
%TO.N,/BOOT0*%
X53415000Y-54800000D02*
X53615000Y-55000000D01*
X53715000Y-52300000D02*
X53415000Y-52600000D01*
X53765000Y-52250000D02*
X53715000Y-52300000D01*
X53615000Y-55000000D02*
X53715000Y-55000000D01*
X54902500Y-52250000D02*
X53765000Y-52250000D01*
X53415000Y-52600000D02*
X53415000Y-54800000D01*
%TO.N,+3.3V*%
X55955920Y-54240920D02*
X55965000Y-54250000D01*
X55955920Y-53910046D02*
X55955920Y-54240920D01*
X60215000Y-52500000D02*
X60536881Y-52178119D01*
X60536881Y-52178119D02*
X60536881Y-51867179D01*
X60215000Y-54825001D02*
X60215000Y-52500000D01*
X60315000Y-54925001D02*
X60215000Y-54825001D01*
X60315000Y-55662500D02*
X60315000Y-54925001D01*
X56315000Y-54600000D02*
X56315000Y-55662500D01*
X55965000Y-54250000D02*
X56315000Y-54600000D01*
X54902500Y-54250000D02*
X55965000Y-54250000D01*
%TO.N,/T_JTCK*%
X61265000Y-53250000D02*
X63227500Y-53250000D01*
X61315000Y-48134314D02*
X61065000Y-48384314D01*
X61065000Y-48384314D02*
X61065000Y-53050000D01*
X61065000Y-53050000D02*
X61265000Y-53250000D01*
X61315000Y-47337500D02*
X61315000Y-48134314D01*
%TO.N,/T_SWDIO_IN*%
X61815000Y-48300000D02*
X61815000Y-47337500D01*
X61515000Y-48600000D02*
X61815000Y-48300000D01*
%TO.N,+3.3V*%
X62265000Y-48750000D02*
X63227500Y-48750000D01*
X62215000Y-48800000D02*
X62265000Y-48750000D01*
X55977500Y-47337500D02*
X55915000Y-47400000D01*
X56315000Y-47337500D02*
X55977500Y-47337500D01*
D25*
%TO.N,Net-(D1-A)*%
X56515000Y-41500000D02*
X56715000Y-41700000D01*
X56515000Y-40585000D02*
X56515000Y-41500000D01*
X61615000Y-40100000D02*
X61615000Y-40585000D01*
X60815000Y-39300000D02*
X61615000Y-40100000D01*
X57375000Y-39300000D02*
X60815000Y-39300000D01*
X56515000Y-40160000D02*
X57375000Y-39300000D01*
X56515000Y-40585000D02*
X56515000Y-40160000D01*
%TO.N,+3.3V*%
X54615000Y-43375000D02*
X53815000Y-42575000D01*
X62040000Y-43400000D02*
X62815000Y-42625000D01*
X54615000Y-43375000D02*
X54640000Y-43400000D01*
X54640000Y-43400000D02*
X62040000Y-43400000D01*
D24*
X55265000Y-42575000D02*
X55315000Y-42625000D01*
X53815000Y-42575000D02*
X55265000Y-42575000D01*
X65065000Y-48750000D02*
X63227500Y-48750000D01*
X65090000Y-42575000D02*
X65415000Y-42900000D01*
X65415000Y-48400000D02*
X65065000Y-48750000D01*
X64315000Y-42575000D02*
X65090000Y-42575000D01*
X65415000Y-42900000D02*
X65415000Y-48400000D01*
X64265000Y-42625000D02*
X64315000Y-42575000D01*
X62815000Y-42625000D02*
X64265000Y-42625000D01*
%TO.N,/AIN*%
X60615000Y-54725001D02*
X60615000Y-53000000D01*
X60815000Y-54925001D02*
X60615000Y-54725001D01*
X60815000Y-55662500D02*
X60815000Y-54925001D01*
%TO.N,/OSCH_IN*%
X57865000Y-57250000D02*
X58315000Y-56800000D01*
X57865000Y-58500000D02*
X57865000Y-57250000D01*
X58315000Y-56800000D02*
X58315000Y-55662500D01*
%TO.N,Net-(U1-PC13)*%
X56815000Y-57275000D02*
X56315000Y-57775000D01*
X56815000Y-55662500D02*
X56815000Y-57275000D01*
%TO.N,/USB_RENUMn*%
X56027500Y-49221716D02*
X55999216Y-49250000D01*
X55999216Y-49250000D02*
X54902500Y-49250000D01*
%TO.N,/PWR_EXT*%
X57615000Y-50000000D02*
X58415000Y-50000000D01*
X56115000Y-49900000D02*
X56215000Y-50000000D01*
X55965000Y-49750000D02*
X56115000Y-49900000D01*
X56215000Y-50000000D02*
X57615000Y-50000000D01*
X54902500Y-49750000D02*
X55965000Y-49750000D01*
%TO.N,/STLK_LED*%
X63490000Y-47175000D02*
X64315000Y-47175000D01*
X63315000Y-46150000D02*
X63315000Y-47000000D01*
X59615000Y-45900000D02*
X63065000Y-45900000D01*
X63065000Y-45900000D02*
X63315000Y-46150000D01*
X59315000Y-46200000D02*
X59615000Y-45900000D01*
X59315000Y-47337500D02*
X59315000Y-46200000D01*
X63315000Y-47000000D02*
X63490000Y-47175000D01*
%TO.N,Net-(D3-A)*%
X64315000Y-44225000D02*
X64315000Y-45600000D01*
%TO.N,Net-(D2-A)*%
X53815000Y-44225000D02*
X53815000Y-45600000D01*
%TO.N,Net-(J1-D--PadA7)*%
X58815000Y-40585000D02*
X58815000Y-41310000D01*
X58815000Y-41310000D02*
X59105000Y-41600000D01*
X59815000Y-41300000D02*
X59815000Y-40585000D01*
X59515000Y-41600000D02*
X59815000Y-41300000D01*
X59105000Y-41600000D02*
X59515000Y-41600000D01*
%TO.N,Net-(J1-D+-PadA6)*%
X59315000Y-39900000D02*
X59315000Y-40585000D01*
X59015000Y-39600000D02*
X59315000Y-39900000D01*
X58575000Y-39600000D02*
X59015000Y-39600000D01*
X58315000Y-39860000D02*
X58575000Y-39600000D01*
X58315000Y-40585000D02*
X58315000Y-39860000D01*
%TO.N,Net-(J1-D--PadA7)*%
X59815000Y-42575000D02*
X59815000Y-40585000D01*
%TO.N,Net-(J1-D+-PadA6)*%
X58315000Y-42575000D02*
X58315000Y-40585000D01*
%TO.N,Net-(J1-CC1)*%
X61315000Y-42575000D02*
X60315000Y-41575000D01*
X60315000Y-41575000D02*
X60315000Y-40585000D01*
%TO.N,Net-(J1-CC2)*%
X57315000Y-42075000D02*
X57315000Y-40585000D01*
X56815000Y-42575000D02*
X57315000Y-42075000D01*
D26*
%TO.N,/USB_DN*%
X58240000Y-46675000D02*
X58315000Y-46750000D01*
X58240000Y-46322488D02*
X58240000Y-46675000D01*
X59240000Y-45322488D02*
X58240000Y-46322488D01*
X59240000Y-44875000D02*
X59240000Y-45322488D01*
X59815000Y-44300000D02*
X59240000Y-44875000D01*
X59815000Y-44225000D02*
X59815000Y-44300000D01*
%TO.N,/USB_DP*%
X57815000Y-46750000D02*
X57815000Y-47337500D01*
X57890000Y-46675000D02*
X57815000Y-46750000D01*
X57890000Y-46177512D02*
X57890000Y-46675000D01*
X58890000Y-44875000D02*
X58890000Y-45177512D01*
X58315000Y-44300000D02*
X58890000Y-44875000D01*
%TO.N,/USB_DN*%
X58315000Y-46750000D02*
X58315000Y-47337500D01*
%TO.N,/USB_DP*%
X58890000Y-45177512D02*
X57890000Y-46177512D01*
X58315000Y-44225000D02*
X58315000Y-44300000D01*
%TD*%
%TA.AperFunction,Conductor*%
%TO.N,GND*%
G36*
X57267326Y-60621231D02*
G01*
X57369609Y-60723514D01*
X57369612Y-60723518D01*
X57373830Y-60727736D01*
X57437264Y-60791170D01*
X57455258Y-60798623D01*
X57455259Y-60798624D01*
X57455260Y-60798624D01*
X57520146Y-60825501D01*
X57520147Y-60825501D01*
X57618467Y-60825501D01*
X57618475Y-60825500D01*
X57877729Y-60825500D01*
X57930055Y-60847174D01*
X57951729Y-60899500D01*
X57944210Y-60932000D01*
X57899427Y-61023604D01*
X57899427Y-61023606D01*
X57889500Y-61091735D01*
X57889500Y-61708264D01*
X57899427Y-61776393D01*
X57899427Y-61776394D01*
X57950801Y-61881482D01*
X57950802Y-61881483D01*
X58033517Y-61964198D01*
X58138607Y-62015573D01*
X58206740Y-62025500D01*
X58206746Y-62025500D01*
X58673254Y-62025500D01*
X58673260Y-62025500D01*
X58741393Y-62015573D01*
X58846483Y-61964198D01*
X58929198Y-61881483D01*
X58980573Y-61776393D01*
X58990500Y-61708260D01*
X58990500Y-61699500D01*
X59012174Y-61647174D01*
X59064500Y-61625500D01*
X59141739Y-61625500D01*
X59194065Y-61647174D01*
X59214965Y-61688829D01*
X59217797Y-61708264D01*
X59225134Y-61758625D01*
X59225134Y-61758626D01*
X59280173Y-61871210D01*
X59280174Y-61871211D01*
X59368789Y-61959826D01*
X59455328Y-62002132D01*
X59492818Y-62044585D01*
X59489309Y-62101113D01*
X59475154Y-62120939D01*
X58937265Y-62658829D01*
X58873831Y-62722263D01*
X58873830Y-62722265D01*
X58839499Y-62805144D01*
X58839499Y-62903466D01*
X58839500Y-62903475D01*
X58839500Y-65025500D01*
X58817826Y-65077826D01*
X58765500Y-65099500D01*
X58648855Y-65099500D01*
X58564409Y-65109641D01*
X58430027Y-65162634D01*
X58314922Y-65249922D01*
X58227634Y-65365027D01*
X58174641Y-65499409D01*
X58164500Y-65583854D01*
X58164500Y-68416145D01*
X58174641Y-68500590D01*
X58227637Y-68634978D01*
X58230030Y-68639234D01*
X58236781Y-68695467D01*
X58201792Y-68740004D01*
X58165526Y-68749500D01*
X54884474Y-68749500D01*
X54832148Y-68727826D01*
X54810474Y-68675500D01*
X54819970Y-68639234D01*
X54822362Y-68634978D01*
X54822362Y-68634977D01*
X54822364Y-68634975D01*
X54875359Y-68500590D01*
X54884717Y-68422667D01*
X54885500Y-68416145D01*
X54885500Y-65583854D01*
X54883325Y-65565746D01*
X54875359Y-65499410D01*
X54822364Y-65365025D01*
X54735078Y-65249922D01*
X54619975Y-65162636D01*
X54619974Y-65162635D01*
X54619972Y-65162634D01*
X54485590Y-65109641D01*
X54401145Y-65099500D01*
X54401144Y-65099500D01*
X54284500Y-65099500D01*
X54232174Y-65077826D01*
X54210500Y-65025500D01*
X54210500Y-64854057D01*
X54232174Y-64801731D01*
X55086731Y-63947174D01*
X55139057Y-63925500D01*
X56261525Y-63925500D01*
X56261533Y-63925501D01*
X56270145Y-63925501D01*
X56359854Y-63925501D01*
X56359855Y-63925501D01*
X56418460Y-63901225D01*
X56442736Y-63891170D01*
X56506170Y-63827736D01*
X56506170Y-63827735D01*
X56516575Y-63817330D01*
X56516576Y-63817327D01*
X56981170Y-63352736D01*
X57015500Y-63269855D01*
X57015500Y-63180146D01*
X57015500Y-62090629D01*
X57037174Y-62038303D01*
X57078831Y-62017403D01*
X57091393Y-62015573D01*
X57196483Y-61964198D01*
X57279198Y-61881483D01*
X57330573Y-61776393D01*
X57340500Y-61708260D01*
X57340500Y-61091740D01*
X57330573Y-61023607D01*
X57279198Y-60918517D01*
X57196483Y-60835802D01*
X57171247Y-60823465D01*
X57122770Y-60799766D01*
X57085280Y-60757313D01*
X57088790Y-60700784D01*
X57102946Y-60680959D01*
X57162675Y-60621231D01*
X57215001Y-60599557D01*
X57267326Y-60621231D01*
G37*
%TD.AperFunction*%
%TA.AperFunction,Conductor*%
G36*
X64331136Y-60747174D02*
G01*
X64391535Y-60807573D01*
X64431281Y-60827824D01*
X64468062Y-60870889D01*
X64463619Y-60927352D01*
X64450010Y-60946083D01*
X64017265Y-61378829D01*
X63953831Y-61442263D01*
X63953830Y-61442265D01*
X63919499Y-61525144D01*
X63919499Y-61623466D01*
X63919500Y-61623475D01*
X63919500Y-65025500D01*
X63897826Y-65077826D01*
X63845500Y-65099500D01*
X63728855Y-65099500D01*
X63644409Y-65109641D01*
X63510027Y-65162634D01*
X63394922Y-65249922D01*
X63307634Y-65365027D01*
X63254641Y-65499409D01*
X63244500Y-65583854D01*
X63244500Y-68416145D01*
X63254641Y-68500590D01*
X63307637Y-68634978D01*
X63310030Y-68639234D01*
X63316781Y-68695467D01*
X63281792Y-68740004D01*
X63245526Y-68749500D01*
X62504474Y-68749500D01*
X62452148Y-68727826D01*
X62430474Y-68675500D01*
X62439970Y-68639234D01*
X62442362Y-68634978D01*
X62442362Y-68634977D01*
X62442364Y-68634975D01*
X62495359Y-68500590D01*
X62504717Y-68422667D01*
X62505500Y-68416145D01*
X62505500Y-65583854D01*
X62503325Y-65565746D01*
X62495359Y-65499410D01*
X62442364Y-65365025D01*
X62355078Y-65249922D01*
X62239975Y-65162636D01*
X62239974Y-65162635D01*
X62239972Y-65162634D01*
X62105590Y-65109641D01*
X62021145Y-65099500D01*
X62021144Y-65099500D01*
X61904500Y-65099500D01*
X61852174Y-65077826D01*
X61830500Y-65025500D01*
X61830500Y-64234056D01*
X61852173Y-64181731D01*
X62732327Y-63301576D01*
X62732330Y-63301575D01*
X62742735Y-63291170D01*
X62742736Y-63291170D01*
X62806170Y-63227736D01*
X62825882Y-63180146D01*
X62840501Y-63144854D01*
X62840501Y-63055145D01*
X62840501Y-63049187D01*
X62840500Y-63049173D01*
X62840500Y-60924057D01*
X62862174Y-60871731D01*
X62986731Y-60747174D01*
X63039057Y-60725500D01*
X64278810Y-60725500D01*
X64331136Y-60747174D01*
G37*
%TD.AperFunction*%
%TA.AperFunction,Conductor*%
G36*
X64963422Y-33252545D02*
G01*
X65005944Y-33262755D01*
X65016988Y-33266344D01*
X65194613Y-33339924D01*
X65204943Y-33345187D01*
X65368894Y-33445662D01*
X65378276Y-33452479D01*
X65524472Y-33577347D01*
X65532683Y-33585558D01*
X65657546Y-33731759D01*
X65664371Y-33741153D01*
X65764827Y-33905088D01*
X65770098Y-33915434D01*
X65843672Y-34093060D01*
X65847260Y-34104103D01*
X65862455Y-34167394D01*
X65864500Y-34184669D01*
X65864500Y-50946851D01*
X65842826Y-50999177D01*
X65790500Y-51020851D01*
X65738174Y-50999177D01*
X65724568Y-50980451D01*
X65722573Y-50976535D01*
X65638465Y-50892427D01*
X65549712Y-50847205D01*
X65532483Y-50838426D01*
X65415000Y-50819819D01*
X65297517Y-50838426D01*
X65273095Y-50850870D01*
X65216633Y-50855313D01*
X65173565Y-50818530D01*
X65165500Y-50784935D01*
X65165500Y-49461190D01*
X65187174Y-49408864D01*
X65222573Y-49373465D01*
X65276574Y-49267482D01*
X65295181Y-49150000D01*
X65276574Y-49032518D01*
X65241849Y-48964368D01*
X65237406Y-48907906D01*
X65255458Y-48878447D01*
X65256170Y-48877736D01*
X65256170Y-48877735D01*
X65266575Y-48867330D01*
X65266577Y-48867327D01*
X65532327Y-48601577D01*
X65532330Y-48601575D01*
X65542735Y-48591170D01*
X65542736Y-48591170D01*
X65606170Y-48527736D01*
X65618228Y-48498625D01*
X65629147Y-48472265D01*
X65629147Y-48472264D01*
X65640501Y-48444854D01*
X65640501Y-48349187D01*
X65640500Y-48349173D01*
X65640500Y-42855145D01*
X65640499Y-42855143D01*
X65634312Y-42840207D01*
X65622029Y-42810551D01*
X65606171Y-42772266D01*
X65606169Y-42772263D01*
X65542735Y-42708829D01*
X65291578Y-42457673D01*
X65291578Y-42457672D01*
X65217738Y-42383832D01*
X65217736Y-42383830D01*
X65193460Y-42373774D01*
X65193458Y-42373773D01*
X65193458Y-42373772D01*
X65134855Y-42349499D01*
X65045145Y-42349499D01*
X65036533Y-42349499D01*
X65036525Y-42349500D01*
X65005630Y-42349500D01*
X64953304Y-42327826D01*
X64932403Y-42286170D01*
X64930573Y-42273607D01*
X64879198Y-42168517D01*
X64796483Y-42085802D01*
X64796482Y-42085801D01*
X64691394Y-42034427D01*
X64623264Y-42024500D01*
X64623260Y-42024500D01*
X64006740Y-42024500D01*
X64006735Y-42024500D01*
X63938606Y-42034427D01*
X63938605Y-42034427D01*
X63833517Y-42085801D01*
X63750801Y-42168517D01*
X63699427Y-42273605D01*
X63699427Y-42273606D01*
X63699427Y-42273607D01*
X63691528Y-42327826D01*
X63690312Y-42336169D01*
X63661320Y-42384823D01*
X63617085Y-42399500D01*
X63509619Y-42399500D01*
X63457293Y-42377826D01*
X63436392Y-42336169D01*
X63436197Y-42334829D01*
X63429866Y-42291375D01*
X63374826Y-42178789D01*
X63286211Y-42090174D01*
X63286210Y-42090173D01*
X63173626Y-42035134D01*
X63100640Y-42024500D01*
X63100636Y-42024500D01*
X62564057Y-42024500D01*
X62511731Y-42002826D01*
X62397096Y-41888191D01*
X62375422Y-41835865D01*
X62376331Y-41824301D01*
X62380181Y-41800000D01*
X62361574Y-41682518D01*
X62307573Y-41576535D01*
X62223465Y-41492427D01*
X62157975Y-41459058D01*
X62117483Y-41438426D01*
X62000000Y-41419819D01*
X61882517Y-41438426D01*
X61882516Y-41438426D01*
X61776533Y-41492428D01*
X61692428Y-41576533D01*
X61638426Y-41682516D01*
X61638426Y-41682517D01*
X61620127Y-41798058D01*
X61619819Y-41800000D01*
X61627291Y-41847175D01*
X61638426Y-41917482D01*
X61640226Y-41923023D01*
X61638652Y-41923534D01*
X61642575Y-41973366D01*
X61605793Y-42016434D01*
X61572197Y-42024500D01*
X61114057Y-42024500D01*
X61061731Y-42002826D01*
X60562174Y-41503269D01*
X60540500Y-41450943D01*
X60540500Y-41378852D01*
X60562174Y-41326526D01*
X60614500Y-41304852D01*
X60628932Y-41306273D01*
X60650180Y-41310500D01*
X60650182Y-41310500D01*
X60979819Y-41310500D01*
X60979820Y-41310500D01*
X61023722Y-41301767D01*
X61023884Y-41301658D01*
X61024076Y-41301620D01*
X61030456Y-41298978D01*
X61030981Y-41300246D01*
X61079429Y-41290604D01*
X61106113Y-41301657D01*
X61106278Y-41301767D01*
X61150180Y-41310500D01*
X61150181Y-41310500D01*
X61779819Y-41310500D01*
X61779820Y-41310500D01*
X61823722Y-41301767D01*
X61873504Y-41268504D01*
X61906767Y-41218722D01*
X61915500Y-41174820D01*
X61915500Y-40019500D01*
X61937174Y-39967174D01*
X61989500Y-39945500D01*
X62011020Y-39945500D01*
X62011020Y-39945499D01*
X62119237Y-39916503D01*
X62216263Y-39860485D01*
X62295485Y-39781263D01*
X62351503Y-39684237D01*
X62380499Y-39576020D01*
X62380500Y-39576020D01*
X62380500Y-39463980D01*
X62380499Y-39463979D01*
X62351504Y-39355767D01*
X62351503Y-39355763D01*
X62295485Y-39258737D01*
X62216263Y-39179515D01*
X62119241Y-39123499D01*
X62119232Y-39123495D01*
X62011020Y-39094500D01*
X62011018Y-39094500D01*
X61898982Y-39094500D01*
X61898980Y-39094500D01*
X61790767Y-39123495D01*
X61790758Y-39123499D01*
X61693736Y-39179515D01*
X61614515Y-39258736D01*
X61558499Y-39355758D01*
X61558495Y-39355767D01*
X61528669Y-39467077D01*
X61494190Y-39512010D01*
X61438038Y-39519402D01*
X61404865Y-39500250D01*
X60971060Y-39066445D01*
X60971055Y-39066441D01*
X60971051Y-39066440D01*
X60971037Y-39066433D01*
X60869800Y-39024500D01*
X57429800Y-39024500D01*
X57320200Y-39024500D01*
X57218944Y-39066440D01*
X56726826Y-39558558D01*
X56674500Y-39580232D01*
X56622174Y-39558558D01*
X56600500Y-39506232D01*
X56600500Y-39463980D01*
X56600499Y-39463979D01*
X56571504Y-39355767D01*
X56571503Y-39355763D01*
X56515485Y-39258737D01*
X56436263Y-39179515D01*
X56339241Y-39123499D01*
X56339232Y-39123495D01*
X56231020Y-39094500D01*
X56231018Y-39094500D01*
X56118982Y-39094500D01*
X56118980Y-39094500D01*
X56010767Y-39123495D01*
X56010758Y-39123499D01*
X55913736Y-39179515D01*
X55834515Y-39258736D01*
X55778499Y-39355758D01*
X55778495Y-39355767D01*
X55749500Y-39463979D01*
X55749500Y-39576020D01*
X55778495Y-39684232D01*
X55778496Y-39684235D01*
X55778497Y-39684237D01*
X55834515Y-39781263D01*
X55913737Y-39860485D01*
X56010763Y-39916503D01*
X56118979Y-39945499D01*
X56118980Y-39945500D01*
X56118982Y-39945500D01*
X56140500Y-39945500D01*
X56192826Y-39967174D01*
X56214500Y-40019500D01*
X56214500Y-41174819D01*
X56223233Y-41218723D01*
X56227027Y-41224401D01*
X56239500Y-41265515D01*
X56239500Y-41554800D01*
X56281443Y-41656058D01*
X56307901Y-41682516D01*
X56319593Y-41694208D01*
X56340355Y-41734957D01*
X56353425Y-41817481D01*
X56353426Y-41817482D01*
X56407427Y-41923465D01*
X56418905Y-41934943D01*
X56440579Y-41987269D01*
X56418905Y-42039595D01*
X56399080Y-42053750D01*
X56333516Y-42085802D01*
X56250801Y-42168517D01*
X56199427Y-42273605D01*
X56199427Y-42273606D01*
X56189500Y-42341735D01*
X56189500Y-42808264D01*
X56199427Y-42876393D01*
X56199427Y-42876394D01*
X56250801Y-42981482D01*
X56267493Y-42998174D01*
X56289167Y-43050500D01*
X56267493Y-43102826D01*
X56215167Y-43124500D01*
X55967320Y-43124500D01*
X55914994Y-43102826D01*
X55893320Y-43050500D01*
X55900838Y-43018002D01*
X55929866Y-42958625D01*
X55940500Y-42885636D01*
X55940500Y-42364364D01*
X55929866Y-42291375D01*
X55874826Y-42178789D01*
X55786211Y-42090174D01*
X55786210Y-42090173D01*
X55673626Y-42035134D01*
X55600640Y-42024500D01*
X55600636Y-42024500D01*
X55029364Y-42024500D01*
X55029359Y-42024500D01*
X54956374Y-42035134D01*
X54956373Y-42035134D01*
X54843789Y-42090173D01*
X54755173Y-42178789D01*
X54700133Y-42291375D01*
X54698438Y-42296864D01*
X54695131Y-42295842D01*
X54671893Y-42334829D01*
X54627666Y-42349500D01*
X54505630Y-42349500D01*
X54453304Y-42327826D01*
X54432403Y-42286170D01*
X54430573Y-42273607D01*
X54379198Y-42168517D01*
X54296483Y-42085802D01*
X54296482Y-42085801D01*
X54191394Y-42034427D01*
X54123264Y-42024500D01*
X54123260Y-42024500D01*
X53506740Y-42024500D01*
X53506735Y-42024500D01*
X53438606Y-42034427D01*
X53438605Y-42034427D01*
X53333517Y-42085801D01*
X53250801Y-42168517D01*
X53199427Y-42273605D01*
X53199427Y-42273606D01*
X53189500Y-42341735D01*
X53189500Y-42808264D01*
X53199427Y-42876393D01*
X53199427Y-42876394D01*
X53250801Y-42981482D01*
X53250802Y-42981483D01*
X53333517Y-43064198D01*
X53438607Y-43115573D01*
X53506740Y-43125500D01*
X53945233Y-43125500D01*
X53997559Y-43147174D01*
X54219592Y-43369207D01*
X54240355Y-43409957D01*
X54253425Y-43492481D01*
X54253426Y-43492482D01*
X54303688Y-43591127D01*
X54308132Y-43647589D01*
X54271349Y-43690656D01*
X54214887Y-43695100D01*
X54205254Y-43691203D01*
X54191395Y-43684428D01*
X54191393Y-43684427D01*
X54123264Y-43674500D01*
X54123260Y-43674500D01*
X53506740Y-43674500D01*
X53506735Y-43674500D01*
X53438606Y-43684427D01*
X53438605Y-43684427D01*
X53333517Y-43735801D01*
X53250801Y-43818517D01*
X53199427Y-43923605D01*
X53199427Y-43923606D01*
X53189500Y-43991735D01*
X53189500Y-44458264D01*
X53199427Y-44526393D01*
X53199427Y-44526394D01*
X53250801Y-44631482D01*
X53250802Y-44631483D01*
X53333517Y-44714198D01*
X53438607Y-44765573D01*
X53506740Y-44775500D01*
X53515500Y-44775500D01*
X53567826Y-44797174D01*
X53589500Y-44849500D01*
X53589500Y-44938415D01*
X53567826Y-44990741D01*
X53526168Y-45011642D01*
X53451937Y-45022455D01*
X53451931Y-45022457D01*
X53341220Y-45076580D01*
X53254080Y-45163720D01*
X53199957Y-45274431D01*
X53199957Y-45274432D01*
X53189500Y-45346200D01*
X53189500Y-45853794D01*
X53199955Y-45925561D01*
X53199957Y-45925568D01*
X53254080Y-46036279D01*
X53254081Y-46036280D01*
X53341220Y-46123419D01*
X53451933Y-46177543D01*
X53523705Y-46188000D01*
X54106294Y-46187999D01*
X54178061Y-46177544D01*
X54178061Y-46177543D01*
X54178067Y-46177543D01*
X54288780Y-46123419D01*
X54375919Y-46036280D01*
X54430043Y-45925567D01*
X54440500Y-45853795D01*
X54440499Y-45346206D01*
X54430043Y-45274433D01*
X54375919Y-45163720D01*
X54288780Y-45076581D01*
X54288779Y-45076580D01*
X54178068Y-45022457D01*
X54103831Y-45011641D01*
X54055176Y-44982649D01*
X54040500Y-44938414D01*
X54040500Y-44849500D01*
X54062174Y-44797174D01*
X54114500Y-44775500D01*
X54123254Y-44775500D01*
X54123260Y-44775500D01*
X54191393Y-44765573D01*
X54296483Y-44714198D01*
X54379198Y-44631483D01*
X54430573Y-44526393D01*
X54440500Y-44458260D01*
X54440500Y-43991740D01*
X54430573Y-43923607D01*
X54383883Y-43828100D01*
X54380374Y-43771572D01*
X54417864Y-43729119D01*
X54474392Y-43725610D01*
X54483961Y-43729666D01*
X54497518Y-43736574D01*
X54615000Y-43755181D01*
X54732482Y-43736574D01*
X54836517Y-43683565D01*
X54870111Y-43675500D01*
X57715167Y-43675500D01*
X57767493Y-43697174D01*
X57789167Y-43749500D01*
X57767493Y-43801826D01*
X57750801Y-43818517D01*
X57699427Y-43923605D01*
X57699427Y-43923606D01*
X57689500Y-43991735D01*
X57689500Y-44458264D01*
X57699427Y-44526393D01*
X57699427Y-44526394D01*
X57750801Y-44631482D01*
X57750802Y-44631483D01*
X57833517Y-44714198D01*
X57938607Y-44765573D01*
X58006740Y-44775500D01*
X58405588Y-44775500D01*
X58457914Y-44797174D01*
X58617826Y-44957086D01*
X58639500Y-45009412D01*
X58639500Y-45043098D01*
X58617826Y-45095424D01*
X57897362Y-45815887D01*
X57845036Y-45837561D01*
X57792710Y-45815887D01*
X57771036Y-45763561D01*
X57771946Y-45751992D01*
X57780181Y-45700000D01*
X57761574Y-45582518D01*
X57707573Y-45476535D01*
X57623465Y-45392427D01*
X57571484Y-45365941D01*
X57517483Y-45338426D01*
X57400000Y-45319819D01*
X57282517Y-45338426D01*
X57282516Y-45338426D01*
X57176533Y-45392428D01*
X57092428Y-45476533D01*
X57038426Y-45582516D01*
X57038426Y-45582517D01*
X57019819Y-45700000D01*
X57038425Y-45817480D01*
X57038425Y-45817481D01*
X57038426Y-45817482D01*
X57081434Y-45901891D01*
X57089500Y-45935484D01*
X57089500Y-46471900D01*
X57077029Y-46513012D01*
X57027583Y-46587014D01*
X57014500Y-46652789D01*
X57014501Y-48000500D01*
X56992827Y-48052826D01*
X56940501Y-48074500D01*
X56689500Y-48074500D01*
X56637174Y-48052826D01*
X56615500Y-48000500D01*
X56615499Y-46652785D01*
X56602418Y-46587016D01*
X56602407Y-46587000D01*
X56552577Y-46512423D01*
X56540500Y-46504353D01*
X56477985Y-46462582D01*
X56425293Y-46452102D01*
X56412211Y-46449500D01*
X56412210Y-46449500D01*
X56217794Y-46449500D01*
X56152014Y-46462582D01*
X56077423Y-46512422D01*
X56077422Y-46512423D01*
X56027582Y-46587014D01*
X56014500Y-46652789D01*
X56014500Y-46948935D01*
X55992826Y-47001261D01*
X55940500Y-47022935D01*
X55928925Y-47022024D01*
X55915002Y-47019819D01*
X55915000Y-47019819D01*
X55797517Y-47038426D01*
X55797516Y-47038426D01*
X55691533Y-47092428D01*
X55607428Y-47176533D01*
X55553426Y-47282516D01*
X55553426Y-47282517D01*
X55534819Y-47400000D01*
X55553426Y-47517482D01*
X55553426Y-47517483D01*
X55580941Y-47571484D01*
X55607427Y-47623465D01*
X55691535Y-47707573D01*
X55797518Y-47761574D01*
X55915000Y-47780181D01*
X55928924Y-47777975D01*
X55983994Y-47791195D01*
X56013589Y-47839486D01*
X56014500Y-47851064D01*
X56014500Y-47864773D01*
X55992826Y-47917099D01*
X55940500Y-47938773D01*
X55928924Y-47937862D01*
X55815000Y-47919819D01*
X55697517Y-47938426D01*
X55697516Y-47938426D01*
X55591533Y-47992428D01*
X55507428Y-48076533D01*
X55453426Y-48182516D01*
X55453426Y-48182517D01*
X55434819Y-48300000D01*
X55444943Y-48363924D01*
X55431721Y-48418997D01*
X55383430Y-48448589D01*
X55371854Y-48449500D01*
X54214155Y-48449501D01*
X54214155Y-48448035D01*
X54164494Y-48432955D01*
X54159130Y-48428092D01*
X54123466Y-48392428D01*
X54123465Y-48392427D01*
X54050289Y-48355142D01*
X54017483Y-48338426D01*
X53900000Y-48319819D01*
X53782517Y-48338426D01*
X53782516Y-48338426D01*
X53676533Y-48392428D01*
X53592428Y-48476533D01*
X53538426Y-48582516D01*
X53538426Y-48582517D01*
X53519819Y-48700000D01*
X53538426Y-48817482D01*
X53538426Y-48817483D01*
X53560162Y-48860142D01*
X53592427Y-48923465D01*
X53676535Y-49007573D01*
X53782518Y-49061574D01*
X53900000Y-49080181D01*
X53928971Y-49075592D01*
X53984041Y-49088813D01*
X54013635Y-49137104D01*
X54013998Y-49149154D01*
X54014500Y-49149154D01*
X54014500Y-49347205D01*
X54027583Y-49412987D01*
X54058253Y-49458889D01*
X54069302Y-49514438D01*
X54058253Y-49541111D01*
X54027583Y-49587012D01*
X54014500Y-49652789D01*
X54014500Y-49847205D01*
X54027583Y-49912987D01*
X54058253Y-49958889D01*
X54069302Y-50014438D01*
X54058253Y-50041111D01*
X54027583Y-50087012D01*
X54014500Y-50152789D01*
X54014500Y-50347205D01*
X54027583Y-50412987D01*
X54058253Y-50458889D01*
X54069302Y-50514438D01*
X54058253Y-50541111D01*
X54027583Y-50587012D01*
X54014500Y-50652789D01*
X54014500Y-50847205D01*
X54027583Y-50912987D01*
X54058253Y-50958889D01*
X54069302Y-51014438D01*
X54058253Y-51041111D01*
X54027583Y-51087012D01*
X54014500Y-51152789D01*
X54014500Y-51347205D01*
X54027583Y-51412987D01*
X54058253Y-51458889D01*
X54069302Y-51514438D01*
X54058253Y-51541111D01*
X54027583Y-51587012D01*
X54014500Y-51652789D01*
X54014500Y-51847205D01*
X54027583Y-51912989D01*
X54030371Y-51919718D01*
X54027472Y-51920918D01*
X54036228Y-51964938D01*
X54004761Y-52012029D01*
X53963650Y-52024500D01*
X53818475Y-52024500D01*
X53818467Y-52024499D01*
X53809855Y-52024499D01*
X53720146Y-52024499D01*
X53688960Y-52037417D01*
X53688959Y-52037417D01*
X53637266Y-52058828D01*
X53637263Y-52058831D01*
X53223830Y-52472263D01*
X53219274Y-52483263D01*
X53189499Y-52555144D01*
X53189499Y-52653466D01*
X53189500Y-52653475D01*
X53189500Y-54749173D01*
X53189499Y-54749187D01*
X53189499Y-54844855D01*
X53204118Y-54880148D01*
X53223829Y-54927734D01*
X53223831Y-54927737D01*
X53297671Y-55001577D01*
X53297673Y-55001578D01*
X53325104Y-55029009D01*
X53345867Y-55069758D01*
X53353426Y-55117482D01*
X53407427Y-55223465D01*
X53467826Y-55283864D01*
X53489500Y-55336190D01*
X53489500Y-55975942D01*
X53467826Y-56028268D01*
X53123829Y-56372264D01*
X53123828Y-56372266D01*
X53122062Y-56376531D01*
X53122061Y-56376535D01*
X53089499Y-56455145D01*
X53089499Y-56553466D01*
X53089500Y-56553475D01*
X53089500Y-57150500D01*
X53067826Y-57202826D01*
X53015500Y-57224500D01*
X53006735Y-57224500D01*
X52938606Y-57234427D01*
X52938605Y-57234427D01*
X52833517Y-57285801D01*
X52750801Y-57368517D01*
X52699427Y-57473605D01*
X52699427Y-57473606D01*
X52689500Y-57541735D01*
X52689500Y-58008264D01*
X52699427Y-58076393D01*
X52699427Y-58076394D01*
X52750801Y-58181482D01*
X52750802Y-58181483D01*
X52833517Y-58264198D01*
X52938607Y-58315573D01*
X53006740Y-58325500D01*
X53006746Y-58325500D01*
X53623254Y-58325500D01*
X53623260Y-58325500D01*
X53691393Y-58315573D01*
X53796483Y-58264198D01*
X53879198Y-58181483D01*
X53930573Y-58076393D01*
X53940500Y-58008260D01*
X53940500Y-57541740D01*
X53930573Y-57473607D01*
X53879198Y-57368517D01*
X53796483Y-57285802D01*
X53796482Y-57285801D01*
X53691394Y-57234427D01*
X53623264Y-57224500D01*
X53623260Y-57224500D01*
X53614500Y-57224500D01*
X53562174Y-57202826D01*
X53540500Y-57150500D01*
X53540500Y-56624057D01*
X53562174Y-56571731D01*
X53720922Y-56412983D01*
X53906170Y-56227736D01*
X53940500Y-56144855D01*
X53940500Y-56055146D01*
X53940500Y-55336190D01*
X53962174Y-55283864D01*
X53977576Y-55268462D01*
X54022573Y-55223465D01*
X54076574Y-55117482D01*
X54095181Y-55000000D01*
X54076574Y-54882518D01*
X54022573Y-54776535D01*
X53938465Y-54692427D01*
X53870804Y-54657952D01*
X53832483Y-54638426D01*
X53715000Y-54619819D01*
X53714500Y-54619819D01*
X53714190Y-54619690D01*
X53709248Y-54618908D01*
X53709435Y-54617721D01*
X53662174Y-54598145D01*
X53640500Y-54545819D01*
X53640500Y-52724057D01*
X53662174Y-52671731D01*
X53836731Y-52497174D01*
X53889057Y-52475500D01*
X53963650Y-52475500D01*
X54015976Y-52497174D01*
X54037650Y-52549500D01*
X54028542Y-52579522D01*
X54030372Y-52580280D01*
X54027583Y-52587012D01*
X54014500Y-52652789D01*
X54014500Y-52847205D01*
X54027583Y-52912987D01*
X54058253Y-52958889D01*
X54069302Y-53014438D01*
X54058253Y-53041111D01*
X54027583Y-53087012D01*
X54014500Y-53152789D01*
X54014500Y-53347205D01*
X54027582Y-53412985D01*
X54051981Y-53449500D01*
X54077423Y-53487577D01*
X54152014Y-53537417D01*
X54217789Y-53550500D01*
X55587210Y-53550499D01*
X55587211Y-53550499D01*
X55592233Y-53549500D01*
X55594138Y-53549121D01*
X55649687Y-53560169D01*
X55681154Y-53607261D01*
X55670106Y-53662810D01*
X55660903Y-53674023D01*
X55648348Y-53686578D01*
X55594346Y-53792562D01*
X55594346Y-53792563D01*
X55579377Y-53887076D01*
X55549784Y-53935367D01*
X55506288Y-53949500D01*
X54217785Y-53949500D01*
X54152016Y-53962581D01*
X54077423Y-54012422D01*
X54077422Y-54012423D01*
X54027582Y-54087014D01*
X54014500Y-54152789D01*
X54014500Y-54347205D01*
X54027582Y-54412985D01*
X54051029Y-54448075D01*
X54077423Y-54487577D01*
X54152014Y-54537417D01*
X54217789Y-54550500D01*
X55587210Y-54550499D01*
X55587214Y-54550499D01*
X55652983Y-54537418D01*
X55652983Y-54537417D01*
X55652986Y-54537417D01*
X55713214Y-54497174D01*
X55726988Y-54487971D01*
X55768100Y-54475500D01*
X55840943Y-54475500D01*
X55893269Y-54497174D01*
X56067826Y-54671731D01*
X56089500Y-54724057D01*
X56089500Y-54796900D01*
X56077029Y-54838012D01*
X56027583Y-54912014D01*
X56014500Y-54977789D01*
X56014500Y-56347214D01*
X56027581Y-56412983D01*
X56027582Y-56412985D01*
X56027583Y-56412986D01*
X56077027Y-56486985D01*
X56077029Y-56486987D01*
X56089500Y-56528099D01*
X56089500Y-56575943D01*
X56067826Y-56628269D01*
X56043269Y-56652826D01*
X55990943Y-56674500D01*
X55068475Y-56674500D01*
X55068467Y-56674499D01*
X55059855Y-56674499D01*
X54970146Y-56674499D01*
X54921594Y-56694608D01*
X54921595Y-56694609D01*
X54887267Y-56708828D01*
X54887265Y-56708829D01*
X54623829Y-56972265D01*
X54620723Y-56979765D01*
X54589499Y-57055145D01*
X54589499Y-57151738D01*
X54567825Y-57204064D01*
X54526169Y-57224965D01*
X54456374Y-57235134D01*
X54456373Y-57235134D01*
X54343789Y-57290173D01*
X54255173Y-57378789D01*
X54200134Y-57491373D01*
X54200134Y-57491374D01*
X54189500Y-57564359D01*
X54189500Y-58085640D01*
X54200134Y-58158625D01*
X54200134Y-58158626D01*
X54255173Y-58271210D01*
X54255174Y-58271211D01*
X54343789Y-58359826D01*
X54456375Y-58414866D01*
X54529364Y-58425500D01*
X54532038Y-58425500D01*
X54584364Y-58447174D01*
X54600398Y-58471166D01*
X54600848Y-58472252D01*
X54600850Y-58472264D01*
X54600853Y-58472264D01*
X54623828Y-58527733D01*
X54623831Y-58527737D01*
X54697671Y-58601577D01*
X54697673Y-58601578D01*
X54819609Y-58723514D01*
X54819612Y-58723518D01*
X54823830Y-58727736D01*
X54887264Y-58791170D01*
X54921595Y-58805390D01*
X54970146Y-58825501D01*
X54970147Y-58825501D01*
X55068467Y-58825501D01*
X55068475Y-58825500D01*
X56890943Y-58825500D01*
X56943269Y-58847174D01*
X56967826Y-58871731D01*
X56989500Y-58924057D01*
X56989500Y-60125942D01*
X56967826Y-60178268D01*
X56598831Y-60547263D01*
X56598830Y-60547265D01*
X56564499Y-60630144D01*
X56564499Y-60709370D01*
X56542825Y-60761696D01*
X56501169Y-60782596D01*
X56492831Y-60783811D01*
X56488606Y-60784427D01*
X56488605Y-60784427D01*
X56383517Y-60835801D01*
X56300801Y-60918517D01*
X56249427Y-61023605D01*
X56249427Y-61023606D01*
X56239500Y-61091735D01*
X56239500Y-61708264D01*
X56249427Y-61776393D01*
X56249427Y-61776394D01*
X56300801Y-61881482D01*
X56300802Y-61881483D01*
X56383517Y-61964198D01*
X56488607Y-62015573D01*
X56501167Y-62017403D01*
X56549821Y-62046391D01*
X56564500Y-62090629D01*
X56564500Y-63100942D01*
X56542826Y-63153268D01*
X56243269Y-63452826D01*
X56190943Y-63474500D01*
X55068475Y-63474500D01*
X55068467Y-63474499D01*
X55059855Y-63474499D01*
X54970145Y-63474499D01*
X54911539Y-63498774D01*
X54911537Y-63498775D01*
X54911536Y-63498774D01*
X54887263Y-63508830D01*
X53793831Y-64602263D01*
X53793830Y-64602265D01*
X53759499Y-64685144D01*
X53759499Y-64783466D01*
X53759500Y-64783475D01*
X53759500Y-65025500D01*
X53737826Y-65077826D01*
X53685500Y-65099500D01*
X53568855Y-65099500D01*
X53484409Y-65109641D01*
X53350027Y-65162634D01*
X53234922Y-65249922D01*
X53147634Y-65365027D01*
X53094641Y-65499409D01*
X53084500Y-65583854D01*
X53084500Y-68416145D01*
X53094641Y-68500590D01*
X53140822Y-68617697D01*
X53139855Y-68674326D01*
X53099128Y-68713685D01*
X53043662Y-68713211D01*
X52915417Y-68660090D01*
X52905071Y-68654818D01*
X52741139Y-68554361D01*
X52731745Y-68547536D01*
X52585543Y-68422667D01*
X52577332Y-68414456D01*
X52452463Y-68268254D01*
X52445638Y-68258860D01*
X52345181Y-68094928D01*
X52339909Y-68084582D01*
X52271133Y-67918542D01*
X52265500Y-67890223D01*
X52265500Y-34109775D01*
X52271133Y-34081456D01*
X52339909Y-33915417D01*
X52345181Y-33905071D01*
X52445643Y-33741131D01*
X52452457Y-33731752D01*
X52577339Y-33585535D01*
X52585535Y-33577339D01*
X52731752Y-33452457D01*
X52741131Y-33445643D01*
X52905074Y-33345179D01*
X52915413Y-33339910D01*
X53093064Y-33266325D01*
X53104077Y-33262746D01*
X53146577Y-33252543D01*
X53163845Y-33250500D01*
X64946145Y-33250500D01*
X64963422Y-33252545D01*
G37*
%TD.AperFunction*%
%TA.AperFunction,Conductor*%
G36*
X61382137Y-57247174D02*
G01*
X61403811Y-57299500D01*
X61382137Y-57351826D01*
X61355173Y-57378789D01*
X61300134Y-57491373D01*
X61300134Y-57491374D01*
X61289500Y-57564359D01*
X61289500Y-58085640D01*
X61300134Y-58158625D01*
X61300134Y-58158626D01*
X61355173Y-58271210D01*
X61355174Y-58271211D01*
X61443789Y-58359826D01*
X61556375Y-58414866D01*
X61629364Y-58425500D01*
X61629370Y-58425500D01*
X62200630Y-58425500D01*
X62200636Y-58425500D01*
X62273625Y-58414866D01*
X62274686Y-58414346D01*
X62275459Y-58414298D01*
X62279116Y-58413169D01*
X62279389Y-58414054D01*
X62331213Y-58410836D01*
X62373668Y-58448324D01*
X62377179Y-58504852D01*
X62373122Y-58514423D01*
X62338426Y-58582515D01*
X62338426Y-58582517D01*
X62319819Y-58700000D01*
X62338426Y-58817482D01*
X62338426Y-58817483D01*
X62352373Y-58844855D01*
X62392427Y-58923465D01*
X62476535Y-59007573D01*
X62582518Y-59061574D01*
X62700000Y-59080181D01*
X62817482Y-59061574D01*
X62923465Y-59007573D01*
X63007573Y-58923465D01*
X63061574Y-58817482D01*
X63080181Y-58700000D01*
X63077701Y-58684344D01*
X63090919Y-58629273D01*
X63098456Y-58620447D01*
X63271731Y-58447174D01*
X63324057Y-58425500D01*
X63700630Y-58425500D01*
X63700636Y-58425500D01*
X63773625Y-58414866D01*
X63883001Y-58361394D01*
X63939527Y-58357885D01*
X63981981Y-58395375D01*
X63989500Y-58427876D01*
X63989500Y-59675942D01*
X63967826Y-59728268D01*
X63743269Y-59952826D01*
X63690943Y-59974500D01*
X62670145Y-59974500D01*
X62587266Y-60008828D01*
X62123831Y-60472263D01*
X62123830Y-60472265D01*
X62089499Y-60555144D01*
X62089499Y-60653466D01*
X62089500Y-60653475D01*
X62089500Y-61875943D01*
X62067826Y-61928269D01*
X61943269Y-62052826D01*
X61890943Y-62074500D01*
X60325189Y-62074500D01*
X60272863Y-62052826D01*
X60251189Y-62000500D01*
X60272863Y-61948174D01*
X60292768Y-61928269D01*
X60349826Y-61871211D01*
X60404866Y-61758625D01*
X60415500Y-61685636D01*
X60415500Y-61149056D01*
X60437173Y-61096731D01*
X60882327Y-60651576D01*
X60882330Y-60651575D01*
X60892735Y-60641170D01*
X60892736Y-60641170D01*
X60956170Y-60577736D01*
X60969790Y-60544855D01*
X60990501Y-60494855D01*
X60990501Y-60405145D01*
X60990501Y-60399187D01*
X60990500Y-60399173D01*
X60990500Y-57503475D01*
X60990501Y-57503466D01*
X60990501Y-57405147D01*
X60990501Y-57405146D01*
X60965527Y-57344855D01*
X60958470Y-57327816D01*
X60958472Y-57271180D01*
X60998521Y-57231132D01*
X61026838Y-57225500D01*
X61329811Y-57225500D01*
X61382137Y-57247174D01*
G37*
%TD.AperFunction*%
%TA.AperFunction,Conductor*%
G36*
X58601063Y-56937493D02*
G01*
X58617105Y-56961501D01*
X58623828Y-56977733D01*
X58623831Y-56977737D01*
X58697671Y-57051577D01*
X58697673Y-57051578D01*
X59069609Y-57423514D01*
X59069612Y-57423518D01*
X59073830Y-57427736D01*
X59137264Y-57491170D01*
X59159787Y-57500499D01*
X59159788Y-57500500D01*
X59159789Y-57500500D01*
X59220145Y-57525501D01*
X59318467Y-57525501D01*
X59318475Y-57525500D01*
X59840500Y-57525500D01*
X59892826Y-57547174D01*
X59914500Y-57599500D01*
X59914500Y-59614819D01*
X59923233Y-59658722D01*
X59955219Y-59706594D01*
X59956496Y-59708504D01*
X60006278Y-59741767D01*
X60050180Y-59750500D01*
X60050181Y-59750500D01*
X60465500Y-59750500D01*
X60517826Y-59772174D01*
X60539500Y-59824500D01*
X60539500Y-60325942D01*
X60517826Y-60378268D01*
X60142003Y-60754090D01*
X60089677Y-60775764D01*
X60079013Y-60774992D01*
X60075639Y-60774500D01*
X60075636Y-60774500D01*
X59554364Y-60774500D01*
X59554359Y-60774500D01*
X59481374Y-60785134D01*
X59475884Y-60786831D01*
X59475131Y-60784396D01*
X59427478Y-60787349D01*
X59385030Y-60749854D01*
X59378426Y-60705786D01*
X59395181Y-60600000D01*
X59376574Y-60482518D01*
X59322573Y-60376535D01*
X59238465Y-60292427D01*
X59160744Y-60252826D01*
X59132483Y-60238426D01*
X59015000Y-60219819D01*
X58897517Y-60238426D01*
X58897516Y-60238426D01*
X58791533Y-60292428D01*
X58731136Y-60352826D01*
X58678810Y-60374500D01*
X57689057Y-60374500D01*
X57636731Y-60352826D01*
X57462174Y-60178269D01*
X57440500Y-60125943D01*
X57440500Y-59769442D01*
X57462174Y-59717116D01*
X57514500Y-59695442D01*
X57555612Y-59707913D01*
X57556495Y-59708503D01*
X57556496Y-59708504D01*
X57606278Y-59741767D01*
X57650180Y-59750500D01*
X57650181Y-59750500D01*
X58079819Y-59750500D01*
X58079820Y-59750500D01*
X58123722Y-59741767D01*
X58173504Y-59708504D01*
X58206767Y-59658722D01*
X58215500Y-59614820D01*
X58215500Y-57585180D01*
X58206767Y-57541278D01*
X58173504Y-57491496D01*
X58173323Y-57491375D01*
X58123388Y-57458009D01*
X58091922Y-57410916D01*
X58090500Y-57396480D01*
X58090500Y-57374056D01*
X58112173Y-57321731D01*
X58432327Y-57001576D01*
X58432333Y-57001573D01*
X58496412Y-56937494D01*
X58548737Y-56915819D01*
X58601063Y-56937493D01*
G37*
%TD.AperFunction*%
%TA.AperFunction,Conductor*%
G36*
X64536346Y-58314874D02*
G01*
X64538603Y-58315571D01*
X64538607Y-58315573D01*
X64606740Y-58325500D01*
X64606746Y-58325500D01*
X65223254Y-58325500D01*
X65223260Y-58325500D01*
X65254832Y-58320899D01*
X65309733Y-58334801D01*
X65338727Y-58383455D01*
X65339500Y-58394126D01*
X65339500Y-60025942D01*
X65317826Y-60078268D01*
X65061084Y-60335010D01*
X65008758Y-60356684D01*
X64956432Y-60335010D01*
X64942824Y-60316280D01*
X64932354Y-60295732D01*
X64922573Y-60276535D01*
X64838465Y-60192427D01*
X64751614Y-60148174D01*
X64732483Y-60138426D01*
X64615000Y-60119819D01*
X64497517Y-60138426D01*
X64497516Y-60138426D01*
X64391533Y-60192428D01*
X64331136Y-60252826D01*
X64278810Y-60274500D01*
X64238057Y-60274500D01*
X64185731Y-60252826D01*
X64164057Y-60200500D01*
X64185731Y-60148174D01*
X64214086Y-60119819D01*
X64406170Y-59927736D01*
X64440500Y-59844855D01*
X64440500Y-59755146D01*
X64440500Y-58385576D01*
X64462174Y-58333250D01*
X64514500Y-58311576D01*
X64536346Y-58314874D01*
G37*
%TD.AperFunction*%
%TA.AperFunction,Conductor*%
G36*
X59606109Y-48181744D02*
G01*
X59652014Y-48212417D01*
X59717789Y-48225500D01*
X59745496Y-48225499D01*
X59797820Y-48247171D01*
X59819496Y-48299497D01*
X59800194Y-48346104D01*
X59801387Y-48346971D01*
X59797962Y-48351684D01*
X59743960Y-48457668D01*
X59743960Y-48457669D01*
X59725353Y-48575152D01*
X59743960Y-48692634D01*
X59743960Y-48692635D01*
X59761844Y-48727734D01*
X59797961Y-48798617D01*
X59882069Y-48882725D01*
X59988052Y-48936726D01*
X60105534Y-48955333D01*
X60223016Y-48936726D01*
X60328999Y-48882725D01*
X60364550Y-48847174D01*
X60416876Y-48825500D01*
X60461525Y-48825500D01*
X60461533Y-48825501D01*
X60470145Y-48825501D01*
X60559854Y-48825501D01*
X60559855Y-48825501D01*
X60624757Y-48798617D01*
X60642736Y-48791170D01*
X60706170Y-48727736D01*
X60706170Y-48727735D01*
X60713174Y-48720732D01*
X60765500Y-48699058D01*
X60817826Y-48720732D01*
X60839500Y-48773058D01*
X60839500Y-51479180D01*
X60817826Y-51531506D01*
X60765500Y-51553180D01*
X60731904Y-51545114D01*
X60654364Y-51505605D01*
X60536881Y-51486998D01*
X60419398Y-51505605D01*
X60419397Y-51505605D01*
X60313414Y-51559607D01*
X60229309Y-51643712D01*
X60175307Y-51749695D01*
X60175307Y-51749696D01*
X60156700Y-51867179D01*
X60175307Y-51984661D01*
X60175307Y-51984663D01*
X60213097Y-52058828D01*
X60227458Y-52087014D01*
X60230600Y-52093179D01*
X60235044Y-52149642D01*
X60216992Y-52179101D01*
X60087265Y-52308829D01*
X60023830Y-52372263D01*
X60013774Y-52396536D01*
X60013774Y-52396539D01*
X60008684Y-52408829D01*
X59989499Y-52455146D01*
X59989499Y-52553466D01*
X59989500Y-52553475D01*
X59989500Y-54774174D01*
X59989499Y-54774188D01*
X59989499Y-54780146D01*
X59989499Y-54869856D01*
X59998881Y-54892505D01*
X60009472Y-54918074D01*
X60012303Y-54924907D01*
X60016514Y-54967658D01*
X60014500Y-54977789D01*
X60014500Y-54977790D01*
X60014500Y-54977792D01*
X60014500Y-56347214D01*
X60027581Y-56412983D01*
X60027582Y-56412985D01*
X60027583Y-56412986D01*
X60077028Y-56486986D01*
X60089499Y-56528097D01*
X60089499Y-56591300D01*
X60099800Y-56616169D01*
X60102290Y-56622180D01*
X60102292Y-56678817D01*
X60062244Y-56718866D01*
X60033924Y-56724500D01*
X59789057Y-56724500D01*
X59736731Y-56702826D01*
X59583064Y-56549159D01*
X59561390Y-56496833D01*
X59573861Y-56455723D01*
X59602417Y-56412986D01*
X59615500Y-56347211D01*
X59615499Y-54977790D01*
X59615499Y-54977789D01*
X59615499Y-54977785D01*
X59602418Y-54912016D01*
X59589381Y-54892505D01*
X59552577Y-54837423D01*
X59540500Y-54829353D01*
X59477985Y-54787582D01*
X59422432Y-54776533D01*
X59412211Y-54774500D01*
X59412210Y-54774500D01*
X59217794Y-54774500D01*
X59152012Y-54787583D01*
X59106111Y-54818253D01*
X59050562Y-54829302D01*
X59023889Y-54818253D01*
X58977987Y-54787583D01*
X58940581Y-54780143D01*
X58912211Y-54774500D01*
X58912210Y-54774500D01*
X58717794Y-54774500D01*
X58652012Y-54787583D01*
X58606111Y-54818253D01*
X58550562Y-54829302D01*
X58523889Y-54818253D01*
X58477987Y-54787583D01*
X58440581Y-54780143D01*
X58412211Y-54774500D01*
X58412210Y-54774500D01*
X58217794Y-54774500D01*
X58152012Y-54787583D01*
X58106111Y-54818253D01*
X58050562Y-54829302D01*
X58023889Y-54818253D01*
X57977987Y-54787583D01*
X57940581Y-54780143D01*
X57912211Y-54774500D01*
X57912210Y-54774500D01*
X57717794Y-54774500D01*
X57652012Y-54787583D01*
X57606111Y-54818253D01*
X57550562Y-54829302D01*
X57523889Y-54818253D01*
X57477987Y-54787583D01*
X57440581Y-54780143D01*
X57412211Y-54774500D01*
X57412210Y-54774500D01*
X57217794Y-54774500D01*
X57152012Y-54787583D01*
X57106111Y-54818253D01*
X57050562Y-54829302D01*
X57023889Y-54818253D01*
X56977987Y-54787583D01*
X56940581Y-54780143D01*
X56912211Y-54774500D01*
X56912210Y-54774500D01*
X56717794Y-54774500D01*
X56652010Y-54787583D01*
X56645282Y-54790371D01*
X56644081Y-54787472D01*
X56600062Y-54796228D01*
X56552971Y-54764761D01*
X56540500Y-54723650D01*
X56540500Y-54653475D01*
X56540501Y-54653466D01*
X56540501Y-54555146D01*
X56540500Y-54555144D01*
X56538576Y-54550500D01*
X56532302Y-54535353D01*
X56512513Y-54487576D01*
X56506172Y-54472268D01*
X56506170Y-54472265D01*
X56506170Y-54472264D01*
X56442736Y-54408830D01*
X56442735Y-54408829D01*
X56438521Y-54404615D01*
X56438514Y-54404609D01*
X56267753Y-54233848D01*
X56246079Y-54181522D01*
X56260215Y-54138022D01*
X56263490Y-54133513D01*
X56263493Y-54133511D01*
X56317494Y-54027528D01*
X56336101Y-53910046D01*
X56317494Y-53792564D01*
X56263493Y-53686581D01*
X56179385Y-53602473D01*
X56096359Y-53560169D01*
X56073403Y-53548472D01*
X55955920Y-53529865D01*
X55955919Y-53529865D01*
X55836045Y-53548850D01*
X55780973Y-53535628D01*
X55751381Y-53487336D01*
X55762941Y-53434650D01*
X55777417Y-53412986D01*
X55790500Y-53347211D01*
X55790499Y-53152790D01*
X55777417Y-53087014D01*
X55746745Y-53041110D01*
X55735696Y-52985564D01*
X55746744Y-52958890D01*
X55777417Y-52912986D01*
X55790500Y-52847211D01*
X55790499Y-52652790D01*
X55777417Y-52587014D01*
X55746745Y-52541110D01*
X55735696Y-52485564D01*
X55746744Y-52458890D01*
X55777417Y-52412986D01*
X55790500Y-52347211D01*
X55790499Y-52152790D01*
X55777417Y-52087014D01*
X55746745Y-52041110D01*
X55735696Y-51985564D01*
X55746744Y-51958890D01*
X55777417Y-51912986D01*
X55790500Y-51847211D01*
X55790499Y-51652790D01*
X55777417Y-51587014D01*
X55746745Y-51541110D01*
X55735696Y-51485564D01*
X55746744Y-51458890D01*
X55777417Y-51412986D01*
X55790500Y-51347211D01*
X55790499Y-51152790D01*
X55777417Y-51087014D01*
X55746745Y-51041110D01*
X55735696Y-50985564D01*
X55746744Y-50958890D01*
X55777417Y-50912986D01*
X55790500Y-50847211D01*
X55790499Y-50652790D01*
X55777417Y-50587014D01*
X55746745Y-50541110D01*
X55735696Y-50485564D01*
X55746744Y-50458890D01*
X55777417Y-50412986D01*
X55790500Y-50347211D01*
X55790499Y-50152790D01*
X55777417Y-50087014D01*
X55777416Y-50087013D01*
X55777416Y-50087010D01*
X55774629Y-50080282D01*
X55778059Y-50078860D01*
X55769590Y-50036295D01*
X55801052Y-49989200D01*
X55856600Y-49978147D01*
X55894495Y-49998400D01*
X55923830Y-50027735D01*
X56023829Y-50127735D01*
X56023830Y-50127736D01*
X56087264Y-50191170D01*
X56170145Y-50225500D01*
X57570145Y-50225500D01*
X58078810Y-50225500D01*
X58131136Y-50247174D01*
X58191535Y-50307573D01*
X58297518Y-50361574D01*
X58415000Y-50380181D01*
X58532482Y-50361574D01*
X58638465Y-50307573D01*
X58722573Y-50223465D01*
X58776574Y-50117482D01*
X58795181Y-50000000D01*
X58776574Y-49882518D01*
X58722573Y-49776535D01*
X58638465Y-49692427D01*
X58560671Y-49652789D01*
X58532483Y-49638426D01*
X58415000Y-49619819D01*
X58297517Y-49638426D01*
X58297516Y-49638426D01*
X58191533Y-49692428D01*
X58131136Y-49752826D01*
X58078810Y-49774500D01*
X56339057Y-49774500D01*
X56286731Y-49752826D01*
X56198594Y-49664689D01*
X56176920Y-49612363D01*
X56198594Y-49560037D01*
X56217318Y-49546432D01*
X56250965Y-49529289D01*
X56335073Y-49445181D01*
X56389074Y-49339198D01*
X56407681Y-49221716D01*
X56389074Y-49104234D01*
X56335073Y-48998251D01*
X56250965Y-48914143D01*
X56180904Y-48878445D01*
X56144983Y-48860142D01*
X56027500Y-48841535D01*
X55910017Y-48860142D01*
X55910014Y-48860142D01*
X55898093Y-48866217D01*
X55841630Y-48870660D01*
X55798564Y-48833876D01*
X55790499Y-48800285D01*
X55790499Y-48747261D01*
X55812173Y-48694937D01*
X55852922Y-48674174D01*
X55932482Y-48661574D01*
X56038465Y-48607573D01*
X56098864Y-48547174D01*
X56151190Y-48525500D01*
X57536524Y-48525500D01*
X57536532Y-48525501D01*
X57545144Y-48525501D01*
X57634853Y-48525501D01*
X57634854Y-48525501D01*
X57699739Y-48498624D01*
X57717735Y-48491170D01*
X57781169Y-48427736D01*
X57781169Y-48427735D01*
X57791574Y-48417330D01*
X57791575Y-48417327D01*
X58006170Y-48202735D01*
X58006170Y-48202734D01*
X58011324Y-48197581D01*
X58012632Y-48198889D01*
X58052688Y-48172121D01*
X58108236Y-48183165D01*
X58152014Y-48212417D01*
X58217789Y-48225500D01*
X58412210Y-48225499D01*
X58477986Y-48212417D01*
X58523889Y-48181745D01*
X58579436Y-48170696D01*
X58606109Y-48181744D01*
X58652014Y-48212417D01*
X58717789Y-48225500D01*
X58912210Y-48225499D01*
X58977986Y-48212417D01*
X59023889Y-48181745D01*
X59079436Y-48170696D01*
X59106109Y-48181744D01*
X59152014Y-48212417D01*
X59217789Y-48225500D01*
X59412210Y-48225499D01*
X59477986Y-48212417D01*
X59523889Y-48181745D01*
X59579436Y-48170696D01*
X59606109Y-48181744D01*
G37*
%TD.AperFunction*%
%TA.AperFunction,Conductor*%
G36*
X61843903Y-48906776D02*
G01*
X61857516Y-48925511D01*
X61885372Y-48980180D01*
X61907427Y-49023465D01*
X61991535Y-49107573D01*
X62097518Y-49161574D01*
X62215000Y-49180181D01*
X62332482Y-49161574D01*
X62438465Y-49107573D01*
X62475409Y-49070628D01*
X62527730Y-49048954D01*
X62542169Y-49050376D01*
X62542789Y-49050500D01*
X63912210Y-49050499D01*
X63912214Y-49050499D01*
X63977983Y-49037418D01*
X63977983Y-49037417D01*
X63977986Y-49037417D01*
X64038214Y-48997174D01*
X64051988Y-48987971D01*
X64093100Y-48975500D01*
X64475814Y-48975500D01*
X64528140Y-48997174D01*
X64549814Y-49049500D01*
X64548903Y-49061075D01*
X64541539Y-49107571D01*
X64534819Y-49150000D01*
X64553426Y-49267482D01*
X64553426Y-49267483D01*
X64580941Y-49321484D01*
X64594049Y-49347210D01*
X64607428Y-49373466D01*
X64692826Y-49458864D01*
X64714500Y-49511190D01*
X64714500Y-50631755D01*
X64692826Y-50684081D01*
X64640500Y-50705755D01*
X64588174Y-50684081D01*
X64536766Y-50632673D01*
X64536766Y-50632672D01*
X64462926Y-50558832D01*
X64462924Y-50558830D01*
X64438648Y-50548774D01*
X64438646Y-50548773D01*
X64438646Y-50548772D01*
X64380043Y-50524499D01*
X64290333Y-50524499D01*
X64281721Y-50524499D01*
X64281713Y-50524500D01*
X64166350Y-50524500D01*
X64114024Y-50502826D01*
X64092350Y-50450500D01*
X64101457Y-50420477D01*
X64099628Y-50419720D01*
X64102416Y-50412987D01*
X64102415Y-50412987D01*
X64102417Y-50412986D01*
X64115500Y-50347211D01*
X64115499Y-50152790D01*
X64102417Y-50087014D01*
X64071745Y-50041110D01*
X64060696Y-49985564D01*
X64071744Y-49958890D01*
X64102417Y-49912986D01*
X64115500Y-49847211D01*
X64115499Y-49652790D01*
X64102417Y-49587014D01*
X64052577Y-49512423D01*
X64015393Y-49487577D01*
X63977985Y-49462582D01*
X63925293Y-49452102D01*
X63912211Y-49449500D01*
X63912210Y-49449500D01*
X62542785Y-49449500D01*
X62477016Y-49462581D01*
X62402423Y-49512422D01*
X62402422Y-49512423D01*
X62352582Y-49587014D01*
X62339500Y-49652789D01*
X62339500Y-49847205D01*
X62352583Y-49912987D01*
X62383253Y-49958889D01*
X62394302Y-50014438D01*
X62383253Y-50041111D01*
X62352583Y-50087012D01*
X62339500Y-50152789D01*
X62339500Y-50347205D01*
X62352583Y-50412987D01*
X62383253Y-50458889D01*
X62394302Y-50514438D01*
X62383253Y-50541111D01*
X62352583Y-50587012D01*
X62339500Y-50652789D01*
X62339500Y-50847205D01*
X62352583Y-50912987D01*
X62383253Y-50958889D01*
X62394302Y-51014438D01*
X62383253Y-51041111D01*
X62352583Y-51087012D01*
X62339500Y-51152789D01*
X62339500Y-51326943D01*
X62317826Y-51379269D01*
X62265500Y-51400943D01*
X62213174Y-51379269D01*
X62116578Y-51282673D01*
X62116578Y-51282672D01*
X62042738Y-51208832D01*
X62042736Y-51208830D01*
X62018460Y-51198774D01*
X62018458Y-51198773D01*
X62018458Y-51198772D01*
X61959855Y-51174499D01*
X61870145Y-51174499D01*
X61861533Y-51174499D01*
X61861525Y-51174500D01*
X61851190Y-51174500D01*
X61798864Y-51152826D01*
X61738466Y-51092428D01*
X61738465Y-51092427D01*
X61686484Y-51065941D01*
X61632483Y-51038426D01*
X61515000Y-51019819D01*
X61397517Y-51038426D01*
X61391977Y-51040226D01*
X61391466Y-51038655D01*
X61341621Y-51042571D01*
X61298560Y-51005781D01*
X61290500Y-50972196D01*
X61290500Y-49027803D01*
X61312174Y-48975477D01*
X61364500Y-48953803D01*
X61391788Y-48960354D01*
X61391977Y-48959774D01*
X61397514Y-48961572D01*
X61397518Y-48961574D01*
X61515000Y-48980181D01*
X61632482Y-48961574D01*
X61738465Y-48907573D01*
X61739252Y-48906785D01*
X61739942Y-48906499D01*
X61743181Y-48904147D01*
X61743745Y-48904923D01*
X61791574Y-48885107D01*
X61843903Y-48906776D01*
G37*
%TD.AperFunction*%
%TA.AperFunction,Conductor*%
G36*
X65030631Y-42840207D02*
G01*
X65050457Y-42854362D01*
X65167826Y-42971731D01*
X65189500Y-43024057D01*
X65189500Y-47897673D01*
X65167826Y-47949999D01*
X65115500Y-47971673D01*
X65081905Y-47963608D01*
X65032482Y-47938426D01*
X64915000Y-47919819D01*
X64914996Y-47919819D01*
X64898481Y-47922434D01*
X64845799Y-47910876D01*
X64842736Y-47908829D01*
X64808997Y-47894855D01*
X64759855Y-47874499D01*
X64748461Y-47874499D01*
X64696135Y-47852825D01*
X64674461Y-47800499D01*
X64696135Y-47748173D01*
X64715961Y-47734018D01*
X64732998Y-47725688D01*
X64788780Y-47698419D01*
X64875919Y-47611280D01*
X64930043Y-47500567D01*
X64940500Y-47428795D01*
X64940499Y-46921206D01*
X64935395Y-46886169D01*
X64930044Y-46849438D01*
X64930042Y-46849432D01*
X64875919Y-46738720D01*
X64788780Y-46651581D01*
X64788779Y-46651580D01*
X64678068Y-46597457D01*
X64642181Y-46592228D01*
X64606295Y-46587000D01*
X64606294Y-46587000D01*
X64023705Y-46587000D01*
X63951938Y-46597455D01*
X63951931Y-46597457D01*
X63841220Y-46651580D01*
X63754080Y-46738720D01*
X63699957Y-46849431D01*
X63699957Y-46849432D01*
X63694605Y-46886169D01*
X63665613Y-46934823D01*
X63621378Y-46949500D01*
X63614500Y-46949500D01*
X63562174Y-46927826D01*
X63540500Y-46875500D01*
X63540500Y-46105145D01*
X63540499Y-46105143D01*
X63506171Y-46022266D01*
X63506169Y-46022263D01*
X63442735Y-45958829D01*
X63337699Y-45853794D01*
X63689500Y-45853794D01*
X63699955Y-45925561D01*
X63699957Y-45925568D01*
X63754080Y-46036279D01*
X63754081Y-46036280D01*
X63841220Y-46123419D01*
X63951933Y-46177543D01*
X64023705Y-46188000D01*
X64606294Y-46187999D01*
X64678061Y-46177544D01*
X64678061Y-46177543D01*
X64678067Y-46177543D01*
X64788780Y-46123419D01*
X64875919Y-46036280D01*
X64930043Y-45925567D01*
X64940500Y-45853795D01*
X64940499Y-45346206D01*
X64930043Y-45274433D01*
X64875919Y-45163720D01*
X64788780Y-45076581D01*
X64788779Y-45076580D01*
X64678068Y-45022457D01*
X64603831Y-45011641D01*
X64555176Y-44982649D01*
X64540500Y-44938414D01*
X64540500Y-44849500D01*
X64562174Y-44797174D01*
X64614500Y-44775500D01*
X64623254Y-44775500D01*
X64623260Y-44775500D01*
X64691393Y-44765573D01*
X64796483Y-44714198D01*
X64879198Y-44631483D01*
X64930573Y-44526393D01*
X64940500Y-44458260D01*
X64940500Y-43991740D01*
X64930573Y-43923607D01*
X64879198Y-43818517D01*
X64796483Y-43735802D01*
X64796482Y-43735801D01*
X64691394Y-43684427D01*
X64623264Y-43674500D01*
X64623260Y-43674500D01*
X64006740Y-43674500D01*
X64006735Y-43674500D01*
X63938606Y-43684427D01*
X63938605Y-43684427D01*
X63833517Y-43735801D01*
X63750801Y-43818517D01*
X63699427Y-43923605D01*
X63699427Y-43923606D01*
X63689500Y-43991735D01*
X63689500Y-44458264D01*
X63699427Y-44526393D01*
X63699427Y-44526394D01*
X63750801Y-44631482D01*
X63750802Y-44631483D01*
X63833517Y-44714198D01*
X63938607Y-44765573D01*
X64006740Y-44775500D01*
X64015500Y-44775500D01*
X64067826Y-44797174D01*
X64089500Y-44849500D01*
X64089500Y-44938415D01*
X64067826Y-44990741D01*
X64026168Y-45011642D01*
X63951937Y-45022455D01*
X63951931Y-45022457D01*
X63841220Y-45076580D01*
X63754080Y-45163720D01*
X63699957Y-45274431D01*
X63699957Y-45274432D01*
X63689500Y-45346200D01*
X63689500Y-45853794D01*
X63337699Y-45853794D01*
X63266578Y-45782673D01*
X63266578Y-45782672D01*
X63192738Y-45708832D01*
X63192736Y-45708830D01*
X63171418Y-45699999D01*
X63168458Y-45698773D01*
X63168458Y-45698772D01*
X63109855Y-45674499D01*
X63020145Y-45674499D01*
X63011533Y-45674499D01*
X63011525Y-45674500D01*
X59668475Y-45674500D01*
X59668467Y-45674499D01*
X59659855Y-45674499D01*
X59570145Y-45674499D01*
X59511539Y-45698774D01*
X59511537Y-45698775D01*
X59511536Y-45698774D01*
X59487263Y-45708830D01*
X59123831Y-46072263D01*
X59123830Y-46072265D01*
X59089499Y-46155144D01*
X59089499Y-46253466D01*
X59089500Y-46253475D01*
X59089500Y-46398650D01*
X59067826Y-46450976D01*
X59015500Y-46472650D01*
X58985477Y-46463542D01*
X58984720Y-46465372D01*
X58977987Y-46462583D01*
X58940591Y-46455145D01*
X58912211Y-46449500D01*
X58912210Y-46449500D01*
X58717794Y-46449500D01*
X58644864Y-46464005D01*
X58644092Y-46460125D01*
X58601282Y-46460094D01*
X58561263Y-46420016D01*
X58561305Y-46363379D01*
X58577323Y-46339424D01*
X59371488Y-45545258D01*
X59371491Y-45545257D01*
X59381896Y-45534852D01*
X59381897Y-45534852D01*
X59452364Y-45464385D01*
X59482170Y-45392427D01*
X59490501Y-45372315D01*
X59490501Y-45272660D01*
X59490501Y-45266702D01*
X59490500Y-45266688D01*
X59490500Y-45009412D01*
X59512174Y-44957086D01*
X59672087Y-44797174D01*
X59724413Y-44775500D01*
X60123254Y-44775500D01*
X60123260Y-44775500D01*
X60191393Y-44765573D01*
X60296483Y-44714198D01*
X60379198Y-44631483D01*
X60430573Y-44526393D01*
X60440500Y-44458260D01*
X60440500Y-43991740D01*
X60430573Y-43923607D01*
X60379198Y-43818517D01*
X60362507Y-43801826D01*
X60340833Y-43749500D01*
X60362507Y-43697174D01*
X60414833Y-43675500D01*
X62094798Y-43675500D01*
X62094800Y-43675500D01*
X62196058Y-43633557D01*
X62273557Y-43556058D01*
X62273556Y-43556058D01*
X62308517Y-43521097D01*
X62308516Y-43521097D01*
X62582441Y-43247174D01*
X62634767Y-43225500D01*
X63100630Y-43225500D01*
X63100636Y-43225500D01*
X63173625Y-43214866D01*
X63286211Y-43159826D01*
X63374826Y-43071211D01*
X63429866Y-42958625D01*
X63436392Y-42913830D01*
X63465384Y-42865177D01*
X63509619Y-42850500D01*
X63640575Y-42850500D01*
X63692901Y-42872174D01*
X63707056Y-42891999D01*
X63750802Y-42981483D01*
X63833517Y-43064198D01*
X63938607Y-43115573D01*
X64006740Y-43125500D01*
X64006746Y-43125500D01*
X64623254Y-43125500D01*
X64623260Y-43125500D01*
X64691393Y-43115573D01*
X64796483Y-43064198D01*
X64879198Y-42981483D01*
X64930573Y-42876393D01*
X64930573Y-42876390D01*
X64931650Y-42874188D01*
X64974102Y-42836698D01*
X65030631Y-42840207D01*
G37*
%TD.AperFunction*%
%TD*%
M02*
