%TF.GenerationSoftware,KiCad,Pcbnew,8.0.1*%
%TF.CreationDate,2024-08-06T23:31:21+08:00*%
%TF.ProjectId,ST-Link-V2.1,53542d4c-696e-46b2-9d56-322e312e6b69,rev?*%
%TF.SameCoordinates,Original*%
%TF.FileFunction,Drillmap*%
%TF.FilePolarity,Positive*%
%FSLAX45Y45*%
G04 Gerber Fmt 4.5, Leading zero omitted, Abs format (unit mm)*
G04 Created by KiCad (PCBNEW 8.0.1) date 2024-08-06 23:31:21*
%MOMM*%
%LPD*%
G01*
G04 APERTURE LIST*
%ADD10C,0.050000*%
%ADD11C,0.200000*%
%ADD12C,0.100000*%
G04 APERTURE END LIST*
D10*
X5350000Y-6890000D02*
X6461005Y-6890000D01*
X5210000Y-3450000D02*
X5210000Y-6750000D01*
X6461005Y-3310000D02*
X5350000Y-3310000D01*
X6601005Y-6750000D02*
X6601005Y-3450000D01*
X5350000Y-6890000D02*
G75*
G02*
X5210000Y-6750000I0J140000D01*
G01*
X5210000Y-3450000D02*
G75*
G02*
X5350000Y-3310000I140000J0D01*
G01*
X6461005Y-3310000D02*
G75*
G02*
X6601005Y-3450000I0J-140000D01*
G01*
X6601005Y-6750000D02*
G75*
G02*
X6461005Y-6890000I-140000J0D01*
G01*
D11*
D12*
X5585000Y-3919500D02*
X5650000Y-3984500D01*
X5650000Y-3919500D02*
X5585000Y-3984500D01*
X6163000Y-3919500D02*
X6228000Y-3984500D01*
X6228000Y-3919500D02*
X6163000Y-3984500D01*
D11*
X5468277Y-7203984D02*
X5468277Y-7003984D01*
X5468277Y-7003984D02*
X5515896Y-7003984D01*
X5515896Y-7003984D02*
X5544467Y-7013508D01*
X5544467Y-7013508D02*
X5563515Y-7032555D01*
X5563515Y-7032555D02*
X5573039Y-7051603D01*
X5573039Y-7051603D02*
X5582563Y-7089698D01*
X5582563Y-7089698D02*
X5582563Y-7118269D01*
X5582563Y-7118269D02*
X5573039Y-7156365D01*
X5573039Y-7156365D02*
X5563515Y-7175412D01*
X5563515Y-7175412D02*
X5544467Y-7194460D01*
X5544467Y-7194460D02*
X5515896Y-7203984D01*
X5515896Y-7203984D02*
X5468277Y-7203984D01*
X5668277Y-7203984D02*
X5668277Y-7070650D01*
X5668277Y-7108746D02*
X5677801Y-7089698D01*
X5677801Y-7089698D02*
X5687324Y-7080174D01*
X5687324Y-7080174D02*
X5706372Y-7070650D01*
X5706372Y-7070650D02*
X5725420Y-7070650D01*
X5792086Y-7203984D02*
X5792086Y-7070650D01*
X5792086Y-7003984D02*
X5782562Y-7013508D01*
X5782562Y-7013508D02*
X5792086Y-7023031D01*
X5792086Y-7023031D02*
X5801610Y-7013508D01*
X5801610Y-7013508D02*
X5792086Y-7003984D01*
X5792086Y-7003984D02*
X5792086Y-7023031D01*
X5915896Y-7203984D02*
X5896848Y-7194460D01*
X5896848Y-7194460D02*
X5887324Y-7175412D01*
X5887324Y-7175412D02*
X5887324Y-7003984D01*
X6020658Y-7203984D02*
X6001610Y-7194460D01*
X6001610Y-7194460D02*
X5992086Y-7175412D01*
X5992086Y-7175412D02*
X5992086Y-7003984D01*
X6249229Y-7203984D02*
X6249229Y-7003984D01*
X6249229Y-7003984D02*
X6315896Y-7146841D01*
X6315896Y-7146841D02*
X6382562Y-7003984D01*
X6382562Y-7003984D02*
X6382562Y-7203984D01*
X6563515Y-7203984D02*
X6563515Y-7099222D01*
X6563515Y-7099222D02*
X6553991Y-7080174D01*
X6553991Y-7080174D02*
X6534943Y-7070650D01*
X6534943Y-7070650D02*
X6496848Y-7070650D01*
X6496848Y-7070650D02*
X6477801Y-7080174D01*
X6563515Y-7194460D02*
X6544467Y-7203984D01*
X6544467Y-7203984D02*
X6496848Y-7203984D01*
X6496848Y-7203984D02*
X6477801Y-7194460D01*
X6477801Y-7194460D02*
X6468277Y-7175412D01*
X6468277Y-7175412D02*
X6468277Y-7156365D01*
X6468277Y-7156365D02*
X6477801Y-7137317D01*
X6477801Y-7137317D02*
X6496848Y-7127793D01*
X6496848Y-7127793D02*
X6544467Y-7127793D01*
X6544467Y-7127793D02*
X6563515Y-7118269D01*
X6658753Y-7070650D02*
X6658753Y-7270650D01*
X6658753Y-7080174D02*
X6677801Y-7070650D01*
X6677801Y-7070650D02*
X6715896Y-7070650D01*
X6715896Y-7070650D02*
X6734943Y-7080174D01*
X6734943Y-7080174D02*
X6744467Y-7089698D01*
X6744467Y-7089698D02*
X6753991Y-7108746D01*
X6753991Y-7108746D02*
X6753991Y-7165888D01*
X6753991Y-7165888D02*
X6744467Y-7184936D01*
X6744467Y-7184936D02*
X6734943Y-7194460D01*
X6734943Y-7194460D02*
X6715896Y-7203984D01*
X6715896Y-7203984D02*
X6677801Y-7203984D01*
X6677801Y-7203984D02*
X6658753Y-7194460D01*
X6839705Y-7184936D02*
X6849229Y-7194460D01*
X6849229Y-7194460D02*
X6839705Y-7203984D01*
X6839705Y-7203984D02*
X6830182Y-7194460D01*
X6830182Y-7194460D02*
X6839705Y-7184936D01*
X6839705Y-7184936D02*
X6839705Y-7203984D01*
X6839705Y-7080174D02*
X6849229Y-7089698D01*
X6849229Y-7089698D02*
X6839705Y-7099222D01*
X6839705Y-7099222D02*
X6830182Y-7089698D01*
X6830182Y-7089698D02*
X6839705Y-7080174D01*
X6839705Y-7080174D02*
X6839705Y-7099222D01*
D12*
X5142500Y-7500000D02*
X5207500Y-7565000D01*
X5207500Y-7500000D02*
X5142500Y-7565000D01*
D11*
X5506372Y-7423984D02*
X5525420Y-7423984D01*
X5525420Y-7423984D02*
X5544467Y-7433508D01*
X5544467Y-7433508D02*
X5553991Y-7443031D01*
X5553991Y-7443031D02*
X5563515Y-7462079D01*
X5563515Y-7462079D02*
X5573039Y-7500174D01*
X5573039Y-7500174D02*
X5573039Y-7547793D01*
X5573039Y-7547793D02*
X5563515Y-7585888D01*
X5563515Y-7585888D02*
X5553991Y-7604936D01*
X5553991Y-7604936D02*
X5544467Y-7614460D01*
X5544467Y-7614460D02*
X5525420Y-7623984D01*
X5525420Y-7623984D02*
X5506372Y-7623984D01*
X5506372Y-7623984D02*
X5487324Y-7614460D01*
X5487324Y-7614460D02*
X5477801Y-7604936D01*
X5477801Y-7604936D02*
X5468277Y-7585888D01*
X5468277Y-7585888D02*
X5458753Y-7547793D01*
X5458753Y-7547793D02*
X5458753Y-7500174D01*
X5458753Y-7500174D02*
X5468277Y-7462079D01*
X5468277Y-7462079D02*
X5477801Y-7443031D01*
X5477801Y-7443031D02*
X5487324Y-7433508D01*
X5487324Y-7433508D02*
X5506372Y-7423984D01*
X5658753Y-7604936D02*
X5668277Y-7614460D01*
X5668277Y-7614460D02*
X5658753Y-7623984D01*
X5658753Y-7623984D02*
X5649229Y-7614460D01*
X5649229Y-7614460D02*
X5658753Y-7604936D01*
X5658753Y-7604936D02*
X5658753Y-7623984D01*
X5839705Y-7423984D02*
X5801610Y-7423984D01*
X5801610Y-7423984D02*
X5782562Y-7433508D01*
X5782562Y-7433508D02*
X5773039Y-7443031D01*
X5773039Y-7443031D02*
X5753991Y-7471603D01*
X5753991Y-7471603D02*
X5744467Y-7509698D01*
X5744467Y-7509698D02*
X5744467Y-7585888D01*
X5744467Y-7585888D02*
X5753991Y-7604936D01*
X5753991Y-7604936D02*
X5763515Y-7614460D01*
X5763515Y-7614460D02*
X5782562Y-7623984D01*
X5782562Y-7623984D02*
X5820658Y-7623984D01*
X5820658Y-7623984D02*
X5839705Y-7614460D01*
X5839705Y-7614460D02*
X5849229Y-7604936D01*
X5849229Y-7604936D02*
X5858753Y-7585888D01*
X5858753Y-7585888D02*
X5858753Y-7538269D01*
X5858753Y-7538269D02*
X5849229Y-7519222D01*
X5849229Y-7519222D02*
X5839705Y-7509698D01*
X5839705Y-7509698D02*
X5820658Y-7500174D01*
X5820658Y-7500174D02*
X5782562Y-7500174D01*
X5782562Y-7500174D02*
X5763515Y-7509698D01*
X5763515Y-7509698D02*
X5753991Y-7519222D01*
X5753991Y-7519222D02*
X5744467Y-7538269D01*
X6039705Y-7423984D02*
X5944467Y-7423984D01*
X5944467Y-7423984D02*
X5934943Y-7519222D01*
X5934943Y-7519222D02*
X5944467Y-7509698D01*
X5944467Y-7509698D02*
X5963515Y-7500174D01*
X5963515Y-7500174D02*
X6011134Y-7500174D01*
X6011134Y-7500174D02*
X6030182Y-7509698D01*
X6030182Y-7509698D02*
X6039705Y-7519222D01*
X6039705Y-7519222D02*
X6049229Y-7538269D01*
X6049229Y-7538269D02*
X6049229Y-7585888D01*
X6049229Y-7585888D02*
X6039705Y-7604936D01*
X6039705Y-7604936D02*
X6030182Y-7614460D01*
X6030182Y-7614460D02*
X6011134Y-7623984D01*
X6011134Y-7623984D02*
X5963515Y-7623984D01*
X5963515Y-7623984D02*
X5944467Y-7614460D01*
X5944467Y-7614460D02*
X5934943Y-7604936D01*
X6173039Y-7423984D02*
X6192086Y-7423984D01*
X6192086Y-7423984D02*
X6211134Y-7433508D01*
X6211134Y-7433508D02*
X6220658Y-7443031D01*
X6220658Y-7443031D02*
X6230182Y-7462079D01*
X6230182Y-7462079D02*
X6239705Y-7500174D01*
X6239705Y-7500174D02*
X6239705Y-7547793D01*
X6239705Y-7547793D02*
X6230182Y-7585888D01*
X6230182Y-7585888D02*
X6220658Y-7604936D01*
X6220658Y-7604936D02*
X6211134Y-7614460D01*
X6211134Y-7614460D02*
X6192086Y-7623984D01*
X6192086Y-7623984D02*
X6173039Y-7623984D01*
X6173039Y-7623984D02*
X6153991Y-7614460D01*
X6153991Y-7614460D02*
X6144467Y-7604936D01*
X6144467Y-7604936D02*
X6134943Y-7585888D01*
X6134943Y-7585888D02*
X6125420Y-7547793D01*
X6125420Y-7547793D02*
X6125420Y-7500174D01*
X6125420Y-7500174D02*
X6134943Y-7462079D01*
X6134943Y-7462079D02*
X6144467Y-7443031D01*
X6144467Y-7443031D02*
X6153991Y-7433508D01*
X6153991Y-7433508D02*
X6173039Y-7423984D01*
X6325420Y-7623984D02*
X6325420Y-7490650D01*
X6325420Y-7509698D02*
X6334943Y-7500174D01*
X6334943Y-7500174D02*
X6353991Y-7490650D01*
X6353991Y-7490650D02*
X6382563Y-7490650D01*
X6382563Y-7490650D02*
X6401610Y-7500174D01*
X6401610Y-7500174D02*
X6411134Y-7519222D01*
X6411134Y-7519222D02*
X6411134Y-7623984D01*
X6411134Y-7519222D02*
X6420658Y-7500174D01*
X6420658Y-7500174D02*
X6439705Y-7490650D01*
X6439705Y-7490650D02*
X6468277Y-7490650D01*
X6468277Y-7490650D02*
X6487324Y-7500174D01*
X6487324Y-7500174D02*
X6496848Y-7519222D01*
X6496848Y-7519222D02*
X6496848Y-7623984D01*
X6592086Y-7623984D02*
X6592086Y-7490650D01*
X6592086Y-7509698D02*
X6601610Y-7500174D01*
X6601610Y-7500174D02*
X6620658Y-7490650D01*
X6620658Y-7490650D02*
X6649229Y-7490650D01*
X6649229Y-7490650D02*
X6668277Y-7500174D01*
X6668277Y-7500174D02*
X6677801Y-7519222D01*
X6677801Y-7519222D02*
X6677801Y-7623984D01*
X6677801Y-7519222D02*
X6687324Y-7500174D01*
X6687324Y-7500174D02*
X6706372Y-7490650D01*
X6706372Y-7490650D02*
X6734943Y-7490650D01*
X6734943Y-7490650D02*
X6753991Y-7500174D01*
X6753991Y-7500174D02*
X6763515Y-7519222D01*
X6763515Y-7519222D02*
X6763515Y-7623984D01*
X7153991Y-7414460D02*
X6982563Y-7671603D01*
X7411134Y-7423984D02*
X7430182Y-7423984D01*
X7430182Y-7423984D02*
X7449229Y-7433508D01*
X7449229Y-7433508D02*
X7458753Y-7443031D01*
X7458753Y-7443031D02*
X7468277Y-7462079D01*
X7468277Y-7462079D02*
X7477801Y-7500174D01*
X7477801Y-7500174D02*
X7477801Y-7547793D01*
X7477801Y-7547793D02*
X7468277Y-7585888D01*
X7468277Y-7585888D02*
X7458753Y-7604936D01*
X7458753Y-7604936D02*
X7449229Y-7614460D01*
X7449229Y-7614460D02*
X7430182Y-7623984D01*
X7430182Y-7623984D02*
X7411134Y-7623984D01*
X7411134Y-7623984D02*
X7392086Y-7614460D01*
X7392086Y-7614460D02*
X7382563Y-7604936D01*
X7382563Y-7604936D02*
X7373039Y-7585888D01*
X7373039Y-7585888D02*
X7363515Y-7547793D01*
X7363515Y-7547793D02*
X7363515Y-7500174D01*
X7363515Y-7500174D02*
X7373039Y-7462079D01*
X7373039Y-7462079D02*
X7382563Y-7443031D01*
X7382563Y-7443031D02*
X7392086Y-7433508D01*
X7392086Y-7433508D02*
X7411134Y-7423984D01*
X7563515Y-7604936D02*
X7573039Y-7614460D01*
X7573039Y-7614460D02*
X7563515Y-7623984D01*
X7563515Y-7623984D02*
X7553991Y-7614460D01*
X7553991Y-7614460D02*
X7563515Y-7604936D01*
X7563515Y-7604936D02*
X7563515Y-7623984D01*
X7696848Y-7423984D02*
X7715896Y-7423984D01*
X7715896Y-7423984D02*
X7734944Y-7433508D01*
X7734944Y-7433508D02*
X7744467Y-7443031D01*
X7744467Y-7443031D02*
X7753991Y-7462079D01*
X7753991Y-7462079D02*
X7763515Y-7500174D01*
X7763515Y-7500174D02*
X7763515Y-7547793D01*
X7763515Y-7547793D02*
X7753991Y-7585888D01*
X7753991Y-7585888D02*
X7744467Y-7604936D01*
X7744467Y-7604936D02*
X7734944Y-7614460D01*
X7734944Y-7614460D02*
X7715896Y-7623984D01*
X7715896Y-7623984D02*
X7696848Y-7623984D01*
X7696848Y-7623984D02*
X7677801Y-7614460D01*
X7677801Y-7614460D02*
X7668277Y-7604936D01*
X7668277Y-7604936D02*
X7658753Y-7585888D01*
X7658753Y-7585888D02*
X7649229Y-7547793D01*
X7649229Y-7547793D02*
X7649229Y-7500174D01*
X7649229Y-7500174D02*
X7658753Y-7462079D01*
X7658753Y-7462079D02*
X7668277Y-7443031D01*
X7668277Y-7443031D02*
X7677801Y-7433508D01*
X7677801Y-7433508D02*
X7696848Y-7423984D01*
X7839706Y-7443031D02*
X7849229Y-7433508D01*
X7849229Y-7433508D02*
X7868277Y-7423984D01*
X7868277Y-7423984D02*
X7915896Y-7423984D01*
X7915896Y-7423984D02*
X7934944Y-7433508D01*
X7934944Y-7433508D02*
X7944467Y-7443031D01*
X7944467Y-7443031D02*
X7953991Y-7462079D01*
X7953991Y-7462079D02*
X7953991Y-7481127D01*
X7953991Y-7481127D02*
X7944467Y-7509698D01*
X7944467Y-7509698D02*
X7830182Y-7623984D01*
X7830182Y-7623984D02*
X7953991Y-7623984D01*
X8134944Y-7423984D02*
X8039706Y-7423984D01*
X8039706Y-7423984D02*
X8030182Y-7519222D01*
X8030182Y-7519222D02*
X8039706Y-7509698D01*
X8039706Y-7509698D02*
X8058753Y-7500174D01*
X8058753Y-7500174D02*
X8106372Y-7500174D01*
X8106372Y-7500174D02*
X8125420Y-7509698D01*
X8125420Y-7509698D02*
X8134944Y-7519222D01*
X8134944Y-7519222D02*
X8144467Y-7538269D01*
X8144467Y-7538269D02*
X8144467Y-7585888D01*
X8144467Y-7585888D02*
X8134944Y-7604936D01*
X8134944Y-7604936D02*
X8125420Y-7614460D01*
X8125420Y-7614460D02*
X8106372Y-7623984D01*
X8106372Y-7623984D02*
X8058753Y-7623984D01*
X8058753Y-7623984D02*
X8039706Y-7614460D01*
X8039706Y-7614460D02*
X8030182Y-7604936D01*
X8315896Y-7423984D02*
X8277801Y-7423984D01*
X8277801Y-7423984D02*
X8258753Y-7433508D01*
X8258753Y-7433508D02*
X8249229Y-7443031D01*
X8249229Y-7443031D02*
X8230182Y-7471603D01*
X8230182Y-7471603D02*
X8220658Y-7509698D01*
X8220658Y-7509698D02*
X8220658Y-7585888D01*
X8220658Y-7585888D02*
X8230182Y-7604936D01*
X8230182Y-7604936D02*
X8239706Y-7614460D01*
X8239706Y-7614460D02*
X8258753Y-7623984D01*
X8258753Y-7623984D02*
X8296848Y-7623984D01*
X8296848Y-7623984D02*
X8315896Y-7614460D01*
X8315896Y-7614460D02*
X8325420Y-7604936D01*
X8325420Y-7604936D02*
X8334944Y-7585888D01*
X8334944Y-7585888D02*
X8334944Y-7538269D01*
X8334944Y-7538269D02*
X8325420Y-7519222D01*
X8325420Y-7519222D02*
X8315896Y-7509698D01*
X8315896Y-7509698D02*
X8296848Y-7500174D01*
X8296848Y-7500174D02*
X8258753Y-7500174D01*
X8258753Y-7500174D02*
X8239706Y-7509698D01*
X8239706Y-7509698D02*
X8230182Y-7519222D01*
X8230182Y-7519222D02*
X8220658Y-7538269D01*
X8411134Y-7423984D02*
X8411134Y-7462079D01*
X8487325Y-7423984D02*
X8487325Y-7462079D01*
X8782563Y-7700174D02*
X8773039Y-7690650D01*
X8773039Y-7690650D02*
X8753991Y-7662079D01*
X8753991Y-7662079D02*
X8744468Y-7643031D01*
X8744468Y-7643031D02*
X8734944Y-7614460D01*
X8734944Y-7614460D02*
X8725420Y-7566841D01*
X8725420Y-7566841D02*
X8725420Y-7528746D01*
X8725420Y-7528746D02*
X8734944Y-7481127D01*
X8734944Y-7481127D02*
X8744468Y-7452555D01*
X8744468Y-7452555D02*
X8753991Y-7433508D01*
X8753991Y-7433508D02*
X8773039Y-7404936D01*
X8773039Y-7404936D02*
X8782563Y-7395412D01*
X8849230Y-7443031D02*
X8858753Y-7433508D01*
X8858753Y-7433508D02*
X8877801Y-7423984D01*
X8877801Y-7423984D02*
X8925420Y-7423984D01*
X8925420Y-7423984D02*
X8944468Y-7433508D01*
X8944468Y-7433508D02*
X8953991Y-7443031D01*
X8953991Y-7443031D02*
X8963515Y-7462079D01*
X8963515Y-7462079D02*
X8963515Y-7481127D01*
X8963515Y-7481127D02*
X8953991Y-7509698D01*
X8953991Y-7509698D02*
X8839706Y-7623984D01*
X8839706Y-7623984D02*
X8963515Y-7623984D01*
X9201611Y-7623984D02*
X9201611Y-7423984D01*
X9287325Y-7623984D02*
X9287325Y-7519222D01*
X9287325Y-7519222D02*
X9277801Y-7500174D01*
X9277801Y-7500174D02*
X9258753Y-7490650D01*
X9258753Y-7490650D02*
X9230182Y-7490650D01*
X9230182Y-7490650D02*
X9211134Y-7500174D01*
X9211134Y-7500174D02*
X9201611Y-7509698D01*
X9411134Y-7623984D02*
X9392087Y-7614460D01*
X9392087Y-7614460D02*
X9382563Y-7604936D01*
X9382563Y-7604936D02*
X9373039Y-7585888D01*
X9373039Y-7585888D02*
X9373039Y-7528746D01*
X9373039Y-7528746D02*
X9382563Y-7509698D01*
X9382563Y-7509698D02*
X9392087Y-7500174D01*
X9392087Y-7500174D02*
X9411134Y-7490650D01*
X9411134Y-7490650D02*
X9439706Y-7490650D01*
X9439706Y-7490650D02*
X9458753Y-7500174D01*
X9458753Y-7500174D02*
X9468277Y-7509698D01*
X9468277Y-7509698D02*
X9477801Y-7528746D01*
X9477801Y-7528746D02*
X9477801Y-7585888D01*
X9477801Y-7585888D02*
X9468277Y-7604936D01*
X9468277Y-7604936D02*
X9458753Y-7614460D01*
X9458753Y-7614460D02*
X9439706Y-7623984D01*
X9439706Y-7623984D02*
X9411134Y-7623984D01*
X9592087Y-7623984D02*
X9573039Y-7614460D01*
X9573039Y-7614460D02*
X9563515Y-7595412D01*
X9563515Y-7595412D02*
X9563515Y-7423984D01*
X9744468Y-7614460D02*
X9725420Y-7623984D01*
X9725420Y-7623984D02*
X9687325Y-7623984D01*
X9687325Y-7623984D02*
X9668277Y-7614460D01*
X9668277Y-7614460D02*
X9658753Y-7595412D01*
X9658753Y-7595412D02*
X9658753Y-7519222D01*
X9658753Y-7519222D02*
X9668277Y-7500174D01*
X9668277Y-7500174D02*
X9687325Y-7490650D01*
X9687325Y-7490650D02*
X9725420Y-7490650D01*
X9725420Y-7490650D02*
X9744468Y-7500174D01*
X9744468Y-7500174D02*
X9753992Y-7519222D01*
X9753992Y-7519222D02*
X9753992Y-7538269D01*
X9753992Y-7538269D02*
X9658753Y-7557317D01*
X9830182Y-7614460D02*
X9849230Y-7623984D01*
X9849230Y-7623984D02*
X9887325Y-7623984D01*
X9887325Y-7623984D02*
X9906373Y-7614460D01*
X9906373Y-7614460D02*
X9915896Y-7595412D01*
X9915896Y-7595412D02*
X9915896Y-7585888D01*
X9915896Y-7585888D02*
X9906373Y-7566841D01*
X9906373Y-7566841D02*
X9887325Y-7557317D01*
X9887325Y-7557317D02*
X9858753Y-7557317D01*
X9858753Y-7557317D02*
X9839706Y-7547793D01*
X9839706Y-7547793D02*
X9830182Y-7528746D01*
X9830182Y-7528746D02*
X9830182Y-7519222D01*
X9830182Y-7519222D02*
X9839706Y-7500174D01*
X9839706Y-7500174D02*
X9858753Y-7490650D01*
X9858753Y-7490650D02*
X9887325Y-7490650D01*
X9887325Y-7490650D02*
X9906373Y-7500174D01*
X9982563Y-7700174D02*
X9992087Y-7690650D01*
X9992087Y-7690650D02*
X10011134Y-7662079D01*
X10011134Y-7662079D02*
X10020658Y-7643031D01*
X10020658Y-7643031D02*
X10030182Y-7614460D01*
X10030182Y-7614460D02*
X10039706Y-7566841D01*
X10039706Y-7566841D02*
X10039706Y-7528746D01*
X10039706Y-7528746D02*
X10030182Y-7481127D01*
X10030182Y-7481127D02*
X10020658Y-7452555D01*
X10020658Y-7452555D02*
X10011134Y-7433508D01*
X10011134Y-7433508D02*
X9992087Y-7404936D01*
X9992087Y-7404936D02*
X9982563Y-7395412D01*
X10344468Y-7700174D02*
X10334944Y-7690650D01*
X10334944Y-7690650D02*
X10315896Y-7662079D01*
X10315896Y-7662079D02*
X10306373Y-7643031D01*
X10306373Y-7643031D02*
X10296849Y-7614460D01*
X10296849Y-7614460D02*
X10287325Y-7566841D01*
X10287325Y-7566841D02*
X10287325Y-7528746D01*
X10287325Y-7528746D02*
X10296849Y-7481127D01*
X10296849Y-7481127D02*
X10306373Y-7452555D01*
X10306373Y-7452555D02*
X10315896Y-7433508D01*
X10315896Y-7433508D02*
X10334944Y-7404936D01*
X10334944Y-7404936D02*
X10344468Y-7395412D01*
X10420658Y-7490650D02*
X10420658Y-7623984D01*
X10420658Y-7509698D02*
X10430182Y-7500174D01*
X10430182Y-7500174D02*
X10449230Y-7490650D01*
X10449230Y-7490650D02*
X10477801Y-7490650D01*
X10477801Y-7490650D02*
X10496849Y-7500174D01*
X10496849Y-7500174D02*
X10506373Y-7519222D01*
X10506373Y-7519222D02*
X10506373Y-7623984D01*
X10630182Y-7623984D02*
X10611134Y-7614460D01*
X10611134Y-7614460D02*
X10601611Y-7604936D01*
X10601611Y-7604936D02*
X10592087Y-7585888D01*
X10592087Y-7585888D02*
X10592087Y-7528746D01*
X10592087Y-7528746D02*
X10601611Y-7509698D01*
X10601611Y-7509698D02*
X10611134Y-7500174D01*
X10611134Y-7500174D02*
X10630182Y-7490650D01*
X10630182Y-7490650D02*
X10658754Y-7490650D01*
X10658754Y-7490650D02*
X10677801Y-7500174D01*
X10677801Y-7500174D02*
X10687325Y-7509698D01*
X10687325Y-7509698D02*
X10696849Y-7528746D01*
X10696849Y-7528746D02*
X10696849Y-7585888D01*
X10696849Y-7585888D02*
X10687325Y-7604936D01*
X10687325Y-7604936D02*
X10677801Y-7614460D01*
X10677801Y-7614460D02*
X10658754Y-7623984D01*
X10658754Y-7623984D02*
X10630182Y-7623984D01*
X10753992Y-7490650D02*
X10830182Y-7490650D01*
X10782563Y-7423984D02*
X10782563Y-7595412D01*
X10782563Y-7595412D02*
X10792087Y-7614460D01*
X10792087Y-7614460D02*
X10811134Y-7623984D01*
X10811134Y-7623984D02*
X10830182Y-7623984D01*
X11049230Y-7490650D02*
X11049230Y-7690650D01*
X11049230Y-7500174D02*
X11068277Y-7490650D01*
X11068277Y-7490650D02*
X11106373Y-7490650D01*
X11106373Y-7490650D02*
X11125420Y-7500174D01*
X11125420Y-7500174D02*
X11134944Y-7509698D01*
X11134944Y-7509698D02*
X11144468Y-7528746D01*
X11144468Y-7528746D02*
X11144468Y-7585888D01*
X11144468Y-7585888D02*
X11134944Y-7604936D01*
X11134944Y-7604936D02*
X11125420Y-7614460D01*
X11125420Y-7614460D02*
X11106373Y-7623984D01*
X11106373Y-7623984D02*
X11068277Y-7623984D01*
X11068277Y-7623984D02*
X11049230Y-7614460D01*
X11258753Y-7623984D02*
X11239706Y-7614460D01*
X11239706Y-7614460D02*
X11230182Y-7595412D01*
X11230182Y-7595412D02*
X11230182Y-7423984D01*
X11420658Y-7623984D02*
X11420658Y-7519222D01*
X11420658Y-7519222D02*
X11411134Y-7500174D01*
X11411134Y-7500174D02*
X11392087Y-7490650D01*
X11392087Y-7490650D02*
X11353992Y-7490650D01*
X11353992Y-7490650D02*
X11334944Y-7500174D01*
X11420658Y-7614460D02*
X11401611Y-7623984D01*
X11401611Y-7623984D02*
X11353992Y-7623984D01*
X11353992Y-7623984D02*
X11334944Y-7614460D01*
X11334944Y-7614460D02*
X11325420Y-7595412D01*
X11325420Y-7595412D02*
X11325420Y-7576365D01*
X11325420Y-7576365D02*
X11334944Y-7557317D01*
X11334944Y-7557317D02*
X11353992Y-7547793D01*
X11353992Y-7547793D02*
X11401611Y-7547793D01*
X11401611Y-7547793D02*
X11420658Y-7538269D01*
X11487325Y-7490650D02*
X11563515Y-7490650D01*
X11515896Y-7423984D02*
X11515896Y-7595412D01*
X11515896Y-7595412D02*
X11525420Y-7614460D01*
X11525420Y-7614460D02*
X11544468Y-7623984D01*
X11544468Y-7623984D02*
X11563515Y-7623984D01*
X11706373Y-7614460D02*
X11687325Y-7623984D01*
X11687325Y-7623984D02*
X11649230Y-7623984D01*
X11649230Y-7623984D02*
X11630182Y-7614460D01*
X11630182Y-7614460D02*
X11620658Y-7595412D01*
X11620658Y-7595412D02*
X11620658Y-7519222D01*
X11620658Y-7519222D02*
X11630182Y-7500174D01*
X11630182Y-7500174D02*
X11649230Y-7490650D01*
X11649230Y-7490650D02*
X11687325Y-7490650D01*
X11687325Y-7490650D02*
X11706373Y-7500174D01*
X11706373Y-7500174D02*
X11715896Y-7519222D01*
X11715896Y-7519222D02*
X11715896Y-7538269D01*
X11715896Y-7538269D02*
X11620658Y-7557317D01*
X11887325Y-7623984D02*
X11887325Y-7423984D01*
X11887325Y-7614460D02*
X11868277Y-7623984D01*
X11868277Y-7623984D02*
X11830182Y-7623984D01*
X11830182Y-7623984D02*
X11811134Y-7614460D01*
X11811134Y-7614460D02*
X11801611Y-7604936D01*
X11801611Y-7604936D02*
X11792087Y-7585888D01*
X11792087Y-7585888D02*
X11792087Y-7528746D01*
X11792087Y-7528746D02*
X11801611Y-7509698D01*
X11801611Y-7509698D02*
X11811134Y-7500174D01*
X11811134Y-7500174D02*
X11830182Y-7490650D01*
X11830182Y-7490650D02*
X11868277Y-7490650D01*
X11868277Y-7490650D02*
X11887325Y-7500174D01*
X11963515Y-7700174D02*
X11973039Y-7690650D01*
X11973039Y-7690650D02*
X11992087Y-7662079D01*
X11992087Y-7662079D02*
X12001611Y-7643031D01*
X12001611Y-7643031D02*
X12011134Y-7614460D01*
X12011134Y-7614460D02*
X12020658Y-7566841D01*
X12020658Y-7566841D02*
X12020658Y-7528746D01*
X12020658Y-7528746D02*
X12011134Y-7481127D01*
X12011134Y-7481127D02*
X12001611Y-7452555D01*
X12001611Y-7452555D02*
X11992087Y-7433508D01*
X11992087Y-7433508D02*
X11973039Y-7404936D01*
X11973039Y-7404936D02*
X11963515Y-7395412D01*
M02*
