M48
; DRILL file {KiCad 8.0.1} date 2024-08-06T23:31:21+0800
; FORMAT={-:-/ absolute / inch / decimal}
; #@! TF.CreationDate,2024-08-06T23:31:21+08:00
; #@! TF.GenerationSoftware,Kicad,Pcbnew,8.0.1
; #@! TF.FileFunction,Plated,1,2,PTH
FMAT,2
INCH
; #@! TA.AperFunction,Plated,PTH,ViaDrill
T1C0.0098
; #@! TA.AperFunction,Plated,PTH,ComponentDrill
T2C0.0236
%
G90
G05
T1
X2.1148Y-2.1654
X2.122Y-1.9173
X2.1502Y-1.7077
X2.1778Y-2.6102
X2.1778Y-2.6365
X2.1778Y-2.6627
X2.1778Y-2.689
X2.1969Y-1.7795
X2.1969Y-1.7992
X2.1969Y-1.8189
X2.1974Y-1.9016
X2.2014Y-1.8661
X2.203Y-2.1224
X2.2058Y-1.9379
X2.2329Y-1.6417
X2.2598Y-1.7992
X2.2722Y-2.6102
X2.2722Y-2.6365
X2.2722Y-2.6627
X2.2722Y-2.689
X2.2756Y-2.3661
X2.2992Y-2.3661
X2.2998Y-1.9685
X2.3234Y-2.3858
X2.3274Y-2.1457
X2.3465Y-2.3661
X2.3664Y-1.9124
X2.3701Y-2.3661
X2.3833Y-2.042
X2.3864Y-2.0866
X2.3864Y-2.4094
X2.3864Y-2.4291
X2.4219Y-1.9134
X2.4219Y-2.0236
X2.4282Y-2.2285
X2.4409Y-1.6457
X2.4442Y-1.7717
X2.4455Y-2.0787
X2.4494Y-1.9213
X2.4573Y-2.185
X2.4685Y-2.311
X2.4704Y-1.7717
X2.4921Y-2.3976
X2.4921Y-2.4213
X2.4961Y-2.311
X2.4967Y-1.7717
X2.5157Y-2.3976
X2.5311Y-2.0185
X2.536Y-1.9567
X2.536Y-1.9764
X2.5439Y-2.3819
X2.5557Y-1.9016
X2.5557Y-1.935
X2.563Y-2.3071
X2.5636Y-2.2283
X2.5754Y-2.0157
T2
G00X2.1553Y-1.4228
M15
G01X2.1553Y-1.3992
M16
G05
G00X2.1553Y-1.5972
M15
G01X2.1553Y-1.5539
M16
G05
G00X2.4955Y-1.4228
M15
G01X2.4955Y-1.3992
M16
G05
G00X2.4955Y-1.5972
M15
G01X2.4955Y-1.5539
M16
G05
M30
